G04*
G04 #@! TF.GenerationSoftware,Altium Limited,Altium Designer,25.8.1 (18)*
G04*
G04 Layer_Color=32896*
%FSLAX26Y26*%
%MOIN*%
G70*
G04*
G04 #@! TF.SameCoordinates,AB66D781-FBCB-4B57-8275-DC7DE2197C71*
G04*
G04*
G04 #@! TF.FilePolarity,Positive*
G04*
G01*
G75*
%ADD13C,0.007874*%
%ADD14C,0.006000*%
%ADD15C,0.005000*%
%ADD16C,0.010000*%
%ADD17C,0.003000*%
%ADD49C,0.003937*%
%ADD50C,0.005906*%
G36*
X427268Y223500D02*
X427268Y208500D01*
X417268Y208500D01*
X417268Y223500D01*
X427268Y223500D01*
X427268Y223500D02*
G37*
G36*
X559268Y254996D02*
X559268Y239996D01*
X569268Y239996D01*
X569268Y254996D01*
X559268Y254996D01*
X559268Y254996D02*
G37*
D13*
X365354Y115525D02*
X365354Y149491D01*
X320866Y115525D02*
X320866Y149491D01*
X579368Y63835D02*
X613334Y63835D01*
X579368Y108323D02*
X613334Y108323D01*
X373202Y108323D02*
X407168Y108323D01*
X373202Y63835D02*
X407168Y63835D01*
X665669Y115525D02*
X665669Y149491D01*
X621181Y115525D02*
X621181Y149491D01*
X133331Y103559D02*
X174669Y103559D01*
X133331Y48441D02*
X174669Y48441D01*
X191323Y334110D02*
X241421Y334110D01*
X191323Y387260D02*
X241421Y387260D01*
X-18780Y698284D02*
X-18780Y743559D01*
D14*
X559268Y260958D02*
X559268Y282000D01*
X427268Y260958D02*
X427268Y282000D01*
X427268Y150000D02*
X427268Y171042D01*
X559268Y150000D02*
X559268Y171042D01*
D15*
X673542Y1315865D02*
X673542Y1289155D01*
X665107Y1297590D02*
X687600Y1297590D01*
X672136Y1318677D01*
X672136Y1289155D01*
X677759Y1289155D02*
X667919Y1289155D01*
X658219Y1318677D02*
X639944Y1289155D01*
X656813Y1318677D02*
X638538Y1289155D01*
X638538Y1318677D02*
X658219Y1289155D01*
X661031Y1318677D02*
X652596Y1318677D01*
X644161Y1318677D02*
X635727Y1318677D01*
X661031Y1289155D02*
X652596Y1289155D01*
X644161Y1289155D02*
X635727Y1289155D01*
X617873Y1315865D02*
X617873Y1289155D01*
X609439Y1297590D02*
X631931Y1297590D01*
X616468Y1318677D01*
X616468Y1289155D01*
X622091Y1289155D02*
X612250Y1289155D01*
X574576Y1318677D02*
X574576Y1289155D01*
X573170Y1318677D02*
X573170Y1289155D01*
X578793Y1318677D02*
X561924Y1318677D01*
X557706Y1317271D01*
X556301Y1315865D01*
X554895Y1313053D01*
X554895Y1308836D01*
X556301Y1306024D01*
X557706Y1304619D01*
X561924Y1303213D01*
X573170Y1303213D01*
X561924Y1318677D02*
X559112Y1317271D01*
X557706Y1315865D01*
X556301Y1313053D01*
X556301Y1308836D01*
X557706Y1306024D01*
X559112Y1304619D01*
X561924Y1303213D01*
X578793Y1289155D02*
X568953Y1289155D01*
X548147Y1306024D02*
X548147Y1304619D01*
X549553Y1304619D01*
X549553Y1306024D01*
X548147Y1307430D01*
X545336Y1308836D01*
X539712Y1308836D01*
X536901Y1307430D01*
X535495Y1306024D01*
X534089Y1303213D01*
X534089Y1293372D01*
X532684Y1290561D01*
X531278Y1289155D01*
X535495Y1306024D02*
X535495Y1293372D01*
X534089Y1290561D01*
X531278Y1289155D01*
X529872Y1289155D01*
X535495Y1303213D02*
X536901Y1301807D01*
X545336Y1300401D01*
X549553Y1298996D01*
X550959Y1296184D01*
X550959Y1293372D01*
X549553Y1290561D01*
X545336Y1289155D01*
X541118Y1289155D01*
X538307Y1290561D01*
X535495Y1293372D01*
X545336Y1300401D02*
X548147Y1298996D01*
X549553Y1296184D01*
X549553Y1293372D01*
X548147Y1290561D01*
X545336Y1289155D01*
X517220Y1289155D02*
X518626Y1290561D01*
X520032Y1294778D01*
X520032Y1318677D01*
X521437Y1318677D01*
X521437Y1294778D01*
X520032Y1290561D01*
X517220Y1289155D01*
X514409Y1289155D01*
X511597Y1290561D01*
X510191Y1293372D01*
X525655Y1308836D02*
X514409Y1308836D01*
X488542Y1304619D02*
X489948Y1303213D01*
X488542Y1301807D01*
X487136Y1303213D01*
X487136Y1304619D01*
X489948Y1307430D01*
X492760Y1308836D01*
X496977Y1308836D01*
X501194Y1307430D01*
X504006Y1304619D01*
X505411Y1300401D01*
X505411Y1297590D01*
X504006Y1293372D01*
X501194Y1290561D01*
X496977Y1289155D01*
X494165Y1289155D01*
X489948Y1290561D01*
X487136Y1293372D01*
X496977Y1308836D02*
X499788Y1307430D01*
X502600Y1304619D01*
X504006Y1300401D01*
X504006Y1297590D01*
X502600Y1293372D01*
X499788Y1290561D01*
X496977Y1289155D01*
X478421Y1318677D02*
X478421Y1289155D01*
X477015Y1318677D02*
X477015Y1289155D01*
X477015Y1304619D02*
X474203Y1307430D01*
X469986Y1308836D01*
X467174Y1308836D01*
X462957Y1307430D01*
X461551Y1304619D01*
X461551Y1289155D01*
X467174Y1308836D02*
X464363Y1307430D01*
X462957Y1304619D01*
X462957Y1289155D01*
X482638Y1318677D02*
X477015Y1318677D01*
X482638Y1289155D02*
X472798Y1289155D01*
X467174Y1289155D02*
X457334Y1289155D01*
X414317Y1318677D02*
X424158Y1289155D01*
X414317Y1318677D02*
X404477Y1289155D01*
X414317Y1314459D02*
X405883Y1289155D01*
X421346Y1297590D02*
X408694Y1297590D01*
X426969Y1289155D02*
X418535Y1289155D01*
X410100Y1289155D02*
X401665Y1289155D01*
X393652Y1308836D02*
X393652Y1289155D01*
X392247Y1308836D02*
X392247Y1289155D01*
X392247Y1300401D02*
X390841Y1304619D01*
X388029Y1307430D01*
X385218Y1308836D01*
X381000Y1308836D01*
X379595Y1307430D01*
X379595Y1306024D01*
X381000Y1304619D01*
X382406Y1306024D01*
X381000Y1307430D01*
X397870Y1308836D02*
X392247Y1308836D01*
X397870Y1289155D02*
X388029Y1289155D01*
X370879Y1308836D02*
X370879Y1289155D01*
X369473Y1308836D02*
X369473Y1289155D01*
X369473Y1300401D02*
X368067Y1304619D01*
X365256Y1307430D01*
X362444Y1308836D01*
X358227Y1308836D01*
X356821Y1307430D01*
X356821Y1306024D01*
X358227Y1304619D01*
X359633Y1306024D01*
X358227Y1307430D01*
X375096Y1308836D02*
X369473Y1308836D01*
X375096Y1289155D02*
X365256Y1289155D01*
X349511Y1306024D02*
X349511Y1304619D01*
X350917Y1304619D01*
X350917Y1306024D01*
X349511Y1307430D01*
X346700Y1308836D01*
X341076Y1308836D01*
X338265Y1307430D01*
X336859Y1306024D01*
X335453Y1303213D01*
X335453Y1293372D01*
X334048Y1290561D01*
X332642Y1289155D01*
X336859Y1306024D02*
X336859Y1293372D01*
X335453Y1290561D01*
X332642Y1289155D01*
X331236Y1289155D01*
X336859Y1303213D02*
X338265Y1301807D01*
X346700Y1300401D01*
X350917Y1298996D01*
X352323Y1296184D01*
X352323Y1293372D01*
X350917Y1290561D01*
X346700Y1289155D01*
X342482Y1289155D01*
X339671Y1290561D01*
X336859Y1293372D01*
X346700Y1300401D02*
X349511Y1298996D01*
X350917Y1296184D01*
X350917Y1293372D01*
X349511Y1290561D01*
X346700Y1289155D01*
X324207Y1308836D02*
X315772Y1289155D01*
X322801Y1308836D02*
X315772Y1291967D01*
X307338Y1308836D02*
X315772Y1289155D01*
X318584Y1283532D01*
X321396Y1280721D01*
X324207Y1279315D01*
X325613Y1279315D01*
X327019Y1280721D01*
X325613Y1282126D01*
X324207Y1280721D01*
X327019Y1308836D02*
X318584Y1308836D01*
X312961Y1308836D02*
X304526Y1308836D01*
X523265Y1261410D02*
X523265Y1231889D01*
X521859Y1261410D02*
X521859Y1231889D01*
X531699Y1261410D02*
X533105Y1252976D01*
X533105Y1261410D01*
X512019Y1261410D01*
X512019Y1252976D01*
X513424Y1261410D01*
X527482Y1231889D02*
X517642Y1231889D01*
X504990Y1261410D02*
X486714Y1231889D01*
X503584Y1261410D02*
X485309Y1231889D01*
X485309Y1261410D02*
X504990Y1231889D01*
X507801Y1261410D02*
X499366Y1261410D01*
X490932Y1261410D02*
X482497Y1261410D01*
X507801Y1231889D02*
X499366Y1231889D01*
X490932Y1231889D02*
X482497Y1231889D01*
X477296Y1255787D02*
X475890Y1254382D01*
X477296Y1252976D01*
X478702Y1254382D01*
X478702Y1255787D01*
X477296Y1258599D01*
X475890Y1260005D01*
X471673Y1261410D01*
X466050Y1261410D01*
X461832Y1260005D01*
X460426Y1258599D01*
X459021Y1255787D01*
X459021Y1252976D01*
X460426Y1250164D01*
X464644Y1247353D01*
X471673Y1244541D01*
X474484Y1243135D01*
X477296Y1240324D01*
X478702Y1236107D01*
X478702Y1231889D01*
X466050Y1261410D02*
X463238Y1260005D01*
X461832Y1258599D01*
X460426Y1255787D01*
X460426Y1252976D01*
X461832Y1250164D01*
X466050Y1247353D01*
X471673Y1244541D01*
X478702Y1234701D02*
X477296Y1236107D01*
X474484Y1236107D01*
X467455Y1233295D01*
X463238Y1233295D01*
X460426Y1234701D01*
X459021Y1236107D01*
X459021Y1238918D01*
X474484Y1236107D02*
X467455Y1231889D01*
X461832Y1231889D01*
X460426Y1233295D01*
X459021Y1236107D01*
X750726Y733657D02*
X786338Y733657D01*
X775092Y722411D02*
X775092Y752401D01*
X746977Y731783D01*
X786338Y731783D01*
X786338Y739280D02*
X786338Y726160D01*
X746977Y713227D02*
X786338Y688860D01*
X746977Y711352D02*
X786338Y686986D01*
X746977Y686986D02*
X786338Y713227D01*
X746977Y716976D02*
X746977Y705729D01*
X746977Y694483D02*
X746977Y683237D01*
X786338Y716976D02*
X786338Y705729D01*
X786338Y694483D02*
X786338Y683237D01*
X750726Y659433D02*
X786338Y659433D01*
X775092Y648186D02*
X775092Y678176D01*
X746977Y657558D01*
X786338Y657558D01*
X786338Y665056D02*
X786338Y651935D01*
X746977Y601702D02*
X786338Y601702D01*
X746977Y599828D02*
X786338Y599828D01*
X746977Y577335D02*
X786338Y577335D01*
X746977Y575461D02*
X786338Y575461D01*
X746977Y607325D02*
X746977Y594205D01*
X746977Y582958D02*
X746977Y569838D01*
X765721Y599828D02*
X765721Y577335D01*
X786338Y607325D02*
X786338Y594205D01*
X786338Y582958D02*
X786338Y569838D01*
X746977Y559529D02*
X786338Y559529D01*
X746977Y557654D02*
X780715Y546408D01*
X746977Y559529D02*
X786338Y546408D01*
X746977Y533288D02*
X786338Y546408D01*
X746977Y533288D02*
X786338Y533288D01*
X746977Y531413D02*
X786338Y531413D01*
X746977Y565152D02*
X746977Y557654D01*
X746977Y533288D02*
X746977Y525790D01*
X786338Y565152D02*
X786338Y553906D01*
X786338Y538911D02*
X786338Y525790D01*
D16*
X-185000Y1176237D02*
X-185000Y1146247D01*
X-199995Y1131252D01*
X-214990Y1146247D01*
X-214990Y1176237D01*
X-229986Y1176237D02*
X-229986Y1131252D01*
X-252478Y1131252D01*
X-259976Y1138750D01*
X-259976Y1168740D01*
X-252478Y1176237D01*
X-229986Y1176237D01*
X-274971Y1176237D02*
X-274971Y1131252D01*
X-297464Y1131252D01*
X-304961Y1138750D01*
X-304961Y1168740D01*
X-297464Y1176237D01*
X-274971Y1176237D01*
X-185000Y1071237D02*
X-185000Y1041247D01*
X-199995Y1026252D01*
X-214990Y1041247D01*
X-214990Y1071237D01*
X-259976Y1063740D02*
X-252478Y1071237D01*
X-237483Y1071237D01*
X-229986Y1063740D01*
X-229986Y1056242D01*
X-237483Y1048745D01*
X-252478Y1048745D01*
X-259976Y1041247D01*
X-259976Y1033750D01*
X-252478Y1026252D01*
X-237483Y1026252D01*
X-229986Y1033750D01*
X-304961Y1063740D02*
X-297464Y1071237D01*
X-282469Y1071237D01*
X-274971Y1063740D01*
X-274971Y1056242D01*
X-282469Y1048745D01*
X-297464Y1048745D01*
X-304961Y1041247D01*
X-304961Y1033750D01*
X-297464Y1026252D01*
X-282469Y1026252D01*
X-274971Y1033750D01*
X-259990Y866237D02*
X-230000Y866237D01*
X-230000Y821252D01*
X-259990Y821252D01*
X-230000Y843745D02*
X-244995Y843745D01*
X-274986Y821252D02*
X-274986Y866237D01*
X-304976Y821252D01*
X-304976Y866237D01*
X-214990Y963740D02*
X-207493Y971237D01*
X-192498Y971237D01*
X-185000Y963740D01*
X-185000Y933750D01*
X-192498Y926252D01*
X-207493Y926252D01*
X-214990Y933750D01*
X-214990Y948745D01*
X-199995Y948745D01*
X-229986Y926252D02*
X-229986Y971237D01*
X-259976Y926252D01*
X-259976Y971237D01*
X-274971Y971237D02*
X-274971Y926252D01*
X-297464Y926252D01*
X-304961Y933750D01*
X-304961Y963740D01*
X-297464Y971237D01*
X-274971Y971237D01*
X-219990Y763740D02*
X-212493Y771237D01*
X-197498Y771237D01*
X-190000Y763740D01*
X-190000Y733750D01*
X-197498Y726252D01*
X-212493Y726252D01*
X-219990Y733750D01*
X-219990Y748745D01*
X-204995Y748745D01*
X-234986Y726252D02*
X-234986Y771237D01*
X-264976Y726252D01*
X-264976Y771237D01*
X-279971Y771237D02*
X-279971Y726252D01*
X-302464Y726252D01*
X-309961Y733750D01*
X-309961Y763740D01*
X-302464Y771237D01*
X-279971Y771237D01*
X-219006Y162362D02*
X-211508Y169859D01*
X-196513Y169859D01*
X-189016Y162362D01*
X-189016Y132371D01*
X-196513Y124874D01*
X-211508Y124874D01*
X-219006Y132371D01*
X-219006Y147367D01*
X-204011Y147367D01*
X-234001Y124874D02*
X-234001Y169859D01*
X-263992Y124874D01*
X-263992Y169859D01*
X-278987Y169859D02*
X-278987Y124874D01*
X-301479Y124874D01*
X-308977Y132371D01*
X-308977Y162362D01*
X-301479Y169859D01*
X-278987Y169859D01*
X-214006Y362362D02*
X-206508Y369859D01*
X-191513Y369859D01*
X-184016Y362362D01*
X-184016Y332372D01*
X-191513Y324874D01*
X-206508Y324874D01*
X-214006Y332372D01*
X-214006Y347367D01*
X-199011Y347367D01*
X-229001Y324874D02*
X-229001Y369859D01*
X-258992Y324874D01*
X-258992Y369859D01*
X-273987Y369859D02*
X-273987Y324874D01*
X-296479Y324874D01*
X-303977Y332372D01*
X-303977Y362362D01*
X-296479Y369859D01*
X-273987Y369859D01*
X-179006Y257362D02*
X-171508Y264859D01*
X-156513Y264859D01*
X-149016Y257362D01*
X-149016Y227371D01*
X-156513Y219874D01*
X-171508Y219874D01*
X-179006Y227371D01*
X-194001Y264859D02*
X-223992Y264859D01*
X-208996Y264859D01*
X-208996Y219874D01*
X-238987Y219874D02*
X-238987Y264859D01*
X-261479Y264859D01*
X-268977Y257362D01*
X-268977Y242367D01*
X-261479Y234869D01*
X-238987Y234869D01*
X-253982Y234869D02*
X-268977Y219874D01*
X-283972Y264859D02*
X-283972Y219874D01*
X-313962Y219874D01*
X-229016Y464859D02*
X-229016Y434869D01*
X-244011Y419874D01*
X-259006Y434869D01*
X-259006Y464859D01*
X-303991Y419874D02*
X-274001Y419874D01*
X-303991Y449864D01*
X-303991Y457362D01*
X-296494Y464859D01*
X-281499Y464859D01*
X-274001Y457362D01*
X-244016Y569859D02*
X-244016Y539869D01*
X-259011Y524874D01*
X-274006Y539869D01*
X-274006Y569859D01*
X-289001Y524874D02*
X-303996Y524874D01*
X-296499Y524874D01*
X-296499Y569859D01*
X-289001Y562362D01*
X781197Y1353480D02*
X781197Y1413461D01*
X761203Y1393467D01*
X741210Y1413461D01*
X741210Y1353480D01*
X691226Y1353480D02*
X691226Y1413461D01*
X721216Y1383471D01*
X681229Y1383471D01*
X306257Y221765D02*
X316253Y231762D01*
X336247Y231762D01*
X346244Y221765D01*
X346244Y181778D01*
X336247Y171781D01*
X316253Y171781D01*
X306257Y181778D01*
X286263Y221765D02*
X276266Y231762D01*
X256273Y231762D01*
X246276Y221765D01*
X246276Y211768D01*
X256273Y201772D01*
X246276Y191775D01*
X246276Y181778D01*
X256273Y171781D01*
X276266Y171781D01*
X286263Y181778D01*
X286263Y191775D01*
X276266Y201772D01*
X286263Y211768D01*
X286263Y221765D01*
X276266Y201772D02*
X256273Y201772D01*
X611099Y38159D02*
X621096Y48156D01*
X641089Y48156D01*
X651086Y38159D01*
X651086Y-1828D01*
X641089Y-11825D01*
X621096Y-11825D01*
X611099Y-1828D01*
X561115Y-11825D02*
X561115Y48156D01*
X591106Y18165D01*
X551119Y18165D01*
X398382Y37175D02*
X408379Y47171D01*
X428373Y47171D01*
X438370Y37175D01*
X438370Y-2812D01*
X428373Y-12809D01*
X408379Y-12809D01*
X398382Y-2812D01*
X338402Y47171D02*
X358395Y37175D01*
X378389Y17181D01*
X378389Y-2812D01*
X368392Y-12809D01*
X348399Y-12809D01*
X338402Y-2812D01*
X338402Y7184D01*
X348399Y17181D01*
X378389Y17181D01*
X748894Y153486D02*
X758891Y163483D01*
X778885Y163483D01*
X788881Y153486D01*
X788881Y113499D01*
X778885Y103502D01*
X758891Y103502D01*
X748894Y113499D01*
X688914Y103502D02*
X728901Y103502D01*
X688914Y143489D01*
X688914Y153486D01*
X698910Y163483D01*
X718904Y163483D01*
X728901Y153486D01*
X654091Y291112D02*
X664088Y301108D01*
X684082Y301108D01*
X694078Y291112D01*
X694078Y281115D01*
X684082Y271118D01*
X664088Y271118D01*
X654091Y261121D01*
X654091Y251125D01*
X664088Y241128D01*
X684082Y241128D01*
X694078Y251125D01*
X594111Y241128D02*
X634098Y241128D01*
X594111Y281115D01*
X594111Y291112D01*
X604107Y301108D01*
X624101Y301108D01*
X634098Y291112D01*
X81937Y25340D02*
X81937Y85321D01*
X51946Y85321D01*
X41950Y75324D01*
X41950Y55331D01*
X51946Y45334D01*
X81937Y45334D01*
X61943Y45334D02*
X41950Y25340D01*
X-8034Y25340D02*
X-8034Y85321D01*
X21956Y55331D01*
X-18031Y55331D01*
X67622Y508844D02*
X67622Y568825D01*
X37631Y568825D01*
X27634Y558828D01*
X27634Y538835D01*
X37631Y528838D01*
X67622Y528838D01*
X47628Y528838D02*
X27634Y508844D01*
X7641Y558828D02*
X-2356Y568825D01*
X-22349Y568825D01*
X-32346Y558828D01*
X-32346Y548831D01*
X-22349Y538835D01*
X-12352Y538835D01*
X-22349Y538835D01*
X-32346Y528838D01*
X-32346Y518841D01*
X-22349Y508844D01*
X-2356Y508844D01*
X7641Y518841D01*
X365929Y283002D02*
X365929Y342982D01*
X335938Y342982D01*
X325942Y332986D01*
X325942Y312992D01*
X335938Y302995D01*
X365929Y302995D01*
X345935Y302995D02*
X325942Y283002D01*
X265961Y283002D02*
X305948Y283002D01*
X265961Y322989D01*
X265961Y332986D01*
X275958Y342982D01*
X295951Y342982D01*
X305948Y332986D01*
X-771854Y1310888D02*
X-751860Y1310888D01*
X-761857Y1310888D01*
X-761857Y1260904D01*
X-751860Y1250907D01*
X-741863Y1250907D01*
X-731867Y1260904D01*
X-791847Y1300891D02*
X-801844Y1310888D01*
X-821837Y1310888D01*
X-831834Y1300891D01*
X-831834Y1290894D01*
X-821837Y1280898D01*
X-811841Y1280898D01*
X-821837Y1280898D01*
X-831834Y1270901D01*
X-831834Y1260904D01*
X-821837Y1250907D01*
X-801844Y1250907D01*
X-791847Y1260904D01*
X-756106Y34313D02*
X-736112Y34313D01*
X-746109Y34313D01*
X-746109Y-15671D01*
X-736112Y-25668D01*
X-726115Y-25668D01*
X-716119Y-15671D01*
X-816086Y-25668D02*
X-776099Y-25668D01*
X-816086Y14320D01*
X-816086Y24316D01*
X-806090Y34313D01*
X-786096Y34313D01*
X-776099Y24316D01*
X23210Y897461D02*
X43203Y897461D01*
X33207Y897461D01*
X33207Y847477D01*
X43203Y837480D01*
X53200Y837480D01*
X63197Y847477D01*
X3216Y837480D02*
X-16777Y837480D01*
X-6780Y837480D01*
X-6780Y897461D01*
X3216Y887464D01*
X39831Y157253D02*
X49828Y167250D01*
X69821Y167250D01*
X79818Y157253D01*
X79818Y117266D01*
X69821Y107269D01*
X49828Y107269D01*
X39831Y117266D01*
X19838Y107269D02*
X-156Y107269D01*
X9841Y107269D01*
X9841Y167250D01*
X19838Y157253D01*
X-70133Y167250D02*
X-30146Y167250D01*
X-30146Y137260D01*
X-50140Y147257D01*
X-60136Y147257D01*
X-70133Y137260D01*
X-70133Y117266D01*
X-60136Y107269D01*
X-40143Y107269D01*
X-30146Y117266D01*
X29004Y474183D02*
X39001Y484179D01*
X58995Y484179D01*
X68991Y474183D01*
X68991Y434195D01*
X58995Y424199D01*
X39001Y424199D01*
X29004Y434195D01*
X9011Y424199D02*
X-10983Y424199D01*
X-986Y424199D01*
X-986Y484179D01*
X9011Y474183D01*
X-70963Y424199D02*
X-70963Y484179D01*
X-40973Y454189D01*
X-80960Y454189D01*
X51642Y391505D02*
X61639Y401502D01*
X81632Y401502D01*
X91629Y391505D01*
X91629Y351518D01*
X81632Y341522D01*
X61639Y341522D01*
X51642Y351518D01*
X31649Y341522D02*
X11655Y341522D01*
X21652Y341522D01*
X21652Y401502D01*
X31649Y391505D01*
X-18335Y391505D02*
X-28332Y401502D01*
X-48325Y401502D01*
X-58322Y391505D01*
X-58322Y381509D01*
X-48325Y371512D01*
X-38329Y371512D01*
X-48325Y371512D01*
X-58322Y361515D01*
X-58322Y351518D01*
X-48325Y341522D01*
X-28332Y341522D01*
X-18335Y351518D01*
X358808Y495387D02*
X368804Y505384D01*
X388798Y505384D01*
X398795Y495387D01*
X398795Y455400D01*
X388798Y445403D01*
X368804Y445403D01*
X358808Y455400D01*
X338814Y445403D02*
X318820Y445403D01*
X328817Y445403D01*
X328817Y505384D01*
X338814Y495387D01*
X248843Y445403D02*
X288830Y445403D01*
X248843Y485390D01*
X248843Y495387D01*
X258840Y505384D01*
X278833Y505384D01*
X288830Y495387D01*
D17*
X551496Y105315D02*
X518173Y138638D01*
X518173Y105315D02*
X551496Y138638D01*
X534834Y105315D02*
X534834Y138638D01*
X518173Y121976D02*
X551496Y121976D01*
D49*
X-831063Y1196252D02*
X-496417Y1196252D01*
X-496417Y696252D02*
X-496417Y1196252D01*
X-831063Y696252D02*
X-496417Y696252D01*
X-831063Y696252D02*
X-831063Y1196252D01*
X-830079Y94874D02*
X-830079Y594874D01*
X-830079Y94874D02*
X-495433Y94874D01*
X-495433Y594874D01*
X-830079Y594874D02*
X-495433Y594874D01*
D50*
X121969Y475842D02*
X121969Y491591D01*
M02*
