G04*
G04 #@! TF.GenerationSoftware,Altium Limited,Altium Designer,25.8.1 (18)*
G04*
G04 Layer_Color=16711935*
%FSLAX26Y26*%
%MOIN*%
G70*
G04*
G04 #@! TF.SameCoordinates,AB66D781-FBCB-4B57-8275-DC7DE2197C71*
G04*
G04*
G04 #@! TF.FilePolarity,Negative*
G04*
G01*
G75*
%ADD21R,0.010344X0.013941*%
%ADD22R,0.013941X0.010344*%
%ADD27R,0.013000X0.010000*%
%ADD28R,0.010000X0.013000*%
%ADD29R,0.059000X0.059000*%
%ADD32C,0.050000*%
%ADD38R,0.023622X0.023622*%
%ADD40R,0.018432X0.018601*%
%ADD45R,0.041339X0.039370*%
%ADD46R,0.086614X0.041339*%
G36*
X679669Y1167811D02*
X679654Y1167818D01*
X679648Y1167833D01*
X679648Y1203266D01*
X679654Y1203281D01*
X679669Y1203287D01*
X710542Y1203287D01*
X710542Y1260331D01*
X645797Y1260331D01*
X645797Y1203287D01*
X676669Y1203287D01*
X676684Y1203281D01*
X676691Y1203266D01*
X676691Y1167833D01*
X676684Y1167818D01*
X676669Y1167811D01*
X641380Y1167811D01*
X641380Y1110767D01*
X676669Y1110767D01*
X676684Y1110761D01*
X676691Y1110746D01*
X676691Y1075313D01*
X676684Y1075298D01*
X676669Y1075292D01*
X641380Y1075292D01*
X641380Y1018248D01*
X676669Y1018248D01*
X676684Y1018241D01*
X676691Y1018226D01*
X676691Y982793D01*
X676684Y982778D01*
X676669Y982772D01*
X645797Y982772D01*
X645797Y925728D01*
X676669Y925728D01*
X676684Y925722D01*
X676691Y925707D01*
X676691Y890274D01*
X676684Y890259D01*
X676669Y890252D01*
X675850Y890252D01*
X675850Y855549D01*
X675844Y855534D01*
X675829Y855528D01*
X674750Y855528D01*
X674750Y835864D01*
X674743Y835849D01*
X674728Y835843D01*
X657021Y835843D01*
X648773Y827596D01*
X648773Y810684D01*
X657021Y802437D01*
X674728Y802437D01*
X674743Y802431D01*
X674750Y802415D01*
X674750Y772888D01*
X674743Y772873D01*
X674728Y772867D01*
X642584Y772867D01*
X634336Y764619D01*
X634336Y746321D01*
X634330Y746306D01*
X634315Y746300D01*
X598756Y746300D01*
X598741Y746306D01*
X598735Y746321D01*
X598735Y764619D01*
X590487Y772867D01*
X558342Y772867D01*
X558327Y772873D01*
X558321Y772888D01*
X558321Y855528D01*
X557242Y855528D01*
X557227Y855534D01*
X557221Y855549D01*
X557221Y890252D01*
X556402Y890252D01*
X556386Y890259D01*
X556380Y890274D01*
X556380Y925707D01*
X556386Y925722D01*
X556402Y925728D01*
X587274Y925728D01*
X587274Y982772D01*
X556402Y982772D01*
X556386Y982778D01*
X556380Y982793D01*
X556380Y1018226D01*
X556386Y1018241D01*
X556402Y1018248D01*
X591691Y1018248D01*
X591691Y1075292D01*
X556402Y1075292D01*
X556386Y1075298D01*
X556380Y1075313D01*
X556380Y1110746D01*
X556386Y1110761D01*
X556402Y1110767D01*
X591691Y1110767D01*
X591691Y1167811D01*
X556402Y1167811D01*
X556386Y1167818D01*
X556380Y1167833D01*
X556380Y1203266D01*
X556386Y1203281D01*
X556402Y1203287D01*
X587274Y1203287D01*
X587274Y1260331D01*
X522529Y1260331D01*
X522529Y1203287D01*
X553402Y1203287D01*
X553417Y1203281D01*
X553423Y1203266D01*
X553423Y1167833D01*
X553417Y1167818D01*
X553402Y1167811D01*
X518112Y1167811D01*
X518112Y1110767D01*
X553402Y1110767D01*
X553417Y1110761D01*
X553423Y1110746D01*
X553423Y1075313D01*
X553417Y1075298D01*
X553402Y1075292D01*
X518112Y1075292D01*
X518112Y1018248D01*
X553402Y1018248D01*
X553417Y1018241D01*
X553423Y1018226D01*
X553423Y982793D01*
X553417Y982778D01*
X553402Y982772D01*
X522529Y982772D01*
X522529Y925728D01*
X553402Y925728D01*
X553417Y925722D01*
X553423Y925707D01*
X553423Y890274D01*
X553417Y890259D01*
X553402Y890252D01*
X552582Y890252D01*
X552582Y855549D01*
X552576Y855534D01*
X552561Y855528D01*
X551482Y855528D01*
X551482Y774275D01*
X559729Y766027D01*
X591874Y766027D01*
X591889Y766021D01*
X591895Y766006D01*
X591895Y742880D01*
X591889Y742865D01*
X591874Y742859D01*
X588880Y742859D01*
X588880Y708460D01*
X591874Y708460D01*
X591889Y708454D01*
X591895Y708439D01*
X591895Y685313D01*
X591889Y685298D01*
X591874Y685292D01*
X559729Y685292D01*
X551482Y677044D01*
X551482Y648904D01*
X551476Y648889D01*
X551461Y648882D01*
X435075Y648882D01*
X435060Y648889D01*
X435053Y648904D01*
X435053Y677044D01*
X426806Y685292D01*
X394661Y685292D01*
X394646Y685298D01*
X394640Y685313D01*
X394640Y708439D01*
X394646Y708454D01*
X394661Y708460D01*
X397656Y708460D01*
X397656Y742859D01*
X394661Y742859D01*
X394646Y742865D01*
X394640Y742880D01*
X394640Y766006D01*
X394646Y766021D01*
X394661Y766027D01*
X426806Y766027D01*
X435053Y774275D01*
X435053Y801029D01*
X426806Y809276D01*
X409098Y809276D01*
X409083Y809282D01*
X409077Y809297D01*
X409077Y828982D01*
X409083Y828997D01*
X409098Y829004D01*
X426806Y829004D01*
X435053Y837251D01*
X435053Y855528D01*
X433974Y855528D01*
X433959Y855534D01*
X433953Y855549D01*
X433953Y890252D01*
X433134Y890252D01*
X433119Y890259D01*
X433113Y890274D01*
X433113Y925707D01*
X433119Y925722D01*
X433134Y925728D01*
X464006Y925728D01*
X464006Y982772D01*
X433134Y982772D01*
X433119Y982778D01*
X433113Y982793D01*
X433113Y1018226D01*
X433119Y1018241D01*
X433134Y1018248D01*
X468424Y1018248D01*
X468424Y1075292D01*
X433134Y1075292D01*
X433119Y1075298D01*
X433113Y1075313D01*
X433113Y1110746D01*
X433119Y1110761D01*
X433134Y1110767D01*
X468424Y1110767D01*
X468424Y1167811D01*
X433134Y1167811D01*
X433119Y1167818D01*
X433113Y1167833D01*
X433113Y1203266D01*
X433119Y1203281D01*
X433134Y1203287D01*
X464006Y1203287D01*
X464006Y1260331D01*
X399261Y1260331D01*
X399261Y1203287D01*
X430134Y1203287D01*
X430149Y1203281D01*
X430155Y1203266D01*
X430155Y1167833D01*
X430149Y1167818D01*
X430134Y1167811D01*
X394844Y1167811D01*
X394844Y1110767D01*
X430134Y1110767D01*
X430149Y1110761D01*
X430155Y1110746D01*
X430155Y1075313D01*
X430149Y1075298D01*
X430134Y1075292D01*
X394844Y1075292D01*
X394844Y1018248D01*
X430134Y1018248D01*
X430149Y1018241D01*
X430155Y1018226D01*
X430155Y982793D01*
X430149Y982778D01*
X430134Y982772D01*
X399261Y982772D01*
X399261Y925728D01*
X430134Y925728D01*
X430149Y925722D01*
X430155Y925707D01*
X430155Y890274D01*
X430149Y890259D01*
X430134Y890252D01*
X429315Y890252D01*
X429315Y855549D01*
X429308Y855534D01*
X429293Y855528D01*
X428214Y855528D01*
X428214Y835864D01*
X428208Y835849D01*
X428193Y835843D01*
X410485Y835843D01*
X402238Y827596D01*
X402238Y810684D01*
X410485Y802437D01*
X428193Y802437D01*
X428208Y802431D01*
X428214Y802415D01*
X428214Y772888D01*
X428208Y772873D01*
X428193Y772867D01*
X396048Y772867D01*
X387801Y764619D01*
X387801Y746321D01*
X387795Y746306D01*
X387779Y746300D01*
X352221Y746300D01*
X352205Y746306D01*
X352199Y746321D01*
X352199Y764619D01*
X343952Y772867D01*
X311807Y772867D01*
X311792Y772873D01*
X311786Y772888D01*
X311786Y855528D01*
X310707Y855528D01*
X310692Y855534D01*
X310685Y855549D01*
X310685Y890252D01*
X309866Y890252D01*
X309851Y890259D01*
X309845Y890274D01*
X309845Y925707D01*
X309851Y925722D01*
X309866Y925728D01*
X340738Y925728D01*
X340738Y982772D01*
X309866Y982772D01*
X309851Y982778D01*
X309845Y982793D01*
X309845Y1018226D01*
X309851Y1018241D01*
X309866Y1018248D01*
X345156Y1018248D01*
X345156Y1075292D01*
X309866Y1075292D01*
X309851Y1075298D01*
X309845Y1075313D01*
X309845Y1110746D01*
X309851Y1110761D01*
X309866Y1110767D01*
X345156Y1110767D01*
X345156Y1167811D01*
X309866Y1167811D01*
X309851Y1167818D01*
X309845Y1167833D01*
X309845Y1203266D01*
X309851Y1203281D01*
X309866Y1203287D01*
X340738Y1203287D01*
X340738Y1260331D01*
X275994Y1260331D01*
X275994Y1203287D01*
X306866Y1203287D01*
X306881Y1203281D01*
X306887Y1203266D01*
X306887Y1167833D01*
X306881Y1167818D01*
X306866Y1167811D01*
X271576Y1167811D01*
X271576Y1110767D01*
X306866Y1110767D01*
X306881Y1110761D01*
X306887Y1110746D01*
X306887Y1075313D01*
X306881Y1075298D01*
X306866Y1075292D01*
X271576Y1075292D01*
X271576Y1018248D01*
X306866Y1018248D01*
X306881Y1018241D01*
X306887Y1018226D01*
X306887Y982793D01*
X306881Y982778D01*
X306866Y982772D01*
X275994Y982772D01*
X275994Y925728D01*
X306866Y925728D01*
X306881Y925722D01*
X306887Y925707D01*
X306887Y890274D01*
X306881Y890259D01*
X306866Y890252D01*
X306047Y890252D01*
X306047Y855549D01*
X306041Y855534D01*
X306026Y855528D01*
X304947Y855528D01*
X304947Y774275D01*
X313194Y766027D01*
X345339Y766027D01*
X345354Y766021D01*
X345360Y766006D01*
X345360Y742880D01*
X345354Y742865D01*
X345339Y742859D01*
X342344Y742859D01*
X342344Y708460D01*
X345339Y708460D01*
X345354Y708454D01*
X345360Y708439D01*
X345360Y685313D01*
X345354Y685298D01*
X345339Y685292D01*
X313194Y685292D01*
X304947Y677044D01*
X304947Y655212D01*
X313194Y646964D01*
X345957Y646964D01*
X345972Y646958D01*
X345978Y646943D01*
X345978Y602829D01*
X345972Y602814D01*
X345957Y602808D01*
X313194Y602808D01*
X304947Y594560D01*
X304947Y572727D01*
X313194Y564480D01*
X345339Y564480D01*
X345354Y564474D01*
X345360Y564459D01*
X345360Y541333D01*
X345354Y541318D01*
X345339Y541311D01*
X342344Y541311D01*
X342344Y506913D01*
X345339Y506913D01*
X345354Y506907D01*
X345360Y506892D01*
X345360Y483766D01*
X345354Y483751D01*
X345339Y483745D01*
X313194Y483745D01*
X304947Y475497D01*
X304947Y467041D01*
X304940Y467026D01*
X304925Y467020D01*
X303565Y467020D01*
X303565Y433104D01*
X303558Y433089D01*
X303543Y433083D01*
X301891Y433083D01*
X301891Y399594D01*
X314841Y399594D01*
X314841Y433083D01*
X313189Y433083D01*
X313174Y433089D01*
X313168Y433104D01*
X313168Y467020D01*
X311807Y467020D01*
X311792Y467026D01*
X311786Y467041D01*
X311786Y476884D01*
X311792Y476899D01*
X311807Y476905D01*
X343952Y476905D01*
X352199Y485153D01*
X352199Y503451D01*
X352205Y503466D01*
X352221Y503472D01*
X387779Y503472D01*
X387795Y503466D01*
X387801Y503451D01*
X387801Y485153D01*
X396048Y476905D01*
X428193Y476905D01*
X428208Y476899D01*
X428214Y476884D01*
X428214Y467041D01*
X428208Y467026D01*
X428193Y467020D01*
X426832Y467020D01*
X426832Y433104D01*
X426826Y433089D01*
X426811Y433083D01*
X425159Y433083D01*
X425159Y399594D01*
X438109Y399594D01*
X438109Y433083D01*
X436457Y433083D01*
X436442Y433089D01*
X436435Y433104D01*
X436435Y467020D01*
X435075Y467020D01*
X435060Y467026D01*
X435053Y467041D01*
X435053Y475497D01*
X426806Y483745D01*
X394661Y483745D01*
X394646Y483751D01*
X394640Y483766D01*
X394640Y506892D01*
X394646Y506907D01*
X394661Y506913D01*
X397656Y506913D01*
X397656Y541311D01*
X394661Y541311D01*
X394646Y541318D01*
X394640Y541333D01*
X394640Y564459D01*
X394646Y564474D01*
X394661Y564480D01*
X426806Y564480D01*
X435053Y572727D01*
X435053Y600868D01*
X435060Y600883D01*
X435075Y600889D01*
X551461Y600889D01*
X551476Y600883D01*
X551482Y600868D01*
X551482Y572727D01*
X559729Y564480D01*
X591874Y564480D01*
X591889Y564474D01*
X591895Y564459D01*
X591895Y541333D01*
X591889Y541318D01*
X591874Y541311D01*
X588880Y541311D01*
X588880Y506913D01*
X591874Y506913D01*
X591889Y506907D01*
X591895Y506892D01*
X591895Y483766D01*
X591889Y483751D01*
X591874Y483745D01*
X559729Y483745D01*
X551482Y475497D01*
X551482Y467041D01*
X551476Y467026D01*
X551461Y467020D01*
X550100Y467020D01*
X550100Y433104D01*
X550094Y433089D01*
X550079Y433083D01*
X548427Y433083D01*
X548427Y399594D01*
X561376Y399594D01*
X561376Y433083D01*
X559724Y433083D01*
X559709Y433089D01*
X559703Y433104D01*
X559703Y467020D01*
X558342Y467020D01*
X558327Y467026D01*
X558321Y467041D01*
X558321Y476884D01*
X558327Y476899D01*
X558342Y476905D01*
X590487Y476905D01*
X598735Y485153D01*
X598735Y503451D01*
X598741Y503466D01*
X598756Y503472D01*
X634315Y503472D01*
X634330Y503466D01*
X634336Y503451D01*
X634336Y485153D01*
X642584Y476905D01*
X674728Y476905D01*
X674743Y476899D01*
X674750Y476884D01*
X674750Y467041D01*
X674743Y467026D01*
X674728Y467020D01*
X673368Y467020D01*
X673368Y433104D01*
X673361Y433089D01*
X673346Y433083D01*
X671694Y433083D01*
X671694Y399594D01*
X684644Y399594D01*
X684644Y433083D01*
X682992Y433083D01*
X682977Y433089D01*
X682971Y433104D01*
X682971Y467020D01*
X681610Y467020D01*
X681595Y467026D01*
X681589Y467041D01*
X681589Y475497D01*
X673342Y483745D01*
X641197Y483745D01*
X641182Y483751D01*
X641176Y483766D01*
X641176Y506892D01*
X641182Y506907D01*
X641197Y506913D01*
X644191Y506913D01*
X644191Y541311D01*
X641197Y541311D01*
X641182Y541318D01*
X641176Y541333D01*
X641176Y564459D01*
X641182Y564474D01*
X641197Y564480D01*
X673341Y564480D01*
X681589Y572727D01*
X681589Y594560D01*
X673342Y602808D01*
X606342Y602808D01*
X606327Y602814D01*
X606321Y602829D01*
X606321Y646943D01*
X606327Y646958D01*
X606342Y646964D01*
X673341Y646964D01*
X681589Y655212D01*
X681589Y677044D01*
X673341Y685292D01*
X641197Y685292D01*
X641182Y685298D01*
X641176Y685313D01*
X641176Y708439D01*
X641182Y708454D01*
X641197Y708460D01*
X644191Y708460D01*
X644191Y742859D01*
X641197Y742859D01*
X641182Y742865D01*
X641176Y742880D01*
X641176Y766006D01*
X641182Y766021D01*
X641197Y766027D01*
X673341Y766027D01*
X681589Y774275D01*
X681589Y801029D01*
X673342Y809276D01*
X655634Y809276D01*
X655619Y809282D01*
X655612Y809297D01*
X655612Y828982D01*
X655619Y828997D01*
X655634Y829004D01*
X673341Y829004D01*
X681589Y837251D01*
X681589Y855528D01*
X680510Y855528D01*
X680495Y855534D01*
X680489Y855549D01*
X680489Y890252D01*
X679669Y890252D01*
X679654Y890259D01*
X679648Y890274D01*
X679648Y925707D01*
X679654Y925722D01*
X679669Y925728D01*
X710542Y925728D01*
X710542Y982772D01*
X679669Y982772D01*
X679654Y982778D01*
X679648Y982793D01*
X679648Y1018226D01*
X679654Y1018241D01*
X679669Y1018248D01*
X714959Y1018248D01*
X714959Y1075292D01*
X679669Y1075292D01*
X679654Y1075298D01*
X679648Y1075313D01*
X679648Y1110746D01*
X679654Y1110761D01*
X679669Y1110767D01*
X714959Y1110767D01*
X714959Y1167811D01*
X679669Y1167811D01*
X679669Y1167811D02*
G37*
%LPC*%
G36*
X631321Y739439D02*
X631321Y711880D01*
X631314Y711865D01*
X631299Y711859D01*
X601772Y711859D01*
X601756Y711865D01*
X601750Y711880D01*
X601750Y739439D01*
X601756Y739454D01*
X601772Y739460D01*
X631299Y739460D01*
X631314Y739454D01*
X631321Y739439D01*
X631321Y739439D02*
G37*
G36*
X631321Y537892D02*
X631321Y510333D01*
X631314Y510318D01*
X631299Y510311D01*
X601772Y510311D01*
X601756Y510318D01*
X601750Y510333D01*
X601750Y537892D01*
X601756Y537907D01*
X601772Y537913D01*
X631299Y537913D01*
X631314Y537907D01*
X631321Y537892D01*
X631321Y537892D02*
G37*
G36*
X674750Y678431D02*
X674750Y653825D01*
X674743Y653810D01*
X674728Y653804D01*
X607729Y653804D01*
X599482Y645556D01*
X599482Y604216D01*
X607729Y595968D01*
X674728Y595968D01*
X674743Y595962D01*
X674750Y595947D01*
X674750Y571341D01*
X674743Y571326D01*
X674728Y571319D01*
X642584Y571319D01*
X634336Y563072D01*
X634336Y544774D01*
X634330Y544759D01*
X634315Y544752D01*
X598756Y544752D01*
X598741Y544759D01*
X598735Y544774D01*
X598735Y563072D01*
X590487Y571319D01*
X558342Y571319D01*
X558327Y571326D01*
X558321Y571341D01*
X558321Y599481D01*
X550074Y607729D01*
X537862Y607729D01*
X537847Y607735D01*
X537841Y607750D01*
X537841Y642022D01*
X537847Y642037D01*
X537862Y642043D01*
X550074Y642043D01*
X558321Y650290D01*
X558321Y678431D01*
X558327Y678446D01*
X558342Y678452D01*
X590487Y678452D01*
X598735Y686700D01*
X598735Y704998D01*
X598741Y705013D01*
X598756Y705019D01*
X634315Y705019D01*
X634330Y705013D01*
X634336Y704998D01*
X634336Y686700D01*
X642584Y678452D01*
X674728Y678452D01*
X674743Y678446D01*
X674750Y678431D01*
X674750Y678431D02*
G37*
G36*
X531002Y642022D02*
X531002Y607750D01*
X530995Y607735D01*
X530980Y607729D01*
X496709Y607729D01*
X496693Y607735D01*
X496687Y607750D01*
X496687Y642022D01*
X496693Y642037D01*
X496709Y642043D01*
X530980Y642043D01*
X530995Y642037D01*
X531002Y642022D01*
X531002Y642022D02*
G37*
G36*
X489848Y642022D02*
X489848Y607750D01*
X489842Y607735D01*
X489827Y607729D01*
X455555Y607729D01*
X455540Y607735D01*
X455534Y607750D01*
X455534Y642022D01*
X455540Y642037D01*
X455555Y642043D01*
X489827Y642043D01*
X489842Y642037D01*
X489848Y642022D01*
X489848Y642022D02*
G37*
G36*
X384785Y739439D02*
X384785Y711880D01*
X384779Y711865D01*
X384764Y711859D01*
X355236Y711859D01*
X355221Y711865D01*
X355215Y711880D01*
X355215Y739439D01*
X355221Y739454D01*
X355236Y739460D01*
X384764Y739460D01*
X384779Y739454D01*
X384785Y739439D01*
X384785Y739439D02*
G37*
G36*
X384785Y537892D02*
X384785Y510333D01*
X384779Y510318D01*
X384764Y510311D01*
X355236Y510311D01*
X355221Y510318D01*
X355215Y510333D01*
X355215Y537892D01*
X355221Y537907D01*
X355236Y537913D01*
X384764Y537913D01*
X384779Y537907D01*
X384785Y537892D01*
X384785Y537892D02*
G37*
G36*
X448695Y642022D02*
X448695Y607750D01*
X448688Y607735D01*
X448673Y607729D01*
X436462Y607729D01*
X428214Y599481D01*
X428214Y571341D01*
X428208Y571326D01*
X428193Y571319D01*
X396048Y571319D01*
X387801Y563072D01*
X387801Y544774D01*
X387795Y544759D01*
X387779Y544752D01*
X352221Y544752D01*
X352205Y544759D01*
X352199Y544774D01*
X352199Y563072D01*
X343952Y571319D01*
X311807Y571319D01*
X311792Y571326D01*
X311786Y571341D01*
X311786Y595947D01*
X311792Y595962D01*
X311807Y595968D01*
X344570Y595968D01*
X352817Y604216D01*
X352817Y645556D01*
X344570Y653804D01*
X311807Y653804D01*
X311792Y653810D01*
X311786Y653825D01*
X311786Y678431D01*
X311792Y678446D01*
X311807Y678452D01*
X343952Y678452D01*
X352199Y686700D01*
X352199Y704998D01*
X352205Y705013D01*
X352221Y705019D01*
X387779Y705019D01*
X387795Y705013D01*
X387801Y704998D01*
X387801Y686700D01*
X396048Y678452D01*
X428193Y678452D01*
X428208Y678446D01*
X428214Y678431D01*
X428214Y650290D01*
X436462Y642043D01*
X448673Y642043D01*
X448688Y642037D01*
X448695Y642022D01*
X448695Y642022D02*
G37*
%LPD*%
D21*
X343110Y142520D02*
D03*
X343110Y122496D02*
D03*
X643425Y142520D02*
D03*
X643425Y122496D02*
D03*
D22*
X606363Y86079D02*
D03*
X586339Y86079D02*
D03*
X380172Y86079D02*
D03*
X400197Y86079D02*
D03*
D27*
X542768Y184504D02*
D03*
X542768Y200252D02*
D03*
X542768Y216000D02*
D03*
X542768Y231748D02*
D03*
X542768Y247496D02*
D03*
X443768Y247496D02*
D03*
X443768Y231748D02*
D03*
X443768Y216000D02*
D03*
X443768Y200252D02*
D03*
X443768Y184504D02*
D03*
D28*
X540512Y265500D02*
D03*
X524764Y265500D02*
D03*
X509016Y265500D02*
D03*
X493268Y265500D02*
D03*
X477520Y265500D02*
D03*
X461772Y265500D02*
D03*
X446024Y265500D02*
D03*
X446024Y166500D02*
D03*
X461772Y166500D02*
D03*
X477520Y166500D02*
D03*
X493268Y166500D02*
D03*
X509016Y166500D02*
D03*
X524764Y166500D02*
D03*
X540512Y166500D02*
D03*
D29*
X493268Y216000D02*
D03*
D32*
X-716535Y-181102D02*
D03*
D38*
X174669Y76000D02*
D03*
X133331Y76000D02*
D03*
D40*
X232205Y360685D02*
D03*
X200540Y360685D02*
D03*
D45*
X95394Y720921D02*
D03*
D46*
X35354Y778992D02*
D03*
X35354Y662850D02*
D03*
M02*
