G04*
G04 #@! TF.GenerationSoftware,Altium Limited,Altium Designer,25.8.1 (18)*
G04*
G04 Layer_Color=65535*
%FSLAX26Y26*%
%MOIN*%
G70*
G04*
G04 #@! TF.SameCoordinates,AB66D781-FBCB-4B57-8275-DC7DE2197C71*
G04*
G04*
G04 #@! TF.FilePolarity,Positive*
G04*
G01*
G75*
%ADD13C,0.007874*%
%ADD49C,0.003937*%
G36*
X-242289Y174113D02*
X-242216Y174022D01*
X-242053Y173895D01*
X-241852Y173713D01*
X-241598Y173494D01*
X-241288Y173239D01*
X-240924Y172948D01*
X-240506Y172639D01*
X-240051Y172293D01*
X-239541Y171911D01*
X-238977Y171511D01*
X-238376Y171110D01*
X-237721Y170673D01*
X-237029Y170255D01*
X-236301Y169800D01*
X-235519Y169363D01*
X-235501Y169363D01*
X-235464Y169345D01*
X-235410Y169308D01*
X-235337Y169254D01*
X-235228Y169199D01*
X-235100Y169144D01*
X-234955Y169054D01*
X-234791Y168981D01*
X-234609Y168871D01*
X-234390Y168780D01*
X-233935Y168544D01*
X-233426Y168289D01*
X-232843Y168016D01*
X-232206Y167725D01*
X-231515Y167434D01*
X-230805Y167124D01*
X-230041Y166833D01*
X-229258Y166524D01*
X-228457Y166251D01*
X-227620Y165978D01*
X-226783Y165723D01*
X-226746Y165705D01*
X-226637Y165686D01*
X-226473Y165632D01*
X-226237Y165577D01*
X-225927Y165505D01*
X-225582Y165413D01*
X-225181Y165322D01*
X-224726Y165232D01*
X-224235Y165122D01*
X-223707Y165031D01*
X-223125Y164922D01*
X-222524Y164831D01*
X-221905Y164740D01*
X-221250Y164667D01*
X-220558Y164595D01*
X-219867Y164540D01*
X-219867Y161355D01*
X-219903Y161355D01*
X-219994Y161355D01*
X-220176Y161373D01*
X-220395Y161373D01*
X-220686Y161391D01*
X-221032Y161428D01*
X-221432Y161464D01*
X-221869Y161519D01*
X-222378Y161573D01*
X-222924Y161646D01*
X-223507Y161737D01*
X-224144Y161846D01*
X-224817Y161992D01*
X-225527Y162137D01*
X-226273Y162301D01*
X-227038Y162501D01*
X-227056Y162501D01*
X-227092Y162520D01*
X-227147Y162538D01*
X-227220Y162556D01*
X-227329Y162593D01*
X-227456Y162629D01*
X-227602Y162665D01*
X-227766Y162720D01*
X-228130Y162829D01*
X-228585Y162975D01*
X-229076Y163138D01*
X-229640Y163321D01*
X-230241Y163539D01*
X-230878Y163775D01*
X-231551Y164048D01*
X-232243Y164321D01*
X-232953Y164631D01*
X-233681Y164977D01*
X-234427Y165322D01*
X-235155Y165705D01*
X-235173Y165705D01*
X-235191Y165723D01*
X-235246Y165759D01*
X-235337Y165796D01*
X-235428Y165850D01*
X-235537Y165923D01*
X-235810Y166069D01*
X-236138Y166269D01*
X-236538Y166487D01*
X-236975Y166760D01*
X-237448Y167052D01*
X-237958Y167361D01*
X-238485Y167707D01*
X-239031Y168089D01*
X-239596Y168471D01*
X-240706Y169290D01*
X-241252Y169727D01*
X-241761Y170164D01*
X-241761Y157824D01*
X-244728Y157824D01*
X-244728Y174131D01*
X-242326Y174131D01*
X-242289Y174113D01*
X-242289Y174113D02*
G37*
G36*
X-227802Y154767D02*
X-227747Y154748D01*
X-227675Y154730D01*
X-227584Y154712D01*
X-227456Y154675D01*
X-227183Y154584D01*
X-226837Y154457D01*
X-226455Y154311D01*
X-226018Y154130D01*
X-225545Y153911D01*
X-225036Y153674D01*
X-224526Y153401D01*
X-224016Y153092D01*
X-223489Y152746D01*
X-222979Y152364D01*
X-222488Y151946D01*
X-222033Y151490D01*
X-221596Y150999D01*
X-221578Y150963D01*
X-221505Y150872D01*
X-221396Y150726D01*
X-221268Y150508D01*
X-221104Y150253D01*
X-220922Y149925D01*
X-220722Y149561D01*
X-220522Y149143D01*
X-220322Y148688D01*
X-220122Y148178D01*
X-219940Y147632D01*
X-219776Y147050D01*
X-219648Y146413D01*
X-219539Y145757D01*
X-219466Y145066D01*
X-219448Y144338D01*
X-219448Y144065D01*
X-219466Y143938D01*
X-219466Y143665D01*
X-219503Y143319D01*
X-219539Y142918D01*
X-219594Y142463D01*
X-219648Y141990D01*
X-219739Y141462D01*
X-219849Y140935D01*
X-219994Y140370D01*
X-220140Y139824D01*
X-220340Y139278D01*
X-220558Y138732D01*
X-220813Y138204D01*
X-221104Y137713D01*
X-221123Y137677D01*
X-221177Y137604D01*
X-221286Y137476D01*
X-221414Y137294D01*
X-221578Y137076D01*
X-221796Y136839D01*
X-222033Y136566D01*
X-222324Y136275D01*
X-222651Y135966D01*
X-222997Y135656D01*
X-223398Y135329D01*
X-223816Y135001D01*
X-224289Y134692D01*
X-224781Y134382D01*
X-225327Y134091D01*
X-225891Y133837D01*
X-225909Y133837D01*
X-225927Y133818D01*
X-226037Y133782D01*
X-226200Y133709D01*
X-226437Y133636D01*
X-226728Y133527D01*
X-227074Y133418D01*
X-227474Y133291D01*
X-227911Y133181D01*
X-228403Y133054D01*
X-228930Y132927D01*
X-229476Y132817D01*
X-230077Y132708D01*
X-230678Y132635D01*
X-231315Y132562D01*
X-231970Y132526D01*
X-232643Y132508D01*
X-232661Y132508D01*
X-232698Y132508D01*
X-232752Y132508D01*
X-232825Y132508D01*
X-232916Y132508D01*
X-233025Y132526D01*
X-233298Y132526D01*
X-233644Y132562D01*
X-234045Y132581D01*
X-234500Y132635D01*
X-234991Y132690D01*
X-235501Y132781D01*
X-236047Y132872D01*
X-236629Y132999D01*
X-237211Y133145D01*
X-237794Y133309D01*
X-238376Y133509D01*
X-238940Y133745D01*
X-239505Y134000D01*
X-239541Y134018D01*
X-239632Y134073D01*
X-239778Y134164D01*
X-239996Y134273D01*
X-240233Y134437D01*
X-240506Y134619D01*
X-240833Y134856D01*
X-241161Y135111D01*
X-241507Y135383D01*
X-241889Y135711D01*
X-242253Y136057D01*
X-242617Y136439D01*
X-242981Y136858D01*
X-243327Y137294D01*
X-243654Y137768D01*
X-243964Y138277D01*
X-243982Y138314D01*
X-244036Y138405D01*
X-244109Y138550D01*
X-244200Y138769D01*
X-244328Y139024D01*
X-244455Y139333D01*
X-244582Y139697D01*
X-244728Y140079D01*
X-244874Y140516D01*
X-245001Y140989D01*
X-245147Y141499D01*
X-245256Y142026D01*
X-245347Y142591D01*
X-245420Y143173D01*
X-245474Y143774D01*
X-245492Y144393D01*
X-245492Y144647D01*
X-245474Y144756D01*
X-245456Y145030D01*
X-245438Y145357D01*
X-245383Y145721D01*
X-245329Y146140D01*
X-245256Y146613D01*
X-245147Y147104D01*
X-245019Y147614D01*
X-244874Y148142D01*
X-244673Y148669D01*
X-244455Y149197D01*
X-244200Y149743D01*
X-243909Y150253D01*
X-243563Y150744D01*
X-243545Y150781D01*
X-243472Y150853D01*
X-243363Y150999D01*
X-243199Y151163D01*
X-243017Y151381D01*
X-242762Y151618D01*
X-242489Y151873D01*
X-242162Y152164D01*
X-241798Y152455D01*
X-241397Y152764D01*
X-240942Y153056D01*
X-240469Y153347D01*
X-239941Y153638D01*
X-239377Y153893D01*
X-238777Y154148D01*
X-238140Y154348D01*
X-237375Y151072D01*
X-237412Y151054D01*
X-237503Y151036D01*
X-237630Y150981D01*
X-237830Y150908D01*
X-238049Y150817D01*
X-238303Y150708D01*
X-238595Y150562D01*
X-238904Y150417D01*
X-239232Y150253D01*
X-239559Y150053D01*
X-239887Y149852D01*
X-240233Y149616D01*
X-240542Y149361D01*
X-240851Y149106D01*
X-241124Y148815D01*
X-241379Y148506D01*
X-241397Y148488D01*
X-241434Y148433D01*
X-241488Y148342D01*
X-241579Y148214D01*
X-241670Y148051D01*
X-241780Y147851D01*
X-241889Y147614D01*
X-242016Y147359D01*
X-242125Y147068D01*
X-242235Y146758D01*
X-242344Y146413D01*
X-242435Y146049D01*
X-242526Y145648D01*
X-242580Y145230D01*
X-242617Y144793D01*
X-242635Y144320D01*
X-242635Y144047D01*
X-242617Y143846D01*
X-242599Y143592D01*
X-242562Y143300D01*
X-242526Y142973D01*
X-242453Y142627D01*
X-242380Y142245D01*
X-242289Y141863D01*
X-242180Y141462D01*
X-242053Y141044D01*
X-241889Y140643D01*
X-241689Y140243D01*
X-241488Y139843D01*
X-241234Y139460D01*
X-241215Y139442D01*
X-241179Y139369D01*
X-241088Y139278D01*
X-240979Y139151D01*
X-240833Y138987D01*
X-240669Y138805D01*
X-240469Y138605D01*
X-240251Y138387D01*
X-239996Y138168D01*
X-239723Y137931D01*
X-239414Y137713D01*
X-239068Y137495D01*
X-238722Y137276D01*
X-238340Y137076D01*
X-237939Y136894D01*
X-237503Y136730D01*
X-237484Y136730D01*
X-237393Y136694D01*
X-237266Y136657D01*
X-237102Y136603D01*
X-236884Y136548D01*
X-236629Y136476D01*
X-236338Y136421D01*
X-236010Y136348D01*
X-235664Y136275D01*
X-235282Y136202D01*
X-234882Y136130D01*
X-234463Y136075D01*
X-233590Y135984D01*
X-233135Y135966D01*
X-232661Y135948D01*
X-232625Y135948D01*
X-232516Y135948D01*
X-232352Y135948D01*
X-232115Y135966D01*
X-231842Y135984D01*
X-231515Y136002D01*
X-231151Y136020D01*
X-230769Y136057D01*
X-230332Y136112D01*
X-229877Y136166D01*
X-228949Y136348D01*
X-228457Y136439D01*
X-227984Y136566D01*
X-227511Y136712D01*
X-227056Y136876D01*
X-227038Y136894D01*
X-226947Y136912D01*
X-226837Y136967D01*
X-226674Y137058D01*
X-226473Y137149D01*
X-226237Y137276D01*
X-225982Y137422D01*
X-225709Y137586D01*
X-225436Y137786D01*
X-225145Y138004D01*
X-224835Y138241D01*
X-224544Y138496D01*
X-224253Y138787D01*
X-223980Y139096D01*
X-223725Y139424D01*
X-223489Y139788D01*
X-223470Y139806D01*
X-223434Y139879D01*
X-223379Y139988D01*
X-223307Y140134D01*
X-223216Y140316D01*
X-223106Y140534D01*
X-223015Y140789D01*
X-222906Y141062D01*
X-222779Y141371D01*
X-222688Y141699D01*
X-222579Y142063D01*
X-222488Y142427D01*
X-222415Y142827D01*
X-222360Y143228D01*
X-222324Y143646D01*
X-222306Y144065D01*
X-222306Y144192D01*
X-222324Y144338D01*
X-222324Y144538D01*
X-222360Y144775D01*
X-222397Y145048D01*
X-222433Y145375D01*
X-222506Y145703D01*
X-222597Y146067D01*
X-222706Y146449D01*
X-222833Y146850D01*
X-222979Y147250D01*
X-223161Y147650D01*
X-223379Y148051D01*
X-223634Y148433D01*
X-223907Y148815D01*
X-223925Y148833D01*
X-223980Y148906D01*
X-224071Y148997D01*
X-224217Y149125D01*
X-224380Y149288D01*
X-224581Y149470D01*
X-224835Y149671D01*
X-225108Y149871D01*
X-225436Y150089D01*
X-225782Y150308D01*
X-226182Y150544D01*
X-226619Y150744D01*
X-227074Y150963D01*
X-227584Y151145D01*
X-228111Y151309D01*
X-228694Y151454D01*
X-227857Y154785D01*
X-227838Y154785D01*
X-227802Y154767D01*
X-227802Y154767D02*
G37*
G36*
X-299392Y86061D02*
X-299155Y86043D01*
X-298864Y86024D01*
X-298518Y85970D01*
X-298136Y85915D01*
X-297736Y85842D01*
X-297299Y85733D01*
X-296844Y85606D01*
X-296370Y85460D01*
X-295897Y85278D01*
X-295442Y85060D01*
X-294969Y84805D01*
X-294532Y84496D01*
X-294114Y84168D01*
X-294096Y84150D01*
X-294023Y84077D01*
X-293913Y83968D01*
X-293768Y83822D01*
X-293604Y83622D01*
X-293404Y83385D01*
X-293204Y83112D01*
X-292985Y82803D01*
X-292767Y82457D01*
X-292567Y82075D01*
X-292348Y81656D01*
X-292148Y81201D01*
X-291984Y80710D01*
X-291839Y80182D01*
X-291711Y79636D01*
X-291639Y79054D01*
X-294878Y78781D01*
X-294878Y78799D01*
X-294896Y78890D01*
X-294914Y78999D01*
X-294951Y79163D01*
X-295005Y79363D01*
X-295060Y79600D01*
X-295133Y79855D01*
X-295224Y80128D01*
X-295442Y80692D01*
X-295570Y81001D01*
X-295715Y81292D01*
X-295897Y81584D01*
X-296079Y81857D01*
X-296298Y82111D01*
X-296534Y82348D01*
X-296553Y82366D01*
X-296589Y82403D01*
X-296662Y82457D01*
X-296771Y82530D01*
X-296898Y82621D01*
X-297062Y82730D01*
X-297226Y82821D01*
X-297426Y82930D01*
X-297644Y83058D01*
X-297899Y83149D01*
X-298154Y83258D01*
X-298445Y83349D01*
X-298736Y83422D01*
X-299046Y83476D01*
X-299373Y83513D01*
X-299719Y83531D01*
X-299829Y83531D01*
X-299938Y83513D01*
X-300101Y83513D01*
X-300284Y83476D01*
X-300520Y83440D01*
X-300775Y83385D01*
X-301048Y83313D01*
X-301339Y83240D01*
X-301649Y83131D01*
X-301958Y82985D01*
X-302286Y82821D01*
X-302595Y82639D01*
X-302923Y82403D01*
X-303232Y82148D01*
X-303523Y81857D01*
X-303541Y81838D01*
X-303596Y81784D01*
X-303669Y81675D01*
X-303760Y81547D01*
X-303887Y81383D01*
X-304014Y81183D01*
X-304160Y80947D01*
X-304306Y80674D01*
X-304433Y80364D01*
X-304579Y80037D01*
X-304706Y79673D01*
X-304834Y79272D01*
X-304925Y78835D01*
X-304997Y78380D01*
X-305052Y77907D01*
X-305070Y77398D01*
X-305070Y77361D01*
X-305070Y77288D01*
X-305052Y77143D01*
X-305052Y76961D01*
X-305034Y76742D01*
X-304997Y76469D01*
X-304943Y76196D01*
X-304888Y75869D01*
X-304797Y75541D01*
X-304706Y75214D01*
X-304579Y74868D01*
X-304433Y74504D01*
X-304269Y74158D01*
X-304069Y73830D01*
X-303832Y73503D01*
X-303578Y73212D01*
X-303560Y73193D01*
X-303505Y73139D01*
X-303432Y73066D01*
X-303305Y72975D01*
X-303159Y72848D01*
X-302977Y72720D01*
X-302777Y72593D01*
X-302540Y72447D01*
X-302267Y72302D01*
X-301976Y72174D01*
X-301667Y72029D01*
X-301321Y71919D01*
X-300939Y71828D01*
X-300538Y71756D01*
X-300120Y71701D01*
X-299683Y71683D01*
X-299537Y71683D01*
X-299428Y71701D01*
X-299301Y71701D01*
X-299137Y71719D01*
X-298973Y71737D01*
X-298773Y71774D01*
X-298354Y71847D01*
X-297899Y71974D01*
X-297426Y72138D01*
X-296971Y72374D01*
X-296953Y72374D01*
X-296916Y72411D01*
X-296862Y72447D01*
X-296771Y72502D01*
X-296553Y72647D01*
X-296279Y72848D01*
X-295988Y73102D01*
X-295679Y73394D01*
X-295370Y73739D01*
X-295096Y74122D01*
X-292185Y73739D01*
X-294623Y60799D01*
X-307163Y60799D01*
X-307163Y63748D01*
X-297080Y63748D01*
X-295733Y70536D01*
X-295752Y70518D01*
X-295843Y70463D01*
X-295952Y70391D01*
X-296134Y70281D01*
X-296334Y70172D01*
X-296571Y70027D01*
X-296862Y69899D01*
X-297171Y69735D01*
X-297517Y69590D01*
X-297881Y69444D01*
X-298281Y69317D01*
X-298682Y69208D01*
X-299119Y69098D01*
X-299555Y69026D01*
X-300029Y68971D01*
X-300484Y68953D01*
X-300629Y68953D01*
X-300811Y68971D01*
X-301030Y68989D01*
X-301321Y69026D01*
X-301649Y69080D01*
X-302031Y69153D01*
X-302431Y69244D01*
X-302850Y69353D01*
X-303305Y69517D01*
X-303760Y69699D01*
X-304233Y69917D01*
X-304706Y70190D01*
X-305179Y70482D01*
X-305634Y70846D01*
X-306071Y71246D01*
X-306089Y71264D01*
X-306162Y71355D01*
X-306289Y71483D01*
X-306435Y71665D01*
X-306599Y71883D01*
X-306799Y72156D01*
X-306999Y72484D01*
X-307218Y72848D01*
X-307418Y73248D01*
X-307618Y73685D01*
X-307818Y74176D01*
X-308000Y74686D01*
X-308128Y75250D01*
X-308255Y75851D01*
X-308328Y76469D01*
X-308346Y77125D01*
X-308346Y77143D01*
X-308346Y77161D01*
X-308346Y77216D01*
X-308346Y77270D01*
X-308328Y77452D01*
X-308310Y77689D01*
X-308291Y77998D01*
X-308237Y78344D01*
X-308182Y78726D01*
X-308091Y79145D01*
X-307982Y79600D01*
X-307855Y80073D01*
X-307691Y80564D01*
X-307509Y81056D01*
X-307272Y81565D01*
X-306999Y82057D01*
X-306690Y82548D01*
X-306344Y83021D01*
X-306308Y83058D01*
X-306235Y83149D01*
X-306089Y83294D01*
X-305907Y83495D01*
X-305652Y83731D01*
X-305361Y83986D01*
X-305015Y84259D01*
X-304615Y84550D01*
X-304160Y84841D01*
X-303669Y85114D01*
X-303123Y85369D01*
X-302522Y85606D01*
X-301885Y85788D01*
X-301212Y85952D01*
X-300484Y86043D01*
X-299719Y86079D01*
X-299574Y86079D01*
X-299392Y86061D01*
X-299392Y86061D02*
G37*
G36*
X-277952Y86061D02*
X-277679Y86061D01*
X-277333Y86024D01*
X-276933Y85988D01*
X-276478Y85933D01*
X-276005Y85879D01*
X-275477Y85788D01*
X-274949Y85679D01*
X-274385Y85533D01*
X-273839Y85387D01*
X-273293Y85187D01*
X-272747Y84969D01*
X-272219Y84714D01*
X-271728Y84423D01*
X-271691Y84405D01*
X-271618Y84350D01*
X-271491Y84241D01*
X-271309Y84113D01*
X-271091Y83950D01*
X-270854Y83731D01*
X-270581Y83495D01*
X-270290Y83203D01*
X-269981Y82876D01*
X-269671Y82530D01*
X-269344Y82130D01*
X-269016Y81711D01*
X-268707Y81238D01*
X-268397Y80746D01*
X-268106Y80200D01*
X-267851Y79636D01*
X-267851Y79618D01*
X-267833Y79600D01*
X-267796Y79491D01*
X-267724Y79327D01*
X-267651Y79090D01*
X-267542Y78799D01*
X-267433Y78453D01*
X-267305Y78053D01*
X-267196Y77616D01*
X-267068Y77125D01*
X-266941Y76597D01*
X-266832Y76051D01*
X-266723Y75450D01*
X-266650Y74850D01*
X-266577Y74213D01*
X-266541Y73557D01*
X-266522Y72884D01*
X-266522Y72866D01*
X-266522Y72829D01*
X-266522Y72775D01*
X-266522Y72702D01*
X-266522Y72611D01*
X-266541Y72502D01*
X-266541Y72229D01*
X-266577Y71883D01*
X-266595Y71483D01*
X-266650Y71028D01*
X-266704Y70536D01*
X-266796Y70027D01*
X-266887Y69481D01*
X-267014Y68898D01*
X-267159Y68316D01*
X-267323Y67733D01*
X-267524Y67151D01*
X-267760Y66587D01*
X-268015Y66023D01*
X-268033Y65986D01*
X-268088Y65895D01*
X-268179Y65750D01*
X-268288Y65531D01*
X-268452Y65295D01*
X-268634Y65022D01*
X-268870Y64694D01*
X-269125Y64366D01*
X-269398Y64021D01*
X-269726Y63638D01*
X-270072Y63274D01*
X-270454Y62910D01*
X-270872Y62546D01*
X-271309Y62201D01*
X-271782Y61873D01*
X-272292Y61564D01*
X-272328Y61545D01*
X-272419Y61491D01*
X-272565Y61418D01*
X-272783Y61327D01*
X-273038Y61200D01*
X-273348Y61072D01*
X-273712Y60945D01*
X-274094Y60799D01*
X-274531Y60654D01*
X-275004Y60526D01*
X-275513Y60381D01*
X-276041Y60271D01*
X-276605Y60180D01*
X-277188Y60108D01*
X-277788Y60053D01*
X-278407Y60035D01*
X-278662Y60035D01*
X-278771Y60053D01*
X-279044Y60071D01*
X-279372Y60089D01*
X-279736Y60144D01*
X-280154Y60199D01*
X-280627Y60271D01*
X-281119Y60381D01*
X-281628Y60508D01*
X-282156Y60654D01*
X-282684Y60854D01*
X-283212Y61072D01*
X-283758Y61327D01*
X-284267Y61618D01*
X-284759Y61964D01*
X-284795Y61982D01*
X-284868Y62055D01*
X-285014Y62164D01*
X-285178Y62328D01*
X-285396Y62510D01*
X-285632Y62765D01*
X-285887Y63038D01*
X-286178Y63365D01*
X-286470Y63729D01*
X-286779Y64130D01*
X-287070Y64585D01*
X-287361Y65058D01*
X-287653Y65586D01*
X-287908Y66150D01*
X-288162Y66751D01*
X-288363Y67388D01*
X-285087Y68152D01*
X-285068Y68116D01*
X-285050Y68025D01*
X-284995Y67897D01*
X-284923Y67697D01*
X-284832Y67479D01*
X-284723Y67224D01*
X-284577Y66933D01*
X-284431Y66623D01*
X-284267Y66296D01*
X-284067Y65968D01*
X-283867Y65640D01*
X-283630Y65295D01*
X-283376Y64985D01*
X-283121Y64676D01*
X-282830Y64403D01*
X-282520Y64148D01*
X-282502Y64130D01*
X-282447Y64093D01*
X-282356Y64039D01*
X-282229Y63948D01*
X-282065Y63857D01*
X-281865Y63748D01*
X-281628Y63638D01*
X-281374Y63511D01*
X-281082Y63402D01*
X-280773Y63293D01*
X-280427Y63183D01*
X-280063Y63092D01*
X-279663Y63001D01*
X-279244Y62947D01*
X-278808Y62910D01*
X-278334Y62892D01*
X-278061Y62892D01*
X-277861Y62910D01*
X-277606Y62929D01*
X-277315Y62965D01*
X-276988Y63001D01*
X-276642Y63074D01*
X-276260Y63147D01*
X-275877Y63238D01*
X-275477Y63347D01*
X-275058Y63475D01*
X-274658Y63638D01*
X-274257Y63839D01*
X-273857Y64039D01*
X-273475Y64294D01*
X-273457Y64312D01*
X-273384Y64348D01*
X-273293Y64439D01*
X-273166Y64548D01*
X-273002Y64694D01*
X-272820Y64858D01*
X-272620Y65058D01*
X-272401Y65276D01*
X-272183Y65531D01*
X-271946Y65804D01*
X-271728Y66114D01*
X-271509Y66459D01*
X-271291Y66805D01*
X-271091Y67187D01*
X-270909Y67588D01*
X-270745Y68025D01*
X-270745Y68043D01*
X-270709Y68134D01*
X-270672Y68261D01*
X-270618Y68425D01*
X-270563Y68643D01*
X-270490Y68898D01*
X-270435Y69189D01*
X-270363Y69517D01*
X-270290Y69863D01*
X-270217Y70245D01*
X-270144Y70645D01*
X-270090Y71064D01*
X-269999Y71938D01*
X-269981Y72393D01*
X-269962Y72866D01*
X-269962Y72902D01*
X-269962Y73011D01*
X-269962Y73175D01*
X-269981Y73412D01*
X-269999Y73685D01*
X-270017Y74012D01*
X-270035Y74376D01*
X-270072Y74759D01*
X-270126Y75195D01*
X-270181Y75650D01*
X-270363Y76579D01*
X-270454Y77070D01*
X-270581Y77543D01*
X-270727Y78016D01*
X-270890Y78471D01*
X-270909Y78490D01*
X-270927Y78581D01*
X-270981Y78690D01*
X-271072Y78854D01*
X-271163Y79054D01*
X-271291Y79290D01*
X-271437Y79545D01*
X-271600Y79818D01*
X-271800Y80091D01*
X-272019Y80382D01*
X-272255Y80692D01*
X-272510Y80983D01*
X-272801Y81274D01*
X-273111Y81547D01*
X-273438Y81802D01*
X-273803Y82039D01*
X-273821Y82057D01*
X-273894Y82093D01*
X-274003Y82148D01*
X-274148Y82221D01*
X-274330Y82312D01*
X-274549Y82421D01*
X-274803Y82512D01*
X-275077Y82621D01*
X-275386Y82748D01*
X-275714Y82839D01*
X-276077Y82949D01*
X-276442Y83040D01*
X-276842Y83112D01*
X-277242Y83167D01*
X-277661Y83203D01*
X-278079Y83222D01*
X-278207Y83222D01*
X-278353Y83203D01*
X-278553Y83203D01*
X-278789Y83167D01*
X-279062Y83131D01*
X-279390Y83094D01*
X-279717Y83021D01*
X-280082Y82930D01*
X-280464Y82821D01*
X-280864Y82694D01*
X-281264Y82548D01*
X-281665Y82366D01*
X-282065Y82148D01*
X-282447Y81893D01*
X-282830Y81620D01*
X-282848Y81602D01*
X-282921Y81547D01*
X-283012Y81456D01*
X-283139Y81311D01*
X-283303Y81147D01*
X-283485Y80947D01*
X-283685Y80692D01*
X-283885Y80419D01*
X-284104Y80091D01*
X-284322Y79745D01*
X-284559Y79345D01*
X-284759Y78908D01*
X-284977Y78453D01*
X-285159Y77944D01*
X-285323Y77416D01*
X-285469Y76833D01*
X-288799Y77671D01*
X-288799Y77689D01*
X-288781Y77725D01*
X-288763Y77780D01*
X-288745Y77853D01*
X-288726Y77944D01*
X-288690Y78071D01*
X-288599Y78344D01*
X-288472Y78690D01*
X-288326Y79072D01*
X-288144Y79509D01*
X-287926Y79982D01*
X-287689Y80492D01*
X-287416Y81001D01*
X-287107Y81511D01*
X-286761Y82039D01*
X-286379Y82548D01*
X-285960Y83040D01*
X-285505Y83495D01*
X-285014Y83931D01*
X-284977Y83950D01*
X-284886Y84022D01*
X-284741Y84132D01*
X-284522Y84259D01*
X-284267Y84423D01*
X-283940Y84605D01*
X-283576Y84805D01*
X-283157Y85005D01*
X-282702Y85205D01*
X-282193Y85406D01*
X-281647Y85588D01*
X-281064Y85751D01*
X-280427Y85879D01*
X-279772Y85988D01*
X-279080Y86061D01*
X-278353Y86079D01*
X-278079Y86079D01*
X-277952Y86061D01*
X-277952Y86061D02*
G37*
G36*
X-520182Y166178D02*
X-539874Y166178D01*
X-539856Y166160D01*
X-539820Y166123D01*
X-539765Y166069D01*
X-539692Y165978D01*
X-539601Y165869D01*
X-539474Y165723D01*
X-539347Y165559D01*
X-539201Y165395D01*
X-539055Y165177D01*
X-538873Y164958D01*
X-538710Y164722D01*
X-538509Y164467D01*
X-538327Y164176D01*
X-538127Y163885D01*
X-537727Y163230D01*
X-537709Y163211D01*
X-537672Y163157D01*
X-537618Y163048D01*
X-537563Y162920D01*
X-537472Y162774D01*
X-537363Y162593D01*
X-537254Y162374D01*
X-537126Y162156D01*
X-536871Y161646D01*
X-536617Y161100D01*
X-536362Y160536D01*
X-536143Y159990D01*
X-539128Y159990D01*
X-539146Y160026D01*
X-539183Y160099D01*
X-539256Y160245D01*
X-539347Y160427D01*
X-539456Y160645D01*
X-539601Y160918D01*
X-539765Y161209D01*
X-539947Y161519D01*
X-540166Y161864D01*
X-540384Y162228D01*
X-540894Y162993D01*
X-541458Y163775D01*
X-542077Y164522D01*
X-542095Y164540D01*
X-542149Y164613D01*
X-542240Y164704D01*
X-542368Y164831D01*
X-542532Y164995D01*
X-542714Y165177D01*
X-542932Y165377D01*
X-543150Y165595D01*
X-543405Y165814D01*
X-543678Y166050D01*
X-544242Y166506D01*
X-544843Y166924D01*
X-545152Y167106D01*
X-545462Y167270D01*
X-545462Y169272D01*
X-520182Y169272D01*
X-520182Y166178D01*
X-520182Y166178D02*
G37*
G36*
X-528117Y154767D02*
X-528063Y154748D01*
X-527990Y154730D01*
X-527899Y154712D01*
X-527771Y154675D01*
X-527498Y154584D01*
X-527153Y154457D01*
X-526770Y154311D01*
X-526334Y154130D01*
X-525860Y153911D01*
X-525351Y153674D01*
X-524841Y153401D01*
X-524332Y153092D01*
X-523804Y152746D01*
X-523294Y152364D01*
X-522803Y151946D01*
X-522348Y151490D01*
X-521911Y150999D01*
X-521893Y150963D01*
X-521820Y150872D01*
X-521711Y150726D01*
X-521583Y150508D01*
X-521420Y150253D01*
X-521238Y149925D01*
X-521037Y149561D01*
X-520837Y149143D01*
X-520637Y148688D01*
X-520437Y148178D01*
X-520255Y147632D01*
X-520091Y147050D01*
X-519964Y146413D01*
X-519854Y145757D01*
X-519782Y145066D01*
X-519763Y144338D01*
X-519763Y144065D01*
X-519782Y143938D01*
X-519782Y143665D01*
X-519818Y143319D01*
X-519854Y142918D01*
X-519909Y142463D01*
X-519964Y141990D01*
X-520055Y141462D01*
X-520164Y140935D01*
X-520309Y140370D01*
X-520455Y139824D01*
X-520655Y139278D01*
X-520874Y138732D01*
X-521128Y138204D01*
X-521420Y137713D01*
X-521438Y137677D01*
X-521492Y137604D01*
X-521602Y137476D01*
X-521729Y137294D01*
X-521893Y137076D01*
X-522111Y136839D01*
X-522348Y136566D01*
X-522639Y136275D01*
X-522967Y135966D01*
X-523312Y135656D01*
X-523713Y135329D01*
X-524131Y135001D01*
X-524605Y134692D01*
X-525096Y134382D01*
X-525642Y134091D01*
X-526206Y133837D01*
X-526224Y133837D01*
X-526243Y133818D01*
X-526352Y133782D01*
X-526516Y133709D01*
X-526752Y133636D01*
X-527043Y133527D01*
X-527389Y133418D01*
X-527790Y133291D01*
X-528226Y133181D01*
X-528718Y133054D01*
X-529246Y132927D01*
X-529792Y132817D01*
X-530392Y132708D01*
X-530993Y132635D01*
X-531630Y132562D01*
X-532285Y132526D01*
X-532958Y132508D01*
X-532977Y132508D01*
X-533013Y132508D01*
X-533068Y132508D01*
X-533140Y132508D01*
X-533231Y132508D01*
X-533341Y132526D01*
X-533614Y132526D01*
X-533959Y132562D01*
X-534360Y132581D01*
X-534815Y132635D01*
X-535306Y132690D01*
X-535816Y132781D01*
X-536362Y132872D01*
X-536944Y132999D01*
X-537527Y133145D01*
X-538109Y133309D01*
X-538691Y133509D01*
X-539256Y133745D01*
X-539820Y134000D01*
X-539856Y134018D01*
X-539947Y134073D01*
X-540093Y134164D01*
X-540311Y134273D01*
X-540548Y134437D01*
X-540821Y134619D01*
X-541148Y134856D01*
X-541476Y135111D01*
X-541822Y135383D01*
X-542204Y135711D01*
X-542568Y136057D01*
X-542932Y136439D01*
X-543296Y136858D01*
X-543642Y137294D01*
X-543969Y137768D01*
X-544279Y138277D01*
X-544297Y138314D01*
X-544352Y138405D01*
X-544424Y138550D01*
X-544515Y138769D01*
X-544643Y139024D01*
X-544770Y139333D01*
X-544898Y139697D01*
X-545043Y140079D01*
X-545189Y140516D01*
X-545316Y140989D01*
X-545462Y141499D01*
X-545571Y142026D01*
X-545662Y142591D01*
X-545735Y143173D01*
X-545789Y143774D01*
X-545808Y144393D01*
X-545808Y144647D01*
X-545789Y144756D01*
X-545771Y145030D01*
X-545753Y145357D01*
X-545698Y145721D01*
X-545644Y146140D01*
X-545571Y146613D01*
X-545462Y147104D01*
X-545334Y147614D01*
X-545189Y148142D01*
X-544989Y148669D01*
X-544770Y149197D01*
X-544515Y149743D01*
X-544224Y150253D01*
X-543878Y150744D01*
X-543860Y150781D01*
X-543787Y150853D01*
X-543678Y150999D01*
X-543514Y151163D01*
X-543332Y151381D01*
X-543078Y151618D01*
X-542805Y151873D01*
X-542477Y152164D01*
X-542113Y152455D01*
X-541713Y152764D01*
X-541258Y153056D01*
X-540784Y153347D01*
X-540257Y153638D01*
X-539692Y153893D01*
X-539092Y154148D01*
X-538455Y154348D01*
X-537690Y151072D01*
X-537727Y151054D01*
X-537818Y151036D01*
X-537945Y150981D01*
X-538145Y150908D01*
X-538364Y150817D01*
X-538619Y150708D01*
X-538910Y150562D01*
X-539219Y150417D01*
X-539547Y150253D01*
X-539874Y150053D01*
X-540202Y149852D01*
X-540548Y149616D01*
X-540857Y149361D01*
X-541167Y149106D01*
X-541440Y148815D01*
X-541694Y148506D01*
X-541713Y148488D01*
X-541749Y148433D01*
X-541804Y148342D01*
X-541895Y148214D01*
X-541986Y148051D01*
X-542095Y147851D01*
X-542204Y147614D01*
X-542331Y147359D01*
X-542441Y147068D01*
X-542550Y146758D01*
X-542659Y146413D01*
X-542750Y146049D01*
X-542841Y145648D01*
X-542896Y145230D01*
X-542932Y144793D01*
X-542950Y144320D01*
X-542950Y144047D01*
X-542932Y143846D01*
X-542914Y143592D01*
X-542877Y143300D01*
X-542841Y142973D01*
X-542768Y142627D01*
X-542695Y142245D01*
X-542604Y141863D01*
X-542495Y141462D01*
X-542368Y141044D01*
X-542204Y140643D01*
X-542004Y140243D01*
X-541804Y139843D01*
X-541549Y139460D01*
X-541531Y139442D01*
X-541494Y139369D01*
X-541403Y139278D01*
X-541294Y139151D01*
X-541148Y138987D01*
X-540985Y138805D01*
X-540784Y138605D01*
X-540566Y138387D01*
X-540311Y138168D01*
X-540038Y137931D01*
X-539729Y137713D01*
X-539383Y137495D01*
X-539037Y137276D01*
X-538655Y137076D01*
X-538255Y136894D01*
X-537818Y136730D01*
X-537800Y136730D01*
X-537709Y136694D01*
X-537581Y136657D01*
X-537417Y136603D01*
X-537199Y136548D01*
X-536944Y136476D01*
X-536653Y136421D01*
X-536325Y136348D01*
X-535980Y136275D01*
X-535597Y136202D01*
X-535197Y136130D01*
X-534778Y136075D01*
X-533905Y135984D01*
X-533450Y135966D01*
X-532977Y135948D01*
X-532940Y135948D01*
X-532831Y135948D01*
X-532667Y135948D01*
X-532431Y135966D01*
X-532158Y135984D01*
X-531830Y136002D01*
X-531466Y136020D01*
X-531084Y136057D01*
X-530647Y136112D01*
X-530192Y136166D01*
X-529264Y136348D01*
X-528772Y136439D01*
X-528299Y136566D01*
X-527826Y136712D01*
X-527371Y136876D01*
X-527353Y136894D01*
X-527262Y136912D01*
X-527153Y136967D01*
X-526989Y137058D01*
X-526789Y137149D01*
X-526552Y137276D01*
X-526297Y137422D01*
X-526024Y137586D01*
X-525751Y137786D01*
X-525460Y138004D01*
X-525151Y138241D01*
X-524859Y138496D01*
X-524568Y138787D01*
X-524295Y139096D01*
X-524040Y139424D01*
X-523804Y139788D01*
X-523786Y139806D01*
X-523749Y139879D01*
X-523695Y139988D01*
X-523622Y140134D01*
X-523531Y140316D01*
X-523422Y140534D01*
X-523331Y140789D01*
X-523221Y141062D01*
X-523094Y141371D01*
X-523003Y141699D01*
X-522894Y142063D01*
X-522803Y142427D01*
X-522730Y142827D01*
X-522675Y143228D01*
X-522639Y143646D01*
X-522621Y144065D01*
X-522621Y144192D01*
X-522639Y144338D01*
X-522639Y144538D01*
X-522675Y144775D01*
X-522712Y145048D01*
X-522748Y145375D01*
X-522821Y145703D01*
X-522912Y146067D01*
X-523021Y146449D01*
X-523149Y146850D01*
X-523294Y147250D01*
X-523476Y147650D01*
X-523695Y148051D01*
X-523949Y148433D01*
X-524222Y148815D01*
X-524241Y148833D01*
X-524295Y148906D01*
X-524386Y148997D01*
X-524532Y149125D01*
X-524696Y149288D01*
X-524896Y149470D01*
X-525151Y149671D01*
X-525424Y149871D01*
X-525751Y150089D01*
X-526097Y150308D01*
X-526497Y150544D01*
X-526934Y150744D01*
X-527389Y150963D01*
X-527899Y151145D01*
X-528427Y151309D01*
X-529009Y151454D01*
X-528172Y154785D01*
X-528154Y154785D01*
X-528117Y154767D01*
X-528117Y154767D02*
G37*
G36*
X-460441Y112141D02*
X-460168Y112122D01*
X-459841Y112104D01*
X-459477Y112050D01*
X-459058Y111995D01*
X-458585Y111922D01*
X-458094Y111813D01*
X-457584Y111686D01*
X-457056Y111540D01*
X-456528Y111340D01*
X-456000Y111121D01*
X-455454Y110867D01*
X-454945Y110575D01*
X-454454Y110230D01*
X-454417Y110211D01*
X-454344Y110139D01*
X-454199Y110029D01*
X-454035Y109866D01*
X-453817Y109684D01*
X-453580Y109429D01*
X-453325Y109156D01*
X-453034Y108828D01*
X-452743Y108464D01*
X-452433Y108064D01*
X-452142Y107609D01*
X-451851Y107136D01*
X-451560Y106608D01*
X-451305Y106044D01*
X-451050Y105443D01*
X-450850Y104806D01*
X-454126Y104042D01*
X-454144Y104078D01*
X-454162Y104169D01*
X-454217Y104296D01*
X-454290Y104497D01*
X-454381Y104715D01*
X-454490Y104970D01*
X-454635Y105261D01*
X-454781Y105570D01*
X-454945Y105898D01*
X-455145Y106226D01*
X-455345Y106553D01*
X-455582Y106899D01*
X-455837Y107208D01*
X-456091Y107518D01*
X-456383Y107791D01*
X-456692Y108046D01*
X-456710Y108064D01*
X-456765Y108100D01*
X-456856Y108155D01*
X-456983Y108246D01*
X-457147Y108337D01*
X-457347Y108446D01*
X-457584Y108555D01*
X-457839Y108683D01*
X-458130Y108792D01*
X-458439Y108901D01*
X-458785Y109010D01*
X-459149Y109101D01*
X-459550Y109192D01*
X-459968Y109247D01*
X-460405Y109283D01*
X-460878Y109301D01*
X-461151Y109301D01*
X-461351Y109283D01*
X-461606Y109265D01*
X-461897Y109229D01*
X-462225Y109192D01*
X-462571Y109119D01*
X-462953Y109047D01*
X-463335Y108956D01*
X-463736Y108846D01*
X-464154Y108719D01*
X-464555Y108555D01*
X-464955Y108355D01*
X-465355Y108155D01*
X-465738Y107900D01*
X-465756Y107882D01*
X-465829Y107845D01*
X-465920Y107754D01*
X-466047Y107645D01*
X-466211Y107500D01*
X-466393Y107336D01*
X-466593Y107136D01*
X-466811Y106917D01*
X-467030Y106662D01*
X-467266Y106389D01*
X-467485Y106080D01*
X-467703Y105734D01*
X-467921Y105388D01*
X-468122Y105006D01*
X-468304Y104606D01*
X-468467Y104169D01*
X-468467Y104151D01*
X-468504Y104060D01*
X-468540Y103932D01*
X-468595Y103769D01*
X-468649Y103550D01*
X-468722Y103295D01*
X-468777Y103004D01*
X-468850Y102677D01*
X-468923Y102331D01*
X-468995Y101949D01*
X-469068Y101548D01*
X-469123Y101130D01*
X-469214Y100256D01*
X-469232Y99801D01*
X-469250Y99328D01*
X-469250Y99291D01*
X-469250Y99182D01*
X-469250Y99018D01*
X-469232Y98782D01*
X-469214Y98509D01*
X-469195Y98181D01*
X-469177Y97817D01*
X-469141Y97435D01*
X-469086Y96998D01*
X-469032Y96543D01*
X-468850Y95615D01*
X-468759Y95124D01*
X-468631Y94650D01*
X-468486Y94177D01*
X-468322Y93722D01*
X-468304Y93704D01*
X-468286Y93613D01*
X-468231Y93504D01*
X-468140Y93340D01*
X-468049Y93140D01*
X-467921Y92903D01*
X-467776Y92648D01*
X-467612Y92375D01*
X-467412Y92102D01*
X-467193Y91811D01*
X-466957Y91502D01*
X-466702Y91211D01*
X-466411Y90919D01*
X-466101Y90646D01*
X-465774Y90392D01*
X-465410Y90155D01*
X-465392Y90137D01*
X-465319Y90100D01*
X-465210Y90046D01*
X-465064Y89973D01*
X-464882Y89882D01*
X-464664Y89773D01*
X-464409Y89682D01*
X-464136Y89573D01*
X-463827Y89445D01*
X-463499Y89354D01*
X-463135Y89245D01*
X-462771Y89154D01*
X-462370Y89081D01*
X-461970Y89027D01*
X-461551Y88990D01*
X-461133Y88972D01*
X-461005Y88972D01*
X-460860Y88990D01*
X-460660Y88990D01*
X-460423Y89027D01*
X-460150Y89063D01*
X-459822Y89099D01*
X-459495Y89172D01*
X-459131Y89263D01*
X-458749Y89372D01*
X-458348Y89500D01*
X-457948Y89645D01*
X-457548Y89827D01*
X-457147Y90046D01*
X-456765Y90301D01*
X-456383Y90574D01*
X-456365Y90592D01*
X-456292Y90646D01*
X-456201Y90737D01*
X-456073Y90883D01*
X-455909Y91047D01*
X-455728Y91247D01*
X-455527Y91502D01*
X-455327Y91775D01*
X-455109Y92102D01*
X-454890Y92448D01*
X-454654Y92849D01*
X-454454Y93285D01*
X-454235Y93740D01*
X-454053Y94250D01*
X-453889Y94778D01*
X-453744Y95360D01*
X-450413Y94523D01*
X-450413Y94505D01*
X-450431Y94468D01*
X-450450Y94414D01*
X-450468Y94341D01*
X-450486Y94250D01*
X-450522Y94123D01*
X-450613Y93850D01*
X-450741Y93504D01*
X-450886Y93122D01*
X-451068Y92685D01*
X-451287Y92212D01*
X-451523Y91702D01*
X-451796Y91192D01*
X-452106Y90683D01*
X-452452Y90155D01*
X-452834Y89645D01*
X-453252Y89154D01*
X-453707Y88699D01*
X-454199Y88262D01*
X-454235Y88244D01*
X-454326Y88171D01*
X-454472Y88062D01*
X-454690Y87935D01*
X-454945Y87771D01*
X-455272Y87589D01*
X-455637Y87389D01*
X-456055Y87188D01*
X-456510Y86988D01*
X-457020Y86788D01*
X-457566Y86606D01*
X-458148Y86442D01*
X-458785Y86315D01*
X-459440Y86206D01*
X-460132Y86133D01*
X-460860Y86115D01*
X-461133Y86115D01*
X-461260Y86133D01*
X-461533Y86133D01*
X-461879Y86169D01*
X-462279Y86206D01*
X-462735Y86260D01*
X-463208Y86315D01*
X-463736Y86406D01*
X-464263Y86515D01*
X-464827Y86661D01*
X-465373Y86806D01*
X-465920Y87006D01*
X-466466Y87225D01*
X-466993Y87480D01*
X-467485Y87771D01*
X-467521Y87789D01*
X-467594Y87844D01*
X-467721Y87953D01*
X-467903Y88080D01*
X-468122Y88244D01*
X-468358Y88462D01*
X-468631Y88699D01*
X-468923Y88990D01*
X-469232Y89318D01*
X-469541Y89664D01*
X-469869Y90064D01*
X-470197Y90483D01*
X-470506Y90956D01*
X-470815Y91447D01*
X-471106Y91993D01*
X-471361Y92557D01*
X-471361Y92576D01*
X-471380Y92594D01*
X-471416Y92703D01*
X-471489Y92867D01*
X-471562Y93103D01*
X-471671Y93395D01*
X-471780Y93740D01*
X-471907Y94141D01*
X-472017Y94578D01*
X-472144Y95069D01*
X-472271Y95597D01*
X-472380Y96143D01*
X-472490Y96743D01*
X-472562Y97344D01*
X-472635Y97981D01*
X-472672Y98636D01*
X-472690Y99310D01*
X-472690Y99328D01*
X-472690Y99364D01*
X-472690Y99419D01*
X-472690Y99492D01*
X-472690Y99583D01*
X-472672Y99692D01*
X-472672Y99965D01*
X-472635Y100311D01*
X-472617Y100711D01*
X-472562Y101166D01*
X-472508Y101657D01*
X-472417Y102167D01*
X-472326Y102713D01*
X-472199Y103295D01*
X-472053Y103878D01*
X-471889Y104460D01*
X-471689Y105043D01*
X-471452Y105607D01*
X-471197Y106171D01*
X-471179Y106207D01*
X-471125Y106298D01*
X-471034Y106444D01*
X-470925Y106662D01*
X-470761Y106899D01*
X-470579Y107172D01*
X-470342Y107500D01*
X-470087Y107827D01*
X-469814Y108173D01*
X-469487Y108555D01*
X-469141Y108919D01*
X-468759Y109283D01*
X-468340Y109647D01*
X-467903Y109993D01*
X-467430Y110321D01*
X-466921Y110630D01*
X-466884Y110648D01*
X-466793Y110703D01*
X-466647Y110776D01*
X-466429Y110867D01*
X-466174Y110994D01*
X-465865Y111121D01*
X-465501Y111249D01*
X-465119Y111394D01*
X-464682Y111540D01*
X-464209Y111667D01*
X-463699Y111813D01*
X-463171Y111922D01*
X-462607Y112013D01*
X-462025Y112086D01*
X-461424Y112141D01*
X-460805Y112159D01*
X-460550Y112159D01*
X-460441Y112141D01*
X-460441Y112141D02*
G37*
G36*
X-439329Y111795D02*
X-439147Y111795D01*
X-438929Y111758D01*
X-438692Y111740D01*
X-438438Y111704D01*
X-438146Y111649D01*
X-437855Y111595D01*
X-437218Y111431D01*
X-436872Y111340D01*
X-436545Y111212D01*
X-436217Y111085D01*
X-435889Y110921D01*
X-435871Y110903D01*
X-435817Y110885D01*
X-435726Y110830D01*
X-435598Y110757D01*
X-435453Y110666D01*
X-435289Y110557D01*
X-435107Y110430D01*
X-434907Y110284D01*
X-434470Y109938D01*
X-434033Y109520D01*
X-433615Y109047D01*
X-433414Y108774D01*
X-433232Y108501D01*
X-433214Y108482D01*
X-433196Y108428D01*
X-433141Y108355D01*
X-433087Y108228D01*
X-433014Y108100D01*
X-432941Y107918D01*
X-432850Y107736D01*
X-432759Y107518D01*
X-432686Y107281D01*
X-432595Y107045D01*
X-432450Y106499D01*
X-432341Y105898D01*
X-432322Y105589D01*
X-432304Y105261D01*
X-432304Y105243D01*
X-432304Y105188D01*
X-432304Y105097D01*
X-432322Y104988D01*
X-432322Y104842D01*
X-432359Y104679D01*
X-432377Y104478D01*
X-432413Y104278D01*
X-432522Y103805D01*
X-432686Y103314D01*
X-432777Y103059D01*
X-432905Y102786D01*
X-433032Y102531D01*
X-433196Y102276D01*
X-433214Y102258D01*
X-433232Y102222D01*
X-433287Y102149D01*
X-433360Y102058D01*
X-433451Y101949D01*
X-433560Y101821D01*
X-433687Y101676D01*
X-433851Y101512D01*
X-434015Y101348D01*
X-434215Y101184D01*
X-434415Y101002D01*
X-434652Y100820D01*
X-434907Y100656D01*
X-435180Y100474D01*
X-435471Y100311D01*
X-435780Y100165D01*
X-435762Y100165D01*
X-435689Y100147D01*
X-435562Y100110D01*
X-435416Y100056D01*
X-435216Y100001D01*
X-434998Y99910D01*
X-434761Y99819D01*
X-434506Y99692D01*
X-434233Y99564D01*
X-433942Y99401D01*
X-433651Y99237D01*
X-433360Y99037D01*
X-433087Y98818D01*
X-432814Y98582D01*
X-432541Y98309D01*
X-432304Y98017D01*
X-432286Y97999D01*
X-432250Y97945D01*
X-432195Y97854D01*
X-432104Y97726D01*
X-432013Y97562D01*
X-431904Y97380D01*
X-431795Y97162D01*
X-431685Y96907D01*
X-431576Y96616D01*
X-431449Y96307D01*
X-431358Y95979D01*
X-431267Y95615D01*
X-431176Y95233D01*
X-431121Y94832D01*
X-431085Y94414D01*
X-431067Y93959D01*
X-431067Y93922D01*
X-431067Y93813D01*
X-431085Y93631D01*
X-431103Y93413D01*
X-431139Y93122D01*
X-431194Y92794D01*
X-431267Y92430D01*
X-431376Y92030D01*
X-431503Y91593D01*
X-431649Y91156D01*
X-431849Y90683D01*
X-432086Y90210D01*
X-432359Y89736D01*
X-432686Y89263D01*
X-433068Y88808D01*
X-433487Y88371D01*
X-433524Y88353D01*
X-433596Y88280D01*
X-433724Y88153D01*
X-433924Y88007D01*
X-434161Y87844D01*
X-434433Y87643D01*
X-434779Y87443D01*
X-435143Y87225D01*
X-435562Y87006D01*
X-436035Y86806D01*
X-436526Y86606D01*
X-437072Y86442D01*
X-437637Y86297D01*
X-438255Y86169D01*
X-438892Y86096D01*
X-439566Y86078D01*
X-439712Y86078D01*
X-439894Y86096D01*
X-440112Y86115D01*
X-440403Y86133D01*
X-440731Y86187D01*
X-441095Y86242D01*
X-441495Y86333D01*
X-441914Y86424D01*
X-442369Y86551D01*
X-442824Y86715D01*
X-443297Y86915D01*
X-443752Y87134D01*
X-444207Y87389D01*
X-444662Y87698D01*
X-445080Y88044D01*
X-445099Y88062D01*
X-445171Y88135D01*
X-445281Y88244D01*
X-445426Y88408D01*
X-445590Y88608D01*
X-445790Y88845D01*
X-445990Y89118D01*
X-446209Y89427D01*
X-446427Y89773D01*
X-446646Y90173D01*
X-446846Y90592D01*
X-447046Y91047D01*
X-447210Y91538D01*
X-447374Y92048D01*
X-447483Y92594D01*
X-447556Y93176D01*
X-444462Y93595D01*
X-444462Y93558D01*
X-444443Y93486D01*
X-444407Y93340D01*
X-444353Y93158D01*
X-444298Y92940D01*
X-444225Y92703D01*
X-444134Y92430D01*
X-444043Y92139D01*
X-443788Y91502D01*
X-443479Y90883D01*
X-443297Y90574D01*
X-443097Y90282D01*
X-442897Y90028D01*
X-442660Y89791D01*
X-442642Y89773D01*
X-442605Y89736D01*
X-442533Y89682D01*
X-442423Y89609D01*
X-442314Y89518D01*
X-442150Y89427D01*
X-441986Y89318D01*
X-441786Y89227D01*
X-441568Y89118D01*
X-441331Y89008D01*
X-441077Y88917D01*
X-440803Y88826D01*
X-440512Y88754D01*
X-440203Y88699D01*
X-439894Y88663D01*
X-439548Y88644D01*
X-439457Y88644D01*
X-439329Y88663D01*
X-439184Y88663D01*
X-438983Y88699D01*
X-438765Y88717D01*
X-438529Y88772D01*
X-438255Y88826D01*
X-437983Y88917D01*
X-437673Y89008D01*
X-437364Y89136D01*
X-437054Y89281D01*
X-436745Y89463D01*
X-436435Y89664D01*
X-436144Y89882D01*
X-435853Y90155D01*
X-435835Y90173D01*
X-435780Y90228D01*
X-435707Y90301D01*
X-435616Y90428D01*
X-435507Y90574D01*
X-435380Y90756D01*
X-435234Y90956D01*
X-435089Y91192D01*
X-434961Y91447D01*
X-434816Y91738D01*
X-434688Y92030D01*
X-434579Y92375D01*
X-434488Y92721D01*
X-434415Y93085D01*
X-434361Y93486D01*
X-434342Y93886D01*
X-434342Y93904D01*
X-434342Y93977D01*
X-434342Y94086D01*
X-434361Y94250D01*
X-434379Y94414D01*
X-434415Y94632D01*
X-434452Y94869D01*
X-434524Y95124D01*
X-434597Y95397D01*
X-434688Y95688D01*
X-434798Y95979D01*
X-434925Y96270D01*
X-435089Y96561D01*
X-435289Y96853D01*
X-435489Y97126D01*
X-435744Y97399D01*
X-435762Y97417D01*
X-435798Y97453D01*
X-435889Y97526D01*
X-435999Y97617D01*
X-436126Y97726D01*
X-436290Y97835D01*
X-436490Y97963D01*
X-436709Y98090D01*
X-436945Y98218D01*
X-437218Y98345D01*
X-437509Y98454D01*
X-437819Y98563D01*
X-438146Y98654D01*
X-438510Y98727D01*
X-438874Y98764D01*
X-439275Y98782D01*
X-439438Y98782D01*
X-439620Y98764D01*
X-439875Y98745D01*
X-440203Y98709D01*
X-440567Y98636D01*
X-440986Y98563D01*
X-441459Y98454D01*
X-441113Y101166D01*
X-441058Y101166D01*
X-441004Y101148D01*
X-440931Y101148D01*
X-440767Y101130D01*
X-440421Y101130D01*
X-440294Y101148D01*
X-440112Y101166D01*
X-439912Y101184D01*
X-439693Y101221D01*
X-439438Y101257D01*
X-439166Y101312D01*
X-438892Y101384D01*
X-438292Y101566D01*
X-437983Y101676D01*
X-437673Y101821D01*
X-437364Y101967D01*
X-437072Y102149D01*
X-437054Y102167D01*
X-437000Y102203D01*
X-436927Y102258D01*
X-436818Y102349D01*
X-436709Y102458D01*
X-436563Y102586D01*
X-436435Y102749D01*
X-436272Y102931D01*
X-436126Y103150D01*
X-435981Y103386D01*
X-435853Y103641D01*
X-435744Y103932D01*
X-435635Y104242D01*
X-435562Y104588D01*
X-435507Y104952D01*
X-435489Y105334D01*
X-435489Y105352D01*
X-435489Y105407D01*
X-435489Y105498D01*
X-435507Y105625D01*
X-435526Y105752D01*
X-435544Y105934D01*
X-435580Y106116D01*
X-435635Y106317D01*
X-435780Y106753D01*
X-435871Y106990D01*
X-435981Y107227D01*
X-436108Y107463D01*
X-436272Y107700D01*
X-436454Y107918D01*
X-436654Y108137D01*
X-436672Y108155D01*
X-436709Y108191D01*
X-436763Y108246D01*
X-436854Y108319D01*
X-436981Y108391D01*
X-437109Y108501D01*
X-437273Y108592D01*
X-437455Y108701D01*
X-437655Y108810D01*
X-437873Y108901D01*
X-438128Y109010D01*
X-438383Y109083D01*
X-438674Y109156D01*
X-438965Y109210D01*
X-439293Y109247D01*
X-439620Y109265D01*
X-439803Y109265D01*
X-439912Y109247D01*
X-440075Y109229D01*
X-440257Y109210D01*
X-440458Y109174D01*
X-440676Y109119D01*
X-441149Y108992D01*
X-441386Y108901D01*
X-441641Y108774D01*
X-441896Y108646D01*
X-442150Y108501D01*
X-442387Y108319D01*
X-442623Y108118D01*
X-442642Y108100D01*
X-442678Y108064D01*
X-442733Y107991D01*
X-442824Y107900D01*
X-442915Y107791D01*
X-443024Y107645D01*
X-443133Y107463D01*
X-443260Y107281D01*
X-443388Y107045D01*
X-443515Y106790D01*
X-443661Y106517D01*
X-443770Y106207D01*
X-443897Y105880D01*
X-443988Y105534D01*
X-444079Y105152D01*
X-444152Y104733D01*
X-447246Y105279D01*
X-447246Y105297D01*
X-447246Y105316D01*
X-447210Y105425D01*
X-447173Y105570D01*
X-447119Y105789D01*
X-447046Y106062D01*
X-446955Y106353D01*
X-446846Y106681D01*
X-446719Y107045D01*
X-446555Y107427D01*
X-446373Y107827D01*
X-446154Y108228D01*
X-445918Y108628D01*
X-445663Y109028D01*
X-445372Y109411D01*
X-445044Y109775D01*
X-444680Y110102D01*
X-444662Y110120D01*
X-444589Y110175D01*
X-444480Y110266D01*
X-444316Y110375D01*
X-444116Y110503D01*
X-443879Y110648D01*
X-443606Y110794D01*
X-443297Y110958D01*
X-442951Y111121D01*
X-442569Y111267D01*
X-442168Y111413D01*
X-441732Y111540D01*
X-441259Y111649D01*
X-440749Y111740D01*
X-440221Y111795D01*
X-439675Y111813D01*
X-439475Y111813D01*
X-439329Y111795D01*
X-439329Y111795D02*
G37*
G36*
X68993Y-53250D02*
X69266Y-53268D01*
X69593Y-53286D01*
X69957Y-53341D01*
X70376Y-53396D01*
X70849Y-53468D01*
X71341Y-53578D01*
X71850Y-53705D01*
X72378Y-53851D01*
X72906Y-54051D01*
X73433Y-54269D01*
X73980Y-54524D01*
X74489Y-54815D01*
X74981Y-55161D01*
X75017Y-55179D01*
X75090Y-55252D01*
X75235Y-55361D01*
X75399Y-55525D01*
X75618Y-55707D01*
X75854Y-55962D01*
X76109Y-56235D01*
X76400Y-56562D01*
X76691Y-56926D01*
X77001Y-57327D01*
X77292Y-57782D01*
X77583Y-58255D01*
X77874Y-58783D01*
X78129Y-59347D01*
X78384Y-59948D01*
X78584Y-60585D01*
X75308Y-61349D01*
X75290Y-61313D01*
X75272Y-61222D01*
X75217Y-61094D01*
X75144Y-60894D01*
X75053Y-60676D01*
X74944Y-60421D01*
X74799Y-60130D01*
X74653Y-59820D01*
X74489Y-59493D01*
X74289Y-59165D01*
X74089Y-58837D01*
X73852Y-58492D01*
X73597Y-58182D01*
X73343Y-57873D01*
X73051Y-57600D01*
X72742Y-57345D01*
X72724Y-57327D01*
X72669Y-57291D01*
X72578Y-57236D01*
X72451Y-57145D01*
X72287Y-57054D01*
X72087Y-56945D01*
X71850Y-56836D01*
X71595Y-56708D01*
X71304Y-56599D01*
X70995Y-56490D01*
X70649Y-56380D01*
X70285Y-56289D01*
X69885Y-56199D01*
X69466Y-56144D01*
X69029Y-56108D01*
X68556Y-56089D01*
X68283Y-56089D01*
X68083Y-56108D01*
X67828Y-56126D01*
X67537Y-56162D01*
X67209Y-56199D01*
X66863Y-56271D01*
X66481Y-56344D01*
X66099Y-56435D01*
X65698Y-56544D01*
X65280Y-56672D01*
X64879Y-56836D01*
X64479Y-57036D01*
X64079Y-57236D01*
X63697Y-57491D01*
X63678Y-57509D01*
X63605Y-57545D01*
X63514Y-57636D01*
X63387Y-57745D01*
X63223Y-57891D01*
X63041Y-58055D01*
X62841Y-58255D01*
X62623Y-58474D01*
X62404Y-58728D01*
X62168Y-59001D01*
X61949Y-59311D01*
X61731Y-59657D01*
X61513Y-60002D01*
X61312Y-60385D01*
X61130Y-60785D01*
X60967Y-61222D01*
X60967Y-61240D01*
X60930Y-61331D01*
X60894Y-61458D01*
X60839Y-61622D01*
X60785Y-61840D01*
X60712Y-62095D01*
X60657Y-62386D01*
X60584Y-62714D01*
X60511Y-63060D01*
X60439Y-63442D01*
X60366Y-63843D01*
X60311Y-64261D01*
X60220Y-65135D01*
X60202Y-65590D01*
X60184Y-66063D01*
X60184Y-66099D01*
X60184Y-66209D01*
X60184Y-66372D01*
X60202Y-66609D01*
X60220Y-66882D01*
X60239Y-67210D01*
X60257Y-67573D01*
X60293Y-67956D01*
X60348Y-68392D01*
X60402Y-68847D01*
X60584Y-69776D01*
X60675Y-70267D01*
X60803Y-70740D01*
X60948Y-71213D01*
X61112Y-71668D01*
X61130Y-71687D01*
X61148Y-71778D01*
X61203Y-71887D01*
X61294Y-72051D01*
X61385Y-72251D01*
X61513Y-72487D01*
X61658Y-72742D01*
X61822Y-73015D01*
X62022Y-73288D01*
X62240Y-73579D01*
X62477Y-73889D01*
X62732Y-74180D01*
X63023Y-74471D01*
X63333Y-74744D01*
X63660Y-74999D01*
X64024Y-75236D01*
X64042Y-75254D01*
X64115Y-75290D01*
X64224Y-75345D01*
X64370Y-75418D01*
X64552Y-75509D01*
X64770Y-75618D01*
X65025Y-75709D01*
X65298Y-75818D01*
X65608Y-75945D01*
X65935Y-76037D01*
X66299Y-76146D01*
X66663Y-76237D01*
X67064Y-76309D01*
X67464Y-76364D01*
X67882Y-76400D01*
X68301Y-76419D01*
X68428Y-76419D01*
X68574Y-76400D01*
X68774Y-76400D01*
X69011Y-76364D01*
X69284Y-76328D01*
X69612Y-76291D01*
X69939Y-76219D01*
X70303Y-76127D01*
X70685Y-76018D01*
X71086Y-75891D01*
X71486Y-75745D01*
X71886Y-75563D01*
X72287Y-75345D01*
X72669Y-75090D01*
X73051Y-74817D01*
X73070Y-74799D01*
X73142Y-74744D01*
X73233Y-74653D01*
X73361Y-74508D01*
X73525Y-74344D01*
X73707Y-74144D01*
X73907Y-73889D01*
X74107Y-73616D01*
X74325Y-73288D01*
X74544Y-72942D01*
X74780Y-72542D01*
X74981Y-72105D01*
X75199Y-71650D01*
X75381Y-71141D01*
X75545Y-70613D01*
X75690Y-70031D01*
X79021Y-70868D01*
X79021Y-70886D01*
X79003Y-70922D01*
X78984Y-70977D01*
X78966Y-71050D01*
X78948Y-71141D01*
X78912Y-71268D01*
X78821Y-71541D01*
X78693Y-71887D01*
X78548Y-72269D01*
X78366Y-72706D01*
X78147Y-73179D01*
X77911Y-73689D01*
X77638Y-74198D01*
X77328Y-74708D01*
X76983Y-75236D01*
X76600Y-75745D01*
X76182Y-76237D01*
X75727Y-76692D01*
X75235Y-77129D01*
X75199Y-77147D01*
X75108Y-77219D01*
X74962Y-77329D01*
X74744Y-77456D01*
X74489Y-77620D01*
X74162Y-77802D01*
X73797Y-78002D01*
X73379Y-78202D01*
X72924Y-78403D01*
X72414Y-78603D01*
X71868Y-78785D01*
X71286Y-78948D01*
X70649Y-79076D01*
X69994Y-79185D01*
X69302Y-79258D01*
X68574Y-79276D01*
X68301Y-79276D01*
X68174Y-79258D01*
X67901Y-79258D01*
X67555Y-79222D01*
X67154Y-79185D01*
X66700Y-79130D01*
X66226Y-79076D01*
X65698Y-78985D01*
X65171Y-78876D01*
X64606Y-78730D01*
X64061Y-78585D01*
X63514Y-78384D01*
X62968Y-78166D01*
X62441Y-77911D01*
X61949Y-77620D01*
X61913Y-77602D01*
X61840Y-77547D01*
X61713Y-77438D01*
X61531Y-77311D01*
X61312Y-77147D01*
X61076Y-76928D01*
X60803Y-76692D01*
X60511Y-76400D01*
X60202Y-76073D01*
X59893Y-75727D01*
X59565Y-75327D01*
X59237Y-74908D01*
X58928Y-74435D01*
X58619Y-73944D01*
X58328Y-73397D01*
X58073Y-72833D01*
X58073Y-72815D01*
X58054Y-72797D01*
X58018Y-72688D01*
X57945Y-72524D01*
X57873Y-72287D01*
X57763Y-71996D01*
X57654Y-71650D01*
X57527Y-71250D01*
X57417Y-70813D01*
X57290Y-70322D01*
X57163Y-69794D01*
X57053Y-69248D01*
X56944Y-68647D01*
X56871Y-68047D01*
X56799Y-67410D01*
X56762Y-66754D01*
X56744Y-66081D01*
X56744Y-66063D01*
X56744Y-66026D01*
X56744Y-65972D01*
X56744Y-65899D01*
X56744Y-65808D01*
X56762Y-65699D01*
X56762Y-65426D01*
X56799Y-65080D01*
X56817Y-64680D01*
X56871Y-64225D01*
X56926Y-63733D01*
X57017Y-63224D01*
X57108Y-62678D01*
X57236Y-62095D01*
X57381Y-61513D01*
X57545Y-60931D01*
X57745Y-60348D01*
X57982Y-59784D01*
X58236Y-59220D01*
X58255Y-59183D01*
X58309Y-59092D01*
X58400Y-58947D01*
X58510Y-58728D01*
X58673Y-58492D01*
X58855Y-58219D01*
X59092Y-57891D01*
X59347Y-57563D01*
X59620Y-57218D01*
X59947Y-56836D01*
X60293Y-56471D01*
X60675Y-56108D01*
X61094Y-55743D01*
X61531Y-55398D01*
X62004Y-55070D01*
X62514Y-54761D01*
X62550Y-54742D01*
X62641Y-54688D01*
X62786Y-54615D01*
X63005Y-54524D01*
X63260Y-54397D01*
X63569Y-54269D01*
X63933Y-54142D01*
X64315Y-53996D01*
X64752Y-53851D01*
X65225Y-53723D01*
X65735Y-53578D01*
X66263Y-53468D01*
X66827Y-53377D01*
X67409Y-53305D01*
X68010Y-53250D01*
X68629Y-53232D01*
X68883Y-53232D01*
X68993Y-53250D01*
X68993Y-53250D02*
G37*
G36*
X90196Y-53596D02*
X90414Y-53614D01*
X90669Y-53651D01*
X90942Y-53687D01*
X91251Y-53742D01*
X91597Y-53814D01*
X91943Y-53905D01*
X92325Y-54014D01*
X92707Y-54142D01*
X93090Y-54288D01*
X93490Y-54469D01*
X93872Y-54670D01*
X94254Y-54906D01*
X94272Y-54925D01*
X94345Y-54961D01*
X94454Y-55052D01*
X94582Y-55143D01*
X94764Y-55288D01*
X94964Y-55452D01*
X95164Y-55653D01*
X95401Y-55871D01*
X95656Y-56126D01*
X95910Y-56417D01*
X96165Y-56726D01*
X96420Y-57072D01*
X96675Y-57436D01*
X96912Y-57818D01*
X97148Y-58237D01*
X97348Y-58692D01*
X97367Y-58728D01*
X97403Y-58801D01*
X97439Y-58947D01*
X97512Y-59147D01*
X97603Y-59402D01*
X97694Y-59711D01*
X97785Y-60075D01*
X97894Y-60494D01*
X97985Y-60967D01*
X98076Y-61495D01*
X98167Y-62059D01*
X98258Y-62696D01*
X98331Y-63388D01*
X98368Y-64115D01*
X98404Y-64916D01*
X98422Y-65754D01*
X98422Y-65772D01*
X98422Y-65808D01*
X98422Y-65881D01*
X98422Y-65972D01*
X98422Y-66081D01*
X98422Y-66209D01*
X98404Y-66372D01*
X98404Y-66554D01*
X98404Y-66754D01*
X98386Y-66955D01*
X98368Y-67428D01*
X98331Y-67956D01*
X98295Y-68520D01*
X98240Y-69121D01*
X98167Y-69739D01*
X98076Y-70394D01*
X97985Y-71031D01*
X97858Y-71668D01*
X97712Y-72287D01*
X97549Y-72870D01*
X97367Y-73434D01*
X97348Y-73470D01*
X97312Y-73561D01*
X97257Y-73707D01*
X97166Y-73907D01*
X97057Y-74144D01*
X96930Y-74417D01*
X96766Y-74726D01*
X96584Y-75054D01*
X96365Y-75400D01*
X96147Y-75745D01*
X95874Y-76109D01*
X95601Y-76473D01*
X95292Y-76819D01*
X94964Y-77165D01*
X94618Y-77493D01*
X94236Y-77784D01*
X94218Y-77802D01*
X94145Y-77838D01*
X94036Y-77929D01*
X93872Y-78020D01*
X93672Y-78129D01*
X93435Y-78257D01*
X93162Y-78384D01*
X92853Y-78530D01*
X92525Y-78675D01*
X92143Y-78803D01*
X91761Y-78930D01*
X91324Y-79040D01*
X90869Y-79130D01*
X90396Y-79203D01*
X89904Y-79258D01*
X89395Y-79276D01*
X89267Y-79276D01*
X89104Y-79258D01*
X88903Y-79258D01*
X88649Y-79222D01*
X88358Y-79185D01*
X88030Y-79130D01*
X87684Y-79076D01*
X87302Y-78985D01*
X86901Y-78876D01*
X86501Y-78748D01*
X86101Y-78585D01*
X85700Y-78403D01*
X85300Y-78184D01*
X84918Y-77929D01*
X84554Y-77638D01*
X84535Y-77620D01*
X84481Y-77565D01*
X84372Y-77474D01*
X84263Y-77329D01*
X84117Y-77165D01*
X83935Y-76965D01*
X83753Y-76728D01*
X83571Y-76437D01*
X83371Y-76127D01*
X83189Y-75782D01*
X82989Y-75418D01*
X82825Y-74999D01*
X82661Y-74544D01*
X82515Y-74071D01*
X82406Y-73561D01*
X82315Y-73015D01*
X85282Y-72742D01*
X85282Y-72760D01*
X85300Y-72833D01*
X85318Y-72942D01*
X85355Y-73088D01*
X85391Y-73252D01*
X85445Y-73452D01*
X85518Y-73689D01*
X85591Y-73907D01*
X85791Y-74417D01*
X86046Y-74926D01*
X86356Y-75400D01*
X86519Y-75618D01*
X86719Y-75800D01*
X86738Y-75818D01*
X86774Y-75836D01*
X86829Y-75891D01*
X86920Y-75945D01*
X87011Y-76018D01*
X87138Y-76091D01*
X87302Y-76182D01*
X87466Y-76255D01*
X87648Y-76346D01*
X87866Y-76437D01*
X88321Y-76582D01*
X88849Y-76692D01*
X89140Y-76710D01*
X89450Y-76728D01*
X89595Y-76728D01*
X89686Y-76710D01*
X89814Y-76710D01*
X89959Y-76692D01*
X90305Y-76655D01*
X90687Y-76564D01*
X91124Y-76455D01*
X91543Y-76309D01*
X91961Y-76091D01*
X91979Y-76091D01*
X92016Y-76055D01*
X92070Y-76018D01*
X92143Y-75964D01*
X92343Y-75818D01*
X92580Y-75618D01*
X92853Y-75381D01*
X93144Y-75072D01*
X93435Y-74726D01*
X93708Y-74344D01*
X93708Y-74326D01*
X93745Y-74289D01*
X93781Y-74235D01*
X93817Y-74144D01*
X93890Y-74034D01*
X93945Y-73907D01*
X94036Y-73743D01*
X94109Y-73561D01*
X94200Y-73361D01*
X94291Y-73143D01*
X94382Y-72906D01*
X94491Y-72651D01*
X94582Y-72360D01*
X94673Y-72069D01*
X94764Y-71741D01*
X94855Y-71414D01*
X94855Y-71395D01*
X94873Y-71323D01*
X94891Y-71232D01*
X94928Y-71086D01*
X94964Y-70922D01*
X95001Y-70722D01*
X95055Y-70504D01*
X95091Y-70249D01*
X95128Y-69976D01*
X95183Y-69666D01*
X95255Y-69029D01*
X95310Y-68338D01*
X95328Y-67628D01*
X95328Y-67610D01*
X95328Y-67592D01*
X95328Y-67537D01*
X95328Y-67483D01*
X95328Y-67391D01*
X95328Y-67282D01*
X95328Y-67155D01*
X95328Y-67009D01*
X95310Y-67028D01*
X95292Y-67082D01*
X95237Y-67155D01*
X95164Y-67264D01*
X95055Y-67391D01*
X94946Y-67537D01*
X94819Y-67701D01*
X94655Y-67865D01*
X94491Y-68065D01*
X94291Y-68247D01*
X94091Y-68447D01*
X93854Y-68647D01*
X93362Y-69048D01*
X92780Y-69412D01*
X92762Y-69430D01*
X92707Y-69448D01*
X92616Y-69503D01*
X92507Y-69557D01*
X92343Y-69630D01*
X92180Y-69703D01*
X91979Y-69776D01*
X91743Y-69867D01*
X91488Y-69958D01*
X91233Y-70031D01*
X90632Y-70176D01*
X89996Y-70285D01*
X89650Y-70303D01*
X89304Y-70322D01*
X89158Y-70322D01*
X88995Y-70303D01*
X88776Y-70285D01*
X88521Y-70249D01*
X88194Y-70194D01*
X87848Y-70140D01*
X87466Y-70031D01*
X87065Y-69921D01*
X86629Y-69776D01*
X86192Y-69594D01*
X85755Y-69375D01*
X85300Y-69102D01*
X84863Y-68811D01*
X84426Y-68465D01*
X84008Y-68065D01*
X83990Y-68047D01*
X83917Y-67956D01*
X83808Y-67828D01*
X83680Y-67646D01*
X83516Y-67428D01*
X83334Y-67155D01*
X83134Y-66827D01*
X82934Y-66463D01*
X82734Y-66063D01*
X82534Y-65608D01*
X82352Y-65117D01*
X82188Y-64589D01*
X82060Y-64025D01*
X81951Y-63406D01*
X81878Y-62769D01*
X81860Y-62095D01*
X81860Y-62077D01*
X81860Y-62059D01*
X81860Y-62004D01*
X81860Y-61931D01*
X81878Y-61840D01*
X81878Y-61731D01*
X81897Y-61458D01*
X81933Y-61131D01*
X81987Y-60748D01*
X82042Y-60330D01*
X82151Y-59875D01*
X82260Y-59402D01*
X82406Y-58892D01*
X82588Y-58383D01*
X82806Y-57873D01*
X83079Y-57363D01*
X83371Y-56854D01*
X83716Y-56380D01*
X84117Y-55925D01*
X84135Y-55907D01*
X84226Y-55816D01*
X84353Y-55707D01*
X84517Y-55562D01*
X84736Y-55380D01*
X85009Y-55179D01*
X85318Y-54961D01*
X85664Y-54742D01*
X86064Y-54524D01*
X86483Y-54324D01*
X86956Y-54124D01*
X87466Y-53942D01*
X87993Y-53796D01*
X88558Y-53687D01*
X89158Y-53596D01*
X89777Y-53578D01*
X90014Y-53578D01*
X90196Y-53596D01*
X90196Y-53596D02*
G37*
G36*
X-67780Y-79293D02*
X-67507Y-79293D01*
X-67161Y-79330D01*
X-66761Y-79366D01*
X-66306Y-79421D01*
X-65832Y-79475D01*
X-65305Y-79566D01*
X-64777Y-79675D01*
X-64213Y-79821D01*
X-63667Y-79967D01*
X-63121Y-80167D01*
X-62575Y-80385D01*
X-62047Y-80640D01*
X-61556Y-80931D01*
X-61519Y-80950D01*
X-61446Y-81004D01*
X-61319Y-81113D01*
X-61137Y-81241D01*
X-60919Y-81404D01*
X-60682Y-81623D01*
X-60409Y-81859D01*
X-60118Y-82151D01*
X-59808Y-82478D01*
X-59499Y-82824D01*
X-59171Y-83225D01*
X-58844Y-83643D01*
X-58534Y-84116D01*
X-58225Y-84608D01*
X-57934Y-85154D01*
X-57679Y-85718D01*
X-57679Y-85736D01*
X-57661Y-85754D01*
X-57624Y-85864D01*
X-57551Y-86027D01*
X-57479Y-86264D01*
X-57370Y-86555D01*
X-57260Y-86901D01*
X-57133Y-87301D01*
X-57024Y-87738D01*
X-56896Y-88230D01*
X-56769Y-88757D01*
X-56660Y-89303D01*
X-56550Y-89904D01*
X-56478Y-90504D01*
X-56405Y-91141D01*
X-56368Y-91797D01*
X-56350Y-92470D01*
X-56350Y-92488D01*
X-56350Y-92525D01*
X-56350Y-92579D01*
X-56350Y-92652D01*
X-56350Y-92743D01*
X-56368Y-92852D01*
X-56368Y-93125D01*
X-56405Y-93471D01*
X-56423Y-93871D01*
X-56478Y-94326D01*
X-56532Y-94818D01*
X-56623Y-95328D01*
X-56714Y-95874D01*
X-56842Y-96456D01*
X-56987Y-97038D01*
X-57151Y-97621D01*
X-57351Y-98203D01*
X-57588Y-98767D01*
X-57843Y-99332D01*
X-57861Y-99368D01*
X-57916Y-99459D01*
X-58007Y-99605D01*
X-58116Y-99823D01*
X-58279Y-100059D01*
X-58462Y-100332D01*
X-58698Y-100660D01*
X-58953Y-100988D01*
X-59226Y-101334D01*
X-59553Y-101716D01*
X-59899Y-102080D01*
X-60282Y-102444D01*
X-60700Y-102808D01*
X-61137Y-103153D01*
X-61610Y-103481D01*
X-62120Y-103790D01*
X-62156Y-103809D01*
X-62247Y-103863D01*
X-62393Y-103936D01*
X-62611Y-104027D01*
X-62866Y-104154D01*
X-63175Y-104282D01*
X-63539Y-104409D01*
X-63922Y-104555D01*
X-64358Y-104701D01*
X-64832Y-104828D01*
X-65341Y-104974D01*
X-65869Y-105083D01*
X-66433Y-105174D01*
X-67016Y-105246D01*
X-67616Y-105301D01*
X-68235Y-105319D01*
X-68490Y-105319D01*
X-68599Y-105301D01*
X-68872Y-105283D01*
X-69200Y-105265D01*
X-69564Y-105210D01*
X-69982Y-105156D01*
X-70455Y-105083D01*
X-70947Y-104974D01*
X-71456Y-104846D01*
X-71984Y-104701D01*
X-72512Y-104500D01*
X-73040Y-104282D01*
X-73586Y-104027D01*
X-74095Y-103736D01*
X-74587Y-103390D01*
X-74623Y-103372D01*
X-74696Y-103299D01*
X-74841Y-103190D01*
X-75005Y-103026D01*
X-75224Y-102844D01*
X-75460Y-102589D01*
X-75715Y-102316D01*
X-76006Y-101989D01*
X-76297Y-101625D01*
X-76607Y-101224D01*
X-76898Y-100769D01*
X-77189Y-100296D01*
X-77481Y-99768D01*
X-77735Y-99204D01*
X-77990Y-98603D01*
X-78190Y-97966D01*
X-74914Y-97202D01*
X-74896Y-97239D01*
X-74878Y-97329D01*
X-74823Y-97457D01*
X-74751Y-97657D01*
X-74659Y-97876D01*
X-74550Y-98130D01*
X-74405Y-98421D01*
X-74259Y-98731D01*
X-74095Y-99058D01*
X-73895Y-99386D01*
X-73695Y-99714D01*
X-73458Y-100059D01*
X-73204Y-100369D01*
X-72949Y-100678D01*
X-72657Y-100951D01*
X-72348Y-101206D01*
X-72330Y-101224D01*
X-72275Y-101261D01*
X-72184Y-101315D01*
X-72057Y-101406D01*
X-71893Y-101497D01*
X-71693Y-101606D01*
X-71456Y-101716D01*
X-71201Y-101843D01*
X-70910Y-101952D01*
X-70601Y-102061D01*
X-70255Y-102171D01*
X-69891Y-102262D01*
X-69491Y-102353D01*
X-69072Y-102407D01*
X-68635Y-102444D01*
X-68162Y-102462D01*
X-67889Y-102462D01*
X-67689Y-102444D01*
X-67434Y-102425D01*
X-67143Y-102389D01*
X-66815Y-102353D01*
X-66469Y-102280D01*
X-66087Y-102207D01*
X-65705Y-102116D01*
X-65305Y-102007D01*
X-64886Y-101879D01*
X-64486Y-101716D01*
X-64085Y-101516D01*
X-63685Y-101315D01*
X-63303Y-101061D01*
X-63285Y-101042D01*
X-63212Y-101006D01*
X-63121Y-100915D01*
X-62993Y-100806D01*
X-62830Y-100660D01*
X-62648Y-100496D01*
X-62447Y-100296D01*
X-62229Y-100078D01*
X-62011Y-99823D01*
X-61774Y-99550D01*
X-61556Y-99240D01*
X-61337Y-98895D01*
X-61119Y-98549D01*
X-60919Y-98167D01*
X-60736Y-97766D01*
X-60573Y-97329D01*
X-60573Y-97311D01*
X-60536Y-97220D01*
X-60500Y-97093D01*
X-60445Y-96929D01*
X-60391Y-96711D01*
X-60318Y-96456D01*
X-60263Y-96165D01*
X-60191Y-95837D01*
X-60118Y-95491D01*
X-60045Y-95109D01*
X-59972Y-94709D01*
X-59917Y-94290D01*
X-59827Y-93416D01*
X-59808Y-92962D01*
X-59790Y-92488D01*
X-59790Y-92452D01*
X-59790Y-92343D01*
X-59790Y-92179D01*
X-59808Y-91942D01*
X-59827Y-91669D01*
X-59845Y-91342D01*
X-59863Y-90978D01*
X-59899Y-90596D01*
X-59954Y-90159D01*
X-60008Y-89704D01*
X-60191Y-88775D01*
X-60282Y-88284D01*
X-60409Y-87811D01*
X-60554Y-87338D01*
X-60718Y-86883D01*
X-60736Y-86865D01*
X-60755Y-86773D01*
X-60809Y-86664D01*
X-60900Y-86501D01*
X-60991Y-86300D01*
X-61119Y-86064D01*
X-61264Y-85809D01*
X-61428Y-85536D01*
X-61628Y-85263D01*
X-61847Y-84972D01*
X-62083Y-84662D01*
X-62338Y-84371D01*
X-62629Y-84080D01*
X-62939Y-83807D01*
X-63266Y-83552D01*
X-63630Y-83316D01*
X-63648Y-83297D01*
X-63721Y-83261D01*
X-63831Y-83206D01*
X-63976Y-83133D01*
X-64158Y-83043D01*
X-64376Y-82933D01*
X-64631Y-82842D01*
X-64904Y-82733D01*
X-65214Y-82606D01*
X-65541Y-82515D01*
X-65905Y-82406D01*
X-66269Y-82314D01*
X-66670Y-82242D01*
X-67070Y-82187D01*
X-67489Y-82151D01*
X-67907Y-82132D01*
X-68035Y-82132D01*
X-68180Y-82151D01*
X-68380Y-82151D01*
X-68617Y-82187D01*
X-68890Y-82224D01*
X-69218Y-82260D01*
X-69545Y-82333D01*
X-69909Y-82424D01*
X-70291Y-82533D01*
X-70692Y-82660D01*
X-71092Y-82806D01*
X-71493Y-82988D01*
X-71893Y-83206D01*
X-72275Y-83461D01*
X-72657Y-83734D01*
X-72676Y-83752D01*
X-72749Y-83807D01*
X-72840Y-83898D01*
X-72967Y-84043D01*
X-73131Y-84207D01*
X-73313Y-84407D01*
X-73513Y-84662D01*
X-73713Y-84935D01*
X-73931Y-85263D01*
X-74150Y-85609D01*
X-74386Y-86009D01*
X-74587Y-86446D01*
X-74805Y-86901D01*
X-74987Y-87410D01*
X-75151Y-87938D01*
X-75296Y-88521D01*
X-78627Y-87683D01*
X-78627Y-87665D01*
X-78609Y-87629D01*
X-78591Y-87574D01*
X-78573Y-87501D01*
X-78554Y-87410D01*
X-78518Y-87283D01*
X-78427Y-87010D01*
X-78299Y-86664D01*
X-78154Y-86282D01*
X-77972Y-85845D01*
X-77754Y-85372D01*
X-77517Y-84862D01*
X-77244Y-84353D01*
X-76934Y-83843D01*
X-76589Y-83316D01*
X-76207Y-82806D01*
X-75788Y-82314D01*
X-75333Y-81859D01*
X-74841Y-81423D01*
X-74805Y-81404D01*
X-74714Y-81332D01*
X-74569Y-81222D01*
X-74350Y-81095D01*
X-74095Y-80931D01*
X-73768Y-80749D01*
X-73404Y-80549D01*
X-72985Y-80349D01*
X-72530Y-80149D01*
X-72020Y-79948D01*
X-71475Y-79766D01*
X-70892Y-79603D01*
X-70255Y-79475D01*
X-69600Y-79366D01*
X-68908Y-79293D01*
X-68180Y-79275D01*
X-67907Y-79275D01*
X-67780Y-79293D01*
X-67780Y-79293D02*
G37*
G36*
X-90020Y-99386D02*
X-90002Y-99368D01*
X-89966Y-99332D01*
X-89911Y-99277D01*
X-89820Y-99204D01*
X-89711Y-99113D01*
X-89565Y-98986D01*
X-89401Y-98858D01*
X-89238Y-98713D01*
X-89019Y-98567D01*
X-88801Y-98385D01*
X-88564Y-98221D01*
X-88309Y-98021D01*
X-88018Y-97839D01*
X-87727Y-97639D01*
X-87072Y-97239D01*
X-87054Y-97220D01*
X-86999Y-97184D01*
X-86890Y-97129D01*
X-86763Y-97075D01*
X-86617Y-96984D01*
X-86435Y-96874D01*
X-86216Y-96765D01*
X-85998Y-96638D01*
X-85489Y-96383D01*
X-84942Y-96128D01*
X-84378Y-95874D01*
X-83832Y-95655D01*
X-83832Y-98640D01*
X-83869Y-98658D01*
X-83942Y-98695D01*
X-84087Y-98767D01*
X-84269Y-98858D01*
X-84487Y-98968D01*
X-84760Y-99113D01*
X-85052Y-99277D01*
X-85361Y-99459D01*
X-85707Y-99677D01*
X-86071Y-99896D01*
X-86835Y-100405D01*
X-87618Y-100969D01*
X-88364Y-101588D01*
X-88382Y-101606D01*
X-88455Y-101661D01*
X-88546Y-101752D01*
X-88674Y-101879D01*
X-88837Y-102043D01*
X-89019Y-102225D01*
X-89219Y-102444D01*
X-89438Y-102662D01*
X-89656Y-102917D01*
X-89893Y-103190D01*
X-90348Y-103754D01*
X-90766Y-104355D01*
X-90948Y-104664D01*
X-91112Y-104974D01*
X-93114Y-104974D01*
X-93114Y-79694D01*
X-90020Y-79694D01*
X-90020Y-99386D01*
X-90020Y-99386D02*
G37*
G36*
X-109585Y-99386D02*
X-109567Y-99368D01*
X-109531Y-99332D01*
X-109476Y-99277D01*
X-109385Y-99204D01*
X-109276Y-99113D01*
X-109130Y-98986D01*
X-108966Y-98858D01*
X-108803Y-98713D01*
X-108584Y-98567D01*
X-108366Y-98385D01*
X-108129Y-98221D01*
X-107874Y-98021D01*
X-107583Y-97839D01*
X-107292Y-97639D01*
X-106637Y-97239D01*
X-106619Y-97220D01*
X-106564Y-97184D01*
X-106455Y-97129D01*
X-106328Y-97075D01*
X-106182Y-96984D01*
X-106000Y-96874D01*
X-105781Y-96765D01*
X-105563Y-96638D01*
X-105053Y-96383D01*
X-104507Y-96128D01*
X-103943Y-95874D01*
X-103397Y-95655D01*
X-103397Y-98640D01*
X-103434Y-98658D01*
X-103507Y-98695D01*
X-103652Y-98767D01*
X-103834Y-98858D01*
X-104052Y-98968D01*
X-104326Y-99113D01*
X-104617Y-99277D01*
X-104926Y-99459D01*
X-105272Y-99677D01*
X-105636Y-99896D01*
X-106400Y-100405D01*
X-107183Y-100969D01*
X-107929Y-101588D01*
X-107947Y-101606D01*
X-108020Y-101661D01*
X-108111Y-101752D01*
X-108239Y-101879D01*
X-108402Y-102043D01*
X-108584Y-102225D01*
X-108784Y-102444D01*
X-109003Y-102662D01*
X-109221Y-102917D01*
X-109458Y-103190D01*
X-109913Y-103754D01*
X-110332Y-104355D01*
X-110513Y-104664D01*
X-110677Y-104974D01*
X-112679Y-104974D01*
X-112679Y-79694D01*
X-109585Y-79694D01*
X-109585Y-99386D01*
X-109585Y-99386D02*
G37*
G36*
X13498Y-102915D02*
X13771Y-102915D01*
X14117Y-102952D01*
X14517Y-102970D01*
X14972Y-103025D01*
X15464Y-103079D01*
X15973Y-103170D01*
X16519Y-103261D01*
X17102Y-103389D01*
X17684Y-103534D01*
X18267Y-103698D01*
X18849Y-103898D01*
X19413Y-104135D01*
X19977Y-104390D01*
X20014Y-104408D01*
X20105Y-104462D01*
X20250Y-104553D01*
X20469Y-104663D01*
X20705Y-104826D01*
X20978Y-105008D01*
X21306Y-105245D01*
X21634Y-105500D01*
X21979Y-105773D01*
X22361Y-106100D01*
X22726Y-106446D01*
X23090Y-106828D01*
X23453Y-107247D01*
X23799Y-107684D01*
X24127Y-108157D01*
X24436Y-108667D01*
X24454Y-108703D01*
X24509Y-108794D01*
X24582Y-108940D01*
X24673Y-109158D01*
X24800Y-109413D01*
X24928Y-109722D01*
X25055Y-110086D01*
X25201Y-110468D01*
X25346Y-110905D01*
X25474Y-111378D01*
X25619Y-111888D01*
X25729Y-112416D01*
X25820Y-112980D01*
X25892Y-113562D01*
X25947Y-114163D01*
X25965Y-114782D01*
X25965Y-115037D01*
X25947Y-115146D01*
X25929Y-115419D01*
X25910Y-115746D01*
X25856Y-116110D01*
X25801Y-116529D01*
X25729Y-117002D01*
X25619Y-117494D01*
X25492Y-118003D01*
X25346Y-118531D01*
X25146Y-119059D01*
X24928Y-119587D01*
X24673Y-120133D01*
X24382Y-120642D01*
X24036Y-121134D01*
X24018Y-121170D01*
X23945Y-121243D01*
X23836Y-121388D01*
X23672Y-121552D01*
X23490Y-121771D01*
X23235Y-122007D01*
X22962Y-122262D01*
X22634Y-122553D01*
X22270Y-122844D01*
X21870Y-123154D01*
X21415Y-123445D01*
X20942Y-123736D01*
X20414Y-124027D01*
X19850Y-124282D01*
X19249Y-124537D01*
X18612Y-124737D01*
X17848Y-121461D01*
X17884Y-121443D01*
X17975Y-121425D01*
X18103Y-121370D01*
X18303Y-121297D01*
X18521Y-121206D01*
X18776Y-121097D01*
X19067Y-120952D01*
X19377Y-120806D01*
X19704Y-120642D01*
X20032Y-120442D01*
X20360Y-120242D01*
X20705Y-120005D01*
X21015Y-119750D01*
X21324Y-119496D01*
X21597Y-119204D01*
X21852Y-118895D01*
X21870Y-118877D01*
X21907Y-118822D01*
X21961Y-118731D01*
X22052Y-118604D01*
X22143Y-118440D01*
X22252Y-118240D01*
X22361Y-118003D01*
X22489Y-117748D01*
X22598Y-117457D01*
X22707Y-117148D01*
X22817Y-116802D01*
X22907Y-116438D01*
X22998Y-116038D01*
X23053Y-115619D01*
X23090Y-115182D01*
X23108Y-114709D01*
X23108Y-114436D01*
X23090Y-114236D01*
X23071Y-113981D01*
X23035Y-113690D01*
X22998Y-113362D01*
X22926Y-113016D01*
X22853Y-112634D01*
X22762Y-112252D01*
X22653Y-111852D01*
X22525Y-111433D01*
X22361Y-111033D01*
X22161Y-110632D01*
X21961Y-110232D01*
X21706Y-109850D01*
X21688Y-109831D01*
X21652Y-109759D01*
X21561Y-109668D01*
X21451Y-109540D01*
X21306Y-109376D01*
X21142Y-109194D01*
X20942Y-108994D01*
X20724Y-108776D01*
X20469Y-108557D01*
X20196Y-108321D01*
X19886Y-108102D01*
X19541Y-107884D01*
X19195Y-107666D01*
X18812Y-107465D01*
X18412Y-107283D01*
X17975Y-107120D01*
X17957Y-107120D01*
X17866Y-107083D01*
X17739Y-107047D01*
X17575Y-106992D01*
X17357Y-106938D01*
X17102Y-106865D01*
X16811Y-106810D01*
X16483Y-106737D01*
X16137Y-106665D01*
X15755Y-106592D01*
X15354Y-106519D01*
X14936Y-106464D01*
X14062Y-106373D01*
X13607Y-106355D01*
X13134Y-106337D01*
X13098Y-106337D01*
X12989Y-106337D01*
X12825Y-106337D01*
X12588Y-106355D01*
X12315Y-106373D01*
X11988Y-106392D01*
X11624Y-106410D01*
X11241Y-106446D01*
X10805Y-106501D01*
X10350Y-106555D01*
X9421Y-106737D01*
X8930Y-106828D01*
X8457Y-106956D01*
X7984Y-107101D01*
X7529Y-107265D01*
X7510Y-107283D01*
X7419Y-107302D01*
X7310Y-107356D01*
X7146Y-107447D01*
X6946Y-107538D01*
X6710Y-107666D01*
X6455Y-107811D01*
X6182Y-107975D01*
X5909Y-108175D01*
X5617Y-108394D01*
X5308Y-108630D01*
X5017Y-108885D01*
X4726Y-109176D01*
X4453Y-109486D01*
X4198Y-109813D01*
X3961Y-110177D01*
X3943Y-110195D01*
X3907Y-110268D01*
X3852Y-110377D01*
X3779Y-110523D01*
X3688Y-110705D01*
X3579Y-110923D01*
X3488Y-111178D01*
X3379Y-111451D01*
X3252Y-111761D01*
X3160Y-112088D01*
X3051Y-112452D01*
X2960Y-112816D01*
X2888Y-113217D01*
X2833Y-113617D01*
X2796Y-114036D01*
X2778Y-114454D01*
X2778Y-114582D01*
X2796Y-114727D01*
X2796Y-114927D01*
X2833Y-115164D01*
X2869Y-115437D01*
X2906Y-115765D01*
X2978Y-116092D01*
X3070Y-116456D01*
X3179Y-116838D01*
X3306Y-117239D01*
X3452Y-117639D01*
X3634Y-118040D01*
X3852Y-118440D01*
X4107Y-118822D01*
X4380Y-119204D01*
X4398Y-119223D01*
X4453Y-119295D01*
X4544Y-119386D01*
X4689Y-119514D01*
X4853Y-119678D01*
X5053Y-119860D01*
X5308Y-120060D01*
X5581Y-120260D01*
X5909Y-120478D01*
X6255Y-120697D01*
X6655Y-120933D01*
X7092Y-121134D01*
X7547Y-121352D01*
X8056Y-121534D01*
X8584Y-121698D01*
X9166Y-121843D01*
X8329Y-125174D01*
X8311Y-125174D01*
X8275Y-125156D01*
X8220Y-125138D01*
X8147Y-125119D01*
X8056Y-125101D01*
X7929Y-125065D01*
X7656Y-124974D01*
X7310Y-124846D01*
X6928Y-124701D01*
X6491Y-124519D01*
X6018Y-124300D01*
X5508Y-124064D01*
X4999Y-123791D01*
X4489Y-123481D01*
X3961Y-123136D01*
X3452Y-122753D01*
X2960Y-122335D01*
X2505Y-121880D01*
X2068Y-121388D01*
X2050Y-121352D01*
X1978Y-121261D01*
X1868Y-121115D01*
X1741Y-120897D01*
X1577Y-120642D01*
X1395Y-120315D01*
X1195Y-119951D01*
X995Y-119532D01*
X794Y-119077D01*
X594Y-118567D01*
X412Y-118021D01*
X248Y-117439D01*
X121Y-116802D01*
X12Y-116147D01*
X-61Y-115455D01*
X-79Y-114727D01*
X-79Y-114454D01*
X-61Y-114327D01*
X-61Y-114054D01*
X-24Y-113708D01*
X12Y-113308D01*
X66Y-112853D01*
X121Y-112379D01*
X212Y-111852D01*
X321Y-111324D01*
X467Y-110760D01*
X612Y-110214D01*
X813Y-109668D01*
X1031Y-109122D01*
X1286Y-108594D01*
X1577Y-108102D01*
X1595Y-108066D01*
X1650Y-107993D01*
X1759Y-107866D01*
X1887Y-107684D01*
X2050Y-107465D01*
X2269Y-107229D01*
X2505Y-106956D01*
X2796Y-106665D01*
X3124Y-106355D01*
X3470Y-106046D01*
X3870Y-105718D01*
X4289Y-105391D01*
X4762Y-105081D01*
X5253Y-104772D01*
X5800Y-104481D01*
X6364Y-104226D01*
X6382Y-104226D01*
X6400Y-104208D01*
X6509Y-104171D01*
X6673Y-104098D01*
X6910Y-104026D01*
X7201Y-103916D01*
X7547Y-103807D01*
X7947Y-103680D01*
X8384Y-103571D01*
X8875Y-103443D01*
X9403Y-103316D01*
X9949Y-103207D01*
X10550Y-103097D01*
X11150Y-103025D01*
X11787Y-102952D01*
X12443Y-102915D01*
X13116Y-102897D01*
X13134Y-102897D01*
X13171Y-102897D01*
X13225Y-102897D01*
X13298Y-102897D01*
X13389Y-102897D01*
X13498Y-102915D01*
X13498Y-102915D02*
G37*
G36*
X19304Y-130416D02*
X19340Y-130488D01*
X19413Y-130634D01*
X19504Y-130816D01*
X19613Y-131034D01*
X19759Y-131307D01*
X19923Y-131599D01*
X20105Y-131908D01*
X20323Y-132254D01*
X20541Y-132618D01*
X21051Y-133382D01*
X21615Y-134165D01*
X22234Y-134911D01*
X22252Y-134929D01*
X22307Y-135002D01*
X22398Y-135093D01*
X22525Y-135220D01*
X22689Y-135384D01*
X22871Y-135566D01*
X23090Y-135766D01*
X23308Y-135985D01*
X23563Y-136203D01*
X23836Y-136440D01*
X24400Y-136895D01*
X25000Y-137313D01*
X25310Y-137495D01*
X25619Y-137659D01*
X25619Y-139661D01*
X340Y-139661D01*
X340Y-136567D01*
X20032Y-136567D01*
X20014Y-136549D01*
X19977Y-136513D01*
X19923Y-136458D01*
X19850Y-136367D01*
X19759Y-136258D01*
X19631Y-136112D01*
X19504Y-135948D01*
X19358Y-135785D01*
X19213Y-135566D01*
X19031Y-135348D01*
X18867Y-135111D01*
X18667Y-134856D01*
X18485Y-134565D01*
X18285Y-134274D01*
X17884Y-133619D01*
X17866Y-133601D01*
X17830Y-133546D01*
X17775Y-133437D01*
X17721Y-133309D01*
X17630Y-133164D01*
X17520Y-132982D01*
X17411Y-132763D01*
X17284Y-132545D01*
X17029Y-132035D01*
X16774Y-131489D01*
X16519Y-130925D01*
X16301Y-130379D01*
X19286Y-130379D01*
X19304Y-130416D01*
X19304Y-130416D02*
G37*
G36*
X13334Y-147596D02*
X13498Y-147596D01*
X13862Y-147615D01*
X14299Y-147633D01*
X14790Y-147651D01*
X15318Y-147687D01*
X15882Y-147742D01*
X16465Y-147797D01*
X17666Y-147960D01*
X18267Y-148070D01*
X18849Y-148197D01*
X19413Y-148324D01*
X19941Y-148488D01*
X19977Y-148506D01*
X20068Y-148525D01*
X20196Y-148579D01*
X20396Y-148652D01*
X20614Y-148761D01*
X20887Y-148870D01*
X21178Y-149016D01*
X21488Y-149180D01*
X21816Y-149344D01*
X22161Y-149562D01*
X22525Y-149780D01*
X22871Y-150017D01*
X23217Y-150290D01*
X23544Y-150581D01*
X23854Y-150891D01*
X24145Y-151218D01*
X24163Y-151236D01*
X24218Y-151309D01*
X24291Y-151400D01*
X24382Y-151546D01*
X24491Y-151728D01*
X24618Y-151946D01*
X24746Y-152183D01*
X24891Y-152474D01*
X25019Y-152783D01*
X25146Y-153129D01*
X25273Y-153511D01*
X25383Y-153912D01*
X25492Y-154349D01*
X25565Y-154804D01*
X25601Y-155277D01*
X25619Y-155786D01*
X25619Y-155987D01*
X25601Y-156132D01*
X25601Y-156296D01*
X25583Y-156514D01*
X25547Y-156733D01*
X25510Y-156988D01*
X25419Y-157534D01*
X25273Y-158134D01*
X25073Y-158753D01*
X24946Y-159044D01*
X24800Y-159335D01*
X24800Y-159354D01*
X24764Y-159408D01*
X24709Y-159481D01*
X24655Y-159590D01*
X24564Y-159718D01*
X24454Y-159863D01*
X24345Y-160045D01*
X24200Y-160227D01*
X23872Y-160628D01*
X23453Y-161046D01*
X22980Y-161465D01*
X22434Y-161847D01*
X22416Y-161865D01*
X22361Y-161883D01*
X22270Y-161938D01*
X22161Y-162011D01*
X22016Y-162102D01*
X21834Y-162193D01*
X21634Y-162302D01*
X21397Y-162411D01*
X21142Y-162539D01*
X20851Y-162666D01*
X20541Y-162793D01*
X20214Y-162939D01*
X19868Y-163066D01*
X19504Y-163176D01*
X19104Y-163303D01*
X18703Y-163412D01*
X18685Y-163412D01*
X18594Y-163430D01*
X18485Y-163467D01*
X18303Y-163503D01*
X18084Y-163540D01*
X17811Y-163594D01*
X17502Y-163649D01*
X17138Y-163703D01*
X16738Y-163758D01*
X16283Y-163813D01*
X15791Y-163867D01*
X15264Y-163904D01*
X14699Y-163940D01*
X14081Y-163976D01*
X13444Y-163995D01*
X12752Y-163995D01*
X12734Y-163995D01*
X12697Y-163995D01*
X12643Y-163995D01*
X12552Y-163995D01*
X12461Y-163995D01*
X12333Y-163995D01*
X12188Y-163976D01*
X12024Y-163976D01*
X11642Y-163958D01*
X11205Y-163940D01*
X10732Y-163922D01*
X10204Y-163885D01*
X9640Y-163831D01*
X9057Y-163776D01*
X7874Y-163612D01*
X7274Y-163503D01*
X6691Y-163376D01*
X6127Y-163230D01*
X5599Y-163066D01*
X5563Y-163048D01*
X5472Y-163030D01*
X5344Y-162975D01*
X5144Y-162903D01*
X4926Y-162793D01*
X4653Y-162684D01*
X4362Y-162539D01*
X4052Y-162393D01*
X3725Y-162211D01*
X3379Y-161993D01*
X3033Y-161774D01*
X2669Y-161538D01*
X2323Y-161265D01*
X1996Y-160973D01*
X1686Y-160664D01*
X1395Y-160336D01*
X1377Y-160318D01*
X1340Y-160245D01*
X1268Y-160154D01*
X1159Y-160009D01*
X1049Y-159827D01*
X922Y-159627D01*
X794Y-159372D01*
X667Y-159099D01*
X522Y-158771D01*
X394Y-158425D01*
X267Y-158061D01*
X158Y-157661D01*
X66Y-157224D01*
X-6Y-156769D01*
X-61Y-156296D01*
X-79Y-155786D01*
X-79Y-155623D01*
X-61Y-155441D01*
X-43Y-155186D01*
X-6Y-154876D01*
X66Y-154512D01*
X139Y-154130D01*
X248Y-153693D01*
X376Y-153238D01*
X558Y-152783D01*
X758Y-152310D01*
X1013Y-151819D01*
X1304Y-151346D01*
X1650Y-150891D01*
X2050Y-150454D01*
X2505Y-150053D01*
X2523Y-150053D01*
X2542Y-150035D01*
X2596Y-149999D01*
X2651Y-149944D01*
X2742Y-149890D01*
X2851Y-149817D01*
X2960Y-149744D01*
X3106Y-149671D01*
X3270Y-149580D01*
X3452Y-149471D01*
X3652Y-149380D01*
X3870Y-149271D01*
X4125Y-149162D01*
X4380Y-149052D01*
X4671Y-148925D01*
X4962Y-148816D01*
X5290Y-148707D01*
X5636Y-148579D01*
X6000Y-148470D01*
X6400Y-148361D01*
X6801Y-148252D01*
X7237Y-148161D01*
X7674Y-148051D01*
X8165Y-147960D01*
X8657Y-147888D01*
X9166Y-147815D01*
X9713Y-147742D01*
X10277Y-147687D01*
X10859Y-147633D01*
X11460Y-147615D01*
X12097Y-147578D01*
X12752Y-147578D01*
X12770Y-147578D01*
X12806Y-147578D01*
X12861Y-147578D01*
X12952Y-147578D01*
X13061Y-147578D01*
X13189Y-147578D01*
X13334Y-147596D01*
X13334Y-147596D02*
G37*
G36*
X175134Y240229D02*
X160593Y240229D01*
X160556Y240229D01*
X160447Y240229D01*
X160283Y240229D01*
X160065Y240211D01*
X159792Y240211D01*
X159482Y240192D01*
X159137Y240174D01*
X158754Y240156D01*
X158372Y240120D01*
X157972Y240083D01*
X157171Y239974D01*
X156789Y239901D01*
X156407Y239828D01*
X156061Y239738D01*
X155751Y239628D01*
X155733Y239628D01*
X155679Y239592D01*
X155606Y239555D01*
X155497Y239501D01*
X155369Y239446D01*
X155224Y239355D01*
X154878Y239137D01*
X154496Y238846D01*
X154295Y238682D01*
X154095Y238482D01*
X153895Y238281D01*
X153713Y238045D01*
X153531Y237808D01*
X153367Y237535D01*
X153367Y237517D01*
X153331Y237463D01*
X153294Y237390D01*
X153240Y237262D01*
X153167Y237117D01*
X153094Y236953D01*
X153021Y236753D01*
X152949Y236516D01*
X152876Y236261D01*
X152803Y235988D01*
X152730Y235697D01*
X152657Y235369D01*
X152603Y235024D01*
X152566Y234660D01*
X152548Y234296D01*
X152530Y233895D01*
X152530Y233732D01*
X152548Y233549D01*
X152548Y233295D01*
X152585Y232985D01*
X152621Y232658D01*
X152676Y232275D01*
X152730Y231857D01*
X152821Y231438D01*
X152930Y231001D01*
X153076Y230565D01*
X153222Y230128D01*
X153422Y229709D01*
X153640Y229327D01*
X153895Y228963D01*
X154186Y228654D01*
X154204Y228636D01*
X154259Y228581D01*
X154368Y228508D01*
X154514Y228417D01*
X154714Y228290D01*
X154969Y228162D01*
X155260Y228017D01*
X155624Y227871D01*
X156024Y227726D01*
X156479Y227580D01*
X157007Y227452D01*
X157590Y227325D01*
X158245Y227234D01*
X158955Y227161D01*
X159737Y227107D01*
X160593Y227089D01*
X175134Y227089D01*
X175134Y223758D01*
X160574Y223758D01*
X160556Y223758D01*
X160538Y223758D01*
X160483Y223758D01*
X160411Y223758D01*
X160320Y223758D01*
X160210Y223758D01*
X159956Y223776D01*
X159628Y223776D01*
X159264Y223794D01*
X158845Y223831D01*
X158409Y223867D01*
X157935Y223922D01*
X157444Y223976D01*
X156443Y224122D01*
X155933Y224231D01*
X155460Y224340D01*
X154987Y224486D01*
X154550Y224631D01*
X154532Y224650D01*
X154459Y224668D01*
X154332Y224722D01*
X154186Y224795D01*
X153986Y224905D01*
X153768Y225014D01*
X153531Y225159D01*
X153258Y225341D01*
X152967Y225542D01*
X152676Y225760D01*
X152384Y226015D01*
X152075Y226306D01*
X151766Y226615D01*
X151474Y226943D01*
X151183Y227325D01*
X150910Y227726D01*
X150892Y227744D01*
X150856Y227835D01*
X150783Y227962D01*
X150692Y228126D01*
X150583Y228363D01*
X150473Y228617D01*
X150346Y228945D01*
X150219Y229291D01*
X150091Y229709D01*
X149964Y230146D01*
X149855Y230619D01*
X149745Y231147D01*
X149654Y231711D01*
X149582Y232312D01*
X149545Y232931D01*
X149527Y233604D01*
X149527Y233950D01*
X149545Y234186D01*
X149563Y234496D01*
X149600Y234842D01*
X149636Y235242D01*
X149673Y235661D01*
X149745Y236116D01*
X149818Y236589D01*
X149927Y237062D01*
X150037Y237554D01*
X150182Y238027D01*
X150346Y238518D01*
X150528Y238973D01*
X150746Y239410D01*
X150765Y239428D01*
X150801Y239501D01*
X150874Y239628D01*
X150965Y239774D01*
X151092Y239956D01*
X151256Y240174D01*
X151438Y240393D01*
X151638Y240648D01*
X151875Y240902D01*
X152148Y241175D01*
X152421Y241448D01*
X152748Y241703D01*
X153076Y241958D01*
X153458Y242195D01*
X153840Y242413D01*
X154259Y242613D01*
X154295Y242631D01*
X154368Y242649D01*
X154496Y242704D01*
X154678Y242759D01*
X154914Y242832D01*
X155205Y242904D01*
X155533Y242995D01*
X155915Y243086D01*
X156352Y243177D01*
X156825Y243268D01*
X157335Y243341D01*
X157899Y243414D01*
X158500Y243469D01*
X159155Y243523D01*
X159846Y243541D01*
X160574Y243560D01*
X175134Y243560D01*
X175134Y240229D01*
X175134Y240229D02*
G37*
G36*
X150346Y219827D02*
X150637Y219809D01*
X150947Y219772D01*
X151311Y219718D01*
X151693Y219626D01*
X152075Y219499D01*
X152093Y219499D01*
X152148Y219463D01*
X152239Y219426D01*
X152366Y219372D01*
X152530Y219317D01*
X152712Y219226D01*
X152912Y219117D01*
X153131Y219008D01*
X153385Y218880D01*
X153640Y218716D01*
X154204Y218371D01*
X154805Y217952D01*
X155424Y217461D01*
X155442Y217442D01*
X155497Y217388D01*
X155588Y217315D01*
X155715Y217206D01*
X155879Y217060D01*
X156061Y216878D01*
X156279Y216678D01*
X156516Y216423D01*
X156789Y216150D01*
X157080Y215859D01*
X157389Y215531D01*
X157735Y215167D01*
X158081Y214767D01*
X158445Y214349D01*
X158827Y213893D01*
X159228Y213420D01*
X159246Y213402D01*
X159264Y213366D01*
X159319Y213311D01*
X159373Y213238D01*
X159464Y213147D01*
X159555Y213038D01*
X159792Y212765D01*
X160065Y212419D01*
X160411Y212055D01*
X160775Y211637D01*
X161175Y211200D01*
X161594Y210727D01*
X162030Y210272D01*
X162467Y209798D01*
X162922Y209362D01*
X163359Y208925D01*
X163778Y208543D01*
X164196Y208179D01*
X164578Y207887D01*
X164597Y207869D01*
X164669Y207833D01*
X164779Y207760D01*
X164906Y207651D01*
X165088Y207542D01*
X165288Y207433D01*
X165525Y207287D01*
X165780Y207160D01*
X166053Y207032D01*
X166344Y206887D01*
X166981Y206650D01*
X167308Y206559D01*
X167636Y206486D01*
X167964Y206450D01*
X168291Y206431D01*
X168309Y206431D01*
X168382Y206431D01*
X168473Y206431D01*
X168601Y206450D01*
X168764Y206468D01*
X168946Y206504D01*
X169147Y206541D01*
X169365Y206595D01*
X169602Y206668D01*
X169856Y206759D01*
X170111Y206868D01*
X170366Y206996D01*
X170639Y207141D01*
X170894Y207323D01*
X171149Y207524D01*
X171385Y207760D01*
X171403Y207778D01*
X171440Y207815D01*
X171494Y207887D01*
X171585Y207997D01*
X171676Y208124D01*
X171786Y208288D01*
X171913Y208470D01*
X172022Y208670D01*
X172150Y208907D01*
X172259Y209161D01*
X172368Y209453D01*
X172459Y209744D01*
X172550Y210071D01*
X172605Y210417D01*
X172641Y210781D01*
X172659Y211163D01*
X172659Y211382D01*
X172641Y211528D01*
X172623Y211728D01*
X172586Y211946D01*
X172550Y212183D01*
X172495Y212456D01*
X172423Y212729D01*
X172332Y213020D01*
X172222Y213311D01*
X172095Y213620D01*
X171931Y213912D01*
X171749Y214203D01*
X171549Y214494D01*
X171312Y214749D01*
X171294Y214767D01*
X171258Y214804D01*
X171167Y214876D01*
X171076Y214949D01*
X170930Y215058D01*
X170766Y215167D01*
X170566Y215295D01*
X170348Y215404D01*
X170111Y215531D01*
X169820Y215659D01*
X169529Y215768D01*
X169201Y215877D01*
X168837Y215950D01*
X168455Y216023D01*
X168055Y216059D01*
X167618Y216077D01*
X167945Y219262D01*
X167964Y219262D01*
X167982Y219262D01*
X168036Y219244D01*
X168109Y219244D01*
X168291Y219226D01*
X168528Y219172D01*
X168819Y219117D01*
X169165Y219044D01*
X169547Y218953D01*
X169947Y218844D01*
X170384Y218698D01*
X170821Y218535D01*
X171276Y218334D01*
X171731Y218098D01*
X172168Y217843D01*
X172586Y217534D01*
X172987Y217206D01*
X173351Y216824D01*
X173369Y216805D01*
X173424Y216733D01*
X173533Y216605D01*
X173642Y216441D01*
X173788Y216223D01*
X173951Y215968D01*
X174115Y215659D01*
X174297Y215313D01*
X174461Y214913D01*
X174625Y214494D01*
X174789Y214021D01*
X174934Y213511D01*
X175062Y212965D01*
X175153Y212383D01*
X175207Y211764D01*
X175225Y211109D01*
X175225Y210945D01*
X175207Y210763D01*
X175189Y210508D01*
X175171Y210199D01*
X175116Y209853D01*
X175062Y209453D01*
X174971Y209034D01*
X174861Y208579D01*
X174734Y208124D01*
X174570Y207633D01*
X174370Y207160D01*
X174133Y206686D01*
X173879Y206231D01*
X173569Y205794D01*
X173205Y205376D01*
X173187Y205358D01*
X173114Y205285D01*
X173005Y205176D01*
X172841Y205048D01*
X172659Y204885D01*
X172423Y204702D01*
X172150Y204502D01*
X171840Y204302D01*
X171494Y204120D01*
X171112Y203920D01*
X170694Y203738D01*
X170257Y203574D01*
X169784Y203447D01*
X169292Y203338D01*
X168764Y203265D01*
X168218Y203246D01*
X168200Y203246D01*
X168146Y203246D01*
X168073Y203246D01*
X167964Y203246D01*
X167818Y203265D01*
X167672Y203283D01*
X167490Y203301D01*
X167290Y203319D01*
X166835Y203392D01*
X166326Y203501D01*
X165798Y203665D01*
X165252Y203865D01*
X165234Y203865D01*
X165179Y203902D01*
X165106Y203938D01*
X164997Y203993D01*
X164870Y204047D01*
X164706Y204138D01*
X164524Y204229D01*
X164324Y204357D01*
X164105Y204484D01*
X163869Y204630D01*
X163341Y204994D01*
X163068Y205194D01*
X162777Y205412D01*
X162485Y205667D01*
X162176Y205922D01*
X162158Y205940D01*
X162103Y205995D01*
X162012Y206067D01*
X161885Y206195D01*
X161721Y206359D01*
X161521Y206559D01*
X161284Y206777D01*
X161011Y207050D01*
X160720Y207360D01*
X160392Y207724D01*
X160028Y208106D01*
X159628Y208543D01*
X159209Y209016D01*
X158754Y209525D01*
X158263Y210090D01*
X157753Y210690D01*
X157735Y210727D01*
X157644Y210818D01*
X157535Y210945D01*
X157371Y211127D01*
X157189Y211364D01*
X156971Y211600D01*
X156734Y211873D01*
X156479Y212165D01*
X155952Y212783D01*
X155679Y213075D01*
X155424Y213366D01*
X155169Y213639D01*
X154951Y213875D01*
X154750Y214094D01*
X154568Y214257D01*
X154532Y214294D01*
X154423Y214385D01*
X154259Y214530D01*
X154059Y214713D01*
X153804Y214913D01*
X153531Y215131D01*
X153222Y215350D01*
X152912Y215550D01*
X152912Y203210D01*
X149946Y203210D01*
X149946Y219845D01*
X149964Y219845D01*
X150000Y219845D01*
X150055Y219845D01*
X150128Y219845D01*
X150237Y219845D01*
X150346Y219827D01*
X150346Y219827D02*
G37*
%LPC*%
G36*
X90159Y-56144D02*
X90068Y-56144D01*
X89959Y-56162D01*
X89814Y-56162D01*
X89632Y-56199D01*
X89431Y-56235D01*
X89195Y-56289D01*
X88940Y-56362D01*
X88649Y-56453D01*
X88376Y-56562D01*
X88066Y-56690D01*
X87757Y-56854D01*
X87448Y-57054D01*
X87156Y-57272D01*
X86847Y-57545D01*
X86556Y-57837D01*
X86537Y-57855D01*
X86483Y-57909D01*
X86410Y-58000D01*
X86319Y-58146D01*
X86210Y-58310D01*
X86082Y-58510D01*
X85937Y-58746D01*
X85809Y-59001D01*
X85664Y-59311D01*
X85518Y-59638D01*
X85391Y-59984D01*
X85282Y-60385D01*
X85191Y-60785D01*
X85118Y-61222D01*
X85063Y-61695D01*
X85045Y-62186D01*
X85045Y-62205D01*
X85045Y-62295D01*
X85063Y-62423D01*
X85063Y-62587D01*
X85082Y-62787D01*
X85118Y-63023D01*
X85172Y-63297D01*
X85227Y-63569D01*
X85300Y-63879D01*
X85391Y-64188D01*
X85518Y-64516D01*
X85646Y-64844D01*
X85809Y-65171D01*
X86010Y-65499D01*
X86228Y-65808D01*
X86483Y-66099D01*
X86501Y-66118D01*
X86556Y-66154D01*
X86629Y-66245D01*
X86738Y-66336D01*
X86883Y-66445D01*
X87047Y-66573D01*
X87247Y-66700D01*
X87466Y-66846D01*
X87721Y-66991D01*
X87993Y-67118D01*
X88285Y-67246D01*
X88594Y-67355D01*
X88940Y-67446D01*
X89304Y-67519D01*
X89668Y-67573D01*
X90068Y-67592D01*
X90159Y-67592D01*
X90269Y-67573D01*
X90432Y-67573D01*
X90614Y-67537D01*
X90814Y-67519D01*
X91051Y-67464D01*
X91324Y-67410D01*
X91597Y-67319D01*
X91870Y-67228D01*
X92161Y-67100D01*
X92471Y-66955D01*
X92762Y-66791D01*
X93053Y-66591D01*
X93326Y-66354D01*
X93599Y-66099D01*
X93617Y-66081D01*
X93654Y-66026D01*
X93727Y-65936D01*
X93817Y-65826D01*
X93927Y-65662D01*
X94036Y-65481D01*
X94163Y-65262D01*
X94291Y-65007D01*
X94418Y-64734D01*
X94546Y-64425D01*
X94655Y-64079D01*
X94764Y-63697D01*
X94855Y-63297D01*
X94928Y-62878D01*
X94964Y-62423D01*
X94982Y-61931D01*
X94982Y-61895D01*
X94982Y-61822D01*
X94982Y-61677D01*
X94964Y-61495D01*
X94946Y-61258D01*
X94909Y-61003D01*
X94855Y-60712D01*
X94800Y-60403D01*
X94728Y-60075D01*
X94636Y-59729D01*
X94527Y-59383D01*
X94382Y-59020D01*
X94218Y-58674D01*
X94036Y-58346D01*
X93817Y-58019D01*
X93563Y-57709D01*
X93544Y-57691D01*
X93490Y-57636D01*
X93417Y-57563D01*
X93308Y-57472D01*
X93180Y-57345D01*
X93017Y-57218D01*
X92817Y-57072D01*
X92598Y-56926D01*
X92362Y-56781D01*
X92107Y-56635D01*
X91834Y-56508D01*
X91524Y-56380D01*
X91215Y-56289D01*
X90869Y-56217D01*
X90523Y-56162D01*
X90159Y-56144D01*
X90159Y-56144D02*
G37*
G36*
X13316Y-150763D02*
X12752Y-150763D01*
X12734Y-150763D01*
X12679Y-150763D01*
X12606Y-150763D01*
X12479Y-150763D01*
X12333Y-150763D01*
X12169Y-150781D01*
X11969Y-150781D01*
X11751Y-150781D01*
X11514Y-150800D01*
X11259Y-150800D01*
X10677Y-150836D01*
X10058Y-150891D01*
X9403Y-150945D01*
X8711Y-151018D01*
X8020Y-151109D01*
X7328Y-151236D01*
X6655Y-151364D01*
X6018Y-151528D01*
X5454Y-151728D01*
X5181Y-151837D01*
X4944Y-151946D01*
X4707Y-152074D01*
X4507Y-152201D01*
X4489Y-152219D01*
X4416Y-152274D01*
X4325Y-152347D01*
X4198Y-152456D01*
X4034Y-152601D01*
X3870Y-152783D01*
X3670Y-152965D01*
X3488Y-153202D01*
X3306Y-153439D01*
X3106Y-153712D01*
X2942Y-154003D01*
X2796Y-154330D01*
X2651Y-154658D01*
X2560Y-155022D01*
X2487Y-155404D01*
X2469Y-155786D01*
X2469Y-155877D01*
X2487Y-155987D01*
X2505Y-156132D01*
X2523Y-156314D01*
X2578Y-156533D01*
X2633Y-156769D01*
X2724Y-157024D01*
X2833Y-157297D01*
X2960Y-157588D01*
X3124Y-157879D01*
X3324Y-158189D01*
X3561Y-158480D01*
X3834Y-158789D01*
X4143Y-159081D01*
X4507Y-159354D01*
X4526Y-159372D01*
X4617Y-159408D01*
X4744Y-159481D01*
X4926Y-159590D01*
X5181Y-159699D01*
X5490Y-159809D01*
X5854Y-159954D01*
X6309Y-160082D01*
X6564Y-160154D01*
X6837Y-160209D01*
X7110Y-160282D01*
X7419Y-160355D01*
X7747Y-160409D01*
X8093Y-160464D01*
X8457Y-160537D01*
X8857Y-160591D01*
X9258Y-160628D01*
X9694Y-160682D01*
X10149Y-160719D01*
X10623Y-160755D01*
X11114Y-160773D01*
X11642Y-160791D01*
X12188Y-160810D01*
X12752Y-160810D01*
X12770Y-160810D01*
X12825Y-160810D01*
X12916Y-160810D01*
X13025Y-160810D01*
X13171Y-160810D01*
X13334Y-160810D01*
X13534Y-160791D01*
X13753Y-160791D01*
X13989Y-160773D01*
X14262Y-160773D01*
X14827Y-160737D01*
X15445Y-160682D01*
X16119Y-160628D01*
X16792Y-160555D01*
X17484Y-160464D01*
X18175Y-160336D01*
X18849Y-160191D01*
X19486Y-160027D01*
X20050Y-159827D01*
X20323Y-159718D01*
X20560Y-159608D01*
X20796Y-159481D01*
X20997Y-159354D01*
X21015Y-159335D01*
X21087Y-159281D01*
X21178Y-159208D01*
X21324Y-159099D01*
X21470Y-158953D01*
X21652Y-158789D01*
X21834Y-158589D01*
X22034Y-158371D01*
X22216Y-158116D01*
X22398Y-157843D01*
X22580Y-157552D01*
X22726Y-157224D01*
X22871Y-156878D01*
X22962Y-156533D01*
X23035Y-156150D01*
X23053Y-155750D01*
X23053Y-155659D01*
X23035Y-155550D01*
X23017Y-155404D01*
X22998Y-155222D01*
X22962Y-155004D01*
X22907Y-154785D01*
X22835Y-154531D01*
X22726Y-154258D01*
X22616Y-153985D01*
X22471Y-153693D01*
X22289Y-153420D01*
X22088Y-153129D01*
X21852Y-152856D01*
X21561Y-152601D01*
X21251Y-152347D01*
X21233Y-152328D01*
X21142Y-152274D01*
X20997Y-152201D01*
X20796Y-152092D01*
X20523Y-151983D01*
X20196Y-151855D01*
X19795Y-151710D01*
X19322Y-151564D01*
X19067Y-151473D01*
X18776Y-151400D01*
X18485Y-151327D01*
X18157Y-151273D01*
X17830Y-151200D01*
X17466Y-151127D01*
X17084Y-151073D01*
X16683Y-151018D01*
X16265Y-150963D01*
X15828Y-150909D01*
X15373Y-150872D01*
X14899Y-150836D01*
X14390Y-150800D01*
X13862Y-150781D01*
X13316Y-150763D01*
X13316Y-150763D02*
G37*
%LPD*%
D13*
X-229882Y111588D02*
X-209016Y111588D01*
X-209016Y153428D01*
X-229882Y153428D02*
X-209016Y153428D01*
X-229882Y111588D02*
X-229882Y153428D01*
X-245603Y75646D02*
X-245603Y96512D01*
X-287443Y96512D02*
X-245603Y96512D01*
X-287443Y75646D02*
X-287443Y96512D01*
X-287443Y75646D02*
X-245603Y75646D01*
X-530197Y111588D02*
X-509331Y111588D01*
X-509331Y153428D01*
X-530197Y153428D02*
X-509331Y153428D01*
X-530197Y111588D02*
X-530197Y153428D01*
X-493609Y75646D02*
X-493609Y96512D01*
X-493609Y75646D02*
X-451769Y75646D01*
X-451769Y96512D01*
X-493609Y96512D02*
X-451769Y96512D01*
X35825Y-89709D02*
X35825Y-68843D01*
X35825Y-89709D02*
X77665Y-89709D01*
X77665Y-68843D01*
X35825Y-68843D02*
X77665Y-68843D01*
X-35431Y-89709D02*
X-35431Y-68843D01*
X-77271Y-68843D02*
X-35431Y-68843D01*
X-77271Y-89709D02*
X-77271Y-68843D01*
X-77271Y-89709D02*
X-35431Y-89709D01*
X-10512Y-81978D02*
X10354Y-81978D01*
X-10512Y-123818D02*
X-10512Y-81978D01*
X-10512Y-123818D02*
X10354Y-123818D01*
X10354Y-81978D01*
X104252Y297693D02*
X194803Y297693D01*
X104252Y189425D02*
X104252Y297693D01*
X104252Y189425D02*
X194803Y189425D01*
X194803Y297693D01*
D49*
X-870433Y1235622D02*
X-299567Y1235622D01*
X-299567Y656882D02*
X-299567Y1235622D01*
X-870433Y656882D02*
X-299567Y656882D01*
X-870433Y656882D02*
X-870433Y1235622D01*
X-869449Y55504D02*
X-869449Y634244D01*
X-869449Y55504D02*
X-298583Y55504D01*
X-298583Y634244D01*
X-869449Y634244D02*
X-298583Y634244D01*
M02*
