G04*
G04 #@! TF.GenerationSoftware,Altium Limited,Altium Designer,25.8.1 (18)*
G04*
G04 Layer_Color=255*
%FSLAX26Y26*%
%MOIN*%
G70*
G04*
G04 #@! TF.SameCoordinates,AB66D781-FBCB-4B57-8275-DC7DE2197C71*
G04*
G04*
G04 #@! TF.FilePolarity,Positive*
G04*
G01*
G75*
%ADD20R,0.012950X0.033489*%
%ADD21R,0.010344X0.013941*%
%ADD22R,0.013941X0.010344*%
%ADD27R,0.013000X0.010000*%
%ADD28R,0.010000X0.013000*%
%ADD29R,0.059000X0.059000*%
%ADD38R,0.023622X0.023622*%
%ADD39R,0.078740X0.040157*%
%ADD40R,0.018432X0.018601*%
G04:AMPARAMS|DCode=41|XSize=21.654mil|YSize=19.685mil|CornerRadius=2.461mil|HoleSize=0mil|Usage=FLASHONLY|Rotation=90.000|XOffset=0mil|YOffset=0mil|HoleType=Round|Shape=RoundedRectangle|*
%AMROUNDEDRECTD41*
21,1,0.021654,0.014764,0,0,90.0*
21,1,0.016732,0.019685,0,0,90.0*
1,1,0.004921,0.007382,0.008366*
1,1,0.004921,0.007382,-0.008366*
1,1,0.004921,-0.007382,-0.008366*
1,1,0.004921,-0.007382,0.008366*
%
%ADD41ROUNDEDRECTD41*%
%ADD42R,0.011811X0.019685*%
%ADD43R,0.019685X0.011811*%
%ADD44R,0.029921X0.028346*%
%ADD45R,0.041339X0.039370*%
%ADD46R,0.086614X0.041339*%
D20*
X678169Y416339D02*
D03*
X554902Y416339D02*
D03*
X431634Y416339D02*
D03*
X308366Y416339D02*
D03*
D21*
X343110Y142520D02*
D03*
X343110Y122496D02*
D03*
X643425Y142520D02*
D03*
X643425Y122496D02*
D03*
D22*
X606363Y86079D02*
D03*
X586339Y86079D02*
D03*
X380172Y86079D02*
D03*
X400197Y86079D02*
D03*
D27*
X542768Y184504D02*
D03*
X542768Y200252D02*
D03*
X542768Y216000D02*
D03*
X542768Y231748D02*
D03*
X542768Y247496D02*
D03*
X443768Y247496D02*
D03*
X443768Y231748D02*
D03*
X443768Y216000D02*
D03*
X443768Y200252D02*
D03*
X443768Y184504D02*
D03*
D28*
X540512Y265500D02*
D03*
X524764Y265500D02*
D03*
X509016Y265500D02*
D03*
X493268Y265500D02*
D03*
X477520Y265500D02*
D03*
X461772Y265500D02*
D03*
X446024Y265500D02*
D03*
X446024Y166500D02*
D03*
X461772Y166500D02*
D03*
X477520Y166500D02*
D03*
X493268Y166500D02*
D03*
X509016Y166500D02*
D03*
X524764Y166500D02*
D03*
X540512Y166500D02*
D03*
D29*
X493268Y216000D02*
D03*
D38*
X174669Y76000D02*
D03*
X133331Y76000D02*
D03*
D39*
X-378307Y746252D02*
D03*
X-378307Y846252D02*
D03*
X-378307Y946252D02*
D03*
X-378307Y1046252D02*
D03*
X-378307Y1146252D02*
D03*
X-377323Y544874D02*
D03*
X-377323Y444874D02*
D03*
X-377323Y344874D02*
D03*
X-377323Y244874D02*
D03*
X-377323Y144874D02*
D03*
D40*
X232205Y360685D02*
D03*
X200540Y360685D02*
D03*
D41*
X104252Y483716D02*
D03*
X139685Y483716D02*
D03*
D42*
X200709Y423677D02*
D03*
X228268Y423677D02*
D03*
X113110Y446315D02*
D03*
X140669Y446315D02*
D03*
D43*
X139685Y374465D02*
D03*
X139685Y346906D02*
D03*
D44*
X154449Y126433D02*
D03*
X115866Y126433D02*
D03*
D45*
X95394Y720921D02*
D03*
D46*
X35354Y778992D02*
D03*
X35354Y662850D02*
D03*
M02*
