G04*
G04 #@! TF.GenerationSoftware,Altium Limited,Altium Designer,25.8.1 (18)*
G04*
G04 Layer_Color=32768*
%FSLAX26Y26*%
%MOIN*%
G70*
G04*
G04 #@! TF.SameCoordinates,AB66D781-FBCB-4B57-8275-DC7DE2197C71*
G04*
G04*
G04 #@! TF.FilePolarity,Positive*
G04*
G01*
G75*
%ADD11C,0.001000*%
%ADD13C,0.007874*%
%ADD17C,0.003000*%
%ADD49C,0.003937*%
D11*
X432268Y155000D02*
X554268Y155000D01*
X554268Y277000D01*
X432268Y277000D02*
X554268Y277000D01*
X432268Y155000D02*
X432268Y277000D01*
X545512Y272000D02*
X545512Y277000D01*
X535512Y272000D02*
X545512Y272000D01*
X535512Y272000D02*
X535512Y277000D01*
X545512Y277000D01*
X529764Y272000D02*
X529764Y277000D01*
X519764Y272000D02*
X529764Y272000D01*
X519764Y272000D02*
X519764Y277000D01*
X529764Y277000D01*
X514016Y272000D02*
X514016Y277000D01*
X504016Y272000D02*
X514016Y272000D01*
X504016Y272000D02*
X504016Y277000D01*
X514016Y277000D01*
X498268Y272000D02*
X498268Y277000D01*
X488268Y272000D02*
X498268Y272000D01*
X488268Y272000D02*
X488268Y277000D01*
X498268Y277000D01*
X482520Y272000D02*
X482520Y277000D01*
X472520Y272000D02*
X482520Y272000D01*
X472520Y272000D02*
X472520Y277000D01*
X482520Y277000D01*
X466772Y272000D02*
X466772Y277000D01*
X456772Y272000D02*
X466772Y272000D01*
X456772Y272000D02*
X456772Y277000D01*
X466772Y277000D01*
X451024Y272000D02*
X451024Y277000D01*
X441024Y272000D02*
X451024Y272000D01*
X441024Y272000D02*
X441024Y277000D01*
X451024Y277000D01*
X432268Y252496D02*
X437268Y252496D01*
X437268Y242496D02*
X437268Y252496D01*
X432268Y242496D02*
X437268Y242496D01*
X432268Y242496D02*
X432268Y252496D01*
X432268Y236748D02*
X437268Y236748D01*
X437268Y226748D02*
X437268Y236748D01*
X432268Y226748D02*
X437268Y226748D01*
X432268Y226748D02*
X432268Y236748D01*
X432268Y221000D02*
X437268Y221000D01*
X437268Y211000D02*
X437268Y221000D01*
X432268Y211000D02*
X437268Y211000D01*
X432268Y211000D02*
X432268Y221000D01*
X432268Y205252D02*
X437268Y205252D01*
X437268Y195252D02*
X437268Y205252D01*
X432268Y195252D02*
X437268Y195252D01*
X432268Y195252D02*
X432268Y205252D01*
X432268Y189504D02*
X437268Y189504D01*
X437268Y179504D02*
X437268Y189504D01*
X432268Y179504D02*
X437268Y179504D01*
X432268Y179504D02*
X432268Y189504D01*
X441024Y155000D02*
X441024Y160000D01*
X451024Y160000D01*
X451024Y155000D02*
X451024Y160000D01*
X441024Y155000D02*
X451024Y155000D01*
X456772Y155000D02*
X456772Y160000D01*
X466772Y160000D01*
X466772Y155000D02*
X466772Y160000D01*
X456772Y155000D02*
X466772Y155000D01*
X472520Y155000D02*
X472520Y160000D01*
X482520Y160000D01*
X482520Y155000D02*
X482520Y160000D01*
X472520Y155000D02*
X482520Y155000D01*
X488268Y155000D02*
X488268Y160000D01*
X498268Y160000D01*
X498268Y155000D02*
X498268Y160000D01*
X488268Y155000D02*
X498268Y155000D01*
X504016Y155000D02*
X504016Y160000D01*
X514016Y160000D01*
X514016Y155000D02*
X514016Y160000D01*
X504016Y155000D02*
X514016Y155000D01*
X519764Y155000D02*
X519764Y160000D01*
X529764Y160000D01*
X529764Y155000D02*
X529764Y160000D01*
X519764Y155000D02*
X529764Y155000D01*
X535512Y155000D02*
X535512Y160000D01*
X545512Y160000D01*
X545512Y155000D02*
X545512Y160000D01*
X535512Y155000D02*
X545512Y155000D01*
X549268Y179504D02*
X554268Y179504D01*
X549268Y179504D02*
X549268Y189504D01*
X554268Y189504D01*
X554268Y179504D02*
X554268Y189504D01*
X549268Y195252D02*
X554268Y195252D01*
X549268Y195252D02*
X549268Y205252D01*
X554268Y205252D01*
X554268Y195252D02*
X554268Y205252D01*
X549268Y211000D02*
X554268Y211000D01*
X549268Y211000D02*
X549268Y221000D01*
X554268Y221000D01*
X554268Y211000D02*
X554268Y221000D01*
X549268Y226748D02*
X554268Y226748D01*
X549268Y226748D02*
X549268Y236748D01*
X554268Y236748D01*
X554268Y226748D02*
X554268Y236748D01*
X549268Y242496D02*
X554268Y242496D01*
X549268Y242496D02*
X549268Y252496D01*
X554268Y252496D01*
X554268Y242496D02*
X554268Y252496D01*
X504268Y155000D02*
X554268Y205000D01*
D13*
X337205Y120697D02*
X349016Y120697D01*
X337205Y120697D02*
X337205Y144319D01*
X349016Y144319D01*
X349016Y120697D02*
X349016Y144319D01*
X584540Y91984D02*
X608162Y91984D01*
X584540Y80173D02*
X584540Y91984D01*
X584540Y80173D02*
X608162Y80173D01*
X608162Y91984D01*
X378373Y80173D02*
X401995Y80173D01*
X401995Y91984D01*
X378373Y91984D02*
X401995Y91984D01*
X378373Y80173D02*
X378373Y91984D01*
X637520Y120697D02*
X637520Y144319D01*
X637520Y120697D02*
X649331Y120697D01*
X649331Y144319D01*
X637520Y144319D02*
X649331Y144319D01*
X133331Y65173D02*
X133331Y86827D01*
X174669Y86827D01*
X174669Y65173D02*
X174669Y86827D01*
X133331Y65173D02*
X174669Y65173D01*
X196687Y350842D02*
X196687Y370527D01*
X236057Y370527D01*
X236057Y350842D02*
X236057Y370527D01*
X196687Y350842D02*
X236057Y350842D01*
X-18780Y666787D02*
X89488Y666787D01*
X-18780Y666787D02*
X-18780Y775055D01*
X89488Y775055D01*
X89488Y666787D02*
X89488Y775055D01*
D17*
X557165Y191500D02*
X523842Y224823D01*
X523842Y191500D02*
X557165Y224823D01*
X540504Y191500D02*
X540504Y224823D01*
X523842Y208161D02*
X557165Y208161D01*
D49*
X190866Y409898D02*
X190866Y437457D01*
X238110Y409898D02*
X238110Y437457D01*
X190866Y409898D02*
X238110Y409898D01*
X190866Y437457D02*
X238110Y437457D01*
X125906Y337063D02*
X125906Y384307D01*
X153464Y337063D02*
X153464Y384307D01*
X125906Y384307D02*
X153464Y384307D01*
X125906Y337063D02*
X153464Y337063D01*
X114488Y137260D02*
X155827Y137260D01*
X114488Y115606D02*
X155827Y115606D01*
X155827Y137260D01*
X114488Y115606D02*
X114488Y137260D01*
X103268Y432536D02*
X150512Y432536D01*
X103268Y460094D02*
X150512Y460094D01*
X103268Y432536D02*
X103268Y460094D01*
X150512Y432536D02*
X150512Y460094D01*
M02*
