G04*
G04 #@! TF.GenerationSoftware,Altium Limited,Altium Designer,25.8.1 (18)*
G04*
G04 Layer_Color=8421504*
%FSLAX26Y26*%
%MOIN*%
G70*
G04*
G04 #@! TF.SameCoordinates,AB66D781-FBCB-4B57-8275-DC7DE2197C71*
G04*
G04*
G04 #@! TF.FilePolarity,Positive*
G04*
G01*
G75*
%ADD18R,0.012992X0.001000*%
%ADD19R,0.001000X0.012992*%
%ADD20R,0.012950X0.033489*%
%ADD21R,0.010344X0.013941*%
%ADD22R,0.013941X0.010344*%
%ADD23R,0.009842X0.031496*%
%ADD24C,0.008858*%
%ADD25R,0.009842X0.027559*%
%ADD26R,0.039000X0.039000*%
%ADD27R,0.013000X0.010000*%
%ADD28R,0.010000X0.013000*%
%ADD29R,0.059000X0.059000*%
%ADD30R,0.022000X0.033000*%
%ADD31R,0.012992X0.003937*%
G36*
X181024Y242575D02*
X181024Y238638D01*
X118031Y238638D01*
X118031Y248480D01*
X175118Y248480D01*
X181024Y242575D01*
X181024Y242575D02*
G37*
D18*
X197Y191450D02*
D03*
X197Y105055D02*
D03*
D19*
X37140Y170496D02*
D03*
X37140Y126008D02*
D03*
D20*
X-184704Y390225D02*
D03*
X-307972Y390225D02*
D03*
X-431240Y390225D02*
D03*
X-554508Y390225D02*
D03*
D21*
X-219449Y142520D02*
D03*
X-219449Y122496D02*
D03*
X-519764Y142520D02*
D03*
X-519764Y122496D02*
D03*
X-79Y-112910D02*
D03*
X-79Y-92885D02*
D03*
D22*
X-276535Y86079D02*
D03*
X-256511Y86079D02*
D03*
X-462677Y86079D02*
D03*
X-482702Y86079D02*
D03*
X66757Y-79276D02*
D03*
X46732Y-79276D02*
D03*
X-66363Y-79276D02*
D03*
X-46339Y-79276D02*
D03*
D23*
X179055Y278008D02*
D03*
D24*
X149528Y243559D02*
D03*
D25*
X179055Y207142D02*
D03*
X159370Y207142D02*
D03*
X139685Y207142D02*
D03*
X120000Y207142D02*
D03*
X120000Y279976D02*
D03*
X139685Y279976D02*
D03*
X159370Y279976D02*
D03*
D26*
X197Y19779D02*
D03*
D27*
X40197Y35528D02*
D03*
X40197Y19779D02*
D03*
X40197Y4032D02*
D03*
X-39803Y4032D02*
D03*
X-39803Y19779D02*
D03*
X-39803Y35528D02*
D03*
X-320106Y184504D02*
D03*
X-320106Y200252D02*
D03*
X-320106Y216000D02*
D03*
X-320106Y231748D02*
D03*
X-320106Y247496D02*
D03*
X-419106Y247496D02*
D03*
X-419106Y231748D02*
D03*
X-419106Y216000D02*
D03*
X-419106Y200252D02*
D03*
X-419106Y184504D02*
D03*
D28*
X15945Y-20221D02*
D03*
X197Y-20221D02*
D03*
X-15551Y-20221D02*
D03*
X-15551Y59779D02*
D03*
X197Y59779D02*
D03*
X15945Y59779D02*
D03*
X-416850Y166500D02*
D03*
X-401102Y166500D02*
D03*
X-385354Y166500D02*
D03*
X-369606Y166500D02*
D03*
X-353858Y166500D02*
D03*
X-338110Y166500D02*
D03*
X-322362Y166500D02*
D03*
X-322362Y265500D02*
D03*
X-338110Y265500D02*
D03*
X-353858Y265500D02*
D03*
X-369606Y265500D02*
D03*
X-385354Y265500D02*
D03*
X-401102Y265500D02*
D03*
X-416850Y265500D02*
D03*
D29*
X-369606Y216000D02*
D03*
D30*
X114197Y126425D02*
D03*
X76197Y126425D02*
D03*
D31*
X96378Y419740D02*
D03*
M02*
