G04*
G04 #@! TF.GenerationSoftware,Altium Limited,Altium Designer,25.8.1 (18)*
G04*
G04 Layer_Color=16711935*
%FSLAX26Y26*%
%MOIN*%
G70*
G04*
G04 #@! TF.SameCoordinates,AB66D781-FBCB-4B57-8275-DC7DE2197C71*
G04*
G04*
G04 #@! TF.FilePolarity,Positive*
G04*
G01*
G75*
%ADD11C,0.001000*%
%ADD13C,0.007874*%
%ADD17C,0.003000*%
D11*
X-50803Y70779D02*
X51197Y70779D01*
X51197Y-31221D02*
X51197Y70779D01*
X-50803Y-31221D02*
X51197Y-31221D01*
X-50803Y-31221D02*
X-50803Y70779D01*
X20945Y-31221D02*
X20945Y-26721D01*
X10945Y-26721D02*
X20945Y-26721D01*
X10945Y-31221D02*
X10945Y-26721D01*
X10945Y-31221D02*
X20945Y-31221D01*
X5197Y-31221D02*
X5197Y-26721D01*
X-4803Y-26721D02*
X5197Y-26721D01*
X-4803Y-31221D02*
X-4803Y-26721D01*
X-4803Y-31221D02*
X5197Y-31221D01*
X-10551Y-31221D02*
X-10551Y-26721D01*
X-20551Y-26721D02*
X-10551Y-26721D01*
X-20551Y-31221D02*
X-20551Y-26721D01*
X-20551Y-31221D02*
X-10551Y-31221D01*
X-50803Y-968D02*
X-46303Y-968D01*
X-46303Y9031D01*
X-50803Y9031D02*
X-46303Y9031D01*
X-50803Y-968D02*
X-50803Y9031D01*
X-50803Y14780D02*
X-46303Y14780D01*
X-46303Y24779D01*
X-50803Y24779D02*
X-46303Y24779D01*
X-50803Y14780D02*
X-50803Y24779D01*
X-50803Y30527D02*
X-46303Y30527D01*
X-46303Y40528D01*
X-50803Y40528D02*
X-46303Y40528D01*
X-50803Y30527D02*
X-50803Y40528D01*
X-20551Y66279D02*
X-20551Y70779D01*
X-20551Y66279D02*
X-10551Y66279D01*
X-10551Y70779D01*
X-20551Y70779D02*
X-10551Y70779D01*
X-4803Y66279D02*
X-4803Y70779D01*
X-4803Y66279D02*
X5197Y66279D01*
X5197Y70779D01*
X-4803Y70779D02*
X5197Y70779D01*
X10945Y66279D02*
X10945Y70779D01*
X10945Y66279D02*
X20945Y66279D01*
X20945Y70779D01*
X10945Y70779D02*
X20945Y70779D01*
X46697Y40528D02*
X51197Y40528D01*
X46697Y30527D02*
X46697Y40528D01*
X46697Y30527D02*
X51197Y30527D01*
X51197Y40528D01*
X46697Y24779D02*
X51197Y24779D01*
X46697Y14780D02*
X46697Y24779D01*
X46697Y14780D02*
X51197Y14780D01*
X51197Y24779D01*
X46697Y9031D02*
X51197Y9031D01*
X46697Y-968D02*
X46697Y9031D01*
X46697Y-968D02*
X51197Y-968D01*
X51197Y9031D01*
X1197Y70779D02*
X51197Y20779D01*
X-430606Y205000D02*
X-380606Y155000D01*
X-430606Y242496D02*
X-430606Y252496D01*
X-425606Y252496D01*
X-425606Y242496D02*
X-425606Y252496D01*
X-430606Y242496D02*
X-425606Y242496D01*
X-430606Y226748D02*
X-430606Y236748D01*
X-425606Y236748D01*
X-425606Y226748D02*
X-425606Y236748D01*
X-430606Y226748D02*
X-425606Y226748D01*
X-430606Y211000D02*
X-430606Y221000D01*
X-425606Y221000D01*
X-425606Y211000D02*
X-425606Y221000D01*
X-430606Y211000D02*
X-425606Y211000D01*
X-430606Y195252D02*
X-430606Y205252D01*
X-425606Y205252D01*
X-425606Y195252D02*
X-425606Y205252D01*
X-430606Y195252D02*
X-425606Y195252D01*
X-430606Y179504D02*
X-430606Y189504D01*
X-425606Y189504D01*
X-425606Y179504D02*
X-425606Y189504D01*
X-430606Y179504D02*
X-425606Y179504D01*
X-421850Y155000D02*
X-411850Y155000D01*
X-421850Y155000D02*
X-421850Y160000D01*
X-411850Y160000D01*
X-411850Y155000D02*
X-411850Y160000D01*
X-406102Y155000D02*
X-396102Y155000D01*
X-406102Y155000D02*
X-406102Y160000D01*
X-396102Y160000D01*
X-396102Y155000D02*
X-396102Y160000D01*
X-390354Y155000D02*
X-380354Y155000D01*
X-390354Y155000D02*
X-390354Y160000D01*
X-380354Y160000D01*
X-380354Y155000D02*
X-380354Y160000D01*
X-374606Y155000D02*
X-364606Y155000D01*
X-374606Y155000D02*
X-374606Y160000D01*
X-364606Y160000D01*
X-364606Y155000D02*
X-364606Y160000D01*
X-358858Y155000D02*
X-348858Y155000D01*
X-358858Y155000D02*
X-358858Y160000D01*
X-348858Y160000D01*
X-348858Y155000D02*
X-348858Y160000D01*
X-343110Y155000D02*
X-333110Y155000D01*
X-343110Y155000D02*
X-343110Y160000D01*
X-333110Y160000D01*
X-333110Y155000D02*
X-333110Y160000D01*
X-327362Y155000D02*
X-317362Y155000D01*
X-327362Y155000D02*
X-327362Y160000D01*
X-317362Y160000D01*
X-317362Y155000D02*
X-317362Y160000D01*
X-308606Y179504D02*
X-308606Y189504D01*
X-313606Y179504D02*
X-308606Y179504D01*
X-313606Y179504D02*
X-313606Y189504D01*
X-308606Y189504D01*
X-308606Y195252D02*
X-308606Y205252D01*
X-313606Y195252D02*
X-308606Y195252D01*
X-313606Y195252D02*
X-313606Y205252D01*
X-308606Y205252D01*
X-308606Y211000D02*
X-308606Y221000D01*
X-313606Y211000D02*
X-308606Y211000D01*
X-313606Y211000D02*
X-313606Y221000D01*
X-308606Y221000D01*
X-308606Y226748D02*
X-308606Y236748D01*
X-313606Y226748D02*
X-308606Y226748D01*
X-313606Y226748D02*
X-313606Y236748D01*
X-308606Y236748D01*
X-308606Y242496D02*
X-308606Y252496D01*
X-313606Y242496D02*
X-308606Y242496D01*
X-313606Y242496D02*
X-313606Y252496D01*
X-308606Y252496D01*
X-327362Y277000D02*
X-317362Y277000D01*
X-317362Y272000D02*
X-317362Y277000D01*
X-327362Y272000D02*
X-317362Y272000D01*
X-327362Y272000D02*
X-327362Y277000D01*
X-343110Y277000D02*
X-333110Y277000D01*
X-333110Y272000D02*
X-333110Y277000D01*
X-343110Y272000D02*
X-333110Y272000D01*
X-343110Y272000D02*
X-343110Y277000D01*
X-358858Y277000D02*
X-348858Y277000D01*
X-348858Y272000D02*
X-348858Y277000D01*
X-358858Y272000D02*
X-348858Y272000D01*
X-358858Y272000D02*
X-358858Y277000D01*
X-374606Y277000D02*
X-364606Y277000D01*
X-364606Y272000D02*
X-364606Y277000D01*
X-374606Y272000D02*
X-364606Y272000D01*
X-374606Y272000D02*
X-374606Y277000D01*
X-390354Y277000D02*
X-380354Y277000D01*
X-380354Y272000D02*
X-380354Y277000D01*
X-390354Y272000D02*
X-380354Y272000D01*
X-390354Y272000D02*
X-390354Y277000D01*
X-406102Y277000D02*
X-396102Y277000D01*
X-396102Y272000D02*
X-396102Y277000D01*
X-406102Y272000D02*
X-396102Y272000D01*
X-406102Y272000D02*
X-406102Y277000D01*
X-421850Y277000D02*
X-411850Y277000D01*
X-411850Y272000D02*
X-411850Y277000D01*
X-421850Y272000D02*
X-411850Y272000D01*
X-421850Y272000D02*
X-421850Y277000D01*
X-308606Y155000D02*
X-308606Y277000D01*
X-430606Y277000D02*
X-308606Y277000D01*
X-430606Y155000D02*
X-430606Y277000D01*
X-430606Y155000D02*
X-308606Y155000D01*
X73197Y109925D02*
X73197Y142925D01*
X117197Y109925D02*
X117197Y142925D01*
X73197Y109925D02*
X117197Y109925D01*
X73197Y142925D02*
X117197Y142925D01*
D13*
X-225354Y120697D02*
X-213543Y120697D01*
X-213543Y144319D01*
X-225354Y144319D02*
X-213543Y144319D01*
X-225354Y120697D02*
X-225354Y144319D01*
X-254712Y80173D02*
X-254712Y91984D01*
X-278334Y91984D02*
X-254712Y91984D01*
X-278334Y80173D02*
X-278334Y91984D01*
X-278334Y80173D02*
X-254712Y80173D01*
X-525669Y120697D02*
X-513858Y120697D01*
X-513858Y144319D01*
X-525669Y144319D02*
X-513858Y144319D01*
X-525669Y120697D02*
X-525669Y144319D01*
X-484500Y80173D02*
X-484500Y91984D01*
X-484500Y80173D02*
X-460878Y80173D01*
X-460878Y91984D01*
X-484500Y91984D02*
X-460878Y91984D01*
X44934Y-85181D02*
X44934Y-73370D01*
X44934Y-85181D02*
X68556Y-85181D01*
X68556Y-73370D01*
X44934Y-73370D02*
X68556Y-73370D01*
X-44540Y-85181D02*
X-44540Y-73370D01*
X-68162Y-73370D02*
X-44540Y-73370D01*
X-68162Y-85181D02*
X-68162Y-73370D01*
X-68162Y-85181D02*
X-44540Y-85181D01*
X-5984Y-91087D02*
X5827Y-91087D01*
X-5984Y-114709D02*
X-5984Y-91087D01*
X-5984Y-114709D02*
X5827Y-114709D01*
X5827Y-91087D01*
X108189Y284898D02*
X190866Y284898D01*
X108189Y202220D02*
X108189Y284898D01*
X108189Y202220D02*
X190866Y202220D01*
X190866Y284898D01*
D17*
X32598Y34779D02*
X-724Y1457D01*
X-724Y34779D02*
X32598Y1457D01*
X15937Y34779D02*
X15937Y1457D01*
X-724Y18118D02*
X32598Y18118D01*
X-433503Y191500D02*
X-400181Y224823D01*
X-400181Y191500D02*
X-433503Y224823D01*
X-416842Y191500D02*
X-416842Y224823D01*
X-400181Y208161D02*
X-433503Y208161D01*
M02*
