G04*
G04 #@! TF.GenerationSoftware,Altium Limited,Altium Designer,25.8.1 (18)*
G04*
G04 Layer_Physical_Order=1*
G04 Layer_Color=255*
%FSLAX26Y26*%
%MOIN*%
G70*
G04*
G04 #@! TF.SameCoordinates,AB66D781-FBCB-4B57-8275-DC7DE2197C71*
G04*
G04*
G04 #@! TF.FilePolarity,Positive*
G04*
G01*
G75*
%ADD10C,0.009842*%
%ADD13C,0.007874*%
%ADD18R,0.012992X0.001000*%
%ADD19R,0.001000X0.012992*%
%ADD20R,0.012950X0.033489*%
%ADD21R,0.010344X0.013941*%
%ADD22R,0.013941X0.010344*%
%ADD23R,0.009842X0.031496*%
%ADD24C,0.008858*%
%ADD25R,0.009842X0.027559*%
%ADD26R,0.039000X0.039000*%
%ADD27R,0.013000X0.010000*%
%ADD28R,0.010000X0.013000*%
%ADD29R,0.059000X0.059000*%
%ADD30R,0.022000X0.033000*%
%ADD31R,0.012992X0.003937*%
%ADD32C,0.050000*%
%ADD33C,0.012992*%
%ADD34C,0.008661*%
%ADD35C,0.012000*%
%ADD36C,0.020000*%
G36*
X603928Y1530006D02*
X612831Y1529467D01*
X621715Y1528660D01*
X630570Y1527585D01*
X639389Y1526243D01*
X648163Y1524635D01*
X656885Y1522763D01*
X665546Y1520628D01*
X674138Y1518233D01*
X682655Y1515579D01*
X691087Y1512669D01*
X699428Y1509506D01*
X707669Y1506092D01*
X715803Y1502431D01*
X723823Y1498526D01*
X731722Y1494381D01*
X739491Y1489999D01*
X747125Y1485384D01*
X754616Y1480541D01*
X761957Y1475473D01*
X769142Y1470187D01*
X776164Y1464685D01*
X783017Y1458975D01*
X789693Y1453059D01*
X796189Y1446945D01*
X802496Y1440638D01*
X808611Y1434142D01*
X814526Y1427465D01*
X820237Y1420613D01*
X825738Y1413591D01*
X831025Y1406406D01*
X836092Y1399065D01*
X840935Y1391574D01*
X845550Y1383940D01*
X849932Y1376171D01*
X854077Y1368272D01*
X857982Y1360252D01*
X861643Y1352118D01*
X865057Y1343876D01*
X868220Y1335536D01*
X871130Y1327103D01*
X873784Y1318587D01*
X876179Y1309995D01*
X878314Y1301333D01*
X880186Y1292612D01*
X881794Y1283838D01*
X883136Y1275019D01*
X884212Y1266164D01*
X885019Y1257280D01*
X885557Y1248376D01*
X885827Y1239460D01*
X885827Y1235000D01*
X885827Y-20036D01*
X885819Y-20039D01*
X885819Y-20040D01*
X885819Y-24500D01*
X885549Y-33416D01*
X885011Y-42320D01*
X884204Y-51203D01*
X883128Y-60059D01*
X881786Y-68877D01*
X880178Y-77651D01*
X878306Y-86373D01*
X876171Y-95034D01*
X873776Y-103627D01*
X871122Y-112143D01*
X868212Y-120575D01*
X865049Y-128916D01*
X861635Y-137157D01*
X857975Y-145292D01*
X854069Y-153312D01*
X849924Y-161210D01*
X845542Y-168980D01*
X840927Y-176614D01*
X836084Y-184105D01*
X831017Y-191446D01*
X825730Y-198631D01*
X820229Y-205652D01*
X814518Y-212505D01*
X808603Y-219182D01*
X802488Y-225677D01*
X796181Y-231985D01*
X789686Y-238099D01*
X783009Y-244014D01*
X776156Y-249725D01*
X769134Y-255226D01*
X761949Y-260513D01*
X754608Y-265580D01*
X747117Y-270423D01*
X739484Y-275038D01*
X731714Y-279420D01*
X723815Y-283566D01*
X715795Y-287471D01*
X707661Y-291132D01*
X699420Y-294545D01*
X691079Y-297709D01*
X682647Y-300618D01*
X674130Y-303272D01*
X665538Y-305668D01*
X656877Y-307802D01*
X648155Y-309674D01*
X639381Y-311282D01*
X630562Y-312625D01*
X621707Y-313700D01*
X612823Y-314507D01*
X603920Y-315046D01*
X595003Y-315315D01*
X-586008Y-315315D01*
X-586008Y-315315D01*
X-586014Y-315331D01*
X-590452Y-315331D01*
X-599369Y-315061D01*
X-608272Y-314523D01*
X-617156Y-313716D01*
X-626011Y-312640D01*
X-634830Y-311298D01*
X-643604Y-309690D01*
X-652326Y-307818D01*
X-660987Y-305683D01*
X-669579Y-303288D01*
X-678096Y-300634D01*
X-686528Y-297724D01*
X-694869Y-294561D01*
X-703110Y-291147D01*
X-711244Y-287486D01*
X-719264Y-283581D01*
X-727163Y-279436D01*
X-734933Y-275054D01*
X-742566Y-270439D01*
X-750057Y-265596D01*
X-757398Y-260529D01*
X-764583Y-255242D01*
X-771605Y-249741D01*
X-778458Y-244030D01*
X-785135Y-238114D01*
X-791630Y-232000D01*
X-797937Y-225693D01*
X-804052Y-219197D01*
X-809967Y-212521D01*
X-815678Y-205668D01*
X-821179Y-198646D01*
X-826466Y-191461D01*
X-831533Y-184120D01*
X-836376Y-176629D01*
X-840991Y-168995D01*
X-845373Y-161226D01*
X-849518Y-153327D01*
X-853423Y-145307D01*
X-857084Y-137173D01*
X-860498Y-128932D01*
X-863661Y-120591D01*
X-866571Y-112159D01*
X-869225Y-103642D01*
X-871620Y-95050D01*
X-873755Y-86389D01*
X-875627Y-77667D01*
X-877235Y-68893D01*
X-878577Y-60074D01*
X-879653Y-51219D01*
X-880460Y-42335D01*
X-880998Y-33431D01*
X-881268Y-24515D01*
X-881268Y-20055D01*
X-881276Y1235000D01*
X-881276Y1239460D01*
X-881006Y1248376D01*
X-880468Y1257280D01*
X-879660Y1266164D01*
X-878585Y1275019D01*
X-877243Y1283838D01*
X-875635Y1292612D01*
X-873763Y1301333D01*
X-871628Y1309995D01*
X-869233Y1318587D01*
X-866579Y1327103D01*
X-863669Y1335536D01*
X-860506Y1343876D01*
X-857092Y1352118D01*
X-853431Y1360252D01*
X-849526Y1368272D01*
X-845381Y1376171D01*
X-840999Y1383940D01*
X-836384Y1391574D01*
X-831541Y1399065D01*
X-826473Y1406406D01*
X-821187Y1413591D01*
X-815686Y1420613D01*
X-809975Y1427465D01*
X-804059Y1434142D01*
X-797945Y1440638D01*
X-791638Y1446945D01*
X-785142Y1453059D01*
X-778466Y1458975D01*
X-771613Y1464685D01*
X-764591Y1470187D01*
X-757406Y1475473D01*
X-750065Y1480541D01*
X-742574Y1485384D01*
X-734940Y1489999D01*
X-727171Y1494381D01*
X-719272Y1498526D01*
X-711252Y1502431D01*
X-703118Y1506092D01*
X-694876Y1509506D01*
X-686536Y1512669D01*
X-678104Y1515579D01*
X-669587Y1518233D01*
X-660995Y1520628D01*
X-652334Y1522763D01*
X-643612Y1524635D01*
X-634838Y1526243D01*
X-626019Y1527585D01*
X-617164Y1528660D01*
X-608280Y1529467D01*
X-599376Y1530006D01*
X-590460Y1530276D01*
X595011Y1530276D01*
X603928Y1530006D01*
X603928Y1530006D02*
G37*
%LPC*%
G36*
X-152332Y1295890D02*
X-217077Y1295890D01*
X-221477Y1295733D01*
X-225854Y1295263D01*
X-230186Y1294481D01*
X-234452Y1293392D01*
X-238630Y1292002D01*
X-242697Y1290317D01*
X-246338Y1288494D01*
X-249980Y1290317D01*
X-254047Y1292002D01*
X-258224Y1293392D01*
X-262490Y1294481D01*
X-266823Y1295263D01*
X-271200Y1295733D01*
X-275600Y1295890D01*
X-340345Y1295890D01*
X-344744Y1295733D01*
X-349122Y1295263D01*
X-353454Y1294481D01*
X-357720Y1293392D01*
X-361897Y1292002D01*
X-365965Y1290317D01*
X-369606Y1288494D01*
X-373248Y1290317D01*
X-377315Y1292002D01*
X-381492Y1293392D01*
X-385758Y1294481D01*
X-390091Y1295263D01*
X-394468Y1295733D01*
X-398868Y1295890D01*
X-463612Y1295890D01*
X-468012Y1295733D01*
X-472389Y1295263D01*
X-476722Y1294481D01*
X-480988Y1293392D01*
X-485165Y1292002D01*
X-489232Y1290317D01*
X-492874Y1288494D01*
X-496515Y1290317D01*
X-500583Y1292002D01*
X-504760Y1293392D01*
X-509026Y1294481D01*
X-513358Y1295263D01*
X-517736Y1295733D01*
X-522135Y1295890D01*
X-586880Y1295890D01*
X-591280Y1295733D01*
X-595657Y1295263D01*
X-599990Y1294481D01*
X-604255Y1293392D01*
X-608433Y1292002D01*
X-612500Y1290317D01*
X-616437Y1288347D01*
X-620223Y1286100D01*
X-623840Y1283589D01*
X-627268Y1280827D01*
X-630490Y1277827D01*
X-633490Y1274605D01*
X-636252Y1271177D01*
X-638763Y1267560D01*
X-641009Y1263774D01*
X-642980Y1259837D01*
X-644665Y1255770D01*
X-646055Y1251592D01*
X-647144Y1247327D01*
X-647926Y1242994D01*
X-648396Y1238617D01*
X-648553Y1234217D01*
X-648553Y1177173D01*
X-648396Y1172774D01*
X-647926Y1168396D01*
X-647630Y1166756D01*
X-649082Y1163250D01*
X-650472Y1159073D01*
X-651561Y1154807D01*
X-652343Y1150475D01*
X-652813Y1146097D01*
X-652971Y1141697D01*
X-652971Y1084653D01*
X-652813Y1080254D01*
X-652343Y1075877D01*
X-651561Y1071544D01*
X-650472Y1067278D01*
X-650352Y1066916D01*
X-650472Y1066553D01*
X-651561Y1062287D01*
X-652343Y1057955D01*
X-652813Y1053578D01*
X-652971Y1049178D01*
X-652971Y992134D01*
X-652813Y987734D01*
X-652343Y983357D01*
X-651561Y979024D01*
X-650472Y974759D01*
X-649082Y970581D01*
X-647630Y967075D01*
X-647926Y965435D01*
X-648396Y961058D01*
X-648553Y956658D01*
X-648553Y899614D01*
X-648396Y895215D01*
X-647926Y890837D01*
X-647144Y886505D01*
X-646055Y882239D01*
X-644665Y878062D01*
X-642980Y873994D01*
X-641009Y870057D01*
X-638763Y866271D01*
X-636252Y862655D01*
X-633490Y859227D01*
X-630490Y856005D01*
X-627268Y853005D01*
X-623840Y850242D01*
X-620223Y847731D01*
X-618500Y846709D01*
X-618500Y840811D01*
X-618973Y838191D01*
X-619443Y833814D01*
X-619601Y829414D01*
X-619601Y811137D01*
X-619443Y806738D01*
X-618973Y802360D01*
X-618191Y798028D01*
X-617102Y793762D01*
X-616857Y793026D01*
X-617102Y792290D01*
X-618191Y788024D01*
X-618973Y783692D01*
X-619443Y779314D01*
X-619601Y774915D01*
X-619601Y748161D01*
X-619443Y743761D01*
X-618973Y739384D01*
X-618191Y735051D01*
X-617102Y730785D01*
X-615712Y726608D01*
X-614027Y722540D01*
X-612057Y718604D01*
X-609810Y714817D01*
X-607299Y711201D01*
X-604537Y707773D01*
X-601537Y704551D01*
X-596531Y699546D01*
X-601537Y694540D01*
X-604537Y691317D01*
X-607299Y687889D01*
X-609810Y684273D01*
X-612057Y680487D01*
X-614027Y676550D01*
X-615712Y672483D01*
X-617102Y668305D01*
X-618191Y664040D01*
X-618973Y659707D01*
X-619443Y655330D01*
X-619601Y650930D01*
X-619601Y629098D01*
X-619443Y624698D01*
X-618973Y620321D01*
X-618191Y615988D01*
X-617102Y611722D01*
X-615712Y607545D01*
X-614027Y603477D01*
X-612057Y599541D01*
X-611600Y598772D01*
X-612057Y598003D01*
X-614027Y594066D01*
X-615712Y589999D01*
X-617102Y585821D01*
X-618191Y581556D01*
X-618973Y577223D01*
X-619443Y572846D01*
X-619601Y568446D01*
X-619601Y546614D01*
X-619443Y542214D01*
X-618973Y537837D01*
X-618191Y533504D01*
X-617102Y529239D01*
X-615712Y525061D01*
X-614027Y520994D01*
X-612057Y517057D01*
X-609810Y513271D01*
X-607299Y509654D01*
X-604537Y506226D01*
X-601537Y503004D01*
X-596531Y497998D01*
X-601537Y492993D01*
X-604537Y489770D01*
X-607299Y486342D01*
X-609810Y482726D01*
X-612057Y478940D01*
X-614027Y475003D01*
X-615712Y470936D01*
X-616488Y468603D01*
X-622617Y468603D01*
X-622617Y408061D01*
X-622656Y406969D01*
X-622656Y390827D01*
X-622677Y390225D01*
X-622677Y225094D01*
X-622520Y220695D01*
X-622049Y216317D01*
X-621268Y211985D01*
X-620179Y207719D01*
X-618789Y203542D01*
X-617104Y199474D01*
X-615133Y195537D01*
X-612887Y191751D01*
X-610376Y188135D01*
X-607613Y184707D01*
X-604613Y181485D01*
X-589023Y165894D01*
X-585801Y162895D01*
X-582373Y160132D01*
X-578757Y157621D01*
X-574971Y155375D01*
X-571034Y153404D01*
X-566967Y151720D01*
X-562789Y150329D01*
X-558524Y149240D01*
X-554191Y148459D01*
X-549814Y147988D01*
X-545414Y147831D01*
X-529936Y147831D01*
X-529936Y130550D01*
X-509592Y130550D01*
X-509592Y145709D01*
X-507471Y147831D01*
X-437775Y147830D01*
X-437775Y116629D01*
X-438621Y115466D01*
X-439407Y113923D01*
X-439942Y112277D01*
X-440213Y110567D01*
X-440213Y108835D01*
X-439942Y107125D01*
X-439407Y105478D01*
X-438621Y103936D01*
X-438572Y103869D01*
X-438572Y102751D01*
X-445885Y95438D01*
X-450707Y95438D01*
X-450707Y96251D01*
X-474648Y96251D01*
X-474648Y75907D01*
X-450707Y75907D01*
X-450707Y76719D01*
X-442008Y76719D01*
X-440776Y76816D01*
X-440460Y76771D01*
X-437968Y74871D01*
X-437775Y74485D01*
X-437775Y28874D01*
X-437618Y24474D01*
X-437148Y20097D01*
X-436366Y15764D01*
X-435277Y11499D01*
X-433887Y7321D01*
X-432202Y3254D01*
X-430231Y-683D01*
X-427985Y-4469D01*
X-425474Y-8085D01*
X-422712Y-11514D01*
X-419712Y-14736D01*
X-404121Y-30326D01*
X-400899Y-33326D01*
X-397471Y-36089D01*
X-393855Y-38599D01*
X-390069Y-40846D01*
X-386132Y-42816D01*
X-382065Y-44501D01*
X-377887Y-45892D01*
X-373622Y-46980D01*
X-369289Y-47762D01*
X-364912Y-48233D01*
X-360512Y-48390D01*
X-53295Y-48391D01*
X-52876Y-48376D01*
X-52489Y-48384D01*
X-52267Y-48382D01*
X-52261Y-48381D01*
X-52239Y-48382D01*
X-52017Y-48378D01*
X-50105Y-48277D01*
X-48896Y-48233D01*
X-48614Y-48203D01*
X-47870Y-48167D01*
X-47746Y-48152D01*
X-47621Y-48145D01*
X-45553Y-47887D01*
X-44572Y-47769D01*
X-44518Y-47763D01*
X-44506Y-47761D01*
X-43499Y-47639D01*
X-43377Y-47615D01*
X-43252Y-47600D01*
X-41213Y-47196D01*
X-39453Y-46854D01*
X-38782Y-46854D01*
X-36013Y-48764D01*
X-36013Y-67525D01*
X-37592Y-69104D01*
X-58309Y-69104D01*
X-58309Y-89448D01*
X-56291Y-89448D01*
X-56291Y-111641D01*
X-56533Y-112116D01*
X-57068Y-113763D01*
X-57339Y-115473D01*
X-57339Y-117204D01*
X-57068Y-118914D01*
X-56533Y-120561D01*
X-55747Y-122104D01*
X-54729Y-123505D01*
X-53505Y-124729D01*
X-52104Y-125747D01*
X-50561Y-126533D01*
X-48914Y-127068D01*
X-47204Y-127339D01*
X-45473Y-127339D01*
X-43763Y-127068D01*
X-42116Y-126533D01*
X-40573Y-125747D01*
X-39173Y-124729D01*
X-37948Y-123505D01*
X-36931Y-122104D01*
X-36145Y-120561D01*
X-35609Y-118914D01*
X-35339Y-117204D01*
X-35339Y-115473D01*
X-35609Y-113763D01*
X-36145Y-112116D01*
X-36387Y-111641D01*
X-36387Y-89448D01*
X-34368Y-89448D01*
X-34368Y-88623D01*
X-33063Y-88520D01*
X-31635Y-88177D01*
X-30278Y-87615D01*
X-29026Y-86848D01*
X-27909Y-85894D01*
X-20035Y-78020D01*
X-19081Y-76903D01*
X-18314Y-75651D01*
X-17752Y-74294D01*
X-17409Y-72866D01*
X-17294Y-71401D01*
X-17294Y-52641D01*
X-15315Y-50662D01*
X-14361Y-49545D01*
X-14121Y-49154D01*
X-13098Y-49006D01*
X-10671Y-51247D01*
X-10729Y-51424D01*
X-11000Y-53134D01*
X-11000Y-54866D01*
X-10729Y-56576D01*
X-10194Y-58222D01*
X-9438Y-59706D01*
X-9438Y-80915D01*
X-10251Y-80915D01*
X-10251Y-104856D01*
X10093Y-104856D01*
X10093Y-80915D01*
X9281Y-80915D01*
X9281Y-59940D01*
X9408Y-59765D01*
X10194Y-58222D01*
X10729Y-56576D01*
X11000Y-54866D01*
X11000Y-53134D01*
X10882Y-52388D01*
X12110Y-50105D01*
X13136Y-49124D01*
X14247Y-49003D01*
X14701Y-49458D01*
X14755Y-49545D01*
X15709Y-50662D01*
X17688Y-52641D01*
X17688Y-71401D01*
X17803Y-72866D01*
X18146Y-74294D01*
X18708Y-75651D01*
X19475Y-76903D01*
X20429Y-78020D01*
X28303Y-85894D01*
X29420Y-86848D01*
X30672Y-87615D01*
X32029Y-88177D01*
X33457Y-88520D01*
X34762Y-88623D01*
X34762Y-89448D01*
X36781Y-89448D01*
X36781Y-111641D01*
X36538Y-112116D01*
X36003Y-113763D01*
X35732Y-115473D01*
X35732Y-117204D01*
X36003Y-118914D01*
X36538Y-120561D01*
X37324Y-122104D01*
X38342Y-123505D01*
X39566Y-124729D01*
X40967Y-125747D01*
X42510Y-126533D01*
X44157Y-127068D01*
X45867Y-127339D01*
X47598Y-127339D01*
X49308Y-127068D01*
X50955Y-126533D01*
X52498Y-125747D01*
X53898Y-124729D01*
X55123Y-123505D01*
X56140Y-122104D01*
X56926Y-120561D01*
X57462Y-118914D01*
X57732Y-117204D01*
X57732Y-115473D01*
X57462Y-113763D01*
X56926Y-112116D01*
X56684Y-111641D01*
X56684Y-89448D01*
X58703Y-89448D01*
X58703Y-69104D01*
X37986Y-69104D01*
X36407Y-67525D01*
X36407Y-48764D01*
X39176Y-46854D01*
X40086Y-46854D01*
X40579Y-46980D01*
X44912Y-47762D01*
X49289Y-48233D01*
X53689Y-48390D01*
X484173Y-48390D01*
X488573Y-48233D01*
X492950Y-47762D01*
X497283Y-46980D01*
X501549Y-45892D01*
X505726Y-44501D01*
X509793Y-42816D01*
X513730Y-40846D01*
X517516Y-38599D01*
X521133Y-36089D01*
X524561Y-33326D01*
X527783Y-30326D01*
X543373Y-14736D01*
X543490Y-14610D01*
X543615Y-14492D01*
X544985Y-13004D01*
X546373Y-11514D01*
X546481Y-11379D01*
X546597Y-11254D01*
X547855Y-9675D01*
X549136Y-8085D01*
X549234Y-7943D01*
X549340Y-7810D01*
X550483Y-6146D01*
X551646Y-4469D01*
X551734Y-4321D01*
X551831Y-4180D01*
X552858Y-2427D01*
X553893Y-683D01*
X553970Y-530D01*
X554057Y-381D01*
X554955Y1438D01*
X555864Y3254D01*
X555930Y3413D01*
X556005Y3566D01*
X556770Y5443D01*
X557548Y7321D01*
X557602Y7484D01*
X557667Y7643D01*
X558296Y9568D01*
X558939Y11498D01*
X558981Y11666D01*
X559034Y11828D01*
X559526Y13800D01*
X560027Y15764D01*
X560058Y15932D01*
X560100Y16100D01*
X560452Y18120D01*
X560809Y20097D01*
X560827Y20266D01*
X560857Y20437D01*
X561064Y22464D01*
X561280Y24474D01*
X561286Y24646D01*
X561303Y24817D01*
X561365Y26849D01*
X561437Y28874D01*
X561431Y29045D01*
X561436Y29217D01*
X561025Y103116D01*
X561621Y103936D01*
X562407Y105478D01*
X562942Y107125D01*
X563213Y108835D01*
X563213Y110567D01*
X562942Y112277D01*
X562407Y113923D01*
X561621Y115466D01*
X560951Y116388D01*
X560780Y147075D01*
X560744Y147953D01*
X560744Y148868D01*
X560658Y150175D01*
X560624Y151132D01*
X560606Y151302D01*
X560599Y151474D01*
X560538Y152012D01*
X560454Y153286D01*
X559876Y157677D01*
X559013Y162020D01*
X557866Y166297D01*
X556443Y170490D01*
X554748Y174581D01*
X552790Y178553D01*
X550576Y182388D01*
X548116Y186070D01*
X545420Y189583D01*
X542500Y192912D01*
X539369Y196043D01*
X536040Y198963D01*
X532527Y201659D01*
X528845Y204119D01*
X525010Y206333D01*
X521038Y208292D01*
X516947Y209986D01*
X512754Y211410D01*
X508476Y212556D01*
X504133Y213420D01*
X499743Y213998D01*
X495324Y214287D01*
X490896Y214287D01*
X486477Y213998D01*
X482087Y213420D01*
X477744Y212556D01*
X473467Y211410D01*
X469273Y209986D01*
X465182Y208292D01*
X461211Y206333D01*
X457376Y204119D01*
X453694Y201659D01*
X450181Y198963D01*
X446851Y196043D01*
X443720Y192912D01*
X440800Y189583D01*
X438105Y186070D01*
X435645Y182388D01*
X433430Y178553D01*
X431472Y174581D01*
X429777Y170490D01*
X428354Y166297D01*
X427208Y162020D01*
X426344Y157677D01*
X425766Y153286D01*
X425684Y152033D01*
X425603Y151303D01*
X425600Y151218D01*
X425591Y151132D01*
X425550Y149995D01*
X425476Y148868D01*
X425476Y148005D01*
X425434Y146904D01*
X425350Y116802D01*
X424379Y115466D01*
X423593Y113923D01*
X423058Y112277D01*
X422787Y110567D01*
X422787Y108835D01*
X423058Y107125D01*
X423593Y105478D01*
X424379Y103936D01*
X425311Y102654D01*
X425270Y87949D01*
X148831Y87949D01*
X148831Y105113D01*
X152143Y106216D01*
X156211Y107900D01*
X160148Y109871D01*
X163934Y112118D01*
X167550Y114628D01*
X170978Y117391D01*
X174200Y120391D01*
X176796Y122986D01*
X176799Y122989D01*
X185538Y131728D01*
X206240Y131728D01*
X206240Y165679D01*
X206444Y166475D01*
X206445Y166480D01*
X206445Y166481D01*
X206630Y167505D01*
X207226Y170808D01*
X207226Y170812D01*
X207226Y170814D01*
X207379Y172228D01*
X207697Y175185D01*
X207697Y175189D01*
X207697Y175191D01*
X207752Y176726D01*
X207854Y179584D01*
X207855Y188435D01*
X207840Y188857D01*
X207849Y189247D01*
X207846Y189469D01*
X207846Y189475D01*
X207846Y189497D01*
X207842Y189719D01*
X207742Y191627D01*
X207698Y192834D01*
X207668Y193118D01*
X207631Y193866D01*
X207617Y193990D01*
X207610Y194115D01*
X207352Y196184D01*
X207236Y197145D01*
X207228Y197212D01*
X207226Y197227D01*
X207104Y198237D01*
X207080Y198359D01*
X207064Y198484D01*
X206660Y200523D01*
X206266Y202559D01*
X206240Y202653D01*
X206240Y282555D01*
X189005Y282555D01*
X189005Y297034D01*
X190714Y297034D01*
X192178Y297149D01*
X193606Y297492D01*
X194963Y298054D01*
X196215Y298822D01*
X197332Y299776D01*
X201767Y304210D01*
X202721Y305327D01*
X203488Y306579D01*
X204050Y307936D01*
X204393Y309365D01*
X204508Y310829D01*
X204508Y315829D01*
X204557Y315895D01*
X205343Y317438D01*
X205878Y319085D01*
X206149Y320795D01*
X206149Y322526D01*
X205878Y324236D01*
X205343Y325883D01*
X204557Y327426D01*
X203539Y328826D01*
X202315Y330051D01*
X200914Y331068D01*
X199371Y331854D01*
X197724Y332389D01*
X196014Y332660D01*
X194283Y332660D01*
X192573Y332389D01*
X190926Y331854D01*
X189383Y331068D01*
X187983Y330051D01*
X186758Y328826D01*
X185741Y327426D01*
X184954Y325883D01*
X184419Y324236D01*
X184149Y322526D01*
X184149Y320795D01*
X184419Y319085D01*
X184527Y318753D01*
X184336Y317944D01*
X183085Y316076D01*
X182499Y315649D01*
X182355Y315638D01*
X180927Y315295D01*
X179570Y314733D01*
X178317Y313966D01*
X177201Y313012D01*
X175509Y311320D01*
X172619Y312416D01*
X172554Y312566D01*
X172897Y313994D01*
X173012Y315458D01*
X173012Y315588D01*
X173699Y316534D01*
X174485Y318077D01*
X175020Y319723D01*
X175291Y321433D01*
X175291Y323165D01*
X175020Y324875D01*
X174485Y326522D01*
X173699Y328064D01*
X172682Y329465D01*
X171457Y330690D01*
X170056Y331707D01*
X168514Y332493D01*
X166867Y333028D01*
X165157Y333299D01*
X163426Y333299D01*
X161715Y333028D01*
X160069Y332493D01*
X158526Y331707D01*
X157125Y330690D01*
X155901Y329465D01*
X154883Y328064D01*
X154097Y326522D01*
X153562Y324875D01*
X153507Y324526D01*
X150470Y324526D01*
X150414Y324875D01*
X149879Y326522D01*
X149093Y328064D01*
X148075Y329465D01*
X146851Y330690D01*
X145450Y331707D01*
X144342Y332272D01*
X143582Y334142D01*
X143476Y335788D01*
X143547Y335877D01*
X143894Y336262D01*
X144929Y337592D01*
X145983Y338901D01*
X146279Y339327D01*
X146598Y339737D01*
X147535Y341138D01*
X148493Y342519D01*
X148757Y342964D01*
X149046Y343396D01*
X149881Y344861D01*
X150738Y346306D01*
X150970Y346769D01*
X151227Y347220D01*
X151955Y348738D01*
X152708Y350243D01*
X152906Y350723D01*
X153130Y351190D01*
X153747Y352754D01*
X154391Y354311D01*
X154555Y354803D01*
X154745Y355286D01*
X155013Y356138D01*
X164508Y356138D01*
X164508Y390331D01*
X164547Y391431D01*
X164548Y419738D01*
X164545Y419820D01*
X164545Y453267D01*
X164508Y454312D01*
X164508Y469776D01*
X166530Y470976D01*
X170146Y473486D01*
X173574Y476249D01*
X176796Y479249D01*
X179796Y482471D01*
X182559Y485899D01*
X185070Y489515D01*
X187316Y493301D01*
X189287Y497238D01*
X190972Y501306D01*
X192362Y505483D01*
X193451Y509749D01*
X194232Y514081D01*
X194703Y518459D01*
X194860Y522858D01*
X194860Y579941D01*
X194703Y584340D01*
X194232Y588718D01*
X193451Y593050D01*
X192362Y597316D01*
X190972Y601493D01*
X189287Y605561D01*
X187316Y609497D01*
X185070Y613284D01*
X182559Y616900D01*
X179796Y620328D01*
X176796Y623550D01*
X173574Y626550D01*
X170146Y629313D01*
X166530Y631823D01*
X162744Y634070D01*
X158807Y636041D01*
X154739Y637725D01*
X150562Y639116D01*
X146297Y640205D01*
X141964Y640986D01*
X137587Y641457D01*
X133187Y641614D01*
X59569Y641614D01*
X55169Y641457D01*
X50792Y640986D01*
X46459Y640205D01*
X42194Y639116D01*
X38017Y637725D01*
X33949Y636041D01*
X30012Y634070D01*
X26226Y631823D01*
X22610Y629313D01*
X19182Y626550D01*
X15960Y623550D01*
X12960Y620328D01*
X10197Y616900D01*
X7686Y613284D01*
X5440Y609497D01*
X3469Y605561D01*
X1784Y601493D01*
X394Y597316D01*
X-695Y593050D01*
X-1476Y588718D01*
X-1947Y584340D01*
X-2104Y579941D01*
X-2104Y522858D01*
X-1947Y518459D01*
X-1476Y514081D01*
X-695Y509749D01*
X394Y505483D01*
X1784Y501306D01*
X3469Y497238D01*
X5440Y493301D01*
X7686Y489515D01*
X10197Y485899D01*
X12960Y482471D01*
X15960Y479249D01*
X19182Y476249D01*
X22610Y473486D01*
X26226Y470976D01*
X28248Y469776D01*
X28248Y454312D01*
X28211Y453267D01*
X28211Y450508D01*
X9291Y450508D01*
X4891Y450351D01*
X514Y449880D01*
X-3818Y449098D01*
X-8084Y448010D01*
X-12261Y446619D01*
X-16329Y444935D01*
X-20266Y442964D01*
X-24052Y440717D01*
X-27668Y438207D01*
X-31096Y435444D01*
X-34318Y432444D01*
X-47310Y419452D01*
X-47312Y419451D01*
X-49909Y416854D01*
X-52909Y413632D01*
X-55671Y410204D01*
X-58182Y406587D01*
X-60428Y402801D01*
X-62399Y398864D01*
X-64084Y394797D01*
X-65474Y390620D01*
X-66563Y386354D01*
X-67345Y382021D01*
X-67815Y377644D01*
X-67972Y373244D01*
X-67972Y191449D01*
X-67969Y191371D01*
X-67969Y167062D01*
X-68188Y165032D01*
X-68345Y160633D01*
X-68345Y135872D01*
X-68188Y131472D01*
X-67951Y129272D01*
X-67951Y111017D01*
X-68099Y109513D01*
X-68245Y105055D01*
X-68245Y87949D01*
X-223542Y87949D01*
X-223758Y88849D01*
X-224296Y90148D01*
X-225031Y91348D01*
X-225945Y92418D01*
X-227014Y93331D01*
X-228214Y94066D01*
X-229513Y94605D01*
X-230881Y94933D01*
X-232284Y95043D01*
X-256511Y95043D01*
X-257913Y94933D01*
X-259281Y94605D01*
X-260581Y94066D01*
X-261565Y93463D01*
X-262375Y93666D01*
X-264565Y94898D01*
X-264565Y96251D01*
X-288506Y96251D01*
X-288506Y95438D01*
X-293328Y95438D01*
X-300640Y102751D01*
X-300640Y105386D01*
X-300593Y105478D01*
X-300058Y107125D01*
X-299787Y108835D01*
X-299787Y110567D01*
X-300058Y112277D01*
X-300593Y113923D01*
X-301379Y115466D01*
X-301436Y115544D01*
X-301436Y147831D01*
X-229620Y147831D01*
X-229620Y130550D01*
X-209277Y130550D01*
X-209277Y147831D01*
X-193799Y147831D01*
X-189399Y147988D01*
X-185022Y148458D01*
X-180689Y149240D01*
X-176423Y150329D01*
X-172246Y151719D01*
X-168179Y153404D01*
X-164242Y155375D01*
X-160456Y157621D01*
X-156839Y160132D01*
X-153411Y162894D01*
X-150189Y165894D01*
X-147594Y168490D01*
X-147591Y168493D01*
X-134599Y181485D01*
X-131599Y184707D01*
X-128837Y188135D01*
X-126326Y191751D01*
X-124079Y195537D01*
X-122109Y199474D01*
X-120424Y203541D01*
X-119034Y207719D01*
X-117945Y211984D01*
X-117163Y216317D01*
X-116692Y220694D01*
X-116535Y225094D01*
X-116534Y390224D01*
X-116549Y390643D01*
X-116541Y391031D01*
X-116543Y391253D01*
X-116544Y391259D01*
X-116543Y391281D01*
X-116547Y391503D01*
X-116557Y391681D01*
X-116557Y406969D01*
X-116596Y408061D01*
X-116596Y468603D01*
X-122724Y468603D01*
X-123500Y470936D01*
X-125185Y475003D01*
X-127156Y478940D01*
X-129402Y482726D01*
X-131913Y486342D01*
X-134675Y489771D01*
X-137675Y492993D01*
X-142681Y497998D01*
X-137675Y503004D01*
X-134675Y506226D01*
X-131913Y509654D01*
X-129402Y513271D01*
X-127156Y517057D01*
X-125185Y520994D01*
X-123500Y525061D01*
X-122110Y529239D01*
X-121021Y533504D01*
X-120239Y537837D01*
X-119769Y542214D01*
X-119612Y546614D01*
X-119612Y568446D01*
X-119769Y572846D01*
X-120239Y577223D01*
X-121021Y581556D01*
X-122110Y585821D01*
X-123500Y589999D01*
X-125185Y594066D01*
X-127156Y598003D01*
X-127612Y598772D01*
X-127156Y599540D01*
X-125185Y603477D01*
X-123500Y607545D01*
X-122110Y611722D01*
X-121021Y615988D01*
X-120239Y620321D01*
X-119769Y624698D01*
X-119612Y629098D01*
X-119612Y650930D01*
X-119769Y655330D01*
X-120239Y659707D01*
X-121021Y664040D01*
X-122110Y668305D01*
X-123500Y672483D01*
X-125185Y676550D01*
X-127156Y680487D01*
X-129402Y684273D01*
X-131913Y687889D01*
X-134675Y691317D01*
X-137675Y694540D01*
X-142681Y699546D01*
X-137676Y704551D01*
X-134676Y707773D01*
X-131913Y711201D01*
X-129402Y714817D01*
X-127156Y718604D01*
X-125185Y722540D01*
X-123500Y726608D01*
X-122110Y730785D01*
X-121021Y735051D01*
X-120239Y739384D01*
X-119769Y743761D01*
X-119612Y748161D01*
X-119612Y829414D01*
X-119769Y833814D01*
X-120239Y838191D01*
X-120712Y840811D01*
X-120712Y846709D01*
X-118989Y847731D01*
X-115373Y850242D01*
X-111945Y853005D01*
X-108723Y856005D01*
X-105723Y859227D01*
X-102960Y862655D01*
X-100449Y866271D01*
X-98203Y870057D01*
X-96232Y873994D01*
X-94547Y878062D01*
X-93157Y882239D01*
X-92068Y886505D01*
X-91287Y890837D01*
X-90816Y895215D01*
X-90659Y899614D01*
X-90659Y956658D01*
X-90816Y961058D01*
X-91287Y965435D01*
X-91582Y967075D01*
X-90130Y970581D01*
X-88740Y974759D01*
X-87651Y979024D01*
X-86869Y983357D01*
X-86399Y987734D01*
X-86242Y992134D01*
X-86242Y1049178D01*
X-86399Y1053578D01*
X-86869Y1057955D01*
X-87651Y1062287D01*
X-88740Y1066553D01*
X-88860Y1066916D01*
X-88740Y1067278D01*
X-87651Y1071544D01*
X-86869Y1075877D01*
X-86399Y1080254D01*
X-86242Y1084653D01*
X-86242Y1141697D01*
X-86399Y1146097D01*
X-86869Y1150475D01*
X-87651Y1154807D01*
X-88740Y1159073D01*
X-90130Y1163250D01*
X-91582Y1166756D01*
X-91287Y1168396D01*
X-90816Y1172774D01*
X-90659Y1177173D01*
X-90659Y1234217D01*
X-90816Y1238617D01*
X-91287Y1242994D01*
X-92068Y1247327D01*
X-93157Y1251592D01*
X-94547Y1255770D01*
X-96232Y1259837D01*
X-98203Y1263774D01*
X-100449Y1267560D01*
X-102960Y1271177D01*
X-105723Y1274605D01*
X-108723Y1277827D01*
X-111945Y1280827D01*
X-115373Y1283589D01*
X-118989Y1286100D01*
X-122775Y1288347D01*
X-126712Y1290317D01*
X-130780Y1292002D01*
X-134957Y1293392D01*
X-139222Y1294481D01*
X-143555Y1295263D01*
X-147932Y1295733D01*
X-152332Y1295890D01*
X-152332Y1295890D02*
G37*
G36*
X11866Y1262000D02*
X10134Y1262000D01*
X8424Y1261729D01*
X6777Y1261194D01*
X5235Y1260408D01*
X3834Y1259390D01*
X2610Y1258166D01*
X1592Y1256765D01*
X806Y1255223D01*
X271Y1253576D01*
X0Y1251866D01*
X0Y1250134D01*
X271Y1248424D01*
X806Y1246777D01*
X1592Y1245235D01*
X2610Y1243834D01*
X3834Y1242610D01*
X5235Y1241592D01*
X6777Y1240806D01*
X8424Y1240271D01*
X10134Y1240000D01*
X11866Y1240000D01*
X13576Y1240271D01*
X15223Y1240806D01*
X16765Y1241592D01*
X18166Y1242610D01*
X19390Y1243834D01*
X20408Y1245235D01*
X21194Y1246777D01*
X21729Y1248424D01*
X22000Y1250134D01*
X22000Y1251866D01*
X21729Y1253576D01*
X21194Y1255223D01*
X20408Y1256765D01*
X19390Y1258166D01*
X18166Y1259390D01*
X16765Y1260408D01*
X15223Y1261194D01*
X13576Y1261729D01*
X11866Y1262000D01*
X11866Y1262000D02*
G37*
G36*
X14866Y1157000D02*
X13134Y1157000D01*
X11424Y1156729D01*
X9777Y1156194D01*
X8235Y1155408D01*
X6834Y1154390D01*
X5610Y1153166D01*
X4592Y1151765D01*
X3806Y1150223D01*
X3271Y1148576D01*
X3000Y1146866D01*
X3000Y1145134D01*
X3271Y1143424D01*
X3806Y1141777D01*
X4592Y1140235D01*
X5610Y1138834D01*
X6834Y1137610D01*
X8235Y1136592D01*
X9777Y1135806D01*
X11424Y1135271D01*
X13134Y1135000D01*
X14866Y1135000D01*
X16576Y1135271D01*
X18223Y1135806D01*
X19765Y1136592D01*
X21166Y1137610D01*
X22390Y1138834D01*
X23408Y1140235D01*
X24194Y1141777D01*
X24729Y1143424D01*
X25000Y1145134D01*
X25000Y1146866D01*
X24729Y1148576D01*
X24194Y1150223D01*
X23408Y1151765D01*
X22390Y1153166D01*
X21166Y1154390D01*
X19765Y1155408D01*
X18223Y1156194D01*
X16576Y1156729D01*
X14866Y1157000D01*
X14866Y1157000D02*
G37*
G36*
X-42134Y857236D02*
X-43866Y857236D01*
X-45576Y856965D01*
X-47222Y856430D01*
X-48765Y855644D01*
X-50166Y854626D01*
X-51390Y853402D01*
X-52408Y852001D01*
X-53194Y850459D01*
X-53729Y848812D01*
X-54000Y847102D01*
X-54000Y845370D01*
X-53729Y843660D01*
X-53194Y842014D01*
X-52408Y840471D01*
X-51390Y839070D01*
X-50166Y837846D01*
X-48765Y836828D01*
X-47222Y836042D01*
X-45576Y835507D01*
X-43866Y835236D01*
X-42134Y835236D01*
X-40424Y835507D01*
X-38778Y836042D01*
X-37235Y836828D01*
X-35834Y837846D01*
X-34610Y839070D01*
X-33592Y840471D01*
X-32806Y842014D01*
X-32271Y843660D01*
X-32000Y845370D01*
X-32000Y847102D01*
X-32271Y848812D01*
X-32806Y850459D01*
X-33592Y852001D01*
X-34610Y853402D01*
X-35834Y854626D01*
X-37235Y855644D01*
X-38778Y856430D01*
X-40424Y856965D01*
X-42134Y857236D01*
X-42134Y857236D02*
G37*
G36*
X232866Y322000D02*
X231134Y322000D01*
X229424Y321729D01*
X227778Y321194D01*
X226235Y320408D01*
X224834Y319390D01*
X223610Y318166D01*
X222592Y316765D01*
X221806Y315223D01*
X221271Y313576D01*
X221000Y311866D01*
X221000Y310134D01*
X221271Y308424D01*
X221806Y306777D01*
X222592Y305235D01*
X223610Y303834D01*
X224834Y302610D01*
X226235Y301592D01*
X227778Y300806D01*
X229424Y300271D01*
X231134Y300000D01*
X232866Y300000D01*
X234576Y300271D01*
X236222Y300806D01*
X237765Y301592D01*
X239166Y302610D01*
X240390Y303834D01*
X241408Y305235D01*
X242194Y306777D01*
X242729Y308424D01*
X243000Y310134D01*
X243000Y311866D01*
X242729Y313576D01*
X242194Y315223D01*
X241408Y316765D01*
X240390Y318166D01*
X239166Y319390D01*
X237765Y320408D01*
X236222Y321194D01*
X234576Y321729D01*
X232866Y322000D01*
X232866Y322000D02*
G37*
G36*
X596385Y172866D02*
X594654Y172866D01*
X592944Y172595D01*
X591297Y172060D01*
X589755Y171274D01*
X588354Y170256D01*
X587129Y169032D01*
X586112Y167631D01*
X585326Y166089D01*
X584791Y164442D01*
X584520Y162732D01*
X584520Y161000D01*
X584791Y159290D01*
X585326Y157644D01*
X586112Y156101D01*
X587129Y154700D01*
X588354Y153476D01*
X589755Y152458D01*
X591297Y151672D01*
X592944Y151137D01*
X594654Y150866D01*
X596385Y150866D01*
X598096Y151137D01*
X599742Y151672D01*
X601285Y152458D01*
X602686Y153476D01*
X603910Y154700D01*
X604928Y156101D01*
X605714Y157644D01*
X606249Y159290D01*
X606520Y161000D01*
X606520Y162732D01*
X606249Y164442D01*
X605714Y166089D01*
X604928Y167631D01*
X603910Y169032D01*
X602686Y170256D01*
X601285Y171274D01*
X599742Y172060D01*
X598096Y172595D01*
X596385Y172866D01*
X596385Y172866D02*
G37*
G36*
X391346Y172866D02*
X389615Y172866D01*
X387904Y172595D01*
X386258Y172060D01*
X384715Y171274D01*
X383314Y170256D01*
X382090Y169032D01*
X381072Y167631D01*
X380286Y166089D01*
X379751Y164442D01*
X379480Y162732D01*
X379480Y161000D01*
X379751Y159290D01*
X380286Y157644D01*
X381072Y156101D01*
X382090Y154700D01*
X383314Y153476D01*
X384715Y152458D01*
X386258Y151672D01*
X387904Y151137D01*
X389615Y150866D01*
X391346Y150866D01*
X393056Y151137D01*
X394703Y151672D01*
X396245Y152458D01*
X397646Y153476D01*
X398871Y154700D01*
X399888Y156101D01*
X400674Y157644D01*
X401209Y159290D01*
X401480Y161000D01*
X401480Y162732D01*
X401209Y164442D01*
X400674Y166089D01*
X399888Y167631D01*
X398871Y169032D01*
X397646Y170256D01*
X396245Y171274D01*
X394703Y172060D01*
X393056Y172595D01*
X391346Y172866D01*
X391346Y172866D02*
G37*
%LPD*%
G36*
X-152332Y1177173D02*
X-183204Y1177173D01*
X-183220Y1177167D01*
X-183226Y1177152D01*
X-183226Y1141719D01*
X-183220Y1141704D01*
X-183204Y1141697D01*
X-147915Y1141697D01*
X-147915Y1084653D01*
X-183204Y1084653D01*
X-183220Y1084647D01*
X-183226Y1084632D01*
X-183226Y1049199D01*
X-183220Y1049184D01*
X-183204Y1049178D01*
X-147915Y1049178D01*
X-147915Y992134D01*
X-183204Y992134D01*
X-183220Y992128D01*
X-183226Y992112D01*
X-183226Y956679D01*
X-183220Y956664D01*
X-183204Y956658D01*
X-152332Y956658D01*
X-152332Y899614D01*
X-183204Y899614D01*
X-183220Y899608D01*
X-183226Y899593D01*
X-183226Y864160D01*
X-183220Y864145D01*
X-183204Y864139D01*
X-182385Y864139D01*
X-182385Y829435D01*
X-182379Y829420D01*
X-182364Y829414D01*
X-181285Y829414D01*
X-181285Y748161D01*
X-189532Y739913D01*
X-221677Y739913D01*
X-221692Y739907D01*
X-221698Y739892D01*
X-221698Y716766D01*
X-221692Y716751D01*
X-221677Y716745D01*
X-218683Y716745D01*
X-218683Y682346D01*
X-221677Y682346D01*
X-221692Y682340D01*
X-221698Y682325D01*
X-221698Y659199D01*
X-221692Y659184D01*
X-221677Y659178D01*
X-189532Y659178D01*
X-181285Y650930D01*
X-181285Y629098D01*
X-189532Y620850D01*
X-222295Y620850D01*
X-222310Y620844D01*
X-222316Y620829D01*
X-222316Y576715D01*
X-222310Y576700D01*
X-222295Y576694D01*
X-189532Y576694D01*
X-181285Y568446D01*
X-181285Y546614D01*
X-189532Y538366D01*
X-221677Y538366D01*
X-221692Y538360D01*
X-221698Y538345D01*
X-221698Y515219D01*
X-221692Y515204D01*
X-221677Y515197D01*
X-218683Y515197D01*
X-218683Y480799D01*
X-221677Y480799D01*
X-221692Y480793D01*
X-221698Y480778D01*
X-221698Y457652D01*
X-221692Y457637D01*
X-221677Y457631D01*
X-189532Y457631D01*
X-181285Y449383D01*
X-181285Y440928D01*
X-181279Y440912D01*
X-181264Y440906D01*
X-179903Y440906D01*
X-179903Y406990D01*
X-179897Y406975D01*
X-179882Y406969D01*
X-178230Y406969D01*
X-178230Y390225D01*
X-178208Y390225D01*
X-178211Y390447D01*
X-178208Y390225D01*
X-178208Y225094D01*
X-191201Y212102D01*
X-191201Y212102D01*
X-193799Y209504D01*
X-303937Y209504D01*
X-303937Y222496D01*
X-191201Y222496D01*
X-191201Y390225D01*
X-191179Y390225D01*
X-191179Y406969D01*
X-189527Y406969D01*
X-189512Y406975D01*
X-189506Y406990D01*
X-189506Y440906D01*
X-188145Y440906D01*
X-188130Y440912D01*
X-188124Y440928D01*
X-188124Y450770D01*
X-188130Y450785D01*
X-188145Y450791D01*
X-220290Y450791D01*
X-228538Y459039D01*
X-228538Y477337D01*
X-228544Y477352D01*
X-228559Y477358D01*
X-264118Y477358D01*
X-264133Y477352D01*
X-264139Y477337D01*
X-264139Y459039D01*
X-272387Y450791D01*
X-304531Y450791D01*
X-304546Y450785D01*
X-304553Y450770D01*
X-304553Y440928D01*
X-304546Y440912D01*
X-304531Y440906D01*
X-303171Y440906D01*
X-303171Y406990D01*
X-303164Y406975D01*
X-303149Y406969D01*
X-301498Y406969D01*
X-301498Y390225D01*
X-301476Y390225D01*
X-301479Y390447D01*
X-301475Y390225D01*
X-301476Y353047D01*
X-253976Y353047D01*
X-238386Y337457D01*
X-238386Y308401D01*
X-251378Y295409D01*
X-251378Y295409D01*
X-253976Y292811D01*
X-331614Y292811D01*
X-331614Y282575D01*
X-344606Y282575D01*
X-344606Y290213D01*
X-342008Y292811D01*
X-342008Y292811D01*
X-329016Y305803D01*
X-251378Y305803D01*
X-251378Y340054D01*
X-298878Y340055D01*
X-311870Y353047D01*
X-311870Y353047D01*
X-314468Y355646D01*
X-314468Y390225D01*
X-314447Y390225D01*
X-314447Y406969D01*
X-312795Y406969D01*
X-312780Y406975D01*
X-312774Y406990D01*
X-312774Y440906D01*
X-311413Y440906D01*
X-311398Y440912D01*
X-311392Y440928D01*
X-311392Y449383D01*
X-303144Y457631D01*
X-271000Y457631D01*
X-270985Y457637D01*
X-270978Y457652D01*
X-270978Y480778D01*
X-270985Y480793D01*
X-271000Y480799D01*
X-273994Y480799D01*
X-273994Y515197D01*
X-271000Y515197D01*
X-270985Y515204D01*
X-270978Y515219D01*
X-270978Y538345D01*
X-270985Y538360D01*
X-271000Y538366D01*
X-303144Y538366D01*
X-311392Y546614D01*
X-311392Y574754D01*
X-311398Y574769D01*
X-311413Y574776D01*
X-427799Y574776D01*
X-427814Y574769D01*
X-427820Y574754D01*
X-427820Y546614D01*
X-436068Y538366D01*
X-468212Y538366D01*
X-468228Y538360D01*
X-468234Y538345D01*
X-468234Y515219D01*
X-468228Y515204D01*
X-468212Y515197D01*
X-465218Y515197D01*
X-465218Y480799D01*
X-468212Y480799D01*
X-468228Y480793D01*
X-468234Y480778D01*
X-468234Y457652D01*
X-468228Y457637D01*
X-468212Y457631D01*
X-436068Y457631D01*
X-427820Y449383D01*
X-427820Y440928D01*
X-427814Y440912D01*
X-427799Y440906D01*
X-426438Y440906D01*
X-426438Y406990D01*
X-426432Y406975D01*
X-426417Y406969D01*
X-424765Y406969D01*
X-424765Y390225D01*
X-424744Y390225D01*
X-424744Y355646D01*
X-427342Y353047D01*
X-427342Y353047D01*
X-440334Y340055D01*
X-487835Y340054D01*
X-487835Y305803D01*
X-410197Y305803D01*
X-397205Y292811D01*
X-397205Y292811D01*
X-394606Y290213D01*
X-394606Y282575D01*
X-407598Y282575D01*
X-407598Y292811D01*
X-485236Y292811D01*
X-487835Y295409D01*
X-487835Y295409D01*
X-500827Y308401D01*
X-500827Y337457D01*
X-485236Y353047D01*
X-437736Y353047D01*
X-437737Y390225D01*
X-437733Y390447D01*
X-437736Y390225D01*
X-437715Y390225D01*
X-437715Y406969D01*
X-436063Y406969D01*
X-436048Y406975D01*
X-436041Y406990D01*
X-436041Y440906D01*
X-434681Y440906D01*
X-434666Y440912D01*
X-434660Y440928D01*
X-434660Y450770D01*
X-434666Y450785D01*
X-434681Y450791D01*
X-466825Y450791D01*
X-475073Y459039D01*
X-475073Y477337D01*
X-475079Y477352D01*
X-475094Y477358D01*
X-510653Y477358D01*
X-510668Y477352D01*
X-510675Y477337D01*
X-510675Y459039D01*
X-518922Y450791D01*
X-551067Y450791D01*
X-551082Y450785D01*
X-551088Y450770D01*
X-551088Y440928D01*
X-551082Y440912D01*
X-551067Y440906D01*
X-549706Y440906D01*
X-549706Y406990D01*
X-549700Y406975D01*
X-549685Y406969D01*
X-548033Y406969D01*
X-548033Y390225D01*
X-548012Y390225D01*
X-548015Y390447D01*
X-548011Y390225D01*
X-548012Y222496D01*
X-435275Y222496D01*
X-435275Y209504D01*
X-435054Y209507D01*
X-435275Y209503D01*
X-545414Y209504D01*
X-561004Y225094D01*
X-561004Y390225D01*
X-560982Y390225D01*
X-560982Y406969D01*
X-559331Y406969D01*
X-559315Y406975D01*
X-559309Y406990D01*
X-559309Y440906D01*
X-557949Y440906D01*
X-557933Y440912D01*
X-557927Y440928D01*
X-557927Y449383D01*
X-549680Y457631D01*
X-517535Y457631D01*
X-517520Y457637D01*
X-517514Y457652D01*
X-517514Y480778D01*
X-517520Y480793D01*
X-517535Y480799D01*
X-520530Y480799D01*
X-520530Y515197D01*
X-517535Y515197D01*
X-517520Y515204D01*
X-517514Y515219D01*
X-517514Y538345D01*
X-517520Y538360D01*
X-517535Y538366D01*
X-549680Y538366D01*
X-557927Y546614D01*
X-557927Y568446D01*
X-549680Y576694D01*
X-482681Y576694D01*
X-482666Y576700D01*
X-482660Y576715D01*
X-482660Y620829D01*
X-482666Y620844D01*
X-482681Y620850D01*
X-549680Y620850D01*
X-557927Y629098D01*
X-557927Y650930D01*
X-549680Y659178D01*
X-517535Y659178D01*
X-517520Y659184D01*
X-517514Y659199D01*
X-517514Y682325D01*
X-517520Y682340D01*
X-517535Y682346D01*
X-520530Y682346D01*
X-520530Y716745D01*
X-517535Y716745D01*
X-517520Y716751D01*
X-517514Y716766D01*
X-517514Y739892D01*
X-517520Y739907D01*
X-517535Y739913D01*
X-549680Y739913D01*
X-557927Y748161D01*
X-557927Y774915D01*
X-549680Y783162D01*
X-531972Y783162D01*
X-531957Y783168D01*
X-531951Y783183D01*
X-531951Y802868D01*
X-531957Y802884D01*
X-531972Y802890D01*
X-549680Y802890D01*
X-557927Y811137D01*
X-557927Y829414D01*
X-556848Y829414D01*
X-556833Y829420D01*
X-556827Y829435D01*
X-556827Y864139D01*
X-556008Y864139D01*
X-555993Y864145D01*
X-555986Y864160D01*
X-555986Y899593D01*
X-555993Y899608D01*
X-556008Y899614D01*
X-586880Y899614D01*
X-586880Y956658D01*
X-556008Y956658D01*
X-555993Y956664D01*
X-555986Y956679D01*
X-555986Y992112D01*
X-555993Y992128D01*
X-556008Y992134D01*
X-591297Y992134D01*
X-591297Y1049178D01*
X-556008Y1049178D01*
X-555993Y1049184D01*
X-555986Y1049199D01*
X-555986Y1084632D01*
X-555993Y1084647D01*
X-556008Y1084653D01*
X-591297Y1084653D01*
X-591297Y1141697D01*
X-556008Y1141697D01*
X-555993Y1141704D01*
X-555986Y1141719D01*
X-555986Y1177152D01*
X-555993Y1177167D01*
X-556008Y1177173D01*
X-586880Y1177173D01*
X-586880Y1234217D01*
X-522135Y1234217D01*
X-522135Y1177173D01*
X-553008Y1177173D01*
X-553023Y1177167D01*
X-553029Y1177152D01*
X-553029Y1141719D01*
X-553023Y1141704D01*
X-553008Y1141697D01*
X-517718Y1141697D01*
X-517718Y1084653D01*
X-553008Y1084653D01*
X-553023Y1084647D01*
X-553029Y1084632D01*
X-553029Y1049199D01*
X-553023Y1049184D01*
X-553008Y1049178D01*
X-517718Y1049178D01*
X-517718Y992134D01*
X-553008Y992134D01*
X-553023Y992128D01*
X-553029Y992112D01*
X-553029Y956679D01*
X-553023Y956664D01*
X-553008Y956658D01*
X-522135Y956658D01*
X-522135Y899614D01*
X-553008Y899614D01*
X-553023Y899608D01*
X-553029Y899593D01*
X-553029Y864160D01*
X-553023Y864145D01*
X-553008Y864139D01*
X-552188Y864139D01*
X-552188Y829435D01*
X-552182Y829420D01*
X-552167Y829414D01*
X-551088Y829414D01*
X-551088Y809750D01*
X-551082Y809735D01*
X-551067Y809729D01*
X-533359Y809729D01*
X-525112Y801482D01*
X-525112Y784570D01*
X-533359Y776323D01*
X-551067Y776323D01*
X-551082Y776317D01*
X-551088Y776302D01*
X-551088Y746774D01*
X-551082Y746759D01*
X-551067Y746753D01*
X-518922Y746753D01*
X-510675Y738505D01*
X-510675Y720207D01*
X-510668Y720192D01*
X-510653Y720186D01*
X-475094Y720186D01*
X-475079Y720192D01*
X-475073Y720207D01*
X-475073Y738505D01*
X-466826Y746753D01*
X-434681Y746753D01*
X-434666Y746759D01*
X-434660Y746774D01*
X-434660Y829414D01*
X-433580Y829414D01*
X-433565Y829420D01*
X-433559Y829435D01*
X-433559Y864139D01*
X-432740Y864139D01*
X-432725Y864145D01*
X-432719Y864160D01*
X-432719Y899593D01*
X-432725Y899608D01*
X-432740Y899614D01*
X-463612Y899614D01*
X-463612Y956658D01*
X-432740Y956658D01*
X-432725Y956664D01*
X-432719Y956679D01*
X-432719Y992112D01*
X-432725Y992128D01*
X-432740Y992134D01*
X-468030Y992134D01*
X-468030Y1049178D01*
X-432740Y1049178D01*
X-432725Y1049184D01*
X-432719Y1049199D01*
X-432719Y1084632D01*
X-432725Y1084647D01*
X-432740Y1084653D01*
X-468030Y1084653D01*
X-468030Y1141697D01*
X-432740Y1141697D01*
X-432725Y1141704D01*
X-432719Y1141719D01*
X-432719Y1177152D01*
X-432725Y1177167D01*
X-432740Y1177173D01*
X-463612Y1177173D01*
X-463612Y1234217D01*
X-398868Y1234217D01*
X-398868Y1177173D01*
X-429740Y1177173D01*
X-429755Y1177167D01*
X-429761Y1177152D01*
X-429761Y1141719D01*
X-429755Y1141704D01*
X-429740Y1141697D01*
X-394450Y1141697D01*
X-394450Y1084653D01*
X-429740Y1084653D01*
X-429755Y1084647D01*
X-429761Y1084632D01*
X-429761Y1049199D01*
X-429755Y1049184D01*
X-429740Y1049178D01*
X-394450Y1049178D01*
X-394450Y992134D01*
X-429740Y992134D01*
X-429755Y992128D01*
X-429761Y992112D01*
X-429761Y956679D01*
X-429755Y956664D01*
X-429740Y956658D01*
X-398868Y956658D01*
X-398868Y899614D01*
X-429740Y899614D01*
X-429755Y899608D01*
X-429761Y899593D01*
X-429761Y864160D01*
X-429755Y864145D01*
X-429740Y864139D01*
X-428921Y864139D01*
X-428921Y829435D01*
X-428914Y829420D01*
X-428899Y829414D01*
X-427820Y829414D01*
X-427820Y748161D01*
X-436068Y739913D01*
X-468212Y739913D01*
X-468228Y739907D01*
X-468234Y739892D01*
X-468234Y716766D01*
X-468228Y716751D01*
X-468212Y716745D01*
X-465218Y716745D01*
X-465218Y682346D01*
X-468212Y682346D01*
X-468228Y682340D01*
X-468234Y682325D01*
X-468234Y659199D01*
X-468228Y659184D01*
X-468212Y659178D01*
X-436068Y659178D01*
X-427820Y650930D01*
X-427820Y622790D01*
X-427814Y622775D01*
X-427799Y622768D01*
X-311413Y622768D01*
X-311398Y622775D01*
X-311392Y622790D01*
X-311392Y650930D01*
X-303144Y659178D01*
X-271000Y659178D01*
X-270985Y659184D01*
X-270978Y659199D01*
X-270978Y682325D01*
X-270985Y682340D01*
X-271000Y682346D01*
X-273994Y682346D01*
X-273994Y716745D01*
X-271000Y716745D01*
X-270985Y716751D01*
X-270978Y716766D01*
X-270978Y739892D01*
X-270985Y739907D01*
X-271000Y739913D01*
X-303144Y739913D01*
X-311392Y748161D01*
X-311392Y774915D01*
X-303144Y783162D01*
X-285437Y783162D01*
X-285422Y783168D01*
X-285416Y783183D01*
X-285416Y802868D01*
X-285422Y802884D01*
X-285437Y802890D01*
X-303144Y802890D01*
X-311392Y811137D01*
X-311392Y829414D01*
X-310313Y829414D01*
X-310298Y829420D01*
X-310291Y829435D01*
X-310291Y864139D01*
X-309472Y864139D01*
X-309457Y864145D01*
X-309451Y864160D01*
X-309451Y899593D01*
X-309457Y899608D01*
X-309472Y899614D01*
X-340345Y899614D01*
X-340345Y956658D01*
X-309472Y956658D01*
X-309457Y956664D01*
X-309451Y956679D01*
X-309451Y992112D01*
X-309457Y992128D01*
X-309472Y992134D01*
X-344762Y992134D01*
X-344762Y1049178D01*
X-309472Y1049178D01*
X-309457Y1049184D01*
X-309451Y1049199D01*
X-309451Y1084632D01*
X-309457Y1084647D01*
X-309472Y1084653D01*
X-344762Y1084653D01*
X-344762Y1141697D01*
X-309472Y1141697D01*
X-309457Y1141704D01*
X-309451Y1141719D01*
X-309451Y1177152D01*
X-309457Y1177167D01*
X-309472Y1177173D01*
X-340345Y1177173D01*
X-340345Y1234217D01*
X-275600Y1234217D01*
X-275600Y1177173D01*
X-306472Y1177173D01*
X-306487Y1177167D01*
X-306493Y1177152D01*
X-306493Y1141719D01*
X-306487Y1141704D01*
X-306472Y1141697D01*
X-271183Y1141697D01*
X-271183Y1084653D01*
X-306472Y1084653D01*
X-306487Y1084647D01*
X-306493Y1084632D01*
X-306493Y1049199D01*
X-306487Y1049184D01*
X-306472Y1049178D01*
X-271183Y1049178D01*
X-271183Y992134D01*
X-306472Y992134D01*
X-306487Y992128D01*
X-306493Y992112D01*
X-306493Y956679D01*
X-306487Y956664D01*
X-306472Y956658D01*
X-275600Y956658D01*
X-275600Y899614D01*
X-306472Y899614D01*
X-306487Y899608D01*
X-306493Y899593D01*
X-306493Y864160D01*
X-306487Y864145D01*
X-306472Y864139D01*
X-305653Y864139D01*
X-305653Y829435D01*
X-305647Y829420D01*
X-305632Y829414D01*
X-304553Y829414D01*
X-304553Y809750D01*
X-304546Y809735D01*
X-304531Y809729D01*
X-286824Y809729D01*
X-278576Y801482D01*
X-278576Y784570D01*
X-286824Y776323D01*
X-304531Y776323D01*
X-304546Y776317D01*
X-304553Y776302D01*
X-304553Y746774D01*
X-304546Y746759D01*
X-304531Y746753D01*
X-272387Y746753D01*
X-264139Y738505D01*
X-264139Y720207D01*
X-264133Y720192D01*
X-264118Y720186D01*
X-228559Y720186D01*
X-228544Y720192D01*
X-228538Y720207D01*
X-228538Y738505D01*
X-220290Y746753D01*
X-188145Y746753D01*
X-188130Y746759D01*
X-188124Y746774D01*
X-188124Y829414D01*
X-187045Y829414D01*
X-187030Y829420D01*
X-187024Y829435D01*
X-187024Y864139D01*
X-186204Y864139D01*
X-186189Y864145D01*
X-186183Y864160D01*
X-186183Y899593D01*
X-186189Y899608D01*
X-186204Y899614D01*
X-217077Y899614D01*
X-217077Y956658D01*
X-186204Y956658D01*
X-186189Y956664D01*
X-186183Y956679D01*
X-186183Y992112D01*
X-186189Y992128D01*
X-186204Y992134D01*
X-221494Y992134D01*
X-221494Y1049178D01*
X-186204Y1049178D01*
X-186189Y1049184D01*
X-186183Y1049199D01*
X-186183Y1084632D01*
X-186189Y1084647D01*
X-186204Y1084653D01*
X-221494Y1084653D01*
X-221494Y1141697D01*
X-186204Y1141697D01*
X-186189Y1141704D01*
X-186183Y1141719D01*
X-186183Y1177152D01*
X-186189Y1177167D01*
X-186204Y1177173D01*
X-217077Y1177173D01*
X-217077Y1234217D01*
X-152332Y1234217D01*
X-152332Y1177173D01*
X-152332Y1177173D02*
G37*
G36*
X133187Y522858D02*
X100880Y522858D01*
X100880Y538604D01*
X100879Y538606D01*
X100878Y538606D01*
X97878Y538606D01*
X97876Y538606D01*
X97876Y538604D01*
X97876Y487620D01*
X97876Y487618D01*
X97878Y487618D01*
X99811Y487618D01*
X99811Y453270D01*
X99811Y453268D01*
X99813Y453267D01*
X102872Y453267D01*
X102872Y419909D01*
X102875Y419740D01*
X102874Y391433D01*
X87284Y375843D01*
X96600Y375846D01*
X96378Y375842D01*
X6693Y375843D01*
X6693Y191449D01*
X6672Y191449D01*
X6672Y160654D01*
X6678Y160639D01*
X6693Y160633D01*
X7065Y160633D01*
X7065Y135872D01*
X6693Y135872D01*
X6678Y135866D01*
X6672Y135851D01*
X6672Y105055D01*
X-6278Y105055D01*
X-6278Y135851D01*
X-6284Y135866D01*
X-6299Y135872D01*
X-6672Y135872D01*
X-6672Y160633D01*
X-6299Y160633D01*
X-6284Y160639D01*
X-6278Y160654D01*
X-6278Y191449D01*
X-6299Y191449D01*
X-6299Y373244D01*
X-3701Y375843D01*
X-3701Y375843D01*
X9291Y388835D01*
X89882Y388835D01*
X89882Y419740D01*
X89884Y419740D01*
X89884Y453267D01*
X92943Y453267D01*
X92945Y453268D01*
X92945Y453270D01*
X92945Y487618D01*
X94878Y487618D01*
X94879Y487618D01*
X94880Y487620D01*
X94880Y538604D01*
X94879Y538606D01*
X94878Y538606D01*
X91878Y538606D01*
X91876Y538606D01*
X91876Y538604D01*
X91876Y522858D01*
X59569Y522858D01*
X59569Y579941D01*
X133187Y579941D01*
X133187Y522858D01*
X133187Y522858D02*
G37*
G36*
X181024Y242575D02*
X181024Y238638D01*
X118031Y238638D01*
X118031Y248480D01*
X175118Y248480D01*
X181024Y242575D01*
X181024Y242575D02*
G37*
G36*
X146182Y188441D02*
X146181Y179591D01*
X133189Y166599D01*
X133189Y166599D01*
X130591Y164000D01*
X37140Y164000D01*
X37140Y164022D01*
X23972Y164022D01*
X23957Y164015D01*
X23951Y164000D01*
X23951Y160654D01*
X23957Y160639D01*
X23972Y160633D01*
X24345Y160633D01*
X24345Y135872D01*
X23972Y135872D01*
X23957Y135866D01*
X23951Y135851D01*
X23951Y132504D01*
X23957Y132489D01*
X23972Y132483D01*
X37140Y132483D01*
X37140Y119533D01*
X27170Y119533D01*
X11002Y135702D01*
X11002Y135851D01*
X10995Y135866D01*
X10980Y135872D01*
X10608Y135872D01*
X10608Y160633D01*
X10980Y160633D01*
X10995Y160639D01*
X11002Y160654D01*
X11002Y160803D01*
X27170Y176971D01*
X37140Y176971D01*
X37140Y176992D01*
X133189Y176992D01*
X133189Y188441D01*
X146181Y188441D01*
X146178Y188663D01*
X146182Y188441D01*
X146182Y188441D02*
G37*
G36*
X499764Y28874D02*
X484173Y13284D01*
X53689Y13284D01*
X53689Y26276D01*
X486772Y26276D01*
X487107Y146732D01*
X499108Y146732D01*
X499764Y28874D01*
X499764Y28874D02*
G37*
G36*
X-363109Y153008D02*
X-363110Y26276D01*
X-53295Y26276D01*
X-53295Y13284D01*
X-53073Y13286D01*
X-53295Y13283D01*
X-360512Y13284D01*
X-376102Y28874D01*
X-376102Y153008D01*
X-363110Y153008D01*
X-363113Y153230D01*
X-363109Y153008D01*
X-363109Y153008D02*
G37*
%LPC*%
G36*
X-231575Y713346D02*
X-261102Y713346D01*
X-261117Y713340D01*
X-261123Y713325D01*
X-261123Y685766D01*
X-261117Y685751D01*
X-261102Y685745D01*
X-231575Y685745D01*
X-231560Y685751D01*
X-231553Y685766D01*
X-231553Y713325D01*
X-231560Y713340D01*
X-231575Y713346D01*
X-231575Y713346D02*
G37*
G36*
X-478110Y713346D02*
X-507638Y713346D01*
X-507653Y713340D01*
X-507659Y713325D01*
X-507659Y685766D01*
X-507653Y685751D01*
X-507638Y685745D01*
X-478110Y685745D01*
X-478095Y685751D01*
X-478089Y685766D01*
X-478089Y713325D01*
X-478095Y713340D01*
X-478110Y713346D01*
X-478110Y713346D02*
G37*
G36*
X-331894Y615929D02*
X-366165Y615929D01*
X-366180Y615923D01*
X-366187Y615908D01*
X-366187Y581636D01*
X-366180Y581621D01*
X-366165Y581615D01*
X-331894Y581615D01*
X-331878Y581621D01*
X-331872Y581636D01*
X-331872Y615908D01*
X-331878Y615923D01*
X-331894Y615929D01*
X-331894Y615929D02*
G37*
G36*
X-373047Y615929D02*
X-407319Y615929D01*
X-407334Y615923D01*
X-407340Y615908D01*
X-407340Y581636D01*
X-407334Y581621D01*
X-407319Y581615D01*
X-373047Y581615D01*
X-373032Y581621D01*
X-373026Y581636D01*
X-373026Y615908D01*
X-373032Y615923D01*
X-373047Y615929D01*
X-373047Y615929D02*
G37*
G36*
X-228559Y678905D02*
X-264118Y678905D01*
X-264133Y678899D01*
X-264139Y678884D01*
X-264139Y660586D01*
X-272387Y652339D01*
X-304531Y652339D01*
X-304546Y652332D01*
X-304553Y652317D01*
X-304553Y624177D01*
X-312800Y615929D01*
X-325012Y615929D01*
X-325027Y615923D01*
X-325033Y615908D01*
X-325033Y581636D01*
X-325027Y581621D01*
X-325012Y581615D01*
X-312800Y581615D01*
X-304553Y573367D01*
X-304553Y545227D01*
X-304546Y545212D01*
X-304531Y545205D01*
X-272387Y545205D01*
X-264139Y536958D01*
X-264139Y518660D01*
X-264133Y518645D01*
X-264118Y518639D01*
X-228559Y518639D01*
X-228544Y518645D01*
X-228538Y518660D01*
X-228538Y536958D01*
X-220290Y545205D01*
X-188145Y545205D01*
X-188130Y545212D01*
X-188124Y545227D01*
X-188124Y569833D01*
X-188130Y569848D01*
X-188145Y569854D01*
X-220908Y569854D01*
X-229156Y578102D01*
X-229156Y619442D01*
X-220908Y627690D01*
X-188145Y627690D01*
X-188130Y627696D01*
X-188124Y627711D01*
X-188124Y652317D01*
X-188130Y652332D01*
X-188145Y652339D01*
X-220290Y652339D01*
X-228538Y660586D01*
X-228538Y678884D01*
X-228544Y678899D01*
X-228559Y678905D01*
X-228559Y678905D02*
G37*
G36*
X-475094Y678905D02*
X-510653Y678905D01*
X-510668Y678899D01*
X-510675Y678884D01*
X-510675Y660586D01*
X-518922Y652339D01*
X-551067Y652339D01*
X-551082Y652332D01*
X-551088Y652317D01*
X-551088Y627711D01*
X-551082Y627696D01*
X-551067Y627690D01*
X-484068Y627690D01*
X-475820Y619442D01*
X-475820Y578102D01*
X-484068Y569854D01*
X-551067Y569854D01*
X-551082Y569848D01*
X-551088Y569833D01*
X-551088Y545227D01*
X-551082Y545212D01*
X-551067Y545205D01*
X-518922Y545205D01*
X-510675Y536958D01*
X-510675Y518660D01*
X-510668Y518645D01*
X-510653Y518639D01*
X-475094Y518639D01*
X-475079Y518645D01*
X-475073Y518660D01*
X-475073Y536958D01*
X-466825Y545205D01*
X-434681Y545205D01*
X-434666Y545212D01*
X-434660Y545227D01*
X-434660Y573367D01*
X-426412Y581615D01*
X-414201Y581615D01*
X-414185Y581621D01*
X-414179Y581636D01*
X-414179Y615908D01*
X-414185Y615923D01*
X-414201Y615929D01*
X-426412Y615929D01*
X-434660Y624177D01*
X-434660Y652317D01*
X-434666Y652332D01*
X-434681Y652339D01*
X-466825Y652339D01*
X-475073Y660586D01*
X-475073Y678884D01*
X-475079Y678899D01*
X-475094Y678905D01*
X-475094Y678905D02*
G37*
G36*
X-231575Y511799D02*
X-261102Y511799D01*
X-261117Y511793D01*
X-261123Y511778D01*
X-261123Y484219D01*
X-261117Y484204D01*
X-261102Y484197D01*
X-231575Y484197D01*
X-231560Y484204D01*
X-231553Y484219D01*
X-231553Y511778D01*
X-231560Y511793D01*
X-231575Y511799D01*
X-231575Y511799D02*
G37*
G36*
X-478110Y511799D02*
X-507638Y511799D01*
X-507653Y511793D01*
X-507659Y511778D01*
X-507659Y484219D01*
X-507653Y484204D01*
X-507638Y484197D01*
X-478110Y484197D01*
X-478095Y484204D01*
X-478089Y484219D01*
X-478089Y511778D01*
X-478095Y511793D01*
X-478110Y511799D01*
X-478110Y511799D02*
G37*
G36*
X102872Y419893D02*
X102872Y419740D01*
X102874Y419740D01*
X102872Y419893D01*
X102872Y419893D02*
G37*
%LPD*%
D10*
X46732Y-116339D02*
X46732Y-79276D01*
X-46339Y-116339D02*
X-46339Y-79276D01*
D13*
X-232284Y85630D02*
X-232284Y86079D01*
X-256511Y86079D02*
X-232284Y86079D01*
X19512Y4216D02*
X19697Y4032D01*
X15760Y4216D02*
X19512Y4216D01*
X-15551Y4032D02*
X197Y19779D01*
X0Y11811D02*
X197Y12008D01*
X197Y19779D02*
X15760Y4216D01*
X19697Y4032D02*
X40197Y4032D01*
X197Y12008D02*
X197Y19779D01*
X-39803Y4032D02*
X-15551Y4032D01*
X5197Y24779D02*
X15945Y35528D01*
X-19803Y35528D02*
X197Y35528D01*
X159370Y242047D02*
X161417Y244095D01*
X159370Y207142D02*
X159370Y242047D01*
X120000Y207142D02*
X120000Y279976D01*
X-19803Y35528D02*
X-15551Y39779D01*
X-15551Y59779D01*
X15945Y35528D02*
X15945Y59779D01*
X15945Y35528D02*
X40197Y35528D01*
X-39803Y35528D02*
X-19803Y35528D01*
X-417913Y248559D02*
X-417913Y264437D01*
X-419106Y247496D02*
X-401102Y247496D01*
X-385354Y231748D01*
X-369606Y216000D02*
X-353858Y231748D01*
X-353858Y265500D01*
X-353858Y231748D02*
X-338110Y247496D01*
X-320106Y247496D01*
X-385354Y231748D02*
X-385354Y265500D01*
X-369606Y216000D02*
X-369606Y265500D01*
X-320236Y247496D02*
X-320106Y247496D01*
X-321299Y248559D02*
X-320236Y247496D01*
X-321299Y248559D02*
X-321299Y264437D01*
X-322362Y265500D02*
X-321299Y264437D01*
X-353858Y231748D02*
X-320106Y231748D01*
X-419106Y231748D02*
X-385354Y231748D01*
X-401102Y184504D02*
X-387827Y197780D01*
X-401102Y166500D02*
X-401102Y184504D01*
X-385354Y166500D02*
X-385354Y200252D01*
X-351858Y198252D02*
X-338110Y184504D01*
X-338110Y166500D02*
X-338110Y184504D01*
X-353858Y166500D02*
X-353858Y200252D01*
X-350394Y200787D02*
X-349858Y200252D01*
X-320106Y200252D01*
X-390299Y200252D02*
X-389764Y200787D01*
X-419106Y200252D02*
X-390299Y200252D01*
D18*
X197Y191450D02*
D03*
X197Y105055D02*
D03*
D19*
X37140Y170496D02*
D03*
X37140Y126008D02*
D03*
D20*
X-184704Y390225D02*
D03*
X-307972Y390225D02*
D03*
X-431240Y390225D02*
D03*
X-554508Y390225D02*
D03*
D21*
X-219449Y142520D02*
D03*
X-219449Y122496D02*
D03*
X-519764Y142520D02*
D03*
X-519764Y122496D02*
D03*
X-79Y-112910D02*
D03*
X-79Y-92885D02*
D03*
D22*
X-276535Y86079D02*
D03*
X-256511Y86079D02*
D03*
X-462677Y86079D02*
D03*
X-482702Y86079D02*
D03*
X66757Y-79276D02*
D03*
X46732Y-79276D02*
D03*
X-66363Y-79276D02*
D03*
X-46339Y-79276D02*
D03*
D23*
X179055Y278008D02*
D03*
D24*
X149528Y243559D02*
D03*
D25*
X179055Y207142D02*
D03*
X159370Y207142D02*
D03*
X139685Y207142D02*
D03*
X120000Y207142D02*
D03*
X120000Y279976D02*
D03*
X139685Y279976D02*
D03*
X159370Y279976D02*
D03*
D26*
X197Y19779D02*
D03*
D27*
X40197Y35528D02*
D03*
X40197Y19779D02*
D03*
X40197Y4032D02*
D03*
X-39803Y4032D02*
D03*
X-39803Y19779D02*
D03*
X-39803Y35528D02*
D03*
X-320106Y184504D02*
D03*
X-320106Y200252D02*
D03*
X-320106Y216000D02*
D03*
X-320106Y231748D02*
D03*
X-320106Y247496D02*
D03*
X-419106Y247496D02*
D03*
X-419106Y231748D02*
D03*
X-419106Y216000D02*
D03*
X-419106Y200252D02*
D03*
X-419106Y184504D02*
D03*
D28*
X15945Y-20221D02*
D03*
X197Y-20221D02*
D03*
X-15551Y-20221D02*
D03*
X-15551Y59779D02*
D03*
X197Y59779D02*
D03*
X15945Y59779D02*
D03*
X-416850Y166500D02*
D03*
X-401102Y166500D02*
D03*
X-385354Y166500D02*
D03*
X-369606Y166500D02*
D03*
X-353858Y166500D02*
D03*
X-338110Y166500D02*
D03*
X-322362Y166500D02*
D03*
X-322362Y265500D02*
D03*
X-338110Y265500D02*
D03*
X-353858Y265500D02*
D03*
X-369606Y265500D02*
D03*
X-385354Y265500D02*
D03*
X-401102Y265500D02*
D03*
X-416850Y265500D02*
D03*
D29*
X-369606Y216000D02*
D03*
D30*
X114197Y126425D02*
D03*
X76197Y126425D02*
D03*
D31*
X96378Y419740D02*
D03*
D32*
X-716535Y-181102D02*
D03*
D33*
X197Y191450D02*
X197Y205000D01*
X197Y167000D02*
X197Y191450D01*
X-79Y74268D02*
X-79Y105055D01*
X197Y105055D01*
X76197Y126008D02*
X76197Y126425D01*
X37140Y126008D02*
X76197Y126008D01*
D34*
X-472520Y160882D02*
X-448898Y184504D01*
X-514690Y160882D02*
X-472520Y160882D01*
X-519764Y155808D02*
X-514690Y160882D01*
X-322362Y123047D02*
X-322362Y166500D01*
X-322362Y123047D02*
X-310000Y110685D01*
X-310000Y98874D02*
X-310000Y110685D01*
X-310000Y98874D02*
X-297204Y86079D01*
X-276535Y86079D01*
X-219449Y142520D02*
X-219449Y155808D01*
X-224522Y160882D02*
X-219449Y155808D01*
X-266693Y160882D02*
X-224522Y160882D01*
X-290315Y184504D02*
X-266693Y160882D01*
X-320106Y184504D02*
X-290315Y184504D01*
X-448898Y184504D02*
X-419106Y184504D01*
X-519764Y142520D02*
X-519764Y155808D01*
X-462677Y86079D02*
X-442008Y86079D01*
X-429213Y98874D01*
X-429213Y110685D01*
X-416850Y123047D01*
X-416850Y166500D01*
X-79Y-20496D02*
X197Y-20221D01*
X-79Y-92885D02*
X-79Y-20496D01*
X22327Y-44044D02*
X22327Y-43847D01*
X15945Y-37465D02*
X22327Y-43847D01*
X-21933Y-44044D02*
X-21933Y-43295D01*
X-20748Y-42110D02*
X-20625Y-42110D01*
X-15551Y-37036D02*
X-15551Y-20221D01*
X-26654Y-48764D02*
X-21933Y-44044D01*
X15945Y-37465D02*
X15945Y-20221D01*
X22327Y-44044D02*
X27047Y-48764D01*
X-20625Y-42110D02*
X-15551Y-37036D01*
X-21933Y-43295D02*
X-20748Y-42110D01*
X-26654Y-71401D02*
X-26654Y-48764D01*
X34921Y-79276D02*
X46732Y-79276D01*
X27047Y-71401D02*
X34921Y-79276D01*
X27047Y-71401D02*
X27047Y-48764D01*
X-34528Y-79276D02*
X-26654Y-71401D01*
X-46339Y-79276D02*
X-34528Y-79276D01*
X195149Y310829D02*
X195149Y321660D01*
X190714Y306394D02*
X195149Y310829D01*
X179055Y278008D02*
X179646Y278599D01*
X179646Y302221D01*
X183819Y306394D01*
X190714Y306394D01*
X163653Y315458D02*
X163653Y321660D01*
X163150Y314955D02*
X163653Y315458D01*
X163150Y309189D02*
X163150Y314955D01*
X159370Y279976D02*
X159370Y305409D01*
X163150Y309189D01*
X163653Y321660D02*
X164291Y322299D01*
X139685Y279976D02*
X139685Y322299D01*
X179055Y173677D02*
X179055Y207142D01*
X179055Y207142D01*
X-53295Y19779D02*
X-39803Y19779D01*
X40197Y19779D02*
X53689Y19779D01*
X-369606Y153008D02*
X-369606Y166500D01*
X-79Y59779D02*
X197Y59779D01*
X-79Y59779D02*
X-79Y74268D01*
X139685Y188441D02*
X139685Y207142D01*
X-435275Y216000D02*
X-419106Y216000D01*
X-320106Y216000D02*
X-303937Y216000D01*
X-401102Y265500D02*
X-401102Y282575D01*
X-338110Y265500D02*
X-338110Y282575D01*
D35*
X473583Y216000D02*
D03*
X493110Y146654D02*
D03*
X115157Y117126D02*
D03*
X115157Y135827D02*
D03*
X355945Y85630D02*
D03*
X-232284Y85630D02*
D03*
X0Y11811D02*
D03*
X118031Y243559D02*
D03*
X149528Y243559D02*
D03*
X493740Y231213D02*
D03*
X474055Y231213D02*
D03*
X513425Y231213D02*
D03*
X512953Y216000D02*
D03*
X493268Y216000D02*
D03*
X-350394Y200787D02*
D03*
X-389764Y200787D02*
D03*
X-370079Y200787D02*
D03*
X-472520Y161866D02*
D03*
X14000Y1146000D02*
D03*
X46732Y-116339D02*
D03*
X-46339Y-116339D02*
D03*
X0Y-54000D02*
D03*
X11000Y1251000D02*
D03*
X232000Y311000D02*
D03*
X-43000Y846236D02*
D03*
X103000Y89000D02*
D03*
X390480Y161866D02*
D03*
X433787Y109701D02*
D03*
X552213Y109701D02*
D03*
X595520Y161866D02*
D03*
X-267480Y161866D02*
D03*
X-310787Y109701D02*
D03*
X-429213Y109701D02*
D03*
X195149Y321660D02*
D03*
X139685Y322299D02*
D03*
X179055Y173677D02*
D03*
X164291Y322299D02*
D03*
D36*
X665197Y58480D02*
D03*
X615197Y-41520D02*
D03*
X640197Y8480D02*
D03*
X715197Y58480D02*
D03*
X690197Y8480D02*
D03*
X665197Y-41520D02*
D03*
X715197Y-41520D02*
D03*
X565197Y-41520D02*
D03*
X740197Y8480D02*
D03*
X815197Y1358480D02*
D03*
X840197Y1308480D02*
D03*
X815197Y1258480D02*
D03*
X840197Y1208480D02*
D03*
X815197Y1158480D02*
D03*
X840197Y1108480D02*
D03*
X815197Y1058480D02*
D03*
X840197Y1008480D02*
D03*
X815197Y958480D02*
D03*
X840197Y908480D02*
D03*
X815197Y858480D02*
D03*
X840197Y808480D02*
D03*
X815197Y758480D02*
D03*
X840197Y708480D02*
D03*
X815197Y658480D02*
D03*
X840197Y608480D02*
D03*
X815197Y558480D02*
D03*
X840197Y508480D02*
D03*
X815197Y458480D02*
D03*
X840197Y408480D02*
D03*
X815197Y358480D02*
D03*
X840197Y308480D02*
D03*
X815197Y258480D02*
D03*
X840197Y208480D02*
D03*
X815197Y158480D02*
D03*
X840197Y108480D02*
D03*
X815197Y58480D02*
D03*
X840197Y8480D02*
D03*
X815197Y-41520D02*
D03*
X840197Y-91520D02*
D03*
X815197Y-141520D02*
D03*
X790197Y1408480D02*
D03*
X765197Y1358480D02*
D03*
X790197Y1308480D02*
D03*
X790197Y1208480D02*
D03*
X790197Y1108480D02*
D03*
X790197Y1008480D02*
D03*
X790197Y908480D02*
D03*
X790197Y808480D02*
D03*
X765197Y758480D02*
D03*
X790197Y708480D02*
D03*
X765197Y658480D02*
D03*
X790197Y608480D02*
D03*
X765197Y558480D02*
D03*
X790197Y508480D02*
D03*
X765197Y458480D02*
D03*
X790197Y408480D02*
D03*
X765197Y358480D02*
D03*
X790197Y308480D02*
D03*
X765197Y258480D02*
D03*
X790197Y208480D02*
D03*
X765197Y158480D02*
D03*
X790197Y108480D02*
D03*
X765197Y58480D02*
D03*
X790197Y8480D02*
D03*
X765197Y-41520D02*
D03*
X790197Y-91520D02*
D03*
X765197Y-141520D02*
D03*
X790197Y-191520D02*
D03*
X715197Y1458480D02*
D03*
X740197Y1408480D02*
D03*
X715197Y1358480D02*
D03*
X740197Y108480D02*
D03*
X740197Y-91520D02*
D03*
X715197Y-141520D02*
D03*
X740197Y-191520D02*
D03*
X715197Y-241520D02*
D03*
X665197Y1458480D02*
D03*
X690197Y1408480D02*
D03*
X665197Y1358480D02*
D03*
X690197Y-91520D02*
D03*
X665197Y-141520D02*
D03*
X690197Y-191520D02*
D03*
X665197Y-241520D02*
D03*
X615197Y1458480D02*
D03*
X640197Y1408480D02*
D03*
X615197Y1358480D02*
D03*
X640197Y-91520D02*
D03*
X615197Y-141520D02*
D03*
X640197Y-191520D02*
D03*
X615197Y-241520D02*
D03*
X565197Y1458480D02*
D03*
X590197Y1408480D02*
D03*
X565197Y1358480D02*
D03*
X590197Y-91520D02*
D03*
X565197Y-141520D02*
D03*
X590197Y-191520D02*
D03*
X565197Y-241520D02*
D03*
X515197Y1458480D02*
D03*
X540197Y1408480D02*
D03*
X515197Y1358480D02*
D03*
X540197Y-91520D02*
D03*
X515197Y-141520D02*
D03*
X540197Y-191520D02*
D03*
X515197Y-241520D02*
D03*
X465197Y1458480D02*
D03*
X490197Y1408480D02*
D03*
X465197Y1358480D02*
D03*
X490197Y-91520D02*
D03*
X465197Y-141520D02*
D03*
X490197Y-191520D02*
D03*
X465197Y-241520D02*
D03*
X415197Y1458480D02*
D03*
X440197Y1408480D02*
D03*
X415197Y1358480D02*
D03*
X440197Y-91520D02*
D03*
X415197Y-141520D02*
D03*
X440197Y-191520D02*
D03*
X415197Y-241520D02*
D03*
X365197Y1458480D02*
D03*
X390197Y1408480D02*
D03*
X365197Y1358480D02*
D03*
X390197Y-91520D02*
D03*
X365197Y-141520D02*
D03*
X390197Y-191520D02*
D03*
X365197Y-241520D02*
D03*
X315197Y1458480D02*
D03*
X340197Y1408480D02*
D03*
X315197Y1358480D02*
D03*
X340197Y-91520D02*
D03*
X315197Y-141520D02*
D03*
X340197Y-191520D02*
D03*
X315197Y-241520D02*
D03*
X265197Y1458480D02*
D03*
X290197Y1408480D02*
D03*
X265197Y1358480D02*
D03*
X265197Y158480D02*
D03*
X290197Y108480D02*
D03*
X290197Y-91520D02*
D03*
X265197Y-141520D02*
D03*
X290197Y-191520D02*
D03*
X265197Y-241520D02*
D03*
X215197Y1458480D02*
D03*
X240197Y1408480D02*
D03*
X215197Y1358480D02*
D03*
X215197Y858480D02*
D03*
X240197Y-91520D02*
D03*
X215197Y-141520D02*
D03*
X240197Y-191520D02*
D03*
X215197Y-241520D02*
D03*
X165197Y1458480D02*
D03*
X190197Y1408480D02*
D03*
X165197Y1358480D02*
D03*
X190197Y1308480D02*
D03*
X190197Y1208480D02*
D03*
X190197Y1108480D02*
D03*
X165197Y958480D02*
D03*
X190197Y908480D02*
D03*
X165197Y758480D02*
D03*
X190197Y708480D02*
D03*
X190197Y-91520D02*
D03*
X165197Y-141520D02*
D03*
X190197Y-191520D02*
D03*
X165197Y-241520D02*
D03*
X115197Y1458480D02*
D03*
X140197Y1408480D02*
D03*
X115197Y1358480D02*
D03*
X140197Y1308480D02*
D03*
X115197Y1158480D02*
D03*
X115197Y1058480D02*
D03*
X140197Y1008480D02*
D03*
X115197Y958480D02*
D03*
X140197Y908480D02*
D03*
X140197Y808480D02*
D03*
X115197Y758480D02*
D03*
X115197Y658480D02*
D03*
X140197Y-91520D02*
D03*
X115197Y-141520D02*
D03*
X140197Y-191520D02*
D03*
X115197Y-241520D02*
D03*
X65197Y1458480D02*
D03*
X90197Y1408480D02*
D03*
X65197Y1358480D02*
D03*
X90197Y1308480D02*
D03*
X90197Y1208480D02*
D03*
X65197Y1158480D02*
D03*
X90197Y1108480D02*
D03*
X65197Y1058480D02*
D03*
X90197Y1008480D02*
D03*
X65197Y858480D02*
D03*
X65197Y-141520D02*
D03*
X90197Y-191520D02*
D03*
X65197Y-241520D02*
D03*
X15197Y1458480D02*
D03*
X40197Y1408480D02*
D03*
X15197Y1358480D02*
D03*
X40197Y1308480D02*
D03*
X40197Y1208480D02*
D03*
X40197Y1108480D02*
D03*
X40197Y1008480D02*
D03*
X40197Y908480D02*
D03*
X15197Y-141520D02*
D03*
X40197Y-191520D02*
D03*
X15197Y-241520D02*
D03*
X-34803Y1458480D02*
D03*
X-9803Y1408480D02*
D03*
X-34803Y1358480D02*
D03*
X-9803Y1308480D02*
D03*
X-34803Y1058480D02*
D03*
X-34803Y958480D02*
D03*
X-9803Y908480D02*
D03*
X-34803Y758480D02*
D03*
X-9803Y708480D02*
D03*
X-34803Y658480D02*
D03*
X-9803Y608480D02*
D03*
X-34803Y558480D02*
D03*
X-34803Y458480D02*
D03*
X-34803Y-141520D02*
D03*
X-9803Y-191520D02*
D03*
X-34803Y-241520D02*
D03*
X-84803Y1458480D02*
D03*
X-59803Y1408480D02*
D03*
X-84803Y1358480D02*
D03*
X-59803Y1308480D02*
D03*
X-59803Y908480D02*
D03*
X-59803Y808480D02*
D03*
X-59803Y708480D02*
D03*
X-59803Y608480D02*
D03*
X-59803Y508480D02*
D03*
X-84803Y-141520D02*
D03*
X-59803Y-191520D02*
D03*
X-84803Y-241520D02*
D03*
X-134803Y1458480D02*
D03*
X-109803Y1408480D02*
D03*
X-134803Y1358480D02*
D03*
X-109803Y1308480D02*
D03*
X-134803Y-141520D02*
D03*
X-109803Y-191520D02*
D03*
X-134803Y-241520D02*
D03*
X-184803Y1458480D02*
D03*
X-159803Y1408480D02*
D03*
X-184803Y1358480D02*
D03*
X-159803Y1308480D02*
D03*
X-184803Y-141520D02*
D03*
X-159803Y-191520D02*
D03*
X-184803Y-241520D02*
D03*
X-234803Y1458480D02*
D03*
X-209803Y1408480D02*
D03*
X-234803Y1358480D02*
D03*
X-209803Y1308480D02*
D03*
X-234803Y-141520D02*
D03*
X-209803Y-191520D02*
D03*
X-234803Y-241520D02*
D03*
X-284803Y1458480D02*
D03*
X-259803Y1408480D02*
D03*
X-284803Y1358480D02*
D03*
X-259803Y1308480D02*
D03*
X-284803Y-141520D02*
D03*
X-259803Y-191520D02*
D03*
X-284803Y-241520D02*
D03*
X-334803Y1458480D02*
D03*
X-309803Y1408480D02*
D03*
X-334803Y1358480D02*
D03*
X-309803Y1308480D02*
D03*
X-309803Y-91520D02*
D03*
X-334803Y-141520D02*
D03*
X-309803Y-191520D02*
D03*
X-334803Y-241520D02*
D03*
X-384803Y1458480D02*
D03*
X-359803Y1408480D02*
D03*
X-384803Y1358480D02*
D03*
X-359803Y1308480D02*
D03*
X-359803Y-91520D02*
D03*
X-384803Y-141520D02*
D03*
X-359803Y-191520D02*
D03*
X-384803Y-241520D02*
D03*
X-434803Y1458480D02*
D03*
X-409803Y1408480D02*
D03*
X-434803Y1358480D02*
D03*
X-409803Y1308480D02*
D03*
X-434803Y-41520D02*
D03*
X-409803Y-91520D02*
D03*
X-434803Y-141520D02*
D03*
X-409803Y-191520D02*
D03*
X-434803Y-241520D02*
D03*
X-484803Y1458480D02*
D03*
X-459803Y1408480D02*
D03*
X-484803Y1358480D02*
D03*
X-459803Y1308480D02*
D03*
X-484803Y-41520D02*
D03*
X-459803Y-91520D02*
D03*
X-484803Y-141520D02*
D03*
X-459803Y-191520D02*
D03*
X-484803Y-241520D02*
D03*
X-534803Y1458480D02*
D03*
X-509803Y1408480D02*
D03*
X-534803Y1358480D02*
D03*
X-509803Y1308480D02*
D03*
X-509803Y8480D02*
D03*
X-534803Y-41520D02*
D03*
X-509803Y-91520D02*
D03*
X-534803Y-141520D02*
D03*
X-509803Y-191520D02*
D03*
X-534803Y-241520D02*
D03*
X-584803Y1458480D02*
D03*
X-559803Y1408480D02*
D03*
X-584803Y1358480D02*
D03*
X-559803Y1308480D02*
D03*
X-584803Y58480D02*
D03*
X-559803Y8480D02*
D03*
X-584803Y-41520D02*
D03*
X-559803Y-91520D02*
D03*
X-584803Y-141520D02*
D03*
X-559803Y-191520D02*
D03*
X-584803Y-241520D02*
D03*
X-634803Y1458480D02*
D03*
X-609803Y1408480D02*
D03*
X-634803Y1358480D02*
D03*
X-609803Y1308480D02*
D03*
X-634803Y758480D02*
D03*
X-634803Y658480D02*
D03*
X-634803Y558480D02*
D03*
X-634803Y458480D02*
D03*
X-634803Y358480D02*
D03*
X-634803Y258480D02*
D03*
X-634803Y158480D02*
D03*
X-609803Y108480D02*
D03*
X-634803Y58480D02*
D03*
X-609803Y8480D02*
D03*
X-634803Y-41520D02*
D03*
X-609803Y-91520D02*
D03*
X-634803Y-141520D02*
D03*
X-609803Y-191520D02*
D03*
X-634803Y-241520D02*
D03*
X-684803Y1458480D02*
D03*
X-659803Y1408480D02*
D03*
X-684803Y1358480D02*
D03*
X-659803Y1308480D02*
D03*
X-684803Y1258480D02*
D03*
X-659803Y1208480D02*
D03*
X-684803Y1158480D02*
D03*
X-684803Y1058480D02*
D03*
X-684803Y958480D02*
D03*
X-659803Y908480D02*
D03*
X-684803Y858480D02*
D03*
X-659803Y808480D02*
D03*
X-684803Y758480D02*
D03*
X-659803Y708480D02*
D03*
X-684803Y658480D02*
D03*
X-659803Y608480D02*
D03*
X-684803Y558480D02*
D03*
X-659803Y508480D02*
D03*
X-684803Y458480D02*
D03*
X-659803Y408480D02*
D03*
X-684803Y358480D02*
D03*
X-659803Y308480D02*
D03*
X-684803Y258480D02*
D03*
X-659803Y208480D02*
D03*
X-684803Y158480D02*
D03*
X-659803Y108480D02*
D03*
X-684803Y58480D02*
D03*
X-659803Y8480D02*
D03*
X-684803Y-41520D02*
D03*
X-659803Y-91520D02*
D03*
X-684803Y-141520D02*
D03*
X-659803Y-191520D02*
D03*
X-684803Y-241520D02*
D03*
X-734803Y1458480D02*
D03*
X-709803Y1408480D02*
D03*
X-734803Y1358480D02*
D03*
X-709803Y1308480D02*
D03*
X-734803Y1258480D02*
D03*
X-709803Y1208480D02*
D03*
X-734803Y1158480D02*
D03*
X-709803Y1108480D02*
D03*
X-734803Y1058480D02*
D03*
X-709803Y1008480D02*
D03*
X-734803Y958480D02*
D03*
X-709803Y908480D02*
D03*
X-734803Y858480D02*
D03*
X-709803Y808480D02*
D03*
X-734803Y758480D02*
D03*
X-709803Y708480D02*
D03*
X-734803Y658480D02*
D03*
X-709803Y608480D02*
D03*
X-734803Y558480D02*
D03*
X-709803Y508480D02*
D03*
X-734803Y458480D02*
D03*
X-709803Y408480D02*
D03*
X-734803Y358480D02*
D03*
X-709803Y308480D02*
D03*
X-734803Y258480D02*
D03*
X-709803Y208480D02*
D03*
X-734803Y158480D02*
D03*
X-709803Y108480D02*
D03*
X-734803Y58480D02*
D03*
X-709803Y8480D02*
D03*
X-734803Y-41520D02*
D03*
X-709803Y-91520D02*
D03*
X-734803Y-241520D02*
D03*
X-759803Y1408480D02*
D03*
X-784803Y1358480D02*
D03*
X-759803Y1308480D02*
D03*
X-784803Y1258480D02*
D03*
X-759803Y1208480D02*
D03*
X-784803Y1158480D02*
D03*
X-759803Y1108480D02*
D03*
X-784803Y1058480D02*
D03*
X-759803Y1008480D02*
D03*
X-784803Y958480D02*
D03*
X-759803Y908480D02*
D03*
X-784803Y858480D02*
D03*
X-759803Y808480D02*
D03*
X-784803Y758480D02*
D03*
X-759803Y708480D02*
D03*
X-784803Y658480D02*
D03*
X-759803Y608480D02*
D03*
X-784803Y558480D02*
D03*
X-759803Y508480D02*
D03*
X-784803Y458480D02*
D03*
X-759803Y408480D02*
D03*
X-784803Y358480D02*
D03*
X-759803Y308480D02*
D03*
X-784803Y258480D02*
D03*
X-759803Y208480D02*
D03*
X-784803Y158480D02*
D03*
X-759803Y108480D02*
D03*
X-784803Y58480D02*
D03*
X-759803Y8480D02*
D03*
X-784803Y-41520D02*
D03*
X-759803Y-91520D02*
D03*
X-784803Y-141520D02*
D03*
X-809803Y1308480D02*
D03*
X-834803Y1258480D02*
D03*
X-809803Y1208480D02*
D03*
X-834803Y1158480D02*
D03*
X-809803Y1108480D02*
D03*
X-834803Y1058480D02*
D03*
X-809803Y1008480D02*
D03*
X-834803Y958480D02*
D03*
X-809803Y908480D02*
D03*
X-834803Y858480D02*
D03*
X-809803Y808480D02*
D03*
X-834803Y758480D02*
D03*
X-809803Y708480D02*
D03*
X-834803Y658480D02*
D03*
X-809803Y608480D02*
D03*
X-834803Y558480D02*
D03*
X-809803Y508480D02*
D03*
X-834803Y458480D02*
D03*
X-809803Y408480D02*
D03*
X-834803Y358480D02*
D03*
X-809803Y308480D02*
D03*
X-834803Y258480D02*
D03*
X-809803Y208480D02*
D03*
X-834803Y158480D02*
D03*
X-809803Y108480D02*
D03*
X-834803Y58480D02*
D03*
X-809803Y8480D02*
D03*
X-834803Y-41520D02*
D03*
X-809803Y-91520D02*
D03*
M02*
