G04*
G04 #@! TF.GenerationSoftware,Altium Limited,Altium Designer,25.8.1 (18)*
G04*
G04 Layer_Color=32768*
%FSLAX26Y26*%
%MOIN*%
G70*
G04*
G04 #@! TF.SameCoordinates,AB66D781-FBCB-4B57-8275-DC7DE2197C71*
G04*
G04*
G04 #@! TF.FilePolarity,Positive*
G04*
G01*
G75*
%ADD13C,0.007874*%
%ADD14C,0.006000*%
G36*
X-298606Y169504D02*
X-298606Y145000D01*
X-307362Y145000D01*
X-307362Y145000D01*
X-431850Y145000D01*
X-431850Y145000D01*
X-440606Y145000D01*
X-440606Y169504D01*
X-440606Y169504D01*
X-440606Y262496D01*
X-440606Y262496D01*
X-440606Y287000D01*
X-431850Y287000D01*
X-431850Y287000D01*
X-307362Y287000D01*
X-307362Y287000D01*
X-298606Y287000D01*
X-298606Y262496D01*
X-298606Y262496D01*
X-298606Y169504D01*
X-298606Y169504D01*
X-298606Y169504D02*
G37*
G36*
X-60803Y50528D02*
X-60803Y80779D01*
X-30551Y80779D01*
X-30551Y80779D01*
X30945Y80779D01*
X30945Y80779D01*
X61197Y80779D01*
X61197Y50528D01*
X61197Y50528D01*
X61197Y-10969D01*
X61197Y-10969D01*
X61197Y-41221D01*
X30945Y-41221D01*
X30945Y-41221D01*
X-30551Y-41221D01*
X-30551Y-41221D01*
X-60803Y-41221D01*
X-60803Y-10969D01*
X-60803Y-10969D01*
X-60803Y50528D01*
X-60803Y50528D01*
X-60803Y50528D02*
G37*
G36*
X135197Y99925D02*
X55197Y99925D01*
X55197Y152925D01*
X135197Y152925D01*
X135197Y99925D01*
X135197Y99925D02*
G37*
D13*
X-229882Y111588D02*
X-209016Y111588D01*
X-209016Y153428D01*
X-229882Y153428D02*
X-209016Y153428D01*
X-229882Y111588D02*
X-229882Y153428D01*
X-245603Y75646D02*
X-245603Y96512D01*
X-287443Y96512D02*
X-245603Y96512D01*
X-287443Y75646D02*
X-287443Y96512D01*
X-287443Y75646D02*
X-245603Y75646D01*
X-530197Y111588D02*
X-509331Y111588D01*
X-509331Y153428D01*
X-530197Y153428D02*
X-509331Y153428D01*
X-530197Y111588D02*
X-530197Y153428D01*
X-493609Y75646D02*
X-493609Y96512D01*
X-493609Y75646D02*
X-451769Y75646D01*
X-451769Y96512D01*
X-493609Y96512D02*
X-451769Y96512D01*
X35825Y-89709D02*
X35825Y-68843D01*
X35825Y-89709D02*
X77665Y-89709D01*
X77665Y-68843D01*
X35825Y-68843D02*
X77665Y-68843D01*
X-35431Y-89709D02*
X-35431Y-68843D01*
X-77271Y-68843D02*
X-35431Y-68843D01*
X-77271Y-89709D02*
X-77271Y-68843D01*
X-77271Y-89709D02*
X-35431Y-89709D01*
X-10512Y-81978D02*
X10354Y-81978D01*
X-10512Y-123818D02*
X-10512Y-81978D01*
X-10512Y-123818D02*
X10354Y-123818D01*
X10354Y-81978D01*
X104252Y297693D02*
X194803Y297693D01*
X104252Y189425D02*
X104252Y297693D01*
X104252Y189425D02*
X194803Y189425D01*
X194803Y297693D01*
D14*
X-60803Y50528D02*
X-60803Y80779D01*
X-60803Y-10969D02*
X-60803Y50528D01*
X-60803Y-41221D02*
X-60803Y-10969D01*
X-60803Y-41221D02*
X-30551Y-41221D01*
X30945Y-41221D01*
X61197Y-41221D01*
X61197Y-10969D01*
X61197Y50528D01*
X61197Y80779D01*
X30945Y80779D02*
X61197Y80779D01*
X-30551Y80779D02*
X30945Y80779D01*
X-60803Y80779D02*
X-30551Y80779D01*
X-307362Y145000D02*
X-298606Y145000D01*
X-431850Y145000D02*
X-307362Y145000D01*
X-440606Y145000D02*
X-431850Y145000D01*
X-440606Y145000D02*
X-440606Y169504D01*
X-440606Y262496D01*
X-440606Y287000D01*
X-431850Y287000D01*
X-307362Y287000D01*
X-298606Y287000D01*
X-298606Y262496D02*
X-298606Y287000D01*
X-298606Y169504D02*
X-298606Y262496D01*
X-298606Y145000D02*
X-298606Y169504D01*
X55197Y99925D02*
X135197Y99925D01*
X135197Y152925D01*
X55197Y152925D02*
X135197Y152925D01*
X55197Y99925D02*
X55197Y152925D01*
M02*
