G04*
G04 #@! TF.GenerationSoftware,Altium Limited,Altium Designer,25.8.1 (18)*
G04*
G04 Layer_Color=65280*
%FSLAX26Y26*%
%MOIN*%
G70*
G04*
G04 #@! TF.SameCoordinates,AB66D781-FBCB-4B57-8275-DC7DE2197C71*
G04*
G04*
G04 #@! TF.FilePolarity,Positive*
G04*
G01*
G75*
G36*
X158133Y463846D02*
X158449Y463813D01*
X158755Y463759D01*
X159038Y463693D01*
X159300Y463617D01*
X159539Y463530D01*
X159768Y463442D01*
X159975Y463344D01*
X160161Y463246D01*
X160324Y463159D01*
X160466Y463072D01*
X160586Y462995D01*
X160684Y462930D01*
X160749Y462876D01*
X160793Y462843D01*
X160804Y462832D01*
X161022Y462636D01*
X161218Y462418D01*
X161392Y462189D01*
X161545Y461949D01*
X161687Y461709D01*
X161817Y461469D01*
X161927Y461230D01*
X162025Y461001D01*
X162101Y460783D01*
X162166Y460587D01*
X162221Y460412D01*
X162264Y460249D01*
X162297Y460118D01*
X162319Y460031D01*
X162341Y459965D01*
X162341Y459954D01*
X162341Y459943D01*
X160488Y459616D01*
X160444Y459867D01*
X160390Y460096D01*
X160335Y460303D01*
X160259Y460499D01*
X160193Y460685D01*
X160106Y460848D01*
X160030Y461001D01*
X159954Y461142D01*
X159877Y461252D01*
X159812Y461361D01*
X159746Y461448D01*
X159692Y461513D01*
X159637Y461568D01*
X159605Y461611D01*
X159583Y461633D01*
X159572Y461644D01*
X159430Y461764D01*
X159289Y461873D01*
X159136Y461960D01*
X158983Y462036D01*
X158831Y462113D01*
X158689Y462167D01*
X158406Y462243D01*
X158275Y462276D01*
X158155Y462298D01*
X158046Y462309D01*
X157948Y462320D01*
X157883Y462331D01*
X157774Y462331D01*
X157577Y462320D01*
X157381Y462298D01*
X157207Y462265D01*
X157032Y462222D01*
X156880Y462178D01*
X156727Y462113D01*
X156596Y462058D01*
X156476Y461993D01*
X156368Y461927D01*
X156269Y461873D01*
X156193Y461807D01*
X156117Y461764D01*
X156062Y461720D01*
X156030Y461688D01*
X156008Y461666D01*
X155997Y461655D01*
X155877Y461524D01*
X155768Y461393D01*
X155670Y461252D01*
X155594Y461110D01*
X155528Y460968D01*
X155474Y460826D01*
X155387Y460565D01*
X155354Y460445D01*
X155332Y460336D01*
X155321Y460227D01*
X155310Y460151D01*
X155299Y460074D01*
X155299Y460020D01*
X155299Y459987D01*
X155299Y459976D01*
X155310Y459747D01*
X155343Y459529D01*
X155387Y459322D01*
X155452Y459137D01*
X155517Y458962D01*
X155594Y458810D01*
X155681Y458668D01*
X155768Y458537D01*
X155866Y458428D01*
X155942Y458330D01*
X156030Y458254D01*
X156095Y458189D01*
X156160Y458134D01*
X156204Y458101D01*
X156237Y458080D01*
X156248Y458069D01*
X156422Y457960D01*
X156607Y457873D01*
X156793Y457785D01*
X156978Y457720D01*
X157338Y457611D01*
X157501Y457567D01*
X157665Y457535D01*
X157817Y457513D01*
X157948Y457491D01*
X158068Y457480D01*
X158177Y457469D01*
X158253Y457458D01*
X158460Y457458D01*
X158558Y457469D01*
X158602Y457469D01*
X158635Y457480D01*
X158667Y457480D01*
X158875Y455856D01*
X158591Y455921D01*
X158340Y455965D01*
X158122Y456009D01*
X157926Y456030D01*
X157774Y456041D01*
X157665Y456052D01*
X157566Y456052D01*
X157327Y456041D01*
X157109Y456019D01*
X156891Y455976D01*
X156695Y455921D01*
X156509Y455856D01*
X156335Y455791D01*
X156171Y455714D01*
X156030Y455638D01*
X155899Y455562D01*
X155779Y455485D01*
X155681Y455420D01*
X155605Y455355D01*
X155539Y455300D01*
X155485Y455257D01*
X155463Y455235D01*
X155452Y455224D01*
X155299Y455060D01*
X155179Y454897D01*
X155060Y454722D01*
X154961Y454548D01*
X154885Y454374D01*
X154820Y454199D01*
X154765Y454025D01*
X154722Y453861D01*
X154678Y453709D01*
X154656Y453567D01*
X154634Y453436D01*
X154624Y453338D01*
X154613Y453240D01*
X154613Y453175D01*
X154613Y453131D01*
X154613Y453120D01*
X154624Y452880D01*
X154656Y452640D01*
X154700Y452423D01*
X154754Y452215D01*
X154820Y452008D01*
X154896Y451834D01*
X154983Y451659D01*
X155060Y451507D01*
X155147Y451365D01*
X155234Y451245D01*
X155310Y451136D01*
X155376Y451049D01*
X155430Y450973D01*
X155474Y450929D01*
X155506Y450897D01*
X155517Y450886D01*
X155692Y450722D01*
X155866Y450591D01*
X156051Y450471D01*
X156237Y450362D01*
X156422Y450275D01*
X156607Y450199D01*
X156793Y450144D01*
X156956Y450090D01*
X157120Y450057D01*
X157261Y450024D01*
X157392Y450014D01*
X157512Y449992D01*
X157599Y449992D01*
X157675Y449981D01*
X157730Y449981D01*
X157937Y449992D01*
X158122Y450014D01*
X158308Y450046D01*
X158482Y450090D01*
X158646Y450144D01*
X158798Y450199D01*
X158940Y450264D01*
X159071Y450330D01*
X159191Y450384D01*
X159289Y450450D01*
X159387Y450504D01*
X159452Y450559D01*
X159518Y450602D01*
X159561Y450635D01*
X159583Y450657D01*
X159594Y450668D01*
X159736Y450809D01*
X159856Y450962D01*
X159975Y451136D01*
X160084Y451322D01*
X160270Y451692D01*
X160422Y452074D01*
X160477Y452248D01*
X160531Y452412D01*
X160575Y452553D01*
X160608Y452684D01*
X160640Y452793D01*
X160662Y452880D01*
X160673Y452924D01*
X160673Y452946D01*
X162526Y452695D01*
X162482Y452346D01*
X162417Y452019D01*
X162319Y451714D01*
X162221Y451420D01*
X162101Y451147D01*
X161981Y450897D01*
X161850Y450657D01*
X161719Y450450D01*
X161589Y450264D01*
X161469Y450101D01*
X161349Y449959D01*
X161251Y449839D01*
X161163Y449741D01*
X161098Y449676D01*
X161054Y449632D01*
X161044Y449621D01*
X160793Y449414D01*
X160520Y449229D01*
X160248Y449076D01*
X159975Y448945D01*
X159692Y448825D01*
X159419Y448727D01*
X159147Y448651D01*
X158896Y448597D01*
X158656Y448542D01*
X158439Y448509D01*
X158242Y448477D01*
X158068Y448466D01*
X157937Y448455D01*
X157828Y448444D01*
X157741Y448444D01*
X157338Y448455D01*
X156956Y448498D01*
X156585Y448575D01*
X156248Y448662D01*
X155921Y448760D01*
X155626Y448880D01*
X155343Y449000D01*
X155092Y449131D01*
X154874Y449262D01*
X154667Y449381D01*
X154504Y449501D01*
X154362Y449599D01*
X154242Y449687D01*
X154166Y449763D01*
X154122Y449807D01*
X154100Y449817D01*
X153850Y450079D01*
X153621Y450351D01*
X153424Y450635D01*
X153261Y450918D01*
X153119Y451202D01*
X152999Y451485D01*
X152912Y451747D01*
X152836Y452008D01*
X152770Y452248D01*
X152727Y452466D01*
X152694Y452662D01*
X152672Y452837D01*
X152661Y452967D01*
X152651Y453077D01*
X152651Y453142D01*
X152651Y453164D01*
X152661Y453436D01*
X152683Y453687D01*
X152716Y453927D01*
X152770Y454156D01*
X152825Y454374D01*
X152880Y454570D01*
X152956Y454755D01*
X153021Y454930D01*
X153087Y455082D01*
X153152Y455213D01*
X153217Y455322D01*
X153272Y455420D01*
X153326Y455496D01*
X153359Y455551D01*
X153381Y455584D01*
X153392Y455594D01*
X153534Y455769D01*
X153697Y455932D01*
X153861Y456074D01*
X154024Y456205D01*
X154198Y456325D01*
X154373Y456423D01*
X154547Y456521D01*
X154711Y456597D01*
X154863Y456673D01*
X155005Y456728D01*
X155136Y456783D01*
X155256Y456815D01*
X155343Y456848D01*
X155419Y456870D01*
X155463Y456881D01*
X155474Y456881D01*
X155288Y456968D01*
X155114Y457066D01*
X154951Y457175D01*
X154798Y457273D01*
X154656Y457382D01*
X154536Y457491D01*
X154416Y457589D01*
X154318Y457687D01*
X154220Y457785D01*
X154144Y457873D01*
X154078Y457949D01*
X154024Y458014D01*
X153980Y458069D01*
X153948Y458112D01*
X153937Y458134D01*
X153926Y458145D01*
X153828Y458298D01*
X153751Y458450D01*
X153675Y458614D01*
X153621Y458766D01*
X153523Y459061D01*
X153457Y459344D01*
X153435Y459464D01*
X153424Y459584D01*
X153403Y459682D01*
X153403Y459769D01*
X153392Y459834D01*
X153392Y459889D01*
X153392Y459922D01*
X153392Y459933D01*
X153403Y460129D01*
X153414Y460314D01*
X153479Y460674D01*
X153566Y461001D01*
X153621Y461142D01*
X153664Y461284D01*
X153719Y461415D01*
X153773Y461524D01*
X153817Y461633D01*
X153861Y461709D01*
X153893Y461786D01*
X153926Y461829D01*
X153937Y461862D01*
X153948Y461873D01*
X154057Y462036D01*
X154177Y462200D01*
X154427Y462483D01*
X154689Y462734D01*
X154951Y462941D01*
X155070Y463028D01*
X155179Y463104D01*
X155278Y463170D01*
X155365Y463224D01*
X155441Y463268D01*
X155495Y463301D01*
X155528Y463312D01*
X155539Y463322D01*
X155735Y463421D01*
X155931Y463497D01*
X156128Y463573D01*
X156335Y463628D01*
X156716Y463726D01*
X156891Y463759D01*
X157065Y463791D01*
X157218Y463813D01*
X157359Y463824D01*
X157490Y463846D01*
X157599Y463846D01*
X157686Y463857D01*
X157806Y463857D01*
X158133Y463846D01*
X158133Y463846D02*
G37*
G36*
X176969Y448716D02*
X174974Y448716D01*
X174974Y455420D01*
X172391Y455420D01*
X172162Y455409D01*
X171965Y455398D01*
X171813Y455387D01*
X171704Y455365D01*
X171617Y455355D01*
X171562Y455344D01*
X171551Y455344D01*
X171377Y455289D01*
X171213Y455235D01*
X171061Y455158D01*
X170930Y455093D01*
X170810Y455038D01*
X170723Y454984D01*
X170668Y454951D01*
X170647Y454940D01*
X170472Y454820D01*
X170298Y454668D01*
X170134Y454493D01*
X169971Y454330D01*
X169840Y454177D01*
X169731Y454047D01*
X169687Y453992D01*
X169655Y453959D01*
X169644Y453938D01*
X169633Y453927D01*
X169524Y453785D01*
X169404Y453632D01*
X169164Y453305D01*
X168924Y452957D01*
X168695Y452619D01*
X168597Y452466D01*
X168499Y452324D01*
X168412Y452194D01*
X168336Y452074D01*
X168281Y451986D01*
X168238Y451910D01*
X168205Y451867D01*
X168194Y451856D01*
X166199Y448716D01*
X163703Y448716D01*
X166308Y452815D01*
X166603Y453251D01*
X166755Y453447D01*
X166897Y453643D01*
X167039Y453818D01*
X167180Y453981D01*
X167311Y454134D01*
X167431Y454276D01*
X167540Y454406D01*
X167649Y454515D01*
X167736Y454603D01*
X167812Y454690D01*
X167878Y454744D01*
X167922Y454799D01*
X167954Y454820D01*
X167965Y454831D01*
X168139Y454973D01*
X168325Y455104D01*
X168521Y455235D01*
X168717Y455344D01*
X168892Y455442D01*
X168968Y455485D01*
X169033Y455518D01*
X169088Y455551D01*
X169131Y455562D01*
X169153Y455584D01*
X169164Y455584D01*
X168772Y455649D01*
X168401Y455725D01*
X168063Y455823D01*
X167747Y455921D01*
X167464Y456041D01*
X167191Y456150D01*
X166962Y456270D01*
X166744Y456390D01*
X166559Y456510D01*
X166406Y456619D01*
X166265Y456717D01*
X166156Y456804D01*
X166069Y456881D01*
X166003Y456935D01*
X165970Y456968D01*
X165959Y456979D01*
X165774Y457186D01*
X165611Y457415D01*
X165469Y457633D01*
X165349Y457862D01*
X165251Y458091D01*
X165164Y458319D01*
X165098Y458537D01*
X165044Y458745D01*
X165000Y458941D01*
X164968Y459115D01*
X164946Y459279D01*
X164924Y459409D01*
X164924Y459529D01*
X164913Y459616D01*
X164913Y459660D01*
X164913Y459682D01*
X164924Y459911D01*
X164935Y460140D01*
X164968Y460358D01*
X165011Y460565D01*
X165055Y460761D01*
X165109Y460946D01*
X165175Y461121D01*
X165229Y461284D01*
X165284Y461426D01*
X165349Y461557D01*
X165404Y461677D01*
X165447Y461775D01*
X165491Y461851D01*
X165513Y461906D01*
X165534Y461938D01*
X165545Y461949D01*
X165665Y462134D01*
X165796Y462309D01*
X165938Y462461D01*
X166069Y462614D01*
X166210Y462745D01*
X166352Y462865D01*
X166494Y462963D01*
X166624Y463061D01*
X166744Y463137D01*
X166864Y463203D01*
X166962Y463268D01*
X167049Y463312D01*
X167126Y463344D01*
X167180Y463366D01*
X167213Y463388D01*
X167224Y463388D01*
X167431Y463464D01*
X167660Y463530D01*
X167900Y463584D01*
X168139Y463628D01*
X168652Y463704D01*
X168903Y463726D01*
X169142Y463748D01*
X169382Y463769D01*
X169589Y463780D01*
X169785Y463791D01*
X169960Y463791D01*
X170091Y463802D01*
X176969Y463802D01*
X176969Y448716D01*
X176969Y448716D02*
G37*
%LPC*%
G36*
X174974Y462134D02*
X170210Y462134D01*
X169905Y462123D01*
X169622Y462102D01*
X169360Y462069D01*
X169120Y462025D01*
X168903Y461971D01*
X168695Y461916D01*
X168510Y461851D01*
X168357Y461786D01*
X168216Y461720D01*
X168096Y461655D01*
X167987Y461600D01*
X167900Y461546D01*
X167845Y461502D01*
X167791Y461469D01*
X167769Y461448D01*
X167758Y461437D01*
X167616Y461306D01*
X167496Y461164D01*
X167398Y461023D01*
X167300Y460870D01*
X167224Y460728D01*
X167169Y460576D01*
X167115Y460434D01*
X167071Y460303D01*
X167039Y460172D01*
X167017Y460053D01*
X166995Y459954D01*
X166984Y459856D01*
X166973Y459780D01*
X166973Y459726D01*
X166973Y459693D01*
X166973Y459682D01*
X166995Y459409D01*
X167039Y459159D01*
X167104Y458930D01*
X167169Y458734D01*
X167246Y458570D01*
X167278Y458494D01*
X167311Y458439D01*
X167344Y458396D01*
X167355Y458363D01*
X167376Y458341D01*
X167376Y458330D01*
X167540Y458112D01*
X167725Y457927D01*
X167922Y457774D01*
X168118Y457644D01*
X168292Y457546D01*
X168357Y457513D01*
X168423Y457480D01*
X168477Y457458D01*
X168521Y457437D01*
X168543Y457426D01*
X168554Y457426D01*
X168706Y457382D01*
X168859Y457338D01*
X169208Y457273D01*
X169567Y457219D01*
X169905Y457186D01*
X170069Y457175D01*
X170210Y457164D01*
X170352Y457164D01*
X170461Y457153D01*
X174974Y457153D01*
X174974Y462134D01*
X174974Y462134D02*
G37*
%LPD*%
M02*
