G04*
G04 #@! TF.GenerationSoftware,Altium Limited,Altium Designer,25.8.1 (18)*
G04*
G04 Layer_Color=65535*
%FSLAX26Y26*%
%MOIN*%
G70*
G04*
G04 #@! TF.SameCoordinates,AB66D781-FBCB-4B57-8275-DC7DE2197C71*
G04*
G04*
G04 #@! TF.FilePolarity,Positive*
G04*
G01*
G75*
%ADD10C,0.009842*%
%ADD11C,0.001000*%
%ADD12C,0.015000*%
%ADD13C,0.007874*%
%ADD14C,0.006000*%
%ADD15C,0.005000*%
%ADD16C,0.010000*%
%ADD17C,0.003000*%
G36*
X-435606Y254996D02*
X-435606Y239996D01*
X-445606Y239996D01*
X-445606Y254996D01*
X-435606Y254996D01*
X-435606Y254996D02*
G37*
G36*
X-303606Y223500D02*
X-303606Y208500D01*
X-293606Y208500D01*
X-293606Y223500D01*
X-303606Y223500D01*
X-303606Y223500D02*
G37*
G36*
X56697Y-3469D02*
X56697Y11531D01*
X66697Y11531D01*
X66697Y-3469D01*
X56697Y-3469D01*
X56697Y-3469D02*
G37*
D10*
X183976Y316394D02*
G03*
X183976Y316394I-4921J0D01*
G01*
D11*
X2026395Y2940296D02*
X2359635Y3273536D01*
X1962624Y2805039D02*
X2494892Y3337307D01*
X1930722Y2701651D02*
X2598280Y3369209D01*
X1913956Y2613399D02*
X2686533Y3385975D01*
X1906161Y2534117D02*
X2765680Y3393637D01*
X1906007Y2462477D02*
X2837230Y3393701D01*
X1906007Y2390992D02*
X2908716Y3393701D01*
X1906008Y2319506D02*
X2980202Y3393701D01*
X1906008Y2248021D02*
X3051688Y3393701D01*
X1906008Y2176535D02*
X3123174Y3393701D01*
X1906009Y2105050D02*
X3194660Y3393701D01*
X1906009Y2033564D02*
X3266146Y3393701D01*
X1906010Y1962079D02*
X3337632Y3393701D01*
X1906010Y1890593D02*
X3409118Y3393701D01*
X1906011Y1819108D02*
X3480604Y3393701D01*
X1906011Y1747622D02*
X3552090Y3393701D01*
X1906012Y1676136D02*
X3623576Y3393701D01*
X1906012Y1604651D02*
X3695062Y3393701D01*
X1906013Y1533165D02*
X3766548Y3393701D01*
X1906013Y1461680D02*
X3838034Y3393701D01*
X1906014Y1390194D02*
X3909520Y3393701D01*
X1906014Y1318709D02*
X3981006Y3393701D01*
X1906014Y1247223D02*
X4052492Y3393701D01*
X1906015Y1175737D02*
X4123978Y3393701D01*
X1906015Y1104252D02*
X4195464Y3393701D01*
X1906016Y1032766D02*
X4266950Y3393701D01*
X1906016Y961281D02*
X4338436Y3393701D01*
X1906017Y889795D02*
X4409922Y3393701D01*
X1906017Y818310D02*
X4481408Y3393701D01*
X1906017Y746824D02*
X4552894Y3393701D01*
X1906018Y675339D02*
X4624380Y3393701D01*
X1906018Y603853D02*
X4695866Y3393701D01*
X1906019Y532368D02*
X4767352Y3393701D01*
X1906019Y460882D02*
X4838838Y3393701D01*
X1906020Y389397D02*
X4910324Y3393701D01*
X1906020Y317911D02*
X4981810Y3393701D01*
X1906021Y246425D02*
X5053296Y3393701D01*
X1906021Y174940D02*
X5124782Y3393701D01*
X1906022Y103454D02*
X5196268Y3393701D01*
X1906022Y31969D02*
X5267754Y3393701D01*
X1906023Y-39517D02*
X5339240Y3393701D01*
X1906023Y-111002D02*
X5410726Y3393701D01*
X1906023Y-182488D02*
X5482212Y3393701D01*
X1906024Y-253974D02*
X5553698Y3393701D01*
X1906024Y-325459D02*
X5625184Y3393701D01*
X1906025Y-396945D02*
X5696670Y3393701D01*
X1906025Y-468430D02*
X5768156Y3393701D01*
X1906026Y-539916D02*
X5839642Y3393701D01*
X1906026Y-611401D02*
X5911128Y3393701D01*
X1906026Y-682887D02*
X5982614Y3393701D01*
X1906027Y-754372D02*
X6054100Y3393701D01*
X1906027Y-825858D02*
X6125586Y3393701D01*
X1906028Y-897343D02*
X6197072Y3393701D01*
X1906028Y-968829D02*
X6268558Y3393701D01*
X1906029Y-1040314D02*
X6340044Y3393701D01*
X1906029Y-1111800D02*
X6411530Y3393701D01*
X1906030Y-1183286D02*
X6481624Y3392309D01*
X1906030Y-1254771D02*
X6546700Y3385899D01*
X1906031Y-1326257D02*
X6606919Y3374631D01*
X1906031Y-1397743D02*
X6664502Y3360729D01*
X1911555Y-1463704D02*
X6719350Y3344091D01*
X1920695Y-1526050D02*
X6770437Y3323691D01*
X1932733Y-1585498D02*
X6820001Y3301770D01*
X1949371Y-1640347D02*
X6866587Y3276869D01*
X1968092Y-1693111D02*
X6911069Y3249865D01*
X1989030Y-1743659D02*
X6953921Y3221232D01*
X2013368Y-1790808D02*
X6993770Y3189595D01*
X2038915Y-1836747D02*
X7032735Y3157074D01*
X2067548Y-1879599D02*
X7068478Y3121331D01*
X2097784Y-1920849D02*
X7103080Y3084446D01*
X2130006Y-1960113D02*
X7135302Y3045183D01*
X2164674Y-1996931D02*
X7165471Y3003866D01*
X2200417Y-2032674D02*
X7194104Y2961013D01*
X2239448Y-2065129D02*
X7219581Y2915004D01*
X2279364Y-2096699D02*
X7243845Y2867782D01*
X2322217Y-2125332D02*
X7264783Y2817233D01*
X2366769Y-2152267D02*
X7283423Y2764388D01*
X2413354Y-2177167D02*
X7300061Y2709540D01*
X2462993Y-2199014D02*
X7312009Y2650002D01*
X2514160Y-2219333D02*
X7321047Y2587554D01*
X2569008Y-2235971D02*
X7326452Y2521472D01*
X2626681Y-2249784D02*
X7326452Y2449986D01*
X2687002Y-2260950D02*
X7326452Y2378500D01*
X2752078Y-2267359D02*
X7326452Y2307014D01*
X2822312Y-2268611D02*
X7326452Y2235528D01*
X2893798Y-2268611D02*
X7326452Y2164042D01*
X2965284Y-2268611D02*
X7326452Y2092556D01*
X3036770Y-2268611D02*
X7326452Y2021070D01*
X3108256Y-2268611D02*
X7326452Y1949584D01*
X3179742Y-2268611D02*
X7326452Y1878098D01*
X3251228Y-2268611D02*
X7326452Y1806612D01*
X3322714Y-2268611D02*
X7326452Y1735126D01*
X3394200Y-2268611D02*
X7326452Y1663640D01*
X3465686Y-2268611D02*
X7326452Y1592154D01*
X3537172Y-2268611D02*
X7326452Y1520668D01*
X3608658Y-2268611D02*
X7326452Y1449182D01*
X3680144Y-2268611D02*
X7326452Y1377696D01*
X3751630Y-2268611D02*
X7326452Y1306210D01*
X3823116Y-2268611D02*
X7326452Y1234724D01*
X3894602Y-2268611D02*
X7326452Y1163238D01*
X3966088Y-2268611D02*
X7326452Y1091752D01*
X4037574Y-2268611D02*
X7326452Y1020266D01*
X4109060Y-2268611D02*
X7326452Y948780D01*
X4180546Y-2268611D02*
X7326452Y877294D01*
X4252032Y-2268611D02*
X7326452Y805808D01*
X4323518Y-2268611D02*
X7326452Y734322D01*
X4395004Y-2268611D02*
X7326452Y662836D01*
X4466490Y-2268611D02*
X7326452Y591350D01*
X4537976Y-2268611D02*
X7326452Y519864D01*
X4609462Y-2268611D02*
X7326452Y448378D01*
X4680948Y-2268611D02*
X7326452Y376892D01*
X4752434Y-2268611D02*
X7326452Y305406D01*
X4823920Y-2268611D02*
X7326452Y233920D01*
X4895406Y-2268611D02*
X7326452Y162434D01*
X4966892Y-2268611D02*
X7326452Y90948D01*
X5038378Y-2268611D02*
X7326452Y19462D01*
X5109864Y-2268611D02*
X7326452Y-52024D01*
X5181350Y-2268611D02*
X7326452Y-123510D01*
X5252836Y-2268611D02*
X7326452Y-194996D01*
X5324322Y-2268611D02*
X7326452Y-266482D01*
X5395808Y-2268611D02*
X7326452Y-337968D01*
X5467294Y-2268611D02*
X7326452Y-409454D01*
X5538780Y-2268611D02*
X7326452Y-480940D01*
X5610266Y-2268611D02*
X7326452Y-552426D01*
X5681752Y-2268611D02*
X7326452Y-623912D01*
X5753238Y-2268611D02*
X7326452Y-695398D01*
X5824724Y-2268611D02*
X7326452Y-766884D01*
X5896210Y-2268611D02*
X7326452Y-838370D01*
X5967696Y-2268611D02*
X7326452Y-909856D01*
X6039182Y-2268611D02*
X7326452Y-981342D01*
X6110668Y-2268611D02*
X7326452Y-1052828D01*
X6182154Y-2268611D02*
X7326452Y-1124314D01*
X6253640Y-2268611D02*
X7326452Y-1195800D01*
X6325126Y-2268611D02*
X7326452Y-1267286D01*
X6396612Y-2268611D02*
X7326452Y-1338772D01*
X6468222Y-2268487D02*
X7326127Y-1410582D01*
X6547495Y-2260701D02*
X7318321Y-1489874D01*
X6635947Y-2243735D02*
X7301355Y-1578327D01*
X6739994Y-2211174D02*
X7268794Y-1682373D01*
X6875885Y-2146769D02*
X7204389Y-1818264D01*
X5996251Y5530030D02*
X6039702Y5573481D01*
X5996251Y5458544D02*
X6111188Y5573481D01*
X6039702Y5430509D02*
X6182674Y5573481D01*
X6111188Y5430509D02*
X6254160Y5573481D01*
X6182674Y5430509D02*
X6325646Y5573481D01*
X6254160Y5430509D02*
X6397132Y5573481D01*
X6325646Y5430509D02*
X6468618Y5573481D01*
X6397132Y5430509D02*
X6540104Y5573481D01*
X6468618Y5430509D02*
X6611590Y5573481D01*
X6540104Y5430509D02*
X6683076Y5573481D01*
X6611590Y5430509D02*
X6754562Y5573481D01*
X6683076Y5430509D02*
X6826048Y5573481D01*
X6754562Y5430509D02*
X6897534Y5573481D01*
X6826048Y5430509D02*
X6969020Y5573481D01*
X6897534Y5430509D02*
X7040506Y5573481D01*
X6969020Y5430509D02*
X7111992Y5573481D01*
X7040506Y5430509D02*
X7183478Y5573481D01*
X7111992Y5430509D02*
X7254964Y5573481D01*
X7183478Y5430509D02*
X7326450Y5573481D01*
X7254964Y5430509D02*
X7326450Y5501995D01*
X5996251Y5387058D02*
X6039702Y5430509D01*
X5996251Y5315572D02*
X6111188Y5430509D01*
X6039702Y5287537D02*
X6182674Y5430509D01*
X6111188Y5287537D02*
X6254160Y5430509D01*
X6182674Y5287537D02*
X6325646Y5430509D01*
X6254160Y5287537D02*
X6397132Y5430509D01*
X6325646Y5287537D02*
X6468618Y5430509D01*
X6397132Y5287537D02*
X6540104Y5430509D01*
X6468618Y5287537D02*
X6611590Y5430509D01*
X6540104Y5287537D02*
X6683076Y5430509D01*
X6611590Y5287537D02*
X6754562Y5430509D01*
X6683076Y5287537D02*
X6826048Y5430509D01*
X6754562Y5287537D02*
X6897534Y5430509D01*
X6826048Y5287537D02*
X6969020Y5430509D01*
X6897534Y5287537D02*
X7040506Y5430509D01*
X6969020Y5287537D02*
X7111992Y5430509D01*
X7040506Y5287537D02*
X7183478Y5430509D01*
X7111992Y5287537D02*
X7254964Y5430509D01*
X7183478Y5287537D02*
X7326450Y5430509D01*
X7254964Y5287537D02*
X7326450Y5359023D01*
X5996251Y5244086D02*
X6039702Y5287537D01*
X5996251Y5172600D02*
X6111188Y5287537D01*
X6039702Y5144565D02*
X6182674Y5287537D01*
X6111188Y5144565D02*
X6254160Y5287537D01*
X6182674Y5144565D02*
X6325646Y5287537D01*
X6254160Y5144565D02*
X6397132Y5287537D01*
X6325646Y5144565D02*
X6468618Y5287537D01*
X6397132Y5144565D02*
X6540104Y5287537D01*
X6468618Y5144565D02*
X6611590Y5287537D01*
X6540104Y5144565D02*
X6683076Y5287537D01*
X6611590Y5144565D02*
X6754562Y5287537D01*
X6683076Y5144565D02*
X6826048Y5287537D01*
X6754562Y5144565D02*
X6897534Y5287537D01*
X6826048Y5144565D02*
X6969020Y5287537D01*
X6897534Y5144565D02*
X7040506Y5287537D01*
X6969020Y5144565D02*
X7111992Y5287537D01*
X7040506Y5144565D02*
X7183478Y5287537D01*
X7111992Y5144565D02*
X7254964Y5287537D01*
X7183478Y5144565D02*
X7326450Y5287537D01*
X7254964Y5144565D02*
X7326450Y5216051D01*
X5996251Y5101114D02*
X6039702Y5144565D01*
X5996251Y5029628D02*
X6111188Y5144565D01*
X6039702Y5001593D02*
X6182674Y5144565D01*
X6111188Y5001593D02*
X6254160Y5144565D01*
X6182674Y5001593D02*
X6325646Y5144565D01*
X6254160Y5001593D02*
X6397132Y5144565D01*
X6325646Y5001593D02*
X6468618Y5144565D01*
X6397132Y5001593D02*
X6540104Y5144565D01*
X6468618Y5001593D02*
X6611590Y5144565D01*
X6540104Y5001593D02*
X6683076Y5144565D01*
X6611590Y5001593D02*
X6754562Y5144565D01*
X6683076Y5001593D02*
X6826048Y5144565D01*
X6754562Y5001593D02*
X6897534Y5144565D01*
X6826048Y5001593D02*
X6969020Y5144565D01*
X6897534Y5001593D02*
X7040506Y5144565D01*
X6969020Y5001593D02*
X7111992Y5144565D01*
X7040506Y5001593D02*
X7183478Y5144565D01*
X7111992Y5001593D02*
X7254964Y5144565D01*
X7183478Y5001593D02*
X7326450Y5144565D01*
X7254964Y5001593D02*
X7326450Y5073079D01*
X5996251Y4958142D02*
X6039702Y5001593D01*
X5996251Y4886656D02*
X6111188Y5001593D01*
X6039702Y4858621D02*
X6182674Y5001593D01*
X6111188Y4858621D02*
X6254160Y5001593D01*
X6182674Y4858621D02*
X6325646Y5001593D01*
X6254160Y4858621D02*
X6397132Y5001593D01*
X6325646Y4858621D02*
X6468618Y5001593D01*
X6397132Y4858621D02*
X6540104Y5001593D01*
X6468618Y4858621D02*
X6611590Y5001593D01*
X6540104Y4858621D02*
X6683076Y5001593D01*
X6611590Y4858621D02*
X6754562Y5001593D01*
X6683076Y4858621D02*
X6826048Y5001593D01*
X6754562Y4858621D02*
X6897534Y5001593D01*
X6826048Y4858621D02*
X6969020Y5001593D01*
X6897534Y4858621D02*
X7040506Y5001593D01*
X6969020Y4858621D02*
X7111992Y5001593D01*
X7040506Y4858621D02*
X7183478Y5001593D01*
X7111992Y4858621D02*
X7254964Y5001593D01*
X7183478Y4858621D02*
X7326450Y5001593D01*
X7254964Y4858621D02*
X7326450Y4930107D01*
X5996251Y4815170D02*
X6039702Y4858621D01*
X5996251Y4743684D02*
X6111188Y4858621D01*
X6039702Y4715649D02*
X6182674Y4858621D01*
X6111188Y4715649D02*
X6254160Y4858621D01*
X6182674Y4715649D02*
X6325646Y4858621D01*
X6254160Y4715649D02*
X6397132Y4858621D01*
X6325646Y4715649D02*
X6468618Y4858621D01*
X6397132Y4715649D02*
X6540104Y4858621D01*
X6468618Y4715649D02*
X6611590Y4858621D01*
X6540104Y4715649D02*
X6683076Y4858621D01*
X6611590Y4715649D02*
X6754562Y4858621D01*
X6683076Y4715649D02*
X6826048Y4858621D01*
X6754562Y4715649D02*
X6897534Y4858621D01*
X6826048Y4715649D02*
X6969020Y4858621D01*
X6897534Y4715649D02*
X7040506Y4858621D01*
X6969020Y4715649D02*
X7111992Y4858621D01*
X7040506Y4715649D02*
X7183478Y4858621D01*
X7111992Y4715649D02*
X7254964Y4858621D01*
X7183478Y4715649D02*
X7326450Y4858621D01*
X7254964Y4715649D02*
X7326450Y4787135D01*
X5996251Y4672198D02*
X6039702Y4715649D01*
X5996251Y4600712D02*
X6111188Y4715649D01*
X6039702Y4572677D02*
X6182674Y4715649D01*
X6111188Y4572677D02*
X6254160Y4715649D01*
X6182674Y4572677D02*
X6325646Y4715649D01*
X6254160Y4572677D02*
X6397132Y4715649D01*
X6325646Y4572677D02*
X6468618Y4715649D01*
X6397132Y4572677D02*
X6540104Y4715649D01*
X6468618Y4572677D02*
X6611590Y4715649D01*
X6540104Y4572677D02*
X6683076Y4715649D01*
X6611590Y4572677D02*
X6754562Y4715649D01*
X6683076Y4572677D02*
X6826048Y4715649D01*
X6754562Y4572677D02*
X6897534Y4715649D01*
X6826048Y4572677D02*
X6969020Y4715649D01*
X6897534Y4572677D02*
X7040506Y4715649D01*
X6969020Y4572677D02*
X7111992Y4715649D01*
X7040506Y4572677D02*
X7183478Y4715649D01*
X7111992Y4572677D02*
X7254964Y4715649D01*
X7183478Y4572677D02*
X7326450Y4715649D01*
X7254964Y4572677D02*
X7326450Y4644163D01*
X5996251Y4529226D02*
X6039702Y4572677D01*
X5996251Y4457740D02*
X6111188Y4572677D01*
X6039702Y4429705D02*
X6182674Y4572677D01*
X6111188Y4429705D02*
X6254160Y4572677D01*
X6182674Y4429705D02*
X6325646Y4572677D01*
X6254160Y4429705D02*
X6397132Y4572677D01*
X6325646Y4429705D02*
X6468618Y4572677D01*
X6397132Y4429705D02*
X6540104Y4572677D01*
X6468618Y4429705D02*
X6611590Y4572677D01*
X6540104Y4429705D02*
X6683076Y4572677D01*
X6611590Y4429705D02*
X6754562Y4572677D01*
X6683076Y4429705D02*
X6826048Y4572677D01*
X6754562Y4429705D02*
X6897534Y4572677D01*
X6826048Y4429705D02*
X6969020Y4572677D01*
X6897534Y4429705D02*
X7040506Y4572677D01*
X6969020Y4429705D02*
X7111992Y4572677D01*
X7040506Y4429705D02*
X7183478Y4572677D01*
X7111992Y4429705D02*
X7254964Y4572677D01*
X7183478Y4429705D02*
X7326450Y4572677D01*
X7254964Y4429705D02*
X7326450Y4501191D01*
X5996251Y4386254D02*
X6039702Y4429705D01*
X5996251Y4314768D02*
X6111188Y4429705D01*
X6039702Y4286733D02*
X6182674Y4429705D01*
X6111188Y4286733D02*
X6254160Y4429705D01*
X6182674Y4286733D02*
X6325646Y4429705D01*
X6254160Y4286733D02*
X6397132Y4429705D01*
X6325646Y4286733D02*
X6468618Y4429705D01*
X6397132Y4286733D02*
X6540104Y4429705D01*
X6468618Y4286733D02*
X6611590Y4429705D01*
X6540104Y4286733D02*
X6683076Y4429705D01*
X6611590Y4286733D02*
X6754562Y4429705D01*
X6683076Y4286733D02*
X6826048Y4429705D01*
X6754562Y4286733D02*
X6897534Y4429705D01*
X6826048Y4286733D02*
X6969020Y4429705D01*
X6897534Y4286733D02*
X7040506Y4429705D01*
X6969020Y4286733D02*
X7111992Y4429705D01*
X7040506Y4286733D02*
X7183478Y4429705D01*
X7111992Y4286733D02*
X7254964Y4429705D01*
X7183478Y4286733D02*
X7326450Y4429705D01*
X7254964Y4286733D02*
X7326450Y4358219D01*
X5996251Y4243282D02*
X6039702Y4286733D01*
X5996251Y4171796D02*
X6111188Y4286733D01*
X6039702Y4143761D02*
X6182674Y4286733D01*
X6111188Y4143761D02*
X6254160Y4286733D01*
X6182674Y4143761D02*
X6325646Y4286733D01*
X6254160Y4143761D02*
X6397132Y4286733D01*
X6325646Y4143761D02*
X6468618Y4286733D01*
X6397132Y4143761D02*
X6540104Y4286733D01*
X6468618Y4143761D02*
X6611590Y4286733D01*
X6540104Y4143761D02*
X6683076Y4286733D01*
X6611590Y4143761D02*
X6754562Y4286733D01*
X6683076Y4143761D02*
X6826048Y4286733D01*
X6754562Y4143761D02*
X6897534Y4286733D01*
X6826048Y4143761D02*
X6969020Y4286733D01*
X6897534Y4143761D02*
X7040506Y4286733D01*
X6969020Y4143761D02*
X7111992Y4286733D01*
X7040506Y4143761D02*
X7183478Y4286733D01*
X7111992Y4143761D02*
X7254964Y4286733D01*
X7183478Y4143761D02*
X7326450Y4286733D01*
X7254964Y4143761D02*
X7326450Y4215247D01*
X5996251Y4100310D02*
X6039702Y4143761D01*
X5996251Y4028824D02*
X6111188Y4143761D01*
X6039702Y4000789D02*
X6182674Y4143761D01*
X6111188Y4000789D02*
X6254160Y4143761D01*
X6182674Y4000789D02*
X6325646Y4143761D01*
X6254160Y4000789D02*
X6397132Y4143761D01*
X6325646Y4000789D02*
X6468618Y4143761D01*
X6397132Y4000789D02*
X6540104Y4143761D01*
X6468618Y4000789D02*
X6611590Y4143761D01*
X6540104Y4000789D02*
X6683076Y4143761D01*
X6611590Y4000789D02*
X6754562Y4143761D01*
X6683076Y4000789D02*
X6826048Y4143761D01*
X6754562Y4000789D02*
X6897534Y4143761D01*
X6826048Y4000789D02*
X6969020Y4143761D01*
X6897534Y4000789D02*
X7040506Y4143761D01*
X6969020Y4000789D02*
X7111992Y4143761D01*
X7040506Y4000789D02*
X7183478Y4143761D01*
X7111992Y4000789D02*
X7254964Y4143761D01*
X7183478Y4000789D02*
X7326450Y4143761D01*
X7254964Y4000789D02*
X7326450Y4072275D01*
X5996251Y3957338D02*
X6039702Y4000789D01*
X5996251Y3885852D02*
X6111188Y4000789D01*
X6039702Y3857817D02*
X6182674Y4000789D01*
X6111188Y3857817D02*
X6254160Y4000789D01*
X6182674Y3857817D02*
X6325646Y4000789D01*
X6254160Y3857817D02*
X6397132Y4000789D01*
X6325646Y3857817D02*
X6468618Y4000789D01*
X6397132Y3857817D02*
X6540104Y4000789D01*
X6468618Y3857817D02*
X6611590Y4000789D01*
X6540104Y3857817D02*
X6683076Y4000789D01*
X6611590Y3857817D02*
X6754562Y4000789D01*
X6683076Y3857817D02*
X6826048Y4000789D01*
X6754562Y3857817D02*
X6897534Y4000789D01*
X6826048Y3857817D02*
X6969020Y4000789D01*
X6897534Y3857817D02*
X7040506Y4000789D01*
X6969020Y3857817D02*
X7111992Y4000789D01*
X7040506Y3857817D02*
X7183478Y4000789D01*
X7111992Y3857817D02*
X7254964Y4000789D01*
X7183478Y3857817D02*
X7326450Y4000789D01*
X7254964Y3857817D02*
X7326450Y3929303D01*
X5996251Y3814366D02*
X6039702Y3857817D01*
X5996251Y3742880D02*
X6111188Y3857817D01*
X6039702Y3714845D02*
X6182674Y3857817D01*
X6111188Y3714845D02*
X6254160Y3857817D01*
X6182674Y3714845D02*
X6325646Y3857817D01*
X6254160Y3714845D02*
X6397132Y3857817D01*
X6325646Y3714845D02*
X6468618Y3857817D01*
X6397132Y3714845D02*
X6540104Y3857817D01*
X6468618Y3714845D02*
X6611590Y3857817D01*
X6540104Y3714845D02*
X6683076Y3857817D01*
X6611590Y3714845D02*
X6754562Y3857817D01*
X6683076Y3714845D02*
X6826048Y3857817D01*
X6754562Y3714845D02*
X6897534Y3857817D01*
X6826048Y3714845D02*
X6969020Y3857817D01*
X6897534Y3714845D02*
X7040506Y3857817D01*
X6969020Y3714845D02*
X7111992Y3857817D01*
X7040506Y3714845D02*
X7183478Y3857817D01*
X7111992Y3714845D02*
X7254964Y3857817D01*
X7183478Y3714845D02*
X7326450Y3857817D01*
X7254964Y3714845D02*
X7326450Y3786331D01*
X5996251Y3671394D02*
X6039702Y3714845D01*
X5996251Y3599908D02*
X6111188Y3714845D01*
X6039702Y3571873D02*
X6182674Y3714845D01*
X6111188Y3571873D02*
X6254160Y3714845D01*
X6182674Y3571873D02*
X6325646Y3714845D01*
X6254160Y3571873D02*
X6397132Y3714845D01*
X6325646Y3571873D02*
X6468618Y3714845D01*
X6397132Y3571873D02*
X6540104Y3714845D01*
X6468618Y3571873D02*
X6611590Y3714845D01*
X6540104Y3571873D02*
X6683076Y3714845D01*
X6611590Y3571873D02*
X6754562Y3714845D01*
X6683076Y3571873D02*
X6826048Y3714845D01*
X6754562Y3571873D02*
X6897534Y3714845D01*
X6826048Y3571873D02*
X6969020Y3714845D01*
X6897534Y3571873D02*
X7040506Y3714845D01*
X6969020Y3571873D02*
X7111992Y3714845D01*
X7040506Y3571873D02*
X7183478Y3714845D01*
X7111992Y3571873D02*
X7254964Y3714845D01*
X7183478Y3571873D02*
X7326450Y3714845D01*
X7254964Y3571873D02*
X7326450Y3643359D01*
X5996251Y3528422D02*
X6039702Y3571873D01*
X5996251Y3456936D02*
X6111188Y3571873D01*
X6039702Y3428901D02*
X6182674Y3571873D01*
X6111188Y3428901D02*
X6254160Y3571873D01*
X6182674Y3428901D02*
X6325646Y3571873D01*
X6254160Y3428901D02*
X6397132Y3571873D01*
X6325646Y3428901D02*
X6468618Y3571873D01*
X6397132Y3428901D02*
X6540104Y3571873D01*
X6468618Y3428901D02*
X6611590Y3571873D01*
X6540104Y3428901D02*
X6683076Y3571873D01*
X6611590Y3428901D02*
X6754562Y3571873D01*
X6683076Y3428901D02*
X6826048Y3571873D01*
X6754562Y3428901D02*
X6897534Y3571873D01*
X6826048Y3428901D02*
X6969020Y3571873D01*
X6897534Y3428901D02*
X7040506Y3571873D01*
X6969020Y3428901D02*
X7111992Y3571873D01*
X7040506Y3428901D02*
X7183478Y3571873D01*
X7111992Y3428901D02*
X7254964Y3571873D01*
X7183478Y3428901D02*
X7326450Y3571873D01*
X7254964Y3428901D02*
X7326450Y3500387D01*
D12*
X1906007Y2487424D02*
X1906031Y-1362354D01*
X1906007Y2487424D02*
X1906007Y2531920D01*
X1914729Y2620483D01*
X1932091Y2707765D01*
X1957924Y2792925D01*
X1991979Y2875143D01*
X2033930Y2953627D01*
X2083371Y3027621D01*
X2139827Y3096412D01*
X2202753Y3159339D01*
X2271545Y3215795D01*
X2345539Y3265236D01*
X2424023Y3307187D01*
X2506240Y3341242D01*
X2591401Y3367075D01*
X2678682Y3384437D01*
X2767246Y3393160D01*
X2811742Y3393160D01*
X6420716Y3393160D01*
X6465212Y3393160D01*
X6553775Y3384437D01*
X6641057Y3367075D01*
X6726217Y3341242D01*
X6808435Y3307187D01*
X6886919Y3265236D01*
X6960913Y3215795D01*
X7029704Y3159339D01*
X7092631Y3096412D01*
X7149087Y3027621D01*
X7198528Y2953627D01*
X7240479Y2875143D01*
X7274534Y2792925D01*
X7300367Y2707765D01*
X7317729Y2620483D01*
X7326452Y2531920D01*
X7326452Y2487424D02*
X7326452Y2531920D01*
X7326452Y-1362330D02*
X7326452Y2487424D01*
X7326427Y-1406802D02*
X7326452Y-1362330D01*
X7317705Y-1495366D02*
X7326427Y-1406802D01*
X7300343Y-1582648D02*
X7317705Y-1495366D01*
X7274510Y-1667808D02*
X7300343Y-1582648D01*
X7240454Y-1750025D02*
X7274510Y-1667808D01*
X7198504Y-1828509D02*
X7240454Y-1750025D01*
X7149063Y-1902503D02*
X7198504Y-1828509D01*
X7092607Y-1971295D02*
X7149063Y-1902503D01*
X7029680Y-2034222D02*
X7092607Y-1971295D01*
X6960888Y-2090677D02*
X7029680Y-2034222D01*
X6886895Y-2140118D02*
X6960888Y-2090677D01*
X6808411Y-2182069D02*
X6886895Y-2140118D01*
X6726193Y-2216125D02*
X6808411Y-2182069D01*
X6641033Y-2241957D02*
X6726193Y-2216125D01*
X6553751Y-2259319D02*
X6641033Y-2241957D01*
X6465188Y-2268042D02*
X6553751Y-2259319D01*
X6420692Y-2268042D02*
X6465188Y-2268042D01*
X2811718Y-2268042D02*
X6420692Y-2268042D01*
X2767270Y-2268090D02*
X2811718Y-2268042D01*
X2678707Y-2259367D02*
X2767270Y-2268090D01*
X2591425Y-2242006D02*
X2678707Y-2259367D01*
X2506265Y-2216173D02*
X2591425Y-2242006D01*
X2424047Y-2182117D02*
X2506265Y-2216173D01*
X2345563Y-2140166D02*
X2424047Y-2182117D01*
X2271570Y-2090726D02*
X2345563Y-2140166D01*
X2202778Y-2034270D02*
X2271570Y-2090726D01*
X2139851Y-1971343D02*
X2202778Y-2034270D01*
X2083395Y-1902551D02*
X2139851Y-1971343D01*
X2033954Y-1828557D02*
X2083395Y-1902551D01*
X1992004Y-1750073D02*
X2033954Y-1828557D01*
X1957948Y-1667856D02*
X1992004Y-1750073D01*
X1932115Y-1582696D02*
X1957948Y-1667856D01*
X1914753Y-1495414D02*
X1932115Y-1582696D01*
X1906031Y-1406850D02*
X1914753Y-1495414D01*
X1906031Y-1406850D02*
X1906031Y-1362354D01*
X7326450Y3428901D02*
X7326450Y5716453D01*
X5996251Y5430509D02*
X7326450Y5430509D01*
X5996251Y5287537D02*
X7326450Y5287537D01*
X5996251Y5144565D02*
X7326450Y5144565D01*
X5996251Y5001593D02*
X7326450Y5001593D01*
X5996251Y4858621D02*
X7326450Y4858621D01*
X5996251Y4715649D02*
X7326450Y4715649D01*
X5996251Y4572677D02*
X7326450Y4572677D01*
X5996251Y4429705D02*
X7326450Y4429705D01*
X5996251Y4286733D02*
X7326450Y4286733D01*
X5996251Y4143761D02*
X7326450Y4143761D01*
X5996251Y4000789D02*
X7326450Y4000789D01*
X5996251Y3857817D02*
X7326450Y3857817D01*
X5996251Y3714845D02*
X7326450Y3714845D01*
X5996251Y3571873D02*
X7326450Y3571873D01*
X5996251Y3428901D02*
X7326450Y3428901D01*
X5996251Y3428901D02*
X5996251Y5716453D01*
X5321128Y5430509D02*
X5996251Y5430509D01*
X5321128Y5287537D02*
X5996251Y5287537D01*
X5321128Y5144565D02*
X5996251Y5144565D01*
X5321128Y5001593D02*
X5996251Y5001593D01*
X5321128Y4858621D02*
X5996251Y4858621D01*
X5321128Y4715649D02*
X5996251Y4715649D01*
X5321128Y4572677D02*
X5996251Y4572677D01*
X5321128Y4429705D02*
X5996251Y4429705D01*
X5321128Y4286733D02*
X5996251Y4286733D01*
X5321128Y4143761D02*
X5996251Y4143761D01*
X5321128Y4000789D02*
X5996251Y4000789D01*
X5321128Y3857817D02*
X5996251Y3857817D01*
X5321128Y3714845D02*
X5996251Y3714845D01*
X5321128Y3571873D02*
X5996251Y3571873D01*
X5321128Y3428901D02*
X5996251Y3428901D01*
X5321128Y3428901D02*
X5321128Y5716453D01*
X4550721Y5430509D02*
X5321128Y5430509D01*
X4550721Y5287537D02*
X5321128Y5287537D01*
X4550721Y5144565D02*
X5321128Y5144565D01*
X4550721Y5001593D02*
X5321128Y5001593D01*
X4550721Y4858621D02*
X5321128Y4858621D01*
X4550721Y4715649D02*
X5321128Y4715649D01*
X4550721Y4572677D02*
X5321128Y4572677D01*
X4550721Y4429705D02*
X5321128Y4429705D01*
X4550721Y4286733D02*
X5321128Y4286733D01*
X4550721Y4143761D02*
X5321128Y4143761D01*
X4550721Y4000789D02*
X5321128Y4000789D01*
X4550721Y3857817D02*
X5321128Y3857817D01*
X4550721Y3714845D02*
X5321128Y3714845D01*
X4550721Y3571873D02*
X5321128Y3571873D01*
X4550721Y3428901D02*
X5321128Y3428901D01*
X4550721Y3428901D02*
X4550721Y5716453D01*
X3494463Y5430509D02*
X4550721Y5430509D01*
X3494463Y5287537D02*
X4550721Y5287537D01*
X3494463Y5144565D02*
X4550721Y5144565D01*
X3494463Y5001593D02*
X4550721Y5001593D01*
X3494463Y4858621D02*
X4550721Y4858621D01*
X3494463Y4715649D02*
X4550721Y4715649D01*
X3494463Y4572677D02*
X4550721Y4572677D01*
X3494463Y4429705D02*
X4550721Y4429705D01*
X3494463Y4286733D02*
X4550721Y4286733D01*
X3494463Y4143761D02*
X4550721Y4143761D01*
X3494463Y4000789D02*
X4550721Y4000789D01*
X3494463Y3857817D02*
X4550721Y3857817D01*
X3494463Y3714845D02*
X4550721Y3714845D01*
X3494463Y3571873D02*
X4550721Y3571873D01*
X3494463Y3428901D02*
X4550721Y3428901D01*
X3494463Y3428901D02*
X3494463Y5716453D01*
X2390563Y5430509D02*
X3494463Y5430509D01*
X2390563Y5287537D02*
X3494463Y5287537D01*
X2390563Y5144565D02*
X3494463Y5144565D01*
X2390563Y5001593D02*
X3494463Y5001593D01*
X2390563Y4858621D02*
X3494463Y4858621D01*
X2390563Y4715649D02*
X3494463Y4715649D01*
X2390563Y4572677D02*
X3494463Y4572677D01*
X2390563Y4429705D02*
X3494463Y4429705D01*
X2390563Y4286733D02*
X3494463Y4286733D01*
X2390563Y4143761D02*
X3494463Y4143761D01*
X2390563Y4000789D02*
X3494463Y4000789D01*
X2390563Y3857817D02*
X3494463Y3857817D01*
X2390563Y3714845D02*
X3494463Y3714845D01*
X2390563Y3571873D02*
X3494463Y3571873D01*
X2390563Y3428901D02*
X3494463Y3428901D01*
X2390563Y3428901D02*
X2390563Y5716453D01*
X1906008Y5430509D02*
X2390563Y5430509D01*
X1906008Y5287537D02*
X2390563Y5287537D01*
X1906008Y5144565D02*
X2390563Y5144565D01*
X1906008Y5001593D02*
X2390563Y5001593D01*
X1906008Y4858621D02*
X2390563Y4858621D01*
X1906008Y4715649D02*
X2390563Y4715649D01*
X1906008Y4572677D02*
X2390563Y4572677D01*
X1906008Y4429705D02*
X2390563Y4429705D01*
X1906008Y4286733D02*
X2390563Y4286733D01*
X1906008Y4143761D02*
X2390563Y4143761D01*
X1906008Y4000789D02*
X2390563Y4000789D01*
X1906008Y3857817D02*
X2390563Y3857817D01*
X1906008Y3714845D02*
X2390563Y3714845D01*
X1906008Y3571873D02*
X2390563Y3571873D01*
X1906008Y3428901D02*
X2390563Y3428901D01*
X1906008Y3428901D02*
X1906008Y5716453D01*
X7326450Y5716453D01*
X1906008Y5573481D02*
X7326450Y5573481D01*
D13*
X-241693Y115525D02*
X-241693Y149491D01*
X-197204Y115525D02*
X-197204Y149491D01*
X-283506Y63835D02*
X-249540Y63835D01*
X-283506Y108323D02*
X-249540Y108323D01*
X-542008Y115525D02*
X-542008Y149491D01*
X-497520Y115525D02*
X-497520Y149491D01*
X-489672Y108323D02*
X-455706Y108323D01*
X-489672Y63835D02*
X-455706Y63835D01*
X39762Y-57032D02*
X73728Y-57032D01*
X39762Y-101520D02*
X73728Y-101520D01*
X-73334Y-101520D02*
X-39368Y-101520D01*
X-73334Y-57032D02*
X-39368Y-57032D01*
X22165Y-119881D02*
X22165Y-85915D01*
X-22323Y-119881D02*
X-22323Y-85915D01*
X198740Y294740D02*
X200709Y294740D01*
X98347Y294740D02*
X100315Y294740D01*
X98347Y192378D02*
X98347Y294740D01*
X198740Y192378D02*
X200709Y192378D01*
X98347Y192378D02*
X100315Y192378D01*
X200709Y192378D02*
X200709Y294740D01*
D14*
X56197Y49547D02*
X56197Y75779D01*
X29965Y-36221D02*
X56197Y-36221D01*
X-55803Y-36221D02*
X-55803Y-9989D01*
X-55803Y75779D02*
X-29571Y75779D01*
X29965Y75779D02*
X56197Y75779D01*
X56197Y-36221D02*
X56197Y-9989D01*
X-55803Y-36221D02*
X-29571Y-36221D01*
X-55803Y49547D02*
X-55803Y75779D01*
X-435606Y150000D02*
X-435606Y171042D01*
X-303606Y150000D02*
X-303606Y171042D01*
X-303606Y260958D02*
X-303606Y282000D01*
X-435606Y260958D02*
X-435606Y282000D01*
D15*
X28497Y645009D02*
X21938Y641729D01*
X15378Y635169D01*
X15378Y628610D01*
X18658Y625330D01*
X25217Y625330D01*
X28497Y628610D01*
X28497Y631890D01*
X25217Y635169D01*
X15378Y635169D01*
X35057Y641729D02*
X38336Y645009D01*
X44896Y645009D01*
X48176Y641729D01*
X48176Y628610D01*
X44896Y625330D01*
X38336Y625330D01*
X35057Y628610D01*
X35057Y641729D01*
X67854Y641729D02*
X64575Y645009D01*
X58015Y645009D01*
X54735Y641729D01*
X54735Y628610D01*
X58015Y625330D01*
X64575Y625330D01*
X67854Y628610D01*
X67854Y635169D01*
X61295Y635169D01*
X74414Y635169D02*
X87533Y635169D01*
X94092Y625330D02*
X94092Y645009D01*
X103932Y645009D01*
X107212Y641729D01*
X107212Y635169D01*
X103932Y631890D01*
X94092Y631890D01*
X117051Y638449D02*
X123610Y638449D01*
X126890Y635169D01*
X126890Y625330D01*
X117051Y625330D01*
X113771Y628610D01*
X117051Y631890D01*
X126890Y631890D01*
X136729Y641729D02*
X136729Y638449D01*
X133450Y638449D01*
X140009Y638449D01*
X136729Y638449D01*
X136729Y628610D01*
X140009Y625330D01*
X162968Y638449D02*
X153128Y638449D01*
X149849Y635169D01*
X149849Y628610D01*
X153128Y625330D01*
X162968Y625330D01*
X169527Y645009D02*
X169527Y625330D01*
X169527Y635169D01*
X172807Y638449D01*
X179366Y638449D01*
X182646Y635169D01*
X182646Y625330D01*
X82613Y589716D02*
X82613Y609394D01*
X92453Y609394D01*
X95732Y606115D01*
X95732Y599555D01*
X92453Y596275D01*
X82613Y596275D01*
X89173Y596275D02*
X95732Y589716D01*
X102292Y609394D02*
X115411Y589716D01*
X115411Y609394D02*
X102292Y589716D01*
X-547558Y1291732D02*
X-547558Y1265022D01*
X-539123Y1273457D02*
X-561615Y1273457D01*
X-546152Y1294543D01*
X-546152Y1265022D01*
X-551775Y1265022D02*
X-541935Y1265022D01*
X-532235Y1294543D02*
X-513960Y1265022D01*
X-530829Y1294543D02*
X-512554Y1265022D01*
X-512554Y1294543D02*
X-532235Y1265022D01*
X-535046Y1294543D02*
X-526612Y1294543D01*
X-518177Y1294543D02*
X-509742Y1294543D01*
X-535046Y1265022D02*
X-526612Y1265022D01*
X-518177Y1265022D02*
X-509742Y1265022D01*
X-491889Y1291732D02*
X-491889Y1265022D01*
X-483454Y1273457D02*
X-505947Y1273457D01*
X-490483Y1294543D01*
X-490483Y1265022D01*
X-496106Y1265022D02*
X-486266Y1265022D01*
X-448591Y1294543D02*
X-448591Y1265022D01*
X-447186Y1294543D02*
X-447186Y1265022D01*
X-452809Y1294543D02*
X-435939Y1294543D01*
X-431722Y1293137D01*
X-430316Y1291732D01*
X-428911Y1288920D01*
X-428911Y1284703D01*
X-430316Y1281891D01*
X-431722Y1280485D01*
X-435939Y1279080D01*
X-447186Y1279080D01*
X-435939Y1294543D02*
X-433128Y1293137D01*
X-431722Y1291732D01*
X-430316Y1288920D01*
X-430316Y1284703D01*
X-431722Y1281891D01*
X-433128Y1280485D01*
X-435939Y1279080D01*
X-452809Y1265022D02*
X-442968Y1265022D01*
X-422163Y1281891D02*
X-422163Y1280485D01*
X-423569Y1280485D01*
X-423569Y1281891D01*
X-422163Y1283297D01*
X-419351Y1284703D01*
X-413728Y1284703D01*
X-410917Y1283297D01*
X-409511Y1281891D01*
X-408105Y1279080D01*
X-408105Y1269239D01*
X-406699Y1266428D01*
X-405294Y1265022D01*
X-409511Y1281891D02*
X-409511Y1269239D01*
X-408105Y1266428D01*
X-405294Y1265022D01*
X-403888Y1265022D01*
X-409511Y1279080D02*
X-410917Y1277674D01*
X-419351Y1276268D01*
X-423569Y1274862D01*
X-424974Y1272051D01*
X-424974Y1269239D01*
X-423569Y1266428D01*
X-419351Y1265022D01*
X-415134Y1265022D01*
X-412322Y1266428D01*
X-409511Y1269239D01*
X-419351Y1276268D02*
X-422163Y1274862D01*
X-423569Y1272051D01*
X-423569Y1269239D01*
X-422163Y1266428D01*
X-419351Y1265022D01*
X-391236Y1265022D02*
X-392642Y1266428D01*
X-394047Y1270645D01*
X-394047Y1294543D01*
X-395453Y1294543D01*
X-395453Y1270645D01*
X-394047Y1266428D01*
X-391236Y1265022D01*
X-388424Y1265022D01*
X-385613Y1266428D01*
X-384207Y1269239D01*
X-399670Y1284703D02*
X-388424Y1284703D01*
X-362558Y1280485D02*
X-363964Y1279080D01*
X-362558Y1277674D01*
X-361152Y1279080D01*
X-361152Y1280485D01*
X-363964Y1283297D01*
X-366775Y1284703D01*
X-370993Y1284703D01*
X-375210Y1283297D01*
X-378021Y1280485D01*
X-379427Y1276268D01*
X-379427Y1273457D01*
X-378021Y1269239D01*
X-375210Y1266428D01*
X-370993Y1265022D01*
X-368181Y1265022D01*
X-363964Y1266428D01*
X-361152Y1269239D01*
X-370993Y1284703D02*
X-373804Y1283297D01*
X-376616Y1280485D01*
X-378021Y1276268D01*
X-378021Y1273457D01*
X-376616Y1269239D01*
X-373804Y1266428D01*
X-370993Y1265022D01*
X-352436Y1294543D02*
X-352436Y1265022D01*
X-351031Y1294543D02*
X-351031Y1265022D01*
X-351031Y1280485D02*
X-348219Y1283297D01*
X-344002Y1284703D01*
X-341190Y1284703D01*
X-336973Y1283297D01*
X-335567Y1280485D01*
X-335567Y1265022D01*
X-341190Y1284703D02*
X-338378Y1283297D01*
X-336973Y1280485D01*
X-336973Y1265022D01*
X-356654Y1294543D02*
X-351031Y1294543D01*
X-356654Y1265022D02*
X-346813Y1265022D01*
X-341190Y1265022D02*
X-331350Y1265022D01*
X-288333Y1294543D02*
X-298173Y1265022D01*
X-288333Y1294543D02*
X-278493Y1265022D01*
X-288333Y1290326D02*
X-279898Y1265022D01*
X-295362Y1273457D02*
X-282710Y1273457D01*
X-300985Y1265022D02*
X-292550Y1265022D01*
X-284116Y1265022D02*
X-275681Y1265022D01*
X-267668Y1284703D02*
X-267668Y1265022D01*
X-266262Y1284703D02*
X-266262Y1265022D01*
X-266262Y1276268D02*
X-264857Y1280485D01*
X-262045Y1283297D01*
X-259233Y1284703D01*
X-255016Y1284703D01*
X-253610Y1283297D01*
X-253610Y1281891D01*
X-255016Y1280485D01*
X-256422Y1281891D01*
X-255016Y1283297D01*
X-271885Y1284703D02*
X-266262Y1284703D01*
X-271885Y1265022D02*
X-262045Y1265022D01*
X-244895Y1284703D02*
X-244895Y1265022D01*
X-243489Y1284703D02*
X-243489Y1265022D01*
X-243489Y1276268D02*
X-242083Y1280485D01*
X-239272Y1283297D01*
X-236460Y1284703D01*
X-232243Y1284703D01*
X-230837Y1283297D01*
X-230837Y1281891D01*
X-232243Y1280485D01*
X-233648Y1281891D01*
X-232243Y1283297D01*
X-249112Y1284703D02*
X-243489Y1284703D01*
X-249112Y1265022D02*
X-239272Y1265022D01*
X-223527Y1281891D02*
X-223527Y1280485D01*
X-224933Y1280485D01*
X-224933Y1281891D01*
X-223527Y1283297D01*
X-220715Y1284703D01*
X-215092Y1284703D01*
X-212280Y1283297D01*
X-210875Y1281891D01*
X-209469Y1279080D01*
X-209469Y1269239D01*
X-208063Y1266428D01*
X-206657Y1265022D01*
X-210875Y1281891D02*
X-210875Y1269239D01*
X-209469Y1266428D01*
X-206657Y1265022D01*
X-205252Y1265022D01*
X-210875Y1279080D02*
X-212280Y1277674D01*
X-220715Y1276268D01*
X-224933Y1274862D01*
X-226338Y1272051D01*
X-226338Y1269239D01*
X-224933Y1266428D01*
X-220715Y1265022D01*
X-216498Y1265022D01*
X-213686Y1266428D01*
X-210875Y1269239D01*
X-220715Y1276268D02*
X-223527Y1274862D01*
X-224933Y1272051D01*
X-224933Y1269239D01*
X-223527Y1266428D01*
X-220715Y1265022D01*
X-198223Y1284703D02*
X-189788Y1265022D01*
X-196817Y1284703D02*
X-189788Y1267833D01*
X-181353Y1284703D02*
X-189788Y1265022D01*
X-192600Y1259399D01*
X-195411Y1256587D01*
X-198223Y1255181D01*
X-199629Y1255181D01*
X-201034Y1256587D01*
X-199629Y1257993D01*
X-198223Y1256587D01*
X-201034Y1284703D02*
X-192600Y1284703D01*
X-186976Y1284703D02*
X-178542Y1284703D01*
X-393766Y1237277D02*
X-393766Y1207756D01*
X-392360Y1237277D02*
X-392360Y1207756D01*
X-402201Y1237277D02*
X-403606Y1228842D01*
X-403606Y1237277D01*
X-382520Y1237277D01*
X-382520Y1228842D01*
X-383926Y1237277D01*
X-397983Y1207756D02*
X-388143Y1207756D01*
X-375491Y1237277D02*
X-357216Y1207756D01*
X-374085Y1237277D02*
X-355810Y1207756D01*
X-355810Y1237277D02*
X-375491Y1207756D01*
X-378302Y1237277D02*
X-369868Y1237277D01*
X-361433Y1237277D02*
X-352998Y1237277D01*
X-378302Y1207756D02*
X-369868Y1207756D01*
X-361433Y1207756D02*
X-352998Y1207756D01*
X-349203Y1231654D02*
X-346391Y1233060D01*
X-342174Y1237277D01*
X-342174Y1207756D01*
X-343580Y1235871D02*
X-343580Y1207756D01*
X-349203Y1207756D02*
X-336551Y1207756D01*
X-23142Y163120D02*
X-19810Y166452D01*
X-19810Y173117D01*
X-23142Y176449D01*
X-36471Y176449D01*
X-39803Y173117D01*
X-39803Y166452D01*
X-36471Y163120D01*
X-39803Y156456D02*
X-19810Y156456D01*
X-19810Y146459D01*
X-23142Y143127D01*
X-29806Y143127D01*
X-33139Y146459D01*
X-33139Y156456D01*
X-19810Y136462D02*
X-39803Y136462D01*
X-39803Y123133D01*
X-630416Y501633D02*
X-594803Y501633D01*
X-606049Y512880D02*
X-606049Y482890D01*
X-634165Y503508D01*
X-594803Y503508D01*
X-594803Y496010D02*
X-594803Y509131D01*
X-634165Y522064D02*
X-594803Y546431D01*
X-634165Y523938D02*
X-594803Y548305D01*
X-634165Y548305D02*
X-594803Y522064D01*
X-634165Y518315D02*
X-634165Y529561D01*
X-634165Y540808D02*
X-634165Y552054D01*
X-594803Y518315D02*
X-594803Y529561D01*
X-594803Y540808D02*
X-594803Y552054D01*
X-630416Y575858D02*
X-594803Y575858D01*
X-606049Y587104D02*
X-606049Y557115D01*
X-634165Y577733D01*
X-594803Y577733D01*
X-594803Y570235D02*
X-594803Y583356D01*
X-634165Y633589D02*
X-594803Y633589D01*
X-634165Y635463D02*
X-594803Y635463D01*
X-634165Y657955D02*
X-594803Y657955D01*
X-634165Y659830D02*
X-594803Y659830D01*
X-634165Y627966D02*
X-634165Y641086D01*
X-634165Y652332D02*
X-634165Y665453D01*
X-615421Y635463D02*
X-615421Y657955D01*
X-594803Y627966D02*
X-594803Y641086D01*
X-594803Y652332D02*
X-594803Y665453D01*
X-634165Y675762D02*
X-594803Y675762D01*
X-634165Y677636D02*
X-600426Y688883D01*
X-634165Y675762D02*
X-594803Y688883D01*
X-634165Y702003D02*
X-594803Y688883D01*
X-634165Y702003D02*
X-594803Y702003D01*
X-634165Y703877D02*
X-594803Y703877D01*
X-634165Y670139D02*
X-634165Y677636D01*
X-634165Y702003D02*
X-634165Y709500D01*
X-594803Y670139D02*
X-594803Y681385D01*
X-594803Y696380D02*
X-594803Y709500D01*
D16*
X-16712Y1468612D02*
X-16712Y1421383D01*
X6902Y1421383D01*
X14774Y1429255D01*
X14774Y1437126D01*
X6902Y1444998D01*
X-16712Y1444998D01*
X6902Y1444998D01*
X14774Y1452869D01*
X14774Y1460741D01*
X6902Y1468612D01*
X-16712Y1468612D01*
X30517Y1444998D02*
X46260Y1460741D01*
X62003Y1444998D01*
X77746Y1460741D02*
X85617Y1468612D01*
X101360Y1468612D01*
X109232Y1460741D01*
X109232Y1452869D01*
X101360Y1444998D01*
X93489Y1444998D01*
X101360Y1444998D01*
X109232Y1437126D01*
X109232Y1429255D01*
X101360Y1421383D01*
X85617Y1421383D01*
X77746Y1429255D01*
X-284342Y1387938D02*
X-284342Y1340709D01*
X-260727Y1340709D01*
X-252856Y1348580D01*
X-252856Y1380066D01*
X-260727Y1387938D01*
X-284342Y1387938D01*
X-229242Y1340709D02*
X-213499Y1340709D01*
X-205627Y1348580D01*
X-205627Y1364323D01*
X-213499Y1372195D01*
X-229242Y1372195D01*
X-237113Y1364323D01*
X-237113Y1348580D01*
X-229242Y1340709D01*
X-189884Y1372195D02*
X-189884Y1348580D01*
X-182013Y1340709D01*
X-158398Y1340709D01*
X-158398Y1372195D01*
X-142655Y1387938D02*
X-142655Y1340709D01*
X-119041Y1340709D01*
X-111169Y1348580D01*
X-111169Y1356452D01*
X-111169Y1364323D01*
X-119041Y1372195D01*
X-142655Y1372195D01*
X-95427Y1340709D02*
X-79684Y1340709D01*
X-87555Y1340709D01*
X-87555Y1387938D01*
X-95427Y1387938D01*
X-32455Y1340709D02*
X-48198Y1340709D01*
X-56069Y1348580D01*
X-56069Y1364323D01*
X-48198Y1372195D01*
X-32455Y1372195D01*
X-24583Y1364323D01*
X-24583Y1356452D01*
X-56069Y1356452D01*
X69874Y1380066D02*
X62003Y1387938D01*
X46260Y1387938D01*
X38388Y1380066D01*
X38388Y1372195D01*
X46260Y1364323D01*
X62003Y1364323D01*
X69874Y1356452D01*
X69874Y1348580D01*
X62003Y1340709D01*
X46260Y1340709D01*
X38388Y1348580D01*
X85617Y1340709D02*
X101360Y1340709D01*
X93489Y1340709D01*
X93489Y1372195D01*
X85617Y1372195D01*
X156460Y1387938D02*
X156460Y1340709D01*
X132846Y1340709D01*
X124975Y1348580D01*
X124975Y1364323D01*
X132846Y1372195D01*
X156460Y1372195D01*
X195818Y1340709D02*
X180075Y1340709D01*
X172203Y1348580D01*
X172203Y1364323D01*
X180075Y1372195D01*
X195818Y1372195D01*
X203689Y1364323D01*
X203689Y1356452D01*
X172203Y1356452D01*
X250918Y1387938D02*
X250918Y1340709D01*
X227304Y1340709D01*
X219432Y1348580D01*
X219432Y1364323D01*
X227304Y1372195D01*
X250918Y1372195D01*
X313890Y1340709D02*
X313890Y1387938D01*
X337504Y1387938D01*
X345376Y1380066D01*
X345376Y1364323D01*
X337504Y1356452D01*
X313890Y1356452D01*
X329633Y1356452D02*
X345376Y1340709D01*
X361119Y1340709D02*
X376861Y1340709D01*
X368990Y1340709D01*
X368990Y1387938D01*
X361119Y1380066D01*
X6077737Y5680687D02*
X6077737Y5609224D01*
X6113468Y5609224D01*
X6125379Y5621135D01*
X6125379Y5633045D01*
X6113468Y5644956D01*
X6077737Y5644956D01*
X6113468Y5644956D01*
X6125379Y5656866D01*
X6125379Y5668776D01*
X6113468Y5680687D01*
X6077737Y5680687D01*
X6161110Y5609224D02*
X6184931Y5609224D01*
X6196842Y5621135D01*
X6196842Y5644956D01*
X6184931Y5656866D01*
X6161110Y5656866D01*
X6149200Y5644956D01*
X6149200Y5621135D01*
X6161110Y5609224D01*
X6232573Y5656866D02*
X6256394Y5656866D01*
X6268305Y5644956D01*
X6268305Y5609224D01*
X6232573Y5609224D01*
X6220663Y5621135D01*
X6232573Y5633045D01*
X6268305Y5633045D01*
X6292126Y5656866D02*
X6292126Y5609224D01*
X6292126Y5633045D01*
X6304036Y5644956D01*
X6315947Y5656866D01*
X6327857Y5656866D01*
X6411230Y5680687D02*
X6411230Y5609224D01*
X6375499Y5609224D01*
X6363588Y5621135D01*
X6363588Y5644956D01*
X6375499Y5656866D01*
X6411230Y5656866D01*
X6506514Y5680687D02*
X6506514Y5609224D01*
X6554156Y5609224D01*
X6589888Y5656866D02*
X6613708Y5656866D01*
X6625619Y5644956D01*
X6625619Y5609224D01*
X6589888Y5609224D01*
X6577977Y5621135D01*
X6589888Y5633045D01*
X6625619Y5633045D01*
X6649440Y5656866D02*
X6649440Y5621135D01*
X6661350Y5609224D01*
X6697082Y5609224D01*
X6697082Y5597314D01*
X6685171Y5585403D01*
X6673261Y5585403D01*
X6697082Y5609224D02*
X6697082Y5656866D01*
X6756634Y5609224D02*
X6732813Y5609224D01*
X6720903Y5621135D01*
X6720903Y5644956D01*
X6732813Y5656866D01*
X6756634Y5656866D01*
X6768545Y5644956D01*
X6768545Y5633045D01*
X6720903Y5633045D01*
X6792366Y5656866D02*
X6792366Y5609224D01*
X6792366Y5633045D01*
X6804276Y5644956D01*
X6816187Y5656866D01*
X6828097Y5656866D01*
X6982934Y5668776D02*
X6971023Y5680687D01*
X6947202Y5680687D01*
X6935292Y5668776D01*
X6935292Y5656866D01*
X6947202Y5644956D01*
X6971023Y5644956D01*
X6982934Y5633045D01*
X6982934Y5621135D01*
X6971023Y5609224D01*
X6947202Y5609224D01*
X6935292Y5621135D01*
X7018665Y5668776D02*
X7018665Y5656866D01*
X7006755Y5656866D01*
X7030575Y5656866D01*
X7018665Y5656866D01*
X7018665Y5621135D01*
X7030575Y5609224D01*
X7078217Y5656866D02*
X7102038Y5656866D01*
X7113949Y5644956D01*
X7113949Y5609224D01*
X7078217Y5609224D01*
X7066307Y5621135D01*
X7078217Y5633045D01*
X7113949Y5633045D01*
X7185412Y5656866D02*
X7149680Y5656866D01*
X7137770Y5644956D01*
X7137770Y5621135D01*
X7149680Y5609224D01*
X7185412Y5609224D01*
X7209233Y5609224D02*
X7209233Y5680687D01*
X7209233Y5633045D02*
X7244964Y5656866D01*
X7209233Y5633045D02*
X7244964Y5609224D01*
X5402614Y5382833D02*
X5414525Y5394743D01*
X5438345Y5394743D01*
X5450256Y5382833D01*
X5450256Y5370922D01*
X5438345Y5359011D01*
X5426435Y5359011D01*
X5438345Y5359011D01*
X5450256Y5347101D01*
X5450256Y5335191D01*
X5438345Y5323280D01*
X5414525Y5323280D01*
X5402614Y5335191D01*
X5474077Y5323280D02*
X5474077Y5335191D01*
X5485987Y5335191D01*
X5485987Y5323280D01*
X5474077Y5323280D01*
X5581271Y5394743D02*
X5533629Y5394743D01*
X5533629Y5359011D01*
X5557450Y5370922D01*
X5569361Y5370922D01*
X5581271Y5359011D01*
X5581271Y5335191D01*
X5569361Y5323280D01*
X5545540Y5323280D01*
X5533629Y5335191D01*
X5450256Y5037336D02*
X5402614Y5037336D01*
X5450256Y5084978D01*
X5450256Y5096889D01*
X5438345Y5108799D01*
X5414525Y5108799D01*
X5402614Y5096889D01*
X5474077Y5037336D02*
X5474077Y5049247D01*
X5485987Y5049247D01*
X5485987Y5037336D01*
X5474077Y5037336D01*
X5581271Y5108799D02*
X5533629Y5108799D01*
X5533629Y5073068D01*
X5557450Y5084978D01*
X5569361Y5084978D01*
X5581271Y5073068D01*
X5581271Y5049247D01*
X5569361Y5037336D01*
X5545540Y5037336D01*
X5533629Y5049247D01*
X5652734Y5108799D02*
X5605092Y5108799D01*
X5605092Y5073068D01*
X5628913Y5084978D01*
X5640824Y5084978D01*
X5652734Y5073068D01*
X5652734Y5049247D01*
X5640824Y5037336D01*
X5617003Y5037336D01*
X5605092Y5049247D01*
X5438345Y4751392D02*
X5438345Y4822855D01*
X5402614Y4787123D01*
X5450256Y4787123D01*
X5474077Y4751392D02*
X5474077Y4763303D01*
X5485987Y4763303D01*
X5485987Y4751392D01*
X5474077Y4751392D01*
X5569361Y4751392D02*
X5569361Y4822855D01*
X5533629Y4787123D01*
X5581271Y4787123D01*
X5438345Y4465448D02*
X5438345Y4536911D01*
X5402614Y4501180D01*
X5450256Y4501180D01*
X5474077Y4465448D02*
X5474077Y4477359D01*
X5485987Y4477359D01*
X5485987Y4465448D01*
X5474077Y4465448D01*
X5569361Y4465448D02*
X5569361Y4536911D01*
X5533629Y4501180D01*
X5581271Y4501180D01*
X5438345Y4179504D02*
X5438345Y4250967D01*
X5402614Y4215235D01*
X5450256Y4215235D01*
X5474077Y4179504D02*
X5474077Y4191415D01*
X5485987Y4191415D01*
X5485987Y4179504D01*
X5474077Y4179504D01*
X5569361Y4179504D02*
X5569361Y4250967D01*
X5533629Y4215235D01*
X5581271Y4215235D01*
X5450256Y3893560D02*
X5402614Y3893560D01*
X5450256Y3941202D01*
X5450256Y3953113D01*
X5438345Y3965023D01*
X5414525Y3965023D01*
X5402614Y3953113D01*
X5474077Y3893560D02*
X5474077Y3905471D01*
X5485987Y3905471D01*
X5485987Y3893560D01*
X5474077Y3893560D01*
X5581271Y3965023D02*
X5533629Y3965023D01*
X5533629Y3929291D01*
X5557450Y3941202D01*
X5569361Y3941202D01*
X5581271Y3929291D01*
X5581271Y3905471D01*
X5569361Y3893560D01*
X5545540Y3893560D01*
X5533629Y3905471D01*
X5652734Y3965023D02*
X5605092Y3965023D01*
X5605092Y3929291D01*
X5628913Y3941202D01*
X5640824Y3941202D01*
X5652734Y3929291D01*
X5652734Y3905471D01*
X5640824Y3893560D01*
X5617003Y3893560D01*
X5605092Y3905471D01*
X5402614Y3667169D02*
X5414525Y3679079D01*
X5438345Y3679079D01*
X5450256Y3667169D01*
X5450256Y3655258D01*
X5438345Y3643347D01*
X5426435Y3643347D01*
X5438345Y3643347D01*
X5450256Y3631437D01*
X5450256Y3619527D01*
X5438345Y3607616D01*
X5414525Y3607616D01*
X5402614Y3619527D01*
X5474077Y3607616D02*
X5474077Y3619527D01*
X5485987Y3619527D01*
X5485987Y3607616D01*
X5474077Y3607616D01*
X5581271Y3679079D02*
X5533629Y3679079D01*
X5533629Y3643347D01*
X5557450Y3655258D01*
X5569361Y3655258D01*
X5581271Y3643347D01*
X5581271Y3619527D01*
X5569361Y3607616D01*
X5545540Y3607616D01*
X5533629Y3619527D01*
X5450256Y5668776D02*
X5438345Y5680687D01*
X5414525Y5680687D01*
X5402614Y5668776D01*
X5402614Y5621135D01*
X5414525Y5609224D01*
X5438345Y5609224D01*
X5450256Y5621135D01*
X5485987Y5609224D02*
X5509808Y5609224D01*
X5521719Y5621135D01*
X5521719Y5644956D01*
X5509808Y5656866D01*
X5485987Y5656866D01*
X5474077Y5644956D01*
X5474077Y5621135D01*
X5485987Y5609224D01*
X5545540Y5609224D02*
X5545540Y5656866D01*
X5581271Y5656866D01*
X5593182Y5644956D01*
X5593182Y5609224D01*
X5617003Y5609224D02*
X5652734Y5609224D01*
X5664645Y5621135D01*
X5652734Y5633045D01*
X5628913Y5633045D01*
X5617003Y5644956D01*
X5628913Y5656866D01*
X5664645Y5656866D01*
X5700376Y5668776D02*
X5700376Y5656866D01*
X5688466Y5656866D01*
X5712287Y5656866D01*
X5700376Y5656866D01*
X5700376Y5621135D01*
X5712287Y5609224D01*
X5759928Y5656866D02*
X5783749Y5656866D01*
X5795660Y5644956D01*
X5795660Y5609224D01*
X5759928Y5609224D01*
X5748018Y5621135D01*
X5759928Y5633045D01*
X5795660Y5633045D01*
X5819481Y5609224D02*
X5819481Y5656866D01*
X5855212Y5656866D01*
X5867123Y5644956D01*
X5867123Y5609224D01*
X5902854Y5668776D02*
X5902854Y5656866D01*
X5890944Y5656866D01*
X5914765Y5656866D01*
X5902854Y5656866D01*
X5902854Y5621135D01*
X5914765Y5609224D01*
X4632207Y5382833D02*
X4644118Y5394743D01*
X4667939Y5394743D01*
X4679849Y5382833D01*
X4679849Y5335191D01*
X4667939Y5323280D01*
X4644118Y5323280D01*
X4632207Y5335191D01*
X4632207Y5382833D01*
X4703670Y5323280D02*
X4703670Y5335191D01*
X4715581Y5335191D01*
X4715581Y5323280D01*
X4703670Y5323280D01*
X4798954Y5323280D02*
X4798954Y5394743D01*
X4763223Y5359011D01*
X4810865Y5359011D01*
X4834686Y5382833D02*
X4846596Y5394743D01*
X4870417Y5394743D01*
X4882328Y5382833D01*
X4882328Y5335191D01*
X4870417Y5323280D01*
X4846596Y5323280D01*
X4834686Y5335191D01*
X4834686Y5382833D01*
X4906149Y5323280D02*
X4906149Y5370922D01*
X4918059Y5370922D01*
X4929970Y5359011D01*
X4929970Y5323280D01*
X4929970Y5359011D01*
X4941880Y5370922D01*
X4953790Y5359011D01*
X4953790Y5323280D01*
X4977611Y5323280D02*
X5001432Y5323280D01*
X4989522Y5323280D01*
X4989522Y5370922D01*
X4977611Y5370922D01*
X5037164Y5323280D02*
X5060985Y5323280D01*
X5049074Y5323280D01*
X5049074Y5394743D01*
X5037164Y5394743D01*
X4632207Y5239860D02*
X4644118Y5251771D01*
X4667939Y5251771D01*
X4679849Y5239860D01*
X4679849Y5192219D01*
X4667939Y5180308D01*
X4644118Y5180308D01*
X4632207Y5192219D01*
X4632207Y5239860D01*
X4703670Y5180308D02*
X4703670Y5192219D01*
X4715581Y5192219D01*
X4715581Y5180308D01*
X4703670Y5180308D01*
X4763223Y5239860D02*
X4775133Y5251771D01*
X4798954Y5251771D01*
X4810865Y5239860D01*
X4810865Y5227950D01*
X4798954Y5216039D01*
X4787044Y5216039D01*
X4798954Y5216039D01*
X4810865Y5204129D01*
X4810865Y5192219D01*
X4798954Y5180308D01*
X4775133Y5180308D01*
X4763223Y5192219D01*
X4882328Y5251771D02*
X4834686Y5251771D01*
X4834686Y5216039D01*
X4858507Y5227950D01*
X4870417Y5227950D01*
X4882328Y5216039D01*
X4882328Y5192219D01*
X4870417Y5180308D01*
X4846596Y5180308D01*
X4834686Y5192219D01*
X4906149Y5180308D02*
X4906149Y5227950D01*
X4918059Y5227950D01*
X4929970Y5216039D01*
X4929970Y5180308D01*
X4929970Y5216039D01*
X4941880Y5227950D01*
X4953790Y5216039D01*
X4953790Y5180308D01*
X4977611Y5180308D02*
X5001432Y5180308D01*
X4989522Y5180308D01*
X4989522Y5227950D01*
X4977611Y5227950D01*
X5037164Y5180308D02*
X5060985Y5180308D01*
X5049074Y5180308D01*
X5049074Y5251771D01*
X5037164Y5251771D01*
X4679849Y5108799D02*
X4632207Y5108799D01*
X4632207Y5073068D01*
X4656028Y5084978D01*
X4667939Y5084978D01*
X4679849Y5073068D01*
X4679849Y5049247D01*
X4667939Y5037336D01*
X4644118Y5037336D01*
X4632207Y5049247D01*
X4703670Y5037336D02*
X4703670Y5049247D01*
X4715581Y5049247D01*
X4715581Y5037336D01*
X4703670Y5037336D01*
X4763223Y5096889D02*
X4775133Y5108799D01*
X4798954Y5108799D01*
X4810865Y5096889D01*
X4810865Y5049247D01*
X4798954Y5037336D01*
X4775133Y5037336D01*
X4763223Y5049247D01*
X4763223Y5096889D01*
X4834686Y5096889D02*
X4846596Y5108799D01*
X4870417Y5108799D01*
X4882328Y5096889D01*
X4882328Y5049247D01*
X4870417Y5037336D01*
X4846596Y5037336D01*
X4834686Y5049247D01*
X4834686Y5096889D01*
X4906149Y5037336D02*
X4906149Y5084978D01*
X4918059Y5084978D01*
X4929970Y5073068D01*
X4929970Y5037336D01*
X4929970Y5073068D01*
X4941880Y5084978D01*
X4953790Y5073068D01*
X4953790Y5037336D01*
X4977611Y5037336D02*
X5001432Y5037336D01*
X4989522Y5037336D01*
X4989522Y5084978D01*
X4977611Y5084978D01*
X5037164Y5037336D02*
X5060985Y5037336D01*
X5049074Y5037336D01*
X5049074Y5108799D01*
X5037164Y5108799D01*
X4632207Y4953917D02*
X4644118Y4965827D01*
X4667939Y4965827D01*
X4679849Y4953917D01*
X4679849Y4906275D01*
X4667939Y4894364D01*
X4644118Y4894364D01*
X4632207Y4906275D01*
X4632207Y4953917D01*
X4703670Y4894364D02*
X4703670Y4906275D01*
X4715581Y4906275D01*
X4715581Y4894364D01*
X4703670Y4894364D01*
X4810865Y4965827D02*
X4787044Y4953917D01*
X4763223Y4930096D01*
X4763223Y4906275D01*
X4775133Y4894364D01*
X4798954Y4894364D01*
X4810865Y4906275D01*
X4810865Y4918185D01*
X4798954Y4930096D01*
X4763223Y4930096D01*
X4834686Y4906275D02*
X4846596Y4894364D01*
X4870417Y4894364D01*
X4882328Y4906275D01*
X4882328Y4953917D01*
X4870417Y4965827D01*
X4846596Y4965827D01*
X4834686Y4953917D01*
X4834686Y4942006D01*
X4846596Y4930096D01*
X4882328Y4930096D01*
X4906149Y4894364D02*
X4906149Y4942006D01*
X4918059Y4942006D01*
X4929970Y4930096D01*
X4929970Y4894364D01*
X4929970Y4930096D01*
X4941880Y4942006D01*
X4953790Y4930096D01*
X4953790Y4894364D01*
X4977611Y4894364D02*
X5001432Y4894364D01*
X4989522Y4894364D01*
X4989522Y4942006D01*
X4977611Y4942006D01*
X5037164Y4894364D02*
X5060985Y4894364D01*
X5049074Y4894364D01*
X5049074Y4965827D01*
X5037164Y4965827D01*
X4679849Y4751392D02*
X4632207Y4751392D01*
X4679849Y4799034D01*
X4679849Y4810944D01*
X4667939Y4822855D01*
X4644118Y4822855D01*
X4632207Y4810944D01*
X4703670Y4751392D02*
X4703670Y4763303D01*
X4715581Y4763303D01*
X4715581Y4751392D01*
X4703670Y4751392D01*
X4763223Y4810944D02*
X4775133Y4822855D01*
X4798954Y4822855D01*
X4810865Y4810944D01*
X4810865Y4799034D01*
X4798954Y4787123D01*
X4787044Y4787123D01*
X4798954Y4787123D01*
X4810865Y4775213D01*
X4810865Y4763303D01*
X4798954Y4751392D01*
X4775133Y4751392D01*
X4763223Y4763303D01*
X4834686Y4810944D02*
X4846596Y4822855D01*
X4870417Y4822855D01*
X4882328Y4810944D01*
X4882328Y4763303D01*
X4870417Y4751392D01*
X4846596Y4751392D01*
X4834686Y4763303D01*
X4834686Y4810944D01*
X4906149Y4751392D02*
X4906149Y4799034D01*
X4918059Y4799034D01*
X4929970Y4787123D01*
X4929970Y4751392D01*
X4929970Y4787123D01*
X4941880Y4799034D01*
X4953790Y4787123D01*
X4953790Y4751392D01*
X4977611Y4751392D02*
X5001432Y4751392D01*
X4989522Y4751392D01*
X4989522Y4799034D01*
X4977611Y4799034D01*
X5037164Y4751392D02*
X5060985Y4751392D01*
X5049074Y4751392D01*
X5049074Y4822855D01*
X5037164Y4822855D01*
X4632207Y4667972D02*
X4644118Y4679883D01*
X4667939Y4679883D01*
X4679849Y4667972D01*
X4679849Y4620331D01*
X4667939Y4608420D01*
X4644118Y4608420D01*
X4632207Y4620331D01*
X4632207Y4667972D01*
X4703670Y4608420D02*
X4703670Y4620331D01*
X4715581Y4620331D01*
X4715581Y4608420D01*
X4703670Y4608420D01*
X4810865Y4679883D02*
X4787044Y4667972D01*
X4763223Y4644151D01*
X4763223Y4620331D01*
X4775133Y4608420D01*
X4798954Y4608420D01*
X4810865Y4620331D01*
X4810865Y4632241D01*
X4798954Y4644151D01*
X4763223Y4644151D01*
X4834686Y4620331D02*
X4846596Y4608420D01*
X4870417Y4608420D01*
X4882328Y4620331D01*
X4882328Y4667972D01*
X4870417Y4679883D01*
X4846596Y4679883D01*
X4834686Y4667972D01*
X4834686Y4656062D01*
X4846596Y4644151D01*
X4882328Y4644151D01*
X4906149Y4608420D02*
X4906149Y4656062D01*
X4918059Y4656062D01*
X4929970Y4644151D01*
X4929970Y4608420D01*
X4929970Y4644151D01*
X4941880Y4656062D01*
X4953790Y4644151D01*
X4953790Y4608420D01*
X4977611Y4608420D02*
X5001432Y4608420D01*
X4989522Y4608420D01*
X4989522Y4656062D01*
X4977611Y4656062D01*
X5037164Y4608420D02*
X5060985Y4608420D01*
X5049074Y4608420D01*
X5049074Y4679883D01*
X5037164Y4679883D01*
X4632207Y4525001D02*
X4644118Y4536911D01*
X4667939Y4536911D01*
X4679849Y4525001D01*
X4679849Y4513090D01*
X4667939Y4501180D01*
X4679849Y4489269D01*
X4679849Y4477359D01*
X4667939Y4465448D01*
X4644118Y4465448D01*
X4632207Y4477359D01*
X4632207Y4489269D01*
X4644118Y4501180D01*
X4632207Y4513090D01*
X4632207Y4525001D01*
X4644118Y4501180D02*
X4667939Y4501180D01*
X4703670Y4465448D02*
X4703670Y4477359D01*
X4715581Y4477359D01*
X4715581Y4465448D01*
X4703670Y4465448D01*
X4763223Y4525001D02*
X4775133Y4536911D01*
X4798954Y4536911D01*
X4810865Y4525001D01*
X4810865Y4477359D01*
X4798954Y4465448D01*
X4775133Y4465448D01*
X4763223Y4477359D01*
X4763223Y4525001D01*
X4834686Y4525001D02*
X4846596Y4536911D01*
X4870417Y4536911D01*
X4882328Y4525001D01*
X4882328Y4477359D01*
X4870417Y4465448D01*
X4846596Y4465448D01*
X4834686Y4477359D01*
X4834686Y4525001D01*
X4906149Y4465448D02*
X4906149Y4513090D01*
X4918059Y4513090D01*
X4929970Y4501180D01*
X4929970Y4465448D01*
X4929970Y4501180D01*
X4941880Y4513090D01*
X4953790Y4501180D01*
X4953790Y4465448D01*
X4977611Y4465448D02*
X5001432Y4465448D01*
X4989522Y4465448D01*
X4989522Y4513090D01*
X4977611Y4513090D01*
X5037164Y4465448D02*
X5060985Y4465448D01*
X5049074Y4465448D01*
X5049074Y4536911D01*
X5037164Y4536911D01*
X4632207Y4382029D02*
X4644118Y4393939D01*
X4667939Y4393939D01*
X4679849Y4382029D01*
X4679849Y4334387D01*
X4667939Y4322476D01*
X4644118Y4322476D01*
X4632207Y4334387D01*
X4632207Y4382029D01*
X4703670Y4322476D02*
X4703670Y4334387D01*
X4715581Y4334387D01*
X4715581Y4322476D01*
X4703670Y4322476D01*
X4810865Y4393939D02*
X4787044Y4382029D01*
X4763223Y4358208D01*
X4763223Y4334387D01*
X4775133Y4322476D01*
X4798954Y4322476D01*
X4810865Y4334387D01*
X4810865Y4346297D01*
X4798954Y4358208D01*
X4763223Y4358208D01*
X4834686Y4334387D02*
X4846596Y4322476D01*
X4870417Y4322476D01*
X4882328Y4334387D01*
X4882328Y4382029D01*
X4870417Y4393939D01*
X4846596Y4393939D01*
X4834686Y4382029D01*
X4834686Y4370118D01*
X4846596Y4358208D01*
X4882328Y4358208D01*
X4906149Y4322476D02*
X4906149Y4370118D01*
X4918059Y4370118D01*
X4929970Y4358208D01*
X4929970Y4322476D01*
X4929970Y4358208D01*
X4941880Y4370118D01*
X4953790Y4358208D01*
X4953790Y4322476D01*
X4977611Y4322476D02*
X5001432Y4322476D01*
X4989522Y4322476D01*
X4989522Y4370118D01*
X4977611Y4370118D01*
X5037164Y4322476D02*
X5060985Y4322476D01*
X5049074Y4322476D01*
X5049074Y4393939D01*
X5037164Y4393939D01*
X4679849Y4179504D02*
X4632207Y4179504D01*
X4679849Y4227146D01*
X4679849Y4239056D01*
X4667939Y4250967D01*
X4644118Y4250967D01*
X4632207Y4239056D01*
X4703670Y4179504D02*
X4703670Y4191415D01*
X4715581Y4191415D01*
X4715581Y4179504D01*
X4703670Y4179504D01*
X4763223Y4239056D02*
X4775133Y4250967D01*
X4798954Y4250967D01*
X4810865Y4239056D01*
X4810865Y4227146D01*
X4798954Y4215235D01*
X4787044Y4215235D01*
X4798954Y4215235D01*
X4810865Y4203325D01*
X4810865Y4191415D01*
X4798954Y4179504D01*
X4775133Y4179504D01*
X4763223Y4191415D01*
X4834686Y4239056D02*
X4846596Y4250967D01*
X4870417Y4250967D01*
X4882328Y4239056D01*
X4882328Y4191415D01*
X4870417Y4179504D01*
X4846596Y4179504D01*
X4834686Y4191415D01*
X4834686Y4239056D01*
X4906149Y4179504D02*
X4906149Y4227146D01*
X4918059Y4227146D01*
X4929970Y4215235D01*
X4929970Y4179504D01*
X4929970Y4215235D01*
X4941880Y4227146D01*
X4953790Y4215235D01*
X4953790Y4179504D01*
X4977611Y4179504D02*
X5001432Y4179504D01*
X4989522Y4179504D01*
X4989522Y4227146D01*
X4977611Y4227146D01*
X5037164Y4179504D02*
X5060985Y4179504D01*
X5049074Y4179504D01*
X5049074Y4250967D01*
X5037164Y4250967D01*
X4632207Y4096084D02*
X4644118Y4107995D01*
X4667939Y4107995D01*
X4679849Y4096084D01*
X4679849Y4048443D01*
X4667939Y4036532D01*
X4644118Y4036532D01*
X4632207Y4048443D01*
X4632207Y4096084D01*
X4703670Y4036532D02*
X4703670Y4048443D01*
X4715581Y4048443D01*
X4715581Y4036532D01*
X4703670Y4036532D01*
X4810865Y4107995D02*
X4787044Y4096084D01*
X4763223Y4072264D01*
X4763223Y4048443D01*
X4775133Y4036532D01*
X4798954Y4036532D01*
X4810865Y4048443D01*
X4810865Y4060353D01*
X4798954Y4072264D01*
X4763223Y4072264D01*
X4834686Y4048443D02*
X4846596Y4036532D01*
X4870417Y4036532D01*
X4882328Y4048443D01*
X4882328Y4096084D01*
X4870417Y4107995D01*
X4846596Y4107995D01*
X4834686Y4096084D01*
X4834686Y4084174D01*
X4846596Y4072264D01*
X4882328Y4072264D01*
X4906149Y4036532D02*
X4906149Y4084174D01*
X4918059Y4084174D01*
X4929970Y4072264D01*
X4929970Y4036532D01*
X4929970Y4072264D01*
X4941880Y4084174D01*
X4953790Y4072264D01*
X4953790Y4036532D01*
X4977611Y4036532D02*
X5001432Y4036532D01*
X4989522Y4036532D01*
X4989522Y4084174D01*
X4977611Y4084174D01*
X5037164Y4036532D02*
X5060985Y4036532D01*
X5049074Y4036532D01*
X5049074Y4107995D01*
X5037164Y4107995D01*
X4679849Y3965023D02*
X4632207Y3965023D01*
X4632207Y3929291D01*
X4656028Y3941202D01*
X4667939Y3941202D01*
X4679849Y3929291D01*
X4679849Y3905471D01*
X4667939Y3893560D01*
X4644118Y3893560D01*
X4632207Y3905471D01*
X4703670Y3893560D02*
X4703670Y3905471D01*
X4715581Y3905471D01*
X4715581Y3893560D01*
X4703670Y3893560D01*
X4763223Y3953113D02*
X4775133Y3965023D01*
X4798954Y3965023D01*
X4810865Y3953113D01*
X4810865Y3905471D01*
X4798954Y3893560D01*
X4775133Y3893560D01*
X4763223Y3905471D01*
X4763223Y3953113D01*
X4834686Y3953113D02*
X4846596Y3965023D01*
X4870417Y3965023D01*
X4882328Y3953113D01*
X4882328Y3905471D01*
X4870417Y3893560D01*
X4846596Y3893560D01*
X4834686Y3905471D01*
X4834686Y3953113D01*
X4906149Y3893560D02*
X4906149Y3941202D01*
X4918059Y3941202D01*
X4929970Y3929291D01*
X4929970Y3893560D01*
X4929970Y3929291D01*
X4941880Y3941202D01*
X4953790Y3929291D01*
X4953790Y3893560D01*
X4977611Y3893560D02*
X5001432Y3893560D01*
X4989522Y3893560D01*
X4989522Y3941202D01*
X4977611Y3941202D01*
X5037164Y3893560D02*
X5060985Y3893560D01*
X5049074Y3893560D01*
X5049074Y3965023D01*
X5037164Y3965023D01*
X4632207Y3810140D02*
X4644118Y3822051D01*
X4667939Y3822051D01*
X4679849Y3810140D01*
X4679849Y3762499D01*
X4667939Y3750588D01*
X4644118Y3750588D01*
X4632207Y3762499D01*
X4632207Y3810140D01*
X4703670Y3750588D02*
X4703670Y3762499D01*
X4715581Y3762499D01*
X4715581Y3750588D01*
X4703670Y3750588D01*
X4763223Y3810140D02*
X4775133Y3822051D01*
X4798954Y3822051D01*
X4810865Y3810140D01*
X4810865Y3798230D01*
X4798954Y3786320D01*
X4787044Y3786320D01*
X4798954Y3786320D01*
X4810865Y3774409D01*
X4810865Y3762499D01*
X4798954Y3750588D01*
X4775133Y3750588D01*
X4763223Y3762499D01*
X4882328Y3822051D02*
X4834686Y3822051D01*
X4834686Y3786320D01*
X4858507Y3798230D01*
X4870417Y3798230D01*
X4882328Y3786320D01*
X4882328Y3762499D01*
X4870417Y3750588D01*
X4846596Y3750588D01*
X4834686Y3762499D01*
X4906149Y3750588D02*
X4906149Y3798230D01*
X4918059Y3798230D01*
X4929970Y3786320D01*
X4929970Y3750588D01*
X4929970Y3786320D01*
X4941880Y3798230D01*
X4953790Y3786320D01*
X4953790Y3750588D01*
X4977611Y3750588D02*
X5001432Y3750588D01*
X4989522Y3750588D01*
X4989522Y3798230D01*
X4977611Y3798230D01*
X5037164Y3750588D02*
X5060985Y3750588D01*
X5049074Y3750588D01*
X5049074Y3822051D01*
X5037164Y3822051D01*
X4632207Y3667169D02*
X4644118Y3679079D01*
X4667939Y3679079D01*
X4679849Y3667169D01*
X4679849Y3619527D01*
X4667939Y3607616D01*
X4644118Y3607616D01*
X4632207Y3619527D01*
X4632207Y3667169D01*
X4703670Y3607616D02*
X4703670Y3619527D01*
X4715581Y3619527D01*
X4715581Y3607616D01*
X4703670Y3607616D01*
X4798954Y3607616D02*
X4798954Y3679079D01*
X4763223Y3643347D01*
X4810865Y3643347D01*
X4834686Y3667169D02*
X4846596Y3679079D01*
X4870417Y3679079D01*
X4882328Y3667169D01*
X4882328Y3619527D01*
X4870417Y3607616D01*
X4846596Y3607616D01*
X4834686Y3619527D01*
X4834686Y3667169D01*
X4906149Y3607616D02*
X4906149Y3655258D01*
X4918059Y3655258D01*
X4929970Y3643347D01*
X4929970Y3607616D01*
X4929970Y3643347D01*
X4941880Y3655258D01*
X4953790Y3643347D01*
X4953790Y3607616D01*
X4977611Y3607616D02*
X5001432Y3607616D01*
X4989522Y3607616D01*
X4989522Y3655258D01*
X4977611Y3655258D01*
X5037164Y3607616D02*
X5060985Y3607616D01*
X5049074Y3607616D01*
X5049074Y3679079D01*
X5037164Y3679079D01*
X4632207Y5680687D02*
X4679849Y5680687D01*
X4656028Y5680687D01*
X4656028Y5609224D01*
X4703670Y5680687D02*
X4703670Y5609224D01*
X4703670Y5644956D01*
X4715581Y5656866D01*
X4739402Y5656866D01*
X4751312Y5644956D01*
X4751312Y5609224D01*
X4775133Y5609224D02*
X4798954Y5609224D01*
X4787044Y5609224D01*
X4787044Y5656866D01*
X4775133Y5656866D01*
X4882328Y5656866D02*
X4846596Y5656866D01*
X4834686Y5644956D01*
X4834686Y5621135D01*
X4846596Y5609224D01*
X4882328Y5609224D01*
X4906149Y5609224D02*
X4906149Y5680687D01*
X4906149Y5633045D02*
X4941880Y5656866D01*
X4906149Y5633045D02*
X4941880Y5609224D01*
X4977611Y5609224D02*
X4977611Y5656866D01*
X5013343Y5656866D01*
X5025253Y5644956D01*
X5025253Y5609224D01*
X5084806Y5609224D02*
X5060985Y5609224D01*
X5049074Y5621135D01*
X5049074Y5644956D01*
X5060985Y5656866D01*
X5084806Y5656866D01*
X5096716Y5644956D01*
X5096716Y5633045D01*
X5049074Y5633045D01*
X5120537Y5609224D02*
X5156269Y5609224D01*
X5168179Y5621135D01*
X5156269Y5633045D01*
X5132448Y5633045D01*
X5120537Y5644956D01*
X5132448Y5656866D01*
X5168179Y5656866D01*
X5192000Y5609224D02*
X5227731Y5609224D01*
X5239642Y5621135D01*
X5227731Y5633045D01*
X5203911Y5633045D01*
X5192000Y5644956D01*
X5203911Y5656866D01*
X5239642Y5656866D01*
X3623591Y5382833D02*
X3611681Y5394743D01*
X3587860Y5394743D01*
X3575949Y5382833D01*
X3575949Y5370922D01*
X3587860Y5359011D01*
X3611681Y5359011D01*
X3623591Y5347101D01*
X3623591Y5335191D01*
X3611681Y5323280D01*
X3587860Y5323280D01*
X3575949Y5335191D01*
X3659323Y5323280D02*
X3683144Y5323280D01*
X3695054Y5335191D01*
X3695054Y5359011D01*
X3683144Y5370922D01*
X3659323Y5370922D01*
X3647412Y5359011D01*
X3647412Y5335191D01*
X3659323Y5323280D01*
X3718875Y5323280D02*
X3742696Y5323280D01*
X3730785Y5323280D01*
X3730785Y5394743D01*
X3718875Y5394743D01*
X3826069Y5394743D02*
X3826069Y5323280D01*
X3790338Y5323280D01*
X3778427Y5335191D01*
X3778427Y5359011D01*
X3790338Y5370922D01*
X3826069Y5370922D01*
X3885622Y5323280D02*
X3861801Y5323280D01*
X3849890Y5335191D01*
X3849890Y5359011D01*
X3861801Y5370922D01*
X3885622Y5370922D01*
X3897532Y5359011D01*
X3897532Y5347101D01*
X3849890Y5347101D01*
X3921353Y5370922D02*
X3921353Y5323280D01*
X3921353Y5347101D01*
X3933264Y5359011D01*
X3945174Y5370922D01*
X3957085Y5370922D01*
X4064279Y5323280D02*
X4064279Y5394743D01*
X4100010Y5394743D01*
X4111921Y5382833D01*
X4111921Y5359011D01*
X4100010Y5347101D01*
X4064279Y5347101D01*
X4088100Y5347101D02*
X4111921Y5323280D01*
X4171473Y5323280D02*
X4147652Y5323280D01*
X4135742Y5335191D01*
X4135742Y5359011D01*
X4147652Y5370922D01*
X4171473Y5370922D01*
X4183384Y5359011D01*
X4183384Y5347101D01*
X4135742Y5347101D01*
X4207205Y5323280D02*
X4242936Y5323280D01*
X4254847Y5335191D01*
X4242936Y5347101D01*
X4219115Y5347101D01*
X4207205Y5359011D01*
X4219115Y5370922D01*
X4254847Y5370922D01*
X4278668Y5323280D02*
X4302489Y5323280D01*
X4290578Y5323280D01*
X4290578Y5370922D01*
X4278668Y5370922D01*
X4338220Y5323280D02*
X4373952Y5323280D01*
X4385862Y5335191D01*
X4373952Y5347101D01*
X4350131Y5347101D01*
X4338220Y5359011D01*
X4350131Y5370922D01*
X4385862Y5370922D01*
X4421593Y5382833D02*
X4421593Y5370922D01*
X4409683Y5370922D01*
X4433504Y5370922D01*
X4421593Y5370922D01*
X4421593Y5335191D01*
X4433504Y5323280D01*
X3575949Y5108799D02*
X3623591Y5108799D01*
X3599770Y5108799D01*
X3599770Y5037336D01*
X3659323Y5084978D02*
X3683144Y5084978D01*
X3695054Y5073068D01*
X3695054Y5037336D01*
X3659323Y5037336D01*
X3647412Y5049247D01*
X3659323Y5061157D01*
X3695054Y5061157D01*
X3766517Y5084978D02*
X3730785Y5084978D01*
X3718875Y5073068D01*
X3718875Y5049247D01*
X3730785Y5037336D01*
X3766517Y5037336D01*
X3802248Y5037336D02*
X3826069Y5037336D01*
X3837980Y5049247D01*
X3837980Y5073068D01*
X3826069Y5084978D01*
X3802248Y5084978D01*
X3790338Y5073068D01*
X3790338Y5049247D01*
X3802248Y5037336D01*
X3861801Y5037336D02*
X3861801Y5084978D01*
X3897532Y5084978D01*
X3909443Y5073068D01*
X3909443Y5037336D01*
X3933264Y5037336D02*
X3957085Y5037336D01*
X3945174Y5037336D01*
X3945174Y5084978D01*
X3933264Y5084978D01*
X4040458Y5084978D02*
X4004727Y5084978D01*
X3992816Y5073068D01*
X3992816Y5049247D01*
X4004727Y5037336D01*
X4040458Y5037336D01*
X4135742Y5108799D02*
X4183384Y5108799D01*
X4159563Y5108799D01*
X4159563Y5037336D01*
X4207205Y5108799D02*
X4207205Y5037336D01*
X4254847Y5037336D01*
X4278668Y5108799D02*
X4326310Y5037336D01*
X4326310Y5108799D02*
X4278668Y5037336D01*
X4350131Y5073068D02*
X4397773Y5073068D01*
X4421593Y5096889D02*
X4433504Y5108799D01*
X4457325Y5108799D01*
X4469235Y5096889D01*
X4469235Y5084978D01*
X4457325Y5073068D01*
X4469235Y5061157D01*
X4469235Y5049247D01*
X4457325Y5037336D01*
X4433504Y5037336D01*
X4421593Y5049247D01*
X4421593Y5061157D01*
X4433504Y5073068D01*
X4421593Y5084978D01*
X4421593Y5096889D01*
X4433504Y5073068D02*
X4457325Y5073068D01*
X3623591Y4953917D02*
X3611681Y4965827D01*
X3587860Y4965827D01*
X3575949Y4953917D01*
X3575949Y4906275D01*
X3587860Y4894364D01*
X3611681Y4894364D01*
X3623591Y4906275D01*
X3695054Y4965827D02*
X3647412Y4965827D01*
X3647412Y4930096D01*
X3671233Y4930096D01*
X3647412Y4930096D01*
X3647412Y4894364D01*
X3718875Y4930096D02*
X3766517Y4930096D01*
X3790338Y4953917D02*
X3802248Y4965827D01*
X3826069Y4965827D01*
X3837980Y4953917D01*
X3837980Y4906275D01*
X3826069Y4894364D01*
X3802248Y4894364D01*
X3790338Y4906275D01*
X3790338Y4953917D01*
X3861801Y4953917D02*
X3873711Y4965827D01*
X3897532Y4965827D01*
X3909443Y4953917D01*
X3909443Y4906275D01*
X3897532Y4894364D01*
X3873711Y4894364D01*
X3861801Y4906275D01*
X3861801Y4953917D01*
X3968995Y4894364D02*
X3968995Y4965827D01*
X3933264Y4930096D01*
X3980906Y4930096D01*
X3623591Y4822855D02*
X3575949Y4822855D01*
X3575949Y4787123D01*
X3599770Y4787123D01*
X3575949Y4787123D01*
X3575949Y4751392D01*
X3647412Y4751392D02*
X3647412Y4822855D01*
X3683144Y4822855D01*
X3695054Y4810944D01*
X3695054Y4787123D01*
X3683144Y4775213D01*
X3647412Y4775213D01*
X3671233Y4775213D02*
X3695054Y4751392D01*
X3718875Y4787123D02*
X3766517Y4787123D01*
X3826069Y4751392D02*
X3826069Y4822855D01*
X3790338Y4787123D01*
X3837980Y4787123D01*
X3623591Y4667972D02*
X3611681Y4679883D01*
X3587860Y4679883D01*
X3575949Y4667972D01*
X3575949Y4620331D01*
X3587860Y4608420D01*
X3611681Y4608420D01*
X3623591Y4620331D01*
X3695054Y4679883D02*
X3647412Y4679883D01*
X3647412Y4644151D01*
X3671233Y4644151D01*
X3647412Y4644151D01*
X3647412Y4608420D01*
X3718875Y4644151D02*
X3766517Y4644151D01*
X3790338Y4667972D02*
X3802248Y4679883D01*
X3826069Y4679883D01*
X3837980Y4667972D01*
X3837980Y4620331D01*
X3826069Y4608420D01*
X3802248Y4608420D01*
X3790338Y4620331D01*
X3790338Y4667972D01*
X3861801Y4667972D02*
X3873711Y4679883D01*
X3897532Y4679883D01*
X3909443Y4667972D01*
X3909443Y4620331D01*
X3897532Y4608420D01*
X3873711Y4608420D01*
X3861801Y4620331D01*
X3861801Y4667972D01*
X3968995Y4608420D02*
X3968995Y4679883D01*
X3933264Y4644151D01*
X3980906Y4644151D01*
X3623591Y4536911D02*
X3575949Y4536911D01*
X3575949Y4501180D01*
X3599770Y4501180D01*
X3575949Y4501180D01*
X3575949Y4465448D01*
X3647412Y4465448D02*
X3647412Y4536911D01*
X3683144Y4536911D01*
X3695054Y4525001D01*
X3695054Y4501180D01*
X3683144Y4489269D01*
X3647412Y4489269D01*
X3671233Y4489269D02*
X3695054Y4465448D01*
X3718875Y4501180D02*
X3766517Y4501180D01*
X3826069Y4465448D02*
X3826069Y4536911D01*
X3790338Y4501180D01*
X3837980Y4501180D01*
X3623591Y4382029D02*
X3611681Y4393939D01*
X3587860Y4393939D01*
X3575949Y4382029D01*
X3575949Y4334387D01*
X3587860Y4322476D01*
X3611681Y4322476D01*
X3623591Y4334387D01*
X3695054Y4393939D02*
X3647412Y4393939D01*
X3647412Y4358208D01*
X3671233Y4358208D01*
X3647412Y4358208D01*
X3647412Y4322476D01*
X3718875Y4358208D02*
X3766517Y4358208D01*
X3790338Y4382029D02*
X3802248Y4393939D01*
X3826069Y4393939D01*
X3837980Y4382029D01*
X3837980Y4334387D01*
X3826069Y4322476D01*
X3802248Y4322476D01*
X3790338Y4334387D01*
X3790338Y4382029D01*
X3861801Y4382029D02*
X3873711Y4393939D01*
X3897532Y4393939D01*
X3909443Y4382029D01*
X3909443Y4334387D01*
X3897532Y4322476D01*
X3873711Y4322476D01*
X3861801Y4334387D01*
X3861801Y4382029D01*
X3968995Y4322476D02*
X3968995Y4393939D01*
X3933264Y4358208D01*
X3980906Y4358208D01*
X3623591Y4250967D02*
X3575949Y4250967D01*
X3575949Y4215235D01*
X3599770Y4215235D01*
X3575949Y4215235D01*
X3575949Y4179504D01*
X3647412Y4179504D02*
X3647412Y4250967D01*
X3683144Y4250967D01*
X3695054Y4239056D01*
X3695054Y4215235D01*
X3683144Y4203325D01*
X3647412Y4203325D01*
X3671233Y4203325D02*
X3695054Y4179504D01*
X3718875Y4215235D02*
X3766517Y4215235D01*
X3826069Y4179504D02*
X3826069Y4250967D01*
X3790338Y4215235D01*
X3837980Y4215235D01*
X3623591Y4096084D02*
X3611681Y4107995D01*
X3587860Y4107995D01*
X3575949Y4096084D01*
X3575949Y4048443D01*
X3587860Y4036532D01*
X3611681Y4036532D01*
X3623591Y4048443D01*
X3695054Y4107995D02*
X3647412Y4107995D01*
X3647412Y4072264D01*
X3671233Y4072264D01*
X3647412Y4072264D01*
X3647412Y4036532D01*
X3718875Y4072264D02*
X3766517Y4072264D01*
X3790338Y4096084D02*
X3802248Y4107995D01*
X3826069Y4107995D01*
X3837980Y4096084D01*
X3837980Y4048443D01*
X3826069Y4036532D01*
X3802248Y4036532D01*
X3790338Y4048443D01*
X3790338Y4096084D01*
X3861801Y4096084D02*
X3873711Y4107995D01*
X3897532Y4107995D01*
X3909443Y4096084D01*
X3909443Y4048443D01*
X3897532Y4036532D01*
X3873711Y4036532D01*
X3861801Y4048443D01*
X3861801Y4096084D01*
X3968995Y4036532D02*
X3968995Y4107995D01*
X3933264Y4072264D01*
X3980906Y4072264D01*
X3575949Y3965023D02*
X3623591Y3965023D01*
X3599770Y3965023D01*
X3599770Y3893560D01*
X3659323Y3941202D02*
X3683144Y3941202D01*
X3695054Y3929291D01*
X3695054Y3893560D01*
X3659323Y3893560D01*
X3647412Y3905471D01*
X3659323Y3917381D01*
X3695054Y3917381D01*
X3766517Y3941202D02*
X3730785Y3941202D01*
X3718875Y3929291D01*
X3718875Y3905471D01*
X3730785Y3893560D01*
X3766517Y3893560D01*
X3802248Y3893560D02*
X3826069Y3893560D01*
X3837980Y3905471D01*
X3837980Y3929291D01*
X3826069Y3941202D01*
X3802248Y3941202D01*
X3790338Y3929291D01*
X3790338Y3905471D01*
X3802248Y3893560D01*
X3861801Y3893560D02*
X3861801Y3941202D01*
X3897532Y3941202D01*
X3909443Y3929291D01*
X3909443Y3893560D01*
X3933264Y3893560D02*
X3957085Y3893560D01*
X3945174Y3893560D01*
X3945174Y3941202D01*
X3933264Y3941202D01*
X4040458Y3941202D02*
X4004727Y3941202D01*
X3992816Y3929291D01*
X3992816Y3905471D01*
X4004727Y3893560D01*
X4040458Y3893560D01*
X4135742Y3965023D02*
X4183384Y3965023D01*
X4159563Y3965023D01*
X4159563Y3893560D01*
X4207205Y3965023D02*
X4207205Y3893560D01*
X4254847Y3893560D01*
X4278668Y3965023D02*
X4326310Y3893560D01*
X4326310Y3965023D02*
X4278668Y3893560D01*
X4350131Y3929291D02*
X4397773Y3929291D01*
X4421593Y3953113D02*
X4433504Y3965023D01*
X4457325Y3965023D01*
X4469235Y3953113D01*
X4469235Y3941202D01*
X4457325Y3929291D01*
X4469235Y3917381D01*
X4469235Y3905471D01*
X4457325Y3893560D01*
X4433504Y3893560D01*
X4421593Y3905471D01*
X4421593Y3917381D01*
X4433504Y3929291D01*
X4421593Y3941202D01*
X4421593Y3953113D01*
X4433504Y3929291D02*
X4457325Y3929291D01*
X3623591Y3667169D02*
X3611681Y3679079D01*
X3587860Y3679079D01*
X3575949Y3667169D01*
X3575949Y3655258D01*
X3587860Y3643347D01*
X3611681Y3643347D01*
X3623591Y3631437D01*
X3623591Y3619527D01*
X3611681Y3607616D01*
X3587860Y3607616D01*
X3575949Y3619527D01*
X3659323Y3607616D02*
X3683144Y3607616D01*
X3695054Y3619527D01*
X3695054Y3643347D01*
X3683144Y3655258D01*
X3659323Y3655258D01*
X3647412Y3643347D01*
X3647412Y3619527D01*
X3659323Y3607616D01*
X3718875Y3607616D02*
X3742696Y3607616D01*
X3730785Y3607616D01*
X3730785Y3679079D01*
X3718875Y3679079D01*
X3826069Y3679079D02*
X3826069Y3607616D01*
X3790338Y3607616D01*
X3778427Y3619527D01*
X3778427Y3643347D01*
X3790338Y3655258D01*
X3826069Y3655258D01*
X3885622Y3607616D02*
X3861801Y3607616D01*
X3849890Y3619527D01*
X3849890Y3643347D01*
X3861801Y3655258D01*
X3885622Y3655258D01*
X3897532Y3643347D01*
X3897532Y3631437D01*
X3849890Y3631437D01*
X3921353Y3655258D02*
X3921353Y3607616D01*
X3921353Y3631437D01*
X3933264Y3643347D01*
X3945174Y3655258D01*
X3957085Y3655258D01*
X4064279Y3607616D02*
X4064279Y3679079D01*
X4100010Y3679079D01*
X4111921Y3667169D01*
X4111921Y3643347D01*
X4100010Y3631437D01*
X4064279Y3631437D01*
X4088100Y3631437D02*
X4111921Y3607616D01*
X4171473Y3607616D02*
X4147652Y3607616D01*
X4135742Y3619527D01*
X4135742Y3643347D01*
X4147652Y3655258D01*
X4171473Y3655258D01*
X4183384Y3643347D01*
X4183384Y3631437D01*
X4135742Y3631437D01*
X4207205Y3607616D02*
X4242936Y3607616D01*
X4254847Y3619527D01*
X4242936Y3631437D01*
X4219115Y3631437D01*
X4207205Y3643347D01*
X4219115Y3655258D01*
X4254847Y3655258D01*
X4278668Y3607616D02*
X4302489Y3607616D01*
X4290578Y3607616D01*
X4290578Y3655258D01*
X4278668Y3655258D01*
X4338220Y3607616D02*
X4373952Y3607616D01*
X4385862Y3619527D01*
X4373952Y3631437D01*
X4350131Y3631437D01*
X4338220Y3643347D01*
X4350131Y3655258D01*
X4385862Y3655258D01*
X4421593Y3667169D02*
X4421593Y3655258D01*
X4409683Y3655258D01*
X4433504Y3655258D01*
X4421593Y3655258D01*
X4421593Y3619527D01*
X4433504Y3607616D01*
X3575949Y5609224D02*
X3575949Y5680687D01*
X3599770Y5656866D01*
X3623591Y5680687D01*
X3623591Y5609224D01*
X3659323Y5656866D02*
X3683144Y5656866D01*
X3695054Y5644956D01*
X3695054Y5609224D01*
X3659323Y5609224D01*
X3647412Y5621135D01*
X3659323Y5633045D01*
X3695054Y5633045D01*
X3730785Y5668776D02*
X3730785Y5656866D01*
X3718875Y5656866D01*
X3742696Y5656866D01*
X3730785Y5656866D01*
X3730785Y5621135D01*
X3742696Y5609224D01*
X3814159Y5609224D02*
X3790338Y5609224D01*
X3778427Y5621135D01*
X3778427Y5644956D01*
X3790338Y5656866D01*
X3814159Y5656866D01*
X3826069Y5644956D01*
X3826069Y5633045D01*
X3778427Y5633045D01*
X3849890Y5656866D02*
X3849890Y5609224D01*
X3849890Y5633045D01*
X3861801Y5644956D01*
X3873711Y5656866D01*
X3885622Y5656866D01*
X3921353Y5609224D02*
X3945174Y5609224D01*
X3933264Y5609224D01*
X3933264Y5656866D01*
X3921353Y5656866D01*
X3992816Y5656866D02*
X4016637Y5656866D01*
X4028548Y5644956D01*
X4028548Y5609224D01*
X3992816Y5609224D01*
X3980906Y5621135D01*
X3992816Y5633045D01*
X4028548Y5633045D01*
X4052369Y5609224D02*
X4076189Y5609224D01*
X4064279Y5609224D01*
X4064279Y5680687D01*
X4052369Y5680687D01*
X2472049Y5537715D02*
X2519691Y5537715D01*
X2495870Y5537715D01*
X2495870Y5466252D01*
X2555423Y5466252D02*
X2579243Y5466252D01*
X2591154Y5478163D01*
X2591154Y5501984D01*
X2579243Y5513894D01*
X2555423Y5513894D01*
X2543512Y5501984D01*
X2543512Y5478163D01*
X2555423Y5466252D01*
X2614975Y5442431D02*
X2614975Y5513894D01*
X2650706Y5513894D01*
X2662617Y5501984D01*
X2662617Y5478163D01*
X2650706Y5466252D01*
X2614975Y5466252D01*
X2793632Y5537715D02*
X2769811Y5537715D01*
X2757901Y5525805D01*
X2757901Y5478163D01*
X2769811Y5466252D01*
X2793632Y5466252D01*
X2805543Y5478163D01*
X2805543Y5525805D01*
X2793632Y5537715D01*
X2829364Y5513894D02*
X2853185Y5466252D01*
X2877006Y5513894D01*
X2936558Y5466252D02*
X2912737Y5466252D01*
X2900827Y5478163D01*
X2900827Y5501984D01*
X2912737Y5513894D01*
X2936558Y5513894D01*
X2948468Y5501984D01*
X2948468Y5490073D01*
X2900827Y5490073D01*
X2972289Y5513894D02*
X2972289Y5466252D01*
X2972289Y5490073D01*
X2984200Y5501984D01*
X2996110Y5513894D01*
X3008021Y5513894D01*
X3043752Y5466252D02*
X3067573Y5466252D01*
X3055663Y5466252D01*
X3055663Y5537715D01*
X3043752Y5537715D01*
X3115215Y5513894D02*
X3139036Y5513894D01*
X3150947Y5501984D01*
X3150947Y5466252D01*
X3115215Y5466252D01*
X3103305Y5478163D01*
X3115215Y5490073D01*
X3150947Y5490073D01*
X3174768Y5513894D02*
X3174768Y5478163D01*
X3186678Y5466252D01*
X3222410Y5466252D01*
X3222410Y5454342D01*
X3210499Y5442431D01*
X3198589Y5442431D01*
X3222410Y5466252D02*
X3222410Y5513894D01*
X2472049Y5394743D02*
X2519691Y5394743D01*
X2495870Y5394743D01*
X2495870Y5323280D01*
X2555423Y5323280D02*
X2579243Y5323280D01*
X2591154Y5335191D01*
X2591154Y5359011D01*
X2579243Y5370922D01*
X2555423Y5370922D01*
X2543512Y5359011D01*
X2543512Y5335191D01*
X2555423Y5323280D01*
X2614975Y5299459D02*
X2614975Y5370922D01*
X2650706Y5370922D01*
X2662617Y5359011D01*
X2662617Y5335191D01*
X2650706Y5323280D01*
X2614975Y5323280D01*
X2805543Y5382833D02*
X2793632Y5394743D01*
X2769811Y5394743D01*
X2757901Y5382833D01*
X2757901Y5370922D01*
X2769811Y5359011D01*
X2793632Y5359011D01*
X2805543Y5347101D01*
X2805543Y5335191D01*
X2793632Y5323280D01*
X2769811Y5323280D01*
X2757901Y5335191D01*
X2841274Y5323280D02*
X2865095Y5323280D01*
X2877006Y5335191D01*
X2877006Y5359011D01*
X2865095Y5370922D01*
X2841274Y5370922D01*
X2829364Y5359011D01*
X2829364Y5335191D01*
X2841274Y5323280D01*
X2900827Y5323280D02*
X2924648Y5323280D01*
X2912737Y5323280D01*
X2912737Y5394743D01*
X2900827Y5394743D01*
X3008021Y5394743D02*
X3008021Y5323280D01*
X2972289Y5323280D01*
X2960379Y5335191D01*
X2960379Y5359011D01*
X2972289Y5370922D01*
X3008021Y5370922D01*
X3067573Y5323280D02*
X3043752Y5323280D01*
X3031842Y5335191D01*
X3031842Y5359011D01*
X3043752Y5370922D01*
X3067573Y5370922D01*
X3079484Y5359011D01*
X3079484Y5347101D01*
X3031842Y5347101D01*
X3103305Y5370922D02*
X3103305Y5323280D01*
X3103305Y5347101D01*
X3115215Y5359011D01*
X3127126Y5370922D01*
X3139036Y5370922D01*
X2472049Y5251771D02*
X2519691Y5251771D01*
X2495870Y5251771D01*
X2495870Y5180308D01*
X2555423Y5180308D02*
X2579243Y5180308D01*
X2591154Y5192219D01*
X2591154Y5216039D01*
X2579243Y5227950D01*
X2555423Y5227950D01*
X2543512Y5216039D01*
X2543512Y5192219D01*
X2555423Y5180308D01*
X2614975Y5156487D02*
X2614975Y5227950D01*
X2650706Y5227950D01*
X2662617Y5216039D01*
X2662617Y5192219D01*
X2650706Y5180308D01*
X2614975Y5180308D01*
X2757901Y5251771D02*
X2757901Y5180308D01*
X2805543Y5180308D01*
X2841274Y5227950D02*
X2865095Y5227950D01*
X2877006Y5216039D01*
X2877006Y5180308D01*
X2841274Y5180308D01*
X2829364Y5192219D01*
X2841274Y5204129D01*
X2877006Y5204129D01*
X2900827Y5227950D02*
X2900827Y5192219D01*
X2912737Y5180308D01*
X2948468Y5180308D01*
X2948468Y5168398D01*
X2936558Y5156487D01*
X2924648Y5156487D01*
X2948468Y5180308D02*
X2948468Y5227950D01*
X3008021Y5180308D02*
X2984200Y5180308D01*
X2972289Y5192219D01*
X2972289Y5216039D01*
X2984200Y5227950D01*
X3008021Y5227950D01*
X3019931Y5216039D01*
X3019931Y5204129D01*
X2972289Y5204129D01*
X3043752Y5227950D02*
X3043752Y5180308D01*
X3043752Y5204129D01*
X3055663Y5216039D01*
X3067573Y5227950D01*
X3079484Y5227950D01*
X2472049Y5108799D02*
X2472049Y5037336D01*
X2507780Y5037336D01*
X2519691Y5049247D01*
X2519691Y5096889D01*
X2507780Y5108799D01*
X2472049Y5108799D01*
X2543512Y5037336D02*
X2567333Y5037336D01*
X2555423Y5037336D01*
X2555423Y5084978D01*
X2543512Y5084978D01*
X2638796Y5037336D02*
X2614975Y5037336D01*
X2603064Y5049247D01*
X2603064Y5073068D01*
X2614975Y5084978D01*
X2638796Y5084978D01*
X2650706Y5073068D01*
X2650706Y5061157D01*
X2603064Y5061157D01*
X2674527Y5037336D02*
X2698348Y5037336D01*
X2686438Y5037336D01*
X2686438Y5108799D01*
X2674527Y5108799D01*
X2769811Y5037336D02*
X2745990Y5037336D01*
X2734080Y5049247D01*
X2734080Y5073068D01*
X2745990Y5084978D01*
X2769811Y5084978D01*
X2781722Y5073068D01*
X2781722Y5061157D01*
X2734080Y5061157D01*
X2853184Y5084978D02*
X2817453Y5084978D01*
X2805543Y5073068D01*
X2805543Y5049247D01*
X2817453Y5037336D01*
X2853184Y5037336D01*
X2888916Y5096889D02*
X2888916Y5084978D01*
X2877006Y5084978D01*
X2900827Y5084978D01*
X2888916Y5084978D01*
X2888916Y5049247D01*
X2900827Y5037336D01*
X2936558Y5084978D02*
X2936558Y5037336D01*
X2936558Y5061157D01*
X2948468Y5073068D01*
X2960379Y5084978D01*
X2972289Y5084978D01*
X3008021Y5037336D02*
X3031842Y5037336D01*
X3019931Y5037336D01*
X3019931Y5084978D01*
X3008021Y5084978D01*
X3115215Y5084978D02*
X3079484Y5084978D01*
X3067573Y5073068D01*
X3067573Y5049247D01*
X3079484Y5037336D01*
X3115215Y5037336D01*
X3210499Y5037336D02*
X3234320Y5037336D01*
X3222410Y5037336D01*
X3222410Y5108799D01*
X3210499Y5096889D01*
X2472049Y4965827D02*
X2472049Y4894364D01*
X2519691Y4894364D01*
X2555423Y4942006D02*
X2579243Y4942006D01*
X2591154Y4930096D01*
X2591154Y4894364D01*
X2555423Y4894364D01*
X2543512Y4906275D01*
X2555423Y4918185D01*
X2591154Y4918185D01*
X2614975Y4942006D02*
X2614975Y4906275D01*
X2626885Y4894364D01*
X2662617Y4894364D01*
X2662617Y4882454D01*
X2650706Y4870543D01*
X2638796Y4870543D01*
X2662617Y4894364D02*
X2662617Y4942006D01*
X2722169Y4894364D02*
X2698348Y4894364D01*
X2686438Y4906275D01*
X2686438Y4930096D01*
X2698348Y4942006D01*
X2722169Y4942006D01*
X2734080Y4930096D01*
X2734080Y4918185D01*
X2686438Y4918185D01*
X2757901Y4942006D02*
X2757901Y4894364D01*
X2757901Y4918185D01*
X2769811Y4930096D01*
X2781722Y4942006D01*
X2793632Y4942006D01*
X2900827Y4894364D02*
X2924648Y4894364D01*
X2912737Y4894364D01*
X2912737Y4965827D01*
X2900827Y4953917D01*
X2472049Y4822855D02*
X2472049Y4751392D01*
X2507780Y4751392D01*
X2519691Y4763303D01*
X2519691Y4810944D01*
X2507780Y4822855D01*
X2472049Y4822855D01*
X2543512Y4751392D02*
X2567333Y4751392D01*
X2555423Y4751392D01*
X2555423Y4799034D01*
X2543512Y4799034D01*
X2638796Y4751392D02*
X2614975Y4751392D01*
X2603064Y4763303D01*
X2603064Y4787123D01*
X2614975Y4799034D01*
X2638796Y4799034D01*
X2650706Y4787123D01*
X2650706Y4775213D01*
X2603064Y4775213D01*
X2674527Y4751392D02*
X2698348Y4751392D01*
X2686438Y4751392D01*
X2686438Y4822855D01*
X2674527Y4822855D01*
X2769811Y4751392D02*
X2745990Y4751392D01*
X2734080Y4763303D01*
X2734080Y4787123D01*
X2745990Y4799034D01*
X2769811Y4799034D01*
X2781722Y4787123D01*
X2781722Y4775213D01*
X2734080Y4775213D01*
X2853184Y4799034D02*
X2817453Y4799034D01*
X2805543Y4787123D01*
X2805543Y4763303D01*
X2817453Y4751392D01*
X2853184Y4751392D01*
X2888916Y4810944D02*
X2888916Y4799034D01*
X2877006Y4799034D01*
X2900827Y4799034D01*
X2888916Y4799034D01*
X2888916Y4763303D01*
X2900827Y4751392D01*
X2936558Y4799034D02*
X2936558Y4751392D01*
X2936558Y4775213D01*
X2948468Y4787123D01*
X2960379Y4799034D01*
X2972289Y4799034D01*
X3008021Y4751392D02*
X3031842Y4751392D01*
X3019931Y4751392D01*
X3019931Y4799034D01*
X3008021Y4799034D01*
X3115215Y4799034D02*
X3079484Y4799034D01*
X3067573Y4787123D01*
X3067573Y4763303D01*
X3079484Y4751392D01*
X3115215Y4751392D01*
X3258141Y4751392D02*
X3210499Y4751392D01*
X3258141Y4799034D01*
X3258141Y4810944D01*
X3246230Y4822855D01*
X3222410Y4822855D01*
X3210499Y4810944D01*
X2472049Y4679883D02*
X2472049Y4608420D01*
X2519691Y4608420D01*
X2555423Y4656062D02*
X2579243Y4656062D01*
X2591154Y4644151D01*
X2591154Y4608420D01*
X2555423Y4608420D01*
X2543512Y4620331D01*
X2555423Y4632241D01*
X2591154Y4632241D01*
X2614975Y4656062D02*
X2614975Y4620331D01*
X2626885Y4608420D01*
X2662617Y4608420D01*
X2662617Y4596510D01*
X2650706Y4584599D01*
X2638796Y4584599D01*
X2662617Y4608420D02*
X2662617Y4656062D01*
X2722169Y4608420D02*
X2698348Y4608420D01*
X2686438Y4620331D01*
X2686438Y4644151D01*
X2698348Y4656062D01*
X2722169Y4656062D01*
X2734080Y4644151D01*
X2734080Y4632241D01*
X2686438Y4632241D01*
X2757901Y4656062D02*
X2757901Y4608420D01*
X2757901Y4632241D01*
X2769811Y4644151D01*
X2781722Y4656062D01*
X2793632Y4656062D01*
X2948468Y4608420D02*
X2900827Y4608420D01*
X2948468Y4656062D01*
X2948468Y4667972D01*
X2936558Y4679883D01*
X2912737Y4679883D01*
X2900827Y4667972D01*
X2472049Y4536911D02*
X2472049Y4465448D01*
X2507780Y4465448D01*
X2519691Y4477359D01*
X2519691Y4525001D01*
X2507780Y4536911D01*
X2472049Y4536911D01*
X2543512Y4465448D02*
X2567333Y4465448D01*
X2555423Y4465448D01*
X2555423Y4513090D01*
X2543512Y4513090D01*
X2638796Y4465448D02*
X2614975Y4465448D01*
X2603064Y4477359D01*
X2603064Y4501180D01*
X2614975Y4513090D01*
X2638796Y4513090D01*
X2650706Y4501180D01*
X2650706Y4489269D01*
X2603064Y4489269D01*
X2674527Y4465448D02*
X2698348Y4465448D01*
X2686438Y4465448D01*
X2686438Y4536911D01*
X2674527Y4536911D01*
X2769811Y4465448D02*
X2745990Y4465448D01*
X2734080Y4477359D01*
X2734080Y4501180D01*
X2745990Y4513090D01*
X2769811Y4513090D01*
X2781722Y4501180D01*
X2781722Y4489269D01*
X2734080Y4489269D01*
X2853184Y4513090D02*
X2817453Y4513090D01*
X2805543Y4501180D01*
X2805543Y4477359D01*
X2817453Y4465448D01*
X2853184Y4465448D01*
X2888916Y4525001D02*
X2888916Y4513090D01*
X2877006Y4513090D01*
X2900827Y4513090D01*
X2888916Y4513090D01*
X2888916Y4477359D01*
X2900827Y4465448D01*
X2936558Y4513090D02*
X2936558Y4465448D01*
X2936558Y4489269D01*
X2948468Y4501180D01*
X2960379Y4513090D01*
X2972289Y4513090D01*
X3008021Y4465448D02*
X3031842Y4465448D01*
X3019931Y4465448D01*
X3019931Y4513090D01*
X3008021Y4513090D01*
X3115215Y4513090D02*
X3079484Y4513090D01*
X3067573Y4501180D01*
X3067573Y4477359D01*
X3079484Y4465448D01*
X3115215Y4465448D01*
X3210499Y4525001D02*
X3222410Y4536911D01*
X3246230Y4536911D01*
X3258141Y4525001D01*
X3258141Y4513090D01*
X3246230Y4501180D01*
X3234320Y4501180D01*
X3246230Y4501180D01*
X3258141Y4489269D01*
X3258141Y4477359D01*
X3246230Y4465448D01*
X3222410Y4465448D01*
X3210499Y4477359D01*
X2472049Y4393939D02*
X2472049Y4322476D01*
X2519691Y4322476D01*
X2555423Y4370118D02*
X2579243Y4370118D01*
X2591154Y4358208D01*
X2591154Y4322476D01*
X2555423Y4322476D01*
X2543512Y4334387D01*
X2555423Y4346297D01*
X2591154Y4346297D01*
X2614975Y4370118D02*
X2614975Y4334387D01*
X2626885Y4322476D01*
X2662617Y4322476D01*
X2662617Y4310566D01*
X2650706Y4298655D01*
X2638796Y4298655D01*
X2662617Y4322476D02*
X2662617Y4370118D01*
X2722169Y4322476D02*
X2698348Y4322476D01*
X2686438Y4334387D01*
X2686438Y4358208D01*
X2698348Y4370118D01*
X2722169Y4370118D01*
X2734080Y4358208D01*
X2734080Y4346297D01*
X2686438Y4346297D01*
X2757901Y4370118D02*
X2757901Y4322476D01*
X2757901Y4346297D01*
X2769811Y4358208D01*
X2781722Y4370118D01*
X2793632Y4370118D01*
X2900827Y4382029D02*
X2912737Y4393939D01*
X2936558Y4393939D01*
X2948468Y4382029D01*
X2948468Y4370118D01*
X2936558Y4358208D01*
X2924648Y4358208D01*
X2936558Y4358208D01*
X2948468Y4346297D01*
X2948468Y4334387D01*
X2936558Y4322476D01*
X2912737Y4322476D01*
X2900827Y4334387D01*
X2472049Y4250967D02*
X2472049Y4179504D01*
X2507780Y4179504D01*
X2519691Y4191415D01*
X2519691Y4239056D01*
X2507780Y4250967D01*
X2472049Y4250967D01*
X2543512Y4179504D02*
X2567333Y4179504D01*
X2555423Y4179504D01*
X2555423Y4227146D01*
X2543512Y4227146D01*
X2638796Y4179504D02*
X2614975Y4179504D01*
X2603064Y4191415D01*
X2603064Y4215235D01*
X2614975Y4227146D01*
X2638796Y4227146D01*
X2650706Y4215235D01*
X2650706Y4203325D01*
X2603064Y4203325D01*
X2674527Y4179504D02*
X2698348Y4179504D01*
X2686438Y4179504D01*
X2686438Y4250967D01*
X2674527Y4250967D01*
X2769811Y4179504D02*
X2745990Y4179504D01*
X2734080Y4191415D01*
X2734080Y4215235D01*
X2745990Y4227146D01*
X2769811Y4227146D01*
X2781722Y4215235D01*
X2781722Y4203325D01*
X2734080Y4203325D01*
X2853184Y4227146D02*
X2817453Y4227146D01*
X2805543Y4215235D01*
X2805543Y4191415D01*
X2817453Y4179504D01*
X2853184Y4179504D01*
X2888916Y4239056D02*
X2888916Y4227146D01*
X2877006Y4227146D01*
X2900827Y4227146D01*
X2888916Y4227146D01*
X2888916Y4191415D01*
X2900827Y4179504D01*
X2936558Y4227146D02*
X2936558Y4179504D01*
X2936558Y4203325D01*
X2948468Y4215235D01*
X2960379Y4227146D01*
X2972289Y4227146D01*
X3008021Y4179504D02*
X3031842Y4179504D01*
X3019931Y4179504D01*
X3019931Y4227146D01*
X3008021Y4227146D01*
X3115215Y4227146D02*
X3079484Y4227146D01*
X3067573Y4215235D01*
X3067573Y4191415D01*
X3079484Y4179504D01*
X3115215Y4179504D01*
X3246230Y4179504D02*
X3246230Y4250967D01*
X3210499Y4215235D01*
X3258141Y4215235D01*
X2472049Y4107995D02*
X2472049Y4036532D01*
X2519691Y4036532D01*
X2555423Y4084174D02*
X2579243Y4084174D01*
X2591154Y4072264D01*
X2591154Y4036532D01*
X2555423Y4036532D01*
X2543512Y4048443D01*
X2555423Y4060353D01*
X2591154Y4060353D01*
X2614975Y4084174D02*
X2614975Y4048443D01*
X2626885Y4036532D01*
X2662617Y4036532D01*
X2662617Y4024622D01*
X2650706Y4012711D01*
X2638796Y4012711D01*
X2662617Y4036532D02*
X2662617Y4084174D01*
X2722169Y4036532D02*
X2698348Y4036532D01*
X2686438Y4048443D01*
X2686438Y4072264D01*
X2698348Y4084174D01*
X2722169Y4084174D01*
X2734080Y4072264D01*
X2734080Y4060353D01*
X2686438Y4060353D01*
X2757901Y4084174D02*
X2757901Y4036532D01*
X2757901Y4060353D01*
X2769811Y4072264D01*
X2781722Y4084174D01*
X2793632Y4084174D01*
X2936558Y4036532D02*
X2936558Y4107995D01*
X2900827Y4072264D01*
X2948468Y4072264D01*
X2472049Y3965023D02*
X2472049Y3893560D01*
X2507780Y3893560D01*
X2519691Y3905471D01*
X2519691Y3953113D01*
X2507780Y3965023D01*
X2472049Y3965023D01*
X2543512Y3893560D02*
X2567333Y3893560D01*
X2555423Y3893560D01*
X2555423Y3941202D01*
X2543512Y3941202D01*
X2638796Y3893560D02*
X2614975Y3893560D01*
X2603064Y3905471D01*
X2603064Y3929291D01*
X2614975Y3941202D01*
X2638796Y3941202D01*
X2650706Y3929291D01*
X2650706Y3917381D01*
X2603064Y3917381D01*
X2674527Y3893560D02*
X2698348Y3893560D01*
X2686438Y3893560D01*
X2686438Y3965023D01*
X2674527Y3965023D01*
X2769811Y3893560D02*
X2745990Y3893560D01*
X2734080Y3905471D01*
X2734080Y3929291D01*
X2745990Y3941202D01*
X2769811Y3941202D01*
X2781722Y3929291D01*
X2781722Y3917381D01*
X2734080Y3917381D01*
X2853184Y3941202D02*
X2817453Y3941202D01*
X2805543Y3929291D01*
X2805543Y3905471D01*
X2817453Y3893560D01*
X2853184Y3893560D01*
X2888916Y3953113D02*
X2888916Y3941202D01*
X2877006Y3941202D01*
X2900827Y3941202D01*
X2888916Y3941202D01*
X2888916Y3905471D01*
X2900827Y3893560D01*
X2936558Y3941202D02*
X2936558Y3893560D01*
X2936558Y3917381D01*
X2948468Y3929291D01*
X2960379Y3941202D01*
X2972289Y3941202D01*
X3008021Y3893560D02*
X3031842Y3893560D01*
X3019931Y3893560D01*
X3019931Y3941202D01*
X3008021Y3941202D01*
X3115215Y3941202D02*
X3079484Y3941202D01*
X3067573Y3929291D01*
X3067573Y3905471D01*
X3079484Y3893560D01*
X3115215Y3893560D01*
X3258141Y3965023D02*
X3210499Y3965023D01*
X3210499Y3929291D01*
X3234320Y3941202D01*
X3246230Y3941202D01*
X3258141Y3929291D01*
X3258141Y3905471D01*
X3246230Y3893560D01*
X3222410Y3893560D01*
X3210499Y3905471D01*
X2472049Y3822051D02*
X2472049Y3750588D01*
X2507780Y3750588D01*
X2519691Y3762499D01*
X2519691Y3774409D01*
X2507780Y3786320D01*
X2472049Y3786320D01*
X2507780Y3786320D01*
X2519691Y3798230D01*
X2519691Y3810140D01*
X2507780Y3822051D01*
X2472049Y3822051D01*
X2555423Y3750588D02*
X2579243Y3750588D01*
X2591154Y3762499D01*
X2591154Y3786320D01*
X2579243Y3798230D01*
X2555423Y3798230D01*
X2543512Y3786320D01*
X2543512Y3762499D01*
X2555423Y3750588D01*
X2626885Y3810140D02*
X2626885Y3798230D01*
X2614975Y3798230D01*
X2638796Y3798230D01*
X2626885Y3798230D01*
X2626885Y3762499D01*
X2638796Y3750588D01*
X2686438Y3810140D02*
X2686438Y3798230D01*
X2674527Y3798230D01*
X2698348Y3798230D01*
X2686438Y3798230D01*
X2686438Y3762499D01*
X2698348Y3750588D01*
X2745990Y3750588D02*
X2769811Y3750588D01*
X2781722Y3762499D01*
X2781722Y3786320D01*
X2769811Y3798230D01*
X2745990Y3798230D01*
X2734080Y3786320D01*
X2734080Y3762499D01*
X2745990Y3750588D01*
X2805543Y3750588D02*
X2805543Y3798230D01*
X2817453Y3798230D01*
X2829364Y3786320D01*
X2829364Y3750588D01*
X2829364Y3786320D01*
X2841274Y3798230D01*
X2853184Y3786320D01*
X2853184Y3750588D01*
X2948468Y3822051D02*
X2948468Y3750588D01*
X2996110Y3750588D01*
X3031842Y3798230D02*
X3055663Y3798230D01*
X3067573Y3786320D01*
X3067573Y3750588D01*
X3031842Y3750588D01*
X3019931Y3762499D01*
X3031842Y3774409D01*
X3067573Y3774409D01*
X3091394Y3798230D02*
X3091394Y3762499D01*
X3103305Y3750588D01*
X3139036Y3750588D01*
X3139036Y3738678D01*
X3127126Y3726767D01*
X3115215Y3726767D01*
X3139036Y3750588D02*
X3139036Y3798230D01*
X3198588Y3750588D02*
X3174768Y3750588D01*
X3162857Y3762499D01*
X3162857Y3786320D01*
X3174768Y3798230D01*
X3198588Y3798230D01*
X3210499Y3786320D01*
X3210499Y3774409D01*
X3162857Y3774409D01*
X3234320Y3798230D02*
X3234320Y3750588D01*
X3234320Y3774409D01*
X3246231Y3786320D01*
X3258141Y3798230D01*
X3270051Y3798230D01*
X2472049Y3679079D02*
X2472049Y3607616D01*
X2507780Y3607616D01*
X2519691Y3619527D01*
X2519691Y3631437D01*
X2507780Y3643347D01*
X2472049Y3643347D01*
X2507780Y3643347D01*
X2519691Y3655258D01*
X2519691Y3667169D01*
X2507780Y3679079D01*
X2472049Y3679079D01*
X2555423Y3607616D02*
X2579243Y3607616D01*
X2591154Y3619527D01*
X2591154Y3643347D01*
X2579243Y3655258D01*
X2555423Y3655258D01*
X2543512Y3643347D01*
X2543512Y3619527D01*
X2555423Y3607616D01*
X2626885Y3667169D02*
X2626885Y3655258D01*
X2614975Y3655258D01*
X2638796Y3655258D01*
X2626885Y3655258D01*
X2626885Y3619527D01*
X2638796Y3607616D01*
X2686438Y3667169D02*
X2686438Y3655258D01*
X2674527Y3655258D01*
X2698348Y3655258D01*
X2686438Y3655258D01*
X2686438Y3619527D01*
X2698348Y3607616D01*
X2745990Y3607616D02*
X2769811Y3607616D01*
X2781722Y3619527D01*
X2781722Y3643347D01*
X2769811Y3655258D01*
X2745990Y3655258D01*
X2734080Y3643347D01*
X2734080Y3619527D01*
X2745990Y3607616D01*
X2805543Y3607616D02*
X2805543Y3655258D01*
X2817453Y3655258D01*
X2829364Y3643347D01*
X2829364Y3607616D01*
X2829364Y3643347D01*
X2841274Y3655258D01*
X2853184Y3643347D01*
X2853184Y3607616D01*
X2996110Y3667169D02*
X2984200Y3679079D01*
X2960379Y3679079D01*
X2948468Y3667169D01*
X2948468Y3655258D01*
X2960379Y3643347D01*
X2984200Y3643347D01*
X2996110Y3631437D01*
X2996110Y3619527D01*
X2984200Y3607616D01*
X2960379Y3607616D01*
X2948468Y3619527D01*
X3031842Y3607616D02*
X3055663Y3607616D01*
X3067573Y3619527D01*
X3067573Y3643347D01*
X3055663Y3655258D01*
X3031842Y3655258D01*
X3019931Y3643347D01*
X3019931Y3619527D01*
X3031842Y3607616D01*
X3091394Y3607616D02*
X3115215Y3607616D01*
X3103305Y3607616D01*
X3103305Y3679079D01*
X3091394Y3679079D01*
X3198588Y3679079D02*
X3198588Y3607616D01*
X3162857Y3607616D01*
X3150947Y3619527D01*
X3150947Y3643347D01*
X3162857Y3655258D01*
X3198588Y3655258D01*
X3258141Y3607616D02*
X3234320Y3607616D01*
X3222410Y3619527D01*
X3222410Y3643347D01*
X3234320Y3655258D01*
X3258141Y3655258D01*
X3270051Y3643347D01*
X3270051Y3631437D01*
X3222410Y3631437D01*
X3293872Y3655258D02*
X3293872Y3607616D01*
X3293872Y3631437D01*
X3305783Y3643347D01*
X3317693Y3655258D01*
X3329604Y3655258D01*
X2472049Y3536107D02*
X2472049Y3464644D01*
X2507780Y3464644D01*
X2519691Y3476555D01*
X2519691Y3488465D01*
X2507780Y3500376D01*
X2472049Y3500376D01*
X2507780Y3500376D01*
X2519691Y3512286D01*
X2519691Y3524197D01*
X2507780Y3536107D01*
X2472049Y3536107D01*
X2555423Y3464644D02*
X2579243Y3464644D01*
X2591154Y3476555D01*
X2591154Y3500376D01*
X2579243Y3512286D01*
X2555423Y3512286D01*
X2543512Y3500376D01*
X2543512Y3476555D01*
X2555423Y3464644D01*
X2626885Y3524197D02*
X2626885Y3512286D01*
X2614975Y3512286D01*
X2638796Y3512286D01*
X2626885Y3512286D01*
X2626885Y3476555D01*
X2638796Y3464644D01*
X2686438Y3524197D02*
X2686438Y3512286D01*
X2674527Y3512286D01*
X2698348Y3512286D01*
X2686438Y3512286D01*
X2686438Y3476555D01*
X2698348Y3464644D01*
X2745990Y3464644D02*
X2769811Y3464644D01*
X2781722Y3476555D01*
X2781722Y3500376D01*
X2769811Y3512286D01*
X2745990Y3512286D01*
X2734080Y3500376D01*
X2734080Y3476555D01*
X2745990Y3464644D01*
X2805543Y3464644D02*
X2805543Y3512286D01*
X2817453Y3512286D01*
X2829364Y3500376D01*
X2829364Y3464644D01*
X2829364Y3500376D01*
X2841274Y3512286D01*
X2853184Y3500376D01*
X2853184Y3464644D01*
X2984200Y3536107D02*
X2960379Y3536107D01*
X2948468Y3524197D01*
X2948468Y3476555D01*
X2960379Y3464644D01*
X2984200Y3464644D01*
X2996110Y3476555D01*
X2996110Y3524197D01*
X2984200Y3536107D01*
X3019931Y3512286D02*
X3043752Y3464644D01*
X3067573Y3512286D01*
X3127126Y3464644D02*
X3103305Y3464644D01*
X3091394Y3476555D01*
X3091394Y3500376D01*
X3103305Y3512286D01*
X3127126Y3512286D01*
X3139036Y3500376D01*
X3139036Y3488465D01*
X3091394Y3488465D01*
X3162857Y3512286D02*
X3162857Y3464644D01*
X3162857Y3488465D01*
X3174768Y3500376D01*
X3186678Y3512286D01*
X3198588Y3512286D01*
X3234320Y3464644D02*
X3258141Y3464644D01*
X3246231Y3464644D01*
X3246231Y3536107D01*
X3234320Y3536107D01*
X3305783Y3512286D02*
X3329604Y3512286D01*
X3341514Y3500376D01*
X3341514Y3464644D01*
X3305783Y3464644D01*
X3293872Y3476555D01*
X3305783Y3488465D01*
X3341514Y3488465D01*
X3365335Y3512286D02*
X3365335Y3476555D01*
X3377246Y3464644D01*
X3412977Y3464644D01*
X3412977Y3452734D01*
X3401067Y3440823D01*
X3389156Y3440823D01*
X3412977Y3464644D02*
X3412977Y3512286D01*
X2472049Y5609224D02*
X2472049Y5680687D01*
X2519691Y5609224D01*
X2519691Y5680687D01*
X2555423Y5656866D02*
X2579243Y5656866D01*
X2591154Y5644956D01*
X2591154Y5609224D01*
X2555423Y5609224D01*
X2543512Y5621135D01*
X2555423Y5633045D01*
X2591154Y5633045D01*
X2614975Y5609224D02*
X2614975Y5656866D01*
X2626885Y5656866D01*
X2638796Y5644956D01*
X2638796Y5609224D01*
X2638796Y5644956D01*
X2650706Y5656866D01*
X2662617Y5644956D01*
X2662617Y5609224D01*
X2722169Y5609224D02*
X2698348Y5609224D01*
X2686438Y5621135D01*
X2686438Y5644956D01*
X2698348Y5656866D01*
X2722169Y5656866D01*
X2734080Y5644956D01*
X2734080Y5633045D01*
X2686438Y5633045D01*
X1987494Y5180308D02*
X2011315Y5180308D01*
X1999405Y5180308D01*
X1999405Y5251771D01*
X1987494Y5239860D01*
X2035136Y4894364D02*
X1987494Y4894364D01*
X2035136Y4942006D01*
X2035136Y4953917D01*
X2023226Y4965827D01*
X1999405Y4965827D01*
X1987494Y4953917D01*
X1987494Y4667972D02*
X1999405Y4679883D01*
X2023226Y4679883D01*
X2035136Y4667972D01*
X2035136Y4656062D01*
X2023226Y4644151D01*
X2011315Y4644151D01*
X2023226Y4644151D01*
X2035136Y4632241D01*
X2035136Y4620331D01*
X2023226Y4608420D01*
X1999405Y4608420D01*
X1987494Y4620331D01*
X2023226Y4322476D02*
X2023226Y4393939D01*
X1987494Y4358208D01*
X2035136Y4358208D01*
X2035136Y4107995D02*
X1987494Y4107995D01*
X1987494Y4072264D01*
X2011315Y4084174D01*
X2023226Y4084174D01*
X2035136Y4072264D01*
X2035136Y4048443D01*
X2023226Y4036532D01*
X1999405Y4036532D01*
X1987494Y4048443D01*
X2035136Y3822051D02*
X2011315Y3810140D01*
X1987494Y3786320D01*
X1987494Y3762499D01*
X1999405Y3750588D01*
X2023226Y3750588D01*
X2035136Y3762499D01*
X2035136Y3774409D01*
X2023226Y3786320D01*
X1987494Y3786320D01*
X1987494Y5680687D02*
X1987494Y5609224D01*
X2035136Y5609224D01*
X2070867Y5656866D02*
X2094688Y5656866D01*
X2106599Y5644956D01*
X2106599Y5609224D01*
X2070867Y5609224D01*
X2058957Y5621135D01*
X2070867Y5633045D01*
X2106599Y5633045D01*
X2130420Y5656866D02*
X2130420Y5621135D01*
X2142330Y5609224D01*
X2178062Y5609224D01*
X2178062Y5597314D01*
X2166151Y5585403D01*
X2154241Y5585403D01*
X2178062Y5609224D02*
X2178062Y5656866D01*
X2237614Y5609224D02*
X2213793Y5609224D01*
X2201883Y5621135D01*
X2201883Y5644956D01*
X2213793Y5656866D01*
X2237614Y5656866D01*
X2249525Y5644956D01*
X2249525Y5633045D01*
X2201883Y5633045D01*
X2273346Y5656866D02*
X2273346Y5609224D01*
X2273346Y5633045D01*
X2285256Y5644956D01*
X2297167Y5656866D01*
X2309077Y5656866D01*
X-187929Y229837D02*
X-197926Y239834D01*
X-217919Y239834D01*
X-227916Y229837D01*
X-227916Y189850D01*
X-217919Y179853D01*
X-197926Y179853D01*
X-187929Y189850D01*
X-167936Y239834D02*
X-127949Y239834D01*
X-127949Y229837D01*
X-167936Y189850D01*
X-167936Y179853D01*
X-294236Y36190D02*
X-304233Y46187D01*
X-324226Y46187D01*
X-334223Y36190D01*
X-334223Y-3797D01*
X-324226Y-13793D01*
X-304233Y-13793D01*
X-294236Y-3797D01*
X-234256Y46187D02*
X-274243Y46187D01*
X-274243Y16197D01*
X-254249Y26194D01*
X-244252Y26194D01*
X-234256Y16197D01*
X-234256Y-3797D01*
X-244252Y-13793D01*
X-264246Y-13793D01*
X-274243Y-3797D01*
X138453Y-56329D02*
X128456Y-46333D01*
X108463Y-46333D01*
X98466Y-56329D01*
X98466Y-96316D01*
X108463Y-106313D01*
X128456Y-106313D01*
X138453Y-96316D01*
X158447Y-96316D02*
X168443Y-106313D01*
X188437Y-106313D01*
X198434Y-96316D01*
X198434Y-56329D01*
X188437Y-46333D01*
X168443Y-46333D01*
X158447Y-56329D01*
X158447Y-66326D01*
X168443Y-76323D01*
X198434Y-76323D01*
X90210Y18844D02*
X90210Y78825D01*
X120200Y78825D01*
X130197Y68828D01*
X130197Y48835D01*
X120200Y38838D01*
X90210Y38838D01*
X110203Y38838D02*
X130197Y18844D01*
X150190Y18844D02*
X170184Y18844D01*
X160187Y18844D01*
X160187Y78825D01*
X150190Y68828D01*
X20197Y680480D02*
X20197Y740461D01*
X40190Y720467D01*
X60184Y740461D01*
X60184Y680480D01*
X120165Y680480D02*
X80177Y680480D01*
X120165Y720467D01*
X120165Y730464D01*
X110168Y740461D01*
X90174Y740461D01*
X80177Y730464D01*
X-515827Y319655D02*
X-525823Y329652D01*
X-545817Y329652D01*
X-555814Y319655D01*
X-555814Y309658D01*
X-545817Y299661D01*
X-525823Y299661D01*
X-515827Y289665D01*
X-515827Y279668D01*
X-525823Y269671D01*
X-545817Y269671D01*
X-555814Y279668D01*
X-495833Y269671D02*
X-475840Y269671D01*
X-485836Y269671D01*
X-485836Y329652D01*
X-495833Y319655D01*
X119229Y407408D02*
X119229Y357424D01*
X129226Y347427D01*
X149219Y347427D01*
X159216Y357424D01*
X159216Y407408D01*
X219196Y347427D02*
X179209Y347427D01*
X219196Y387414D01*
X219196Y397411D01*
X209200Y407408D01*
X189206Y407408D01*
X179209Y397411D01*
X-193609Y28471D02*
X-193609Y-21513D01*
X-183612Y-31510D01*
X-163619Y-31510D01*
X-153622Y-21513D01*
X-153622Y28471D01*
X-133628Y-31510D02*
X-113635Y-31510D01*
X-123632Y-31510D01*
X-123632Y28471D01*
X-133628Y18474D01*
X-628803Y1354480D02*
X-628803Y1414461D01*
X-608810Y1394467D01*
X-588816Y1414461D01*
X-588816Y1354480D01*
X-568822Y1354480D02*
X-548829Y1354480D01*
X-558826Y1354480D01*
X-558826Y1414461D01*
X-568822Y1404464D01*
X-189610Y-102589D02*
X-199607Y-92592D01*
X-219601Y-92592D01*
X-229597Y-102589D01*
X-229597Y-142576D01*
X-219601Y-152573D01*
X-199607Y-152573D01*
X-189610Y-142576D01*
X-169617Y-152573D02*
X-149623Y-152573D01*
X-159620Y-152573D01*
X-159620Y-92592D01*
X-169617Y-102589D01*
X-119633Y-152573D02*
X-99640Y-152573D01*
X-109636Y-152573D01*
X-109636Y-92592D01*
X-119633Y-102589D01*
X-32115Y-153770D02*
X-42111Y-143774D01*
X-62105Y-143774D01*
X-72102Y-153770D01*
X-72102Y-193757D01*
X-62105Y-203754D01*
X-42111Y-203754D01*
X-32115Y-193757D01*
X-12121Y-203754D02*
X7872Y-203754D01*
X-2124Y-203754D01*
X-2124Y-143774D01*
X-12121Y-153770D01*
X37863Y-153770D02*
X47859Y-143774D01*
X67853Y-143774D01*
X77850Y-153770D01*
X77850Y-193757D01*
X67853Y-203754D01*
X47859Y-203754D01*
X37863Y-193757D01*
X37863Y-153770D01*
X-479733Y34222D02*
X-489730Y44219D01*
X-509724Y44219D01*
X-519721Y34222D01*
X-519721Y-5765D01*
X-509724Y-15762D01*
X-489730Y-15762D01*
X-479733Y-5765D01*
X-459740Y34222D02*
X-449743Y44219D01*
X-429750Y44219D01*
X-419753Y34222D01*
X-419753Y24225D01*
X-429750Y14228D01*
X-439746Y14228D01*
X-429750Y14228D01*
X-419753Y4231D01*
X-419753Y-5765D01*
X-429750Y-15762D01*
X-449743Y-15762D01*
X-459740Y-5765D01*
X-608346Y158238D02*
X-618343Y168234D01*
X-638337Y168234D01*
X-648333Y158238D01*
X-648333Y118251D01*
X-638337Y108254D01*
X-618343Y108254D01*
X-608346Y118251D01*
X-588353Y108254D02*
X-568359Y108254D01*
X-578356Y108254D01*
X-578356Y168234D01*
X-588353Y158238D01*
D17*
X31811Y121063D02*
X-1512Y87740D01*
X-1512Y121063D02*
X31811Y87740D01*
X15149Y121063D02*
X15149Y87740D01*
X-1512Y104402D02*
X31811Y104402D01*
X-434370Y104331D02*
X-401047Y137653D01*
X-401047Y104331D02*
X-434370Y137653D01*
X-417708Y104331D02*
X-417708Y137653D01*
X-401047Y120992D02*
X-434370Y120992D01*
M02*
