G04*
G04 #@! TF.GenerationSoftware,Altium Limited,Altium Designer,25.8.1 (18)*
G04*
G04 Layer_Physical_Order=6*
G04 Layer_Color=16711680*
%FSLAX26Y26*%
%MOIN*%
G70*
G04*
G04 #@! TF.SameCoordinates,AB66D781-FBCB-4B57-8275-DC7DE2197C71*
G04*
G04*
G04 #@! TF.FilePolarity,Positive*
G04*
G01*
G75*
%ADD10C,0.009842*%
%ADD13C,0.007874*%
%ADD20R,0.012950X0.033489*%
%ADD21R,0.010344X0.013941*%
%ADD22R,0.013941X0.010344*%
%ADD27R,0.013000X0.010000*%
%ADD28R,0.010000X0.013000*%
%ADD29R,0.059000X0.059000*%
%ADD32C,0.050000*%
%ADD33C,0.012992*%
%ADD34C,0.008661*%
%ADD35C,0.012000*%
%ADD36C,0.020000*%
%ADD37C,0.019685*%
%ADD38R,0.023622X0.023622*%
%ADD39R,0.078740X0.040157*%
%ADD40R,0.018432X0.018601*%
G04:AMPARAMS|DCode=41|XSize=21.654mil|YSize=19.685mil|CornerRadius=2.461mil|HoleSize=0mil|Usage=FLASHONLY|Rotation=90.000|XOffset=0mil|YOffset=0mil|HoleType=Round|Shape=RoundedRectangle|*
%AMROUNDEDRECTD41*
21,1,0.021654,0.014764,0,0,90.0*
21,1,0.016732,0.019685,0,0,90.0*
1,1,0.004921,0.007382,0.008366*
1,1,0.004921,0.007382,-0.008366*
1,1,0.004921,-0.007382,-0.008366*
1,1,0.004921,-0.007382,0.008366*
%
%ADD41ROUNDEDRECTD41*%
%ADD42R,0.011811X0.019685*%
%ADD43R,0.019685X0.011811*%
%ADD44R,0.029921X0.028346*%
%ADD45R,0.041339X0.039370*%
%ADD46R,0.086614X0.041339*%
G36*
X603928Y1530006D02*
X612831Y1529467D01*
X621715Y1528660D01*
X630570Y1527585D01*
X639389Y1526243D01*
X648163Y1524635D01*
X656885Y1522763D01*
X665546Y1520628D01*
X674138Y1518233D01*
X682655Y1515579D01*
X691087Y1512669D01*
X699428Y1509506D01*
X707669Y1506092D01*
X715803Y1502431D01*
X723823Y1498526D01*
X731722Y1494381D01*
X739491Y1489999D01*
X747125Y1485384D01*
X754616Y1480541D01*
X761957Y1475473D01*
X769142Y1470187D01*
X776164Y1464685D01*
X783017Y1458975D01*
X789693Y1453059D01*
X796189Y1446945D01*
X802496Y1440638D01*
X808611Y1434142D01*
X814526Y1427465D01*
X820237Y1420613D01*
X825738Y1413591D01*
X831025Y1406406D01*
X836092Y1399065D01*
X840935Y1391574D01*
X845550Y1383940D01*
X849932Y1376171D01*
X854077Y1368272D01*
X857982Y1360252D01*
X861643Y1352118D01*
X865057Y1343876D01*
X868220Y1335536D01*
X871130Y1327103D01*
X873784Y1318587D01*
X876179Y1309995D01*
X878314Y1301333D01*
X880186Y1292612D01*
X881794Y1283838D01*
X883136Y1275019D01*
X884212Y1266164D01*
X885019Y1257280D01*
X885557Y1248376D01*
X885827Y1239460D01*
X885827Y1235000D01*
X885827Y-20036D01*
X885819Y-20039D01*
X885819Y-20040D01*
X885819Y-24500D01*
X885549Y-33416D01*
X885011Y-42320D01*
X884204Y-51203D01*
X883128Y-60059D01*
X881786Y-68877D01*
X880178Y-77651D01*
X878306Y-86373D01*
X876171Y-95034D01*
X873776Y-103627D01*
X871122Y-112143D01*
X868212Y-120575D01*
X865049Y-128916D01*
X861635Y-137157D01*
X857975Y-145292D01*
X854069Y-153312D01*
X849924Y-161210D01*
X845542Y-168980D01*
X840927Y-176614D01*
X836084Y-184105D01*
X831017Y-191446D01*
X825730Y-198631D01*
X820229Y-205652D01*
X814518Y-212505D01*
X808603Y-219182D01*
X802488Y-225677D01*
X796181Y-231985D01*
X789686Y-238099D01*
X783009Y-244014D01*
X776156Y-249725D01*
X769134Y-255226D01*
X761949Y-260513D01*
X754608Y-265580D01*
X747117Y-270423D01*
X739484Y-275038D01*
X731714Y-279420D01*
X723815Y-283566D01*
X715795Y-287471D01*
X707661Y-291132D01*
X699420Y-294545D01*
X691079Y-297709D01*
X682647Y-300618D01*
X674130Y-303272D01*
X665538Y-305668D01*
X656877Y-307802D01*
X648155Y-309674D01*
X639381Y-311282D01*
X630562Y-312625D01*
X621707Y-313700D01*
X612823Y-314507D01*
X603920Y-315046D01*
X595003Y-315315D01*
X-586008Y-315315D01*
X-586008Y-315315D01*
X-586014Y-315331D01*
X-590452Y-315331D01*
X-599369Y-315061D01*
X-608272Y-314523D01*
X-617156Y-313716D01*
X-626011Y-312640D01*
X-634830Y-311298D01*
X-643604Y-309690D01*
X-652326Y-307818D01*
X-660987Y-305683D01*
X-669579Y-303288D01*
X-678096Y-300634D01*
X-686528Y-297724D01*
X-694869Y-294561D01*
X-703110Y-291147D01*
X-711244Y-287486D01*
X-719264Y-283581D01*
X-727163Y-279436D01*
X-734933Y-275054D01*
X-742566Y-270439D01*
X-750057Y-265596D01*
X-757398Y-260529D01*
X-764583Y-255242D01*
X-771605Y-249741D01*
X-778458Y-244030D01*
X-785135Y-238114D01*
X-791630Y-232000D01*
X-797937Y-225693D01*
X-804052Y-219197D01*
X-809967Y-212521D01*
X-815678Y-205668D01*
X-821179Y-198646D01*
X-826466Y-191461D01*
X-831533Y-184120D01*
X-836376Y-176629D01*
X-840991Y-168995D01*
X-845373Y-161226D01*
X-849518Y-153327D01*
X-853423Y-145307D01*
X-857084Y-137173D01*
X-860498Y-128932D01*
X-863661Y-120591D01*
X-866571Y-112159D01*
X-869225Y-103642D01*
X-871620Y-95050D01*
X-873755Y-86389D01*
X-875627Y-77667D01*
X-877235Y-68893D01*
X-878577Y-60074D01*
X-879653Y-51219D01*
X-880460Y-42335D01*
X-880998Y-33431D01*
X-881268Y-24515D01*
X-881268Y-20055D01*
X-881276Y1235000D01*
X-881276Y1239460D01*
X-881006Y1248376D01*
X-880468Y1257280D01*
X-879660Y1266164D01*
X-878585Y1275019D01*
X-877243Y1283838D01*
X-875635Y1292612D01*
X-873763Y1301333D01*
X-871628Y1309995D01*
X-869233Y1318587D01*
X-866579Y1327103D01*
X-863669Y1335536D01*
X-860506Y1343876D01*
X-857092Y1352118D01*
X-853431Y1360252D01*
X-849526Y1368272D01*
X-845381Y1376171D01*
X-840999Y1383940D01*
X-836384Y1391574D01*
X-831541Y1399065D01*
X-826473Y1406406D01*
X-821187Y1413591D01*
X-815686Y1420613D01*
X-809975Y1427465D01*
X-804059Y1434142D01*
X-797945Y1440638D01*
X-791638Y1446945D01*
X-785142Y1453059D01*
X-778466Y1458975D01*
X-771613Y1464685D01*
X-764591Y1470187D01*
X-757406Y1475473D01*
X-750065Y1480541D01*
X-742574Y1485384D01*
X-734940Y1489999D01*
X-727171Y1494381D01*
X-719272Y1498526D01*
X-711252Y1502431D01*
X-703118Y1506092D01*
X-694876Y1509506D01*
X-686536Y1512669D01*
X-678104Y1515579D01*
X-669587Y1518233D01*
X-660995Y1520628D01*
X-652334Y1522763D01*
X-643612Y1524635D01*
X-634838Y1526243D01*
X-626019Y1527585D01*
X-617164Y1528660D01*
X-608280Y1529467D01*
X-599376Y1530006D01*
X-590460Y1530276D01*
X595011Y1530276D01*
X603928Y1530006D01*
X603928Y1530006D02*
G37*
%LPC*%
G36*
X710542Y1322004D02*
X645797Y1322004D01*
X641397Y1321847D01*
X637020Y1321377D01*
X632687Y1320595D01*
X628422Y1319506D01*
X624244Y1318116D01*
X620177Y1316431D01*
X616535Y1314608D01*
X612894Y1316431D01*
X608827Y1318116D01*
X604649Y1319506D01*
X600384Y1320595D01*
X596051Y1321377D01*
X591674Y1321847D01*
X587274Y1322004D01*
X522529Y1322004D01*
X518130Y1321847D01*
X513752Y1321377D01*
X509420Y1320595D01*
X505154Y1319506D01*
X500977Y1318116D01*
X496909Y1316431D01*
X493268Y1314608D01*
X489626Y1316431D01*
X485559Y1318116D01*
X481382Y1319506D01*
X477116Y1320595D01*
X472783Y1321377D01*
X468406Y1321847D01*
X464006Y1322004D01*
X399261Y1322004D01*
X394862Y1321847D01*
X390484Y1321377D01*
X386152Y1320595D01*
X381886Y1319506D01*
X377709Y1318116D01*
X373641Y1316431D01*
X370000Y1314608D01*
X366358Y1316431D01*
X362291Y1318116D01*
X358114Y1319506D01*
X353848Y1320595D01*
X349515Y1321377D01*
X345138Y1321847D01*
X340738Y1322004D01*
X275994Y1322004D01*
X271594Y1321847D01*
X267217Y1321377D01*
X262884Y1320595D01*
X258618Y1319506D01*
X254441Y1318116D01*
X250374Y1316431D01*
X246437Y1314460D01*
X242651Y1312214D01*
X239034Y1309703D01*
X235606Y1306941D01*
X232384Y1303941D01*
X229384Y1300718D01*
X226622Y1297291D01*
X224111Y1293674D01*
X221864Y1289888D01*
X219894Y1285951D01*
X218209Y1281884D01*
X216819Y1277706D01*
X215730Y1273441D01*
X214948Y1269108D01*
X214478Y1264731D01*
X214321Y1260331D01*
X214321Y1203287D01*
X214478Y1198887D01*
X214948Y1194510D01*
X215244Y1192870D01*
X213792Y1189364D01*
X212401Y1185187D01*
X211313Y1180921D01*
X210531Y1176588D01*
X210060Y1172211D01*
X209903Y1167811D01*
X209903Y1110767D01*
X210060Y1106368D01*
X210531Y1101990D01*
X211313Y1097658D01*
X212401Y1093392D01*
X212522Y1093030D01*
X212401Y1092667D01*
X211313Y1088401D01*
X210531Y1084069D01*
X210060Y1079691D01*
X209903Y1075292D01*
X209903Y1018248D01*
X210060Y1013848D01*
X210531Y1009471D01*
X211313Y1005138D01*
X212401Y1000872D01*
X213792Y996695D01*
X215244Y993189D01*
X214948Y991549D01*
X214478Y987172D01*
X214321Y982772D01*
X214321Y925728D01*
X214478Y921328D01*
X214948Y916951D01*
X215730Y912619D01*
X216819Y908353D01*
X218209Y904176D01*
X219894Y900108D01*
X221864Y896171D01*
X224111Y892385D01*
X226622Y888769D01*
X229384Y885341D01*
X232384Y882119D01*
X235606Y879119D01*
X239034Y876356D01*
X242651Y873845D01*
X244374Y872823D01*
X244374Y866925D01*
X243901Y864305D01*
X243430Y859928D01*
X243273Y855528D01*
X243273Y774275D01*
X243430Y769875D01*
X243901Y765498D01*
X244683Y761165D01*
X245772Y756899D01*
X247162Y752722D01*
X248847Y748654D01*
X250817Y744718D01*
X253064Y740931D01*
X255575Y737315D01*
X258337Y733887D01*
X261337Y730665D01*
X266342Y725659D01*
X261337Y720654D01*
X258337Y717431D01*
X255574Y714003D01*
X253064Y710387D01*
X250817Y706601D01*
X248847Y702664D01*
X247162Y698597D01*
X245771Y694419D01*
X244683Y690154D01*
X243901Y685821D01*
X243430Y681444D01*
X243273Y677044D01*
X243273Y655212D01*
X243430Y650812D01*
X243901Y646435D01*
X244683Y642102D01*
X245772Y637836D01*
X247162Y633659D01*
X248847Y629591D01*
X250817Y625655D01*
X251273Y624886D01*
X250817Y624117D01*
X248847Y620180D01*
X247162Y616113D01*
X245771Y611935D01*
X244683Y607670D01*
X243901Y603337D01*
X243430Y598960D01*
X243273Y594560D01*
X243273Y572727D01*
X243430Y568328D01*
X243901Y563951D01*
X244683Y559618D01*
X245771Y555352D01*
X247162Y551175D01*
X248846Y547108D01*
X250817Y543171D01*
X253063Y539385D01*
X255574Y535768D01*
X258337Y532340D01*
X261337Y529118D01*
X266343Y524112D01*
X261337Y519106D01*
X258337Y515884D01*
X255574Y512456D01*
X253064Y508840D01*
X250817Y505054D01*
X248847Y501117D01*
X247162Y497050D01*
X246385Y494717D01*
X240257Y494717D01*
X240257Y434175D01*
X240218Y433083D01*
X240218Y416904D01*
X240200Y416339D01*
X240200Y390306D01*
X240197Y390225D01*
X240197Y374986D01*
X236252Y374986D01*
X236054Y375053D01*
X234146Y375432D01*
X232205Y375559D01*
X230263Y375432D01*
X228355Y375053D01*
X228158Y374986D01*
X217989Y374986D01*
X217989Y367116D01*
X217756Y366883D01*
X214756Y368127D01*
X214756Y374986D01*
X206680Y374986D01*
X206680Y408835D01*
X211614Y408835D01*
X211614Y438520D01*
X189803Y438520D01*
X189803Y428324D01*
X188371Y427446D01*
X186995Y426271D01*
X185819Y424895D01*
X184874Y423352D01*
X184181Y421680D01*
X183759Y419921D01*
X183617Y418117D01*
X183617Y362654D01*
X183617Y321660D01*
X183759Y319856D01*
X184181Y318097D01*
X184874Y316425D01*
X185819Y314882D01*
X186995Y313506D01*
X188371Y312331D01*
X189913Y311386D01*
X191585Y310693D01*
X193345Y310271D01*
X195149Y310129D01*
X196952Y310271D01*
X198712Y310693D01*
X200384Y311386D01*
X201927Y312331D01*
X203303Y313506D01*
X204478Y314882D01*
X205423Y316425D01*
X206116Y318097D01*
X206538Y319856D01*
X206680Y321660D01*
X206680Y346384D01*
X214330Y346384D01*
X214756Y346384D01*
X217330Y345358D01*
X217330Y313331D01*
X217253Y312942D01*
X217126Y311000D01*
X217253Y309058D01*
X217633Y307150D01*
X218258Y305308D01*
X219118Y303563D01*
X220199Y301945D01*
X221482Y300482D01*
X222945Y299199D01*
X224563Y298118D01*
X226308Y297258D01*
X228150Y296633D01*
X230059Y296253D01*
X232000Y296126D01*
X233941Y296253D01*
X235850Y296633D01*
X237197Y297090D01*
X238654Y296448D01*
X240197Y295148D01*
X240197Y225094D01*
X240354Y220695D01*
X240825Y216317D01*
X241606Y211985D01*
X242695Y207719D01*
X244085Y203542D01*
X245770Y199474D01*
X247741Y195537D01*
X249987Y191751D01*
X252498Y188135D01*
X255261Y184707D01*
X258260Y181485D01*
X273851Y165894D01*
X277072Y162895D01*
X280501Y160132D01*
X284117Y157621D01*
X287903Y155375D01*
X291840Y153404D01*
X295907Y151720D01*
X300084Y150329D01*
X304350Y149240D01*
X308683Y148459D01*
X313060Y147988D01*
X317460Y147831D01*
X332938Y147831D01*
X332938Y110525D01*
X353282Y110525D01*
X353282Y145709D01*
X355403Y147831D01*
X425476Y147830D01*
X425476Y144439D01*
X425766Y140021D01*
X426344Y135630D01*
X426634Y134173D01*
X426634Y118100D01*
X426621Y118091D01*
X425397Y116867D01*
X424379Y115466D01*
X423593Y113923D01*
X423058Y112277D01*
X422787Y110567D01*
X422787Y108835D01*
X423058Y107125D01*
X423593Y105478D01*
X424302Y104088D01*
X424302Y102751D01*
X416989Y95438D01*
X412167Y95438D01*
X412167Y96251D01*
X388226Y96251D01*
X388226Y94898D01*
X386037Y93666D01*
X385226Y93463D01*
X384242Y94066D01*
X382942Y94605D01*
X381575Y94933D01*
X380172Y95043D01*
X355945Y95043D01*
X354543Y94933D01*
X353175Y94605D01*
X351875Y94066D01*
X350676Y93331D01*
X349606Y92418D01*
X348692Y91348D01*
X347957Y90148D01*
X347419Y88849D01*
X347091Y87481D01*
X346980Y86079D01*
X347091Y84676D01*
X347419Y83308D01*
X347957Y82009D01*
X348692Y80809D01*
X349606Y79740D01*
X350676Y78826D01*
X351875Y78091D01*
X353175Y77553D01*
X354543Y77225D01*
X355945Y77114D01*
X380172Y77114D01*
X381575Y77225D01*
X382942Y77553D01*
X384242Y78091D01*
X385226Y78694D01*
X386037Y78491D01*
X388226Y77259D01*
X388226Y75907D01*
X412167Y75907D01*
X412167Y76719D01*
X420866Y76719D01*
X422330Y76834D01*
X423758Y77177D01*
X425115Y77739D01*
X426367Y78507D01*
X427484Y79460D01*
X440279Y92256D01*
X441233Y93373D01*
X442001Y94625D01*
X442563Y95982D01*
X442906Y97410D01*
X442944Y97895D01*
X445966Y98149D01*
X446851Y97263D01*
X450181Y94344D01*
X453694Y91648D01*
X457376Y89188D01*
X461211Y86974D01*
X465182Y85015D01*
X469273Y83321D01*
X473467Y81897D01*
X477744Y80751D01*
X482087Y79887D01*
X486477Y79309D01*
X490896Y79020D01*
X495324Y79020D01*
X499743Y79309D01*
X504133Y79887D01*
X508476Y80751D01*
X512754Y81897D01*
X516947Y83321D01*
X521038Y85015D01*
X525010Y86974D01*
X528845Y89188D01*
X532527Y91648D01*
X536040Y94344D01*
X539369Y97263D01*
X540472Y98366D01*
X543554Y98366D01*
X543630Y97410D01*
X543972Y95982D01*
X544535Y94625D01*
X545302Y93373D01*
X546256Y92256D01*
X559051Y79460D01*
X560168Y78507D01*
X561420Y77739D01*
X562777Y77177D01*
X564205Y76834D01*
X565669Y76719D01*
X574368Y76719D01*
X574368Y75907D01*
X598309Y75907D01*
X598309Y96251D01*
X574368Y96251D01*
X574368Y95438D01*
X569546Y95438D01*
X562234Y102751D01*
X562234Y105139D01*
X562407Y105478D01*
X562942Y107125D01*
X563213Y108835D01*
X563213Y110567D01*
X562942Y112277D01*
X562407Y113923D01*
X561621Y115466D01*
X560603Y116867D01*
X559902Y117568D01*
X559902Y135821D01*
X560454Y140021D01*
X560744Y144439D01*
X560744Y147831D01*
X633253Y147831D01*
X633253Y130550D01*
X653597Y130550D01*
X653597Y147831D01*
X669075Y147831D01*
X673475Y147988D01*
X677852Y148458D01*
X682185Y149240D01*
X686450Y150329D01*
X690628Y151719D01*
X694695Y153404D01*
X698632Y155375D01*
X702418Y157621D01*
X706034Y160132D01*
X709462Y162894D01*
X712684Y165894D01*
X715280Y168490D01*
X715283Y168493D01*
X728275Y181485D01*
X731275Y184707D01*
X734037Y188135D01*
X736548Y191751D01*
X738794Y195537D01*
X740765Y199474D01*
X742450Y203541D01*
X743840Y207719D01*
X744929Y211984D01*
X745711Y216317D01*
X746182Y220694D01*
X746339Y225094D01*
X746340Y390224D01*
X746336Y390331D01*
X746336Y416339D01*
X746317Y416904D01*
X746317Y433083D01*
X746278Y434175D01*
X746278Y494717D01*
X740150Y494717D01*
X739374Y497050D01*
X737689Y501117D01*
X735718Y505054D01*
X733472Y508840D01*
X730961Y512456D01*
X728198Y515885D01*
X725199Y519106D01*
X720193Y524112D01*
X725199Y529118D01*
X728199Y532340D01*
X730961Y535768D01*
X733472Y539385D01*
X735718Y543171D01*
X737689Y547107D01*
X739374Y551175D01*
X740764Y555352D01*
X741853Y559618D01*
X742634Y563951D01*
X743105Y568328D01*
X743262Y572727D01*
X743262Y594560D01*
X743105Y598960D01*
X742634Y603337D01*
X741853Y607670D01*
X740764Y611935D01*
X739374Y616113D01*
X737689Y620180D01*
X735718Y624117D01*
X735262Y624886D01*
X735718Y625654D01*
X737689Y629591D01*
X739374Y633659D01*
X740764Y637836D01*
X741853Y642102D01*
X742634Y646435D01*
X743105Y650812D01*
X743262Y655212D01*
X743262Y677044D01*
X743105Y681444D01*
X742634Y685821D01*
X741853Y690154D01*
X740764Y694419D01*
X739374Y698596D01*
X737689Y702664D01*
X735718Y706601D01*
X733472Y710387D01*
X730961Y714003D01*
X728199Y717431D01*
X725199Y720654D01*
X720193Y725659D01*
X725198Y730665D01*
X728198Y733887D01*
X730961Y737315D01*
X733471Y740931D01*
X735718Y744717D01*
X737689Y748654D01*
X739374Y752722D01*
X740764Y756899D01*
X741853Y761165D01*
X742634Y765498D01*
X743105Y769875D01*
X743262Y774275D01*
X743262Y801029D01*
X743105Y805428D01*
X742634Y809806D01*
X741853Y814138D01*
X740764Y818404D01*
X740519Y819140D01*
X740764Y819876D01*
X741853Y824141D01*
X742634Y828474D01*
X743105Y832851D01*
X743262Y837251D01*
X743262Y855528D01*
X743105Y859928D01*
X742634Y864305D01*
X742162Y866925D01*
X742162Y872823D01*
X743885Y873845D01*
X747501Y876356D01*
X750929Y879119D01*
X754151Y882119D01*
X757151Y885341D01*
X759914Y888769D01*
X762424Y892385D01*
X764671Y896171D01*
X766642Y900108D01*
X768326Y904176D01*
X769717Y908353D01*
X770806Y912619D01*
X771587Y916951D01*
X772058Y921328D01*
X772215Y925728D01*
X772215Y982772D01*
X772058Y987172D01*
X771587Y991549D01*
X771291Y993189D01*
X772744Y996695D01*
X774134Y1000872D01*
X775223Y1005138D01*
X776005Y1009471D01*
X776475Y1013848D01*
X776632Y1018248D01*
X776632Y1075292D01*
X776475Y1079691D01*
X776005Y1084069D01*
X775223Y1088401D01*
X774134Y1092667D01*
X774013Y1093030D01*
X774134Y1093392D01*
X775223Y1097658D01*
X776005Y1101990D01*
X776475Y1106368D01*
X776632Y1110767D01*
X776632Y1167811D01*
X776475Y1172211D01*
X776005Y1176588D01*
X775223Y1180921D01*
X774134Y1185187D01*
X772744Y1189364D01*
X771291Y1192870D01*
X771587Y1194510D01*
X772058Y1198887D01*
X772215Y1203287D01*
X772215Y1260331D01*
X772058Y1264731D01*
X771587Y1269108D01*
X770806Y1273441D01*
X769717Y1277706D01*
X768326Y1281884D01*
X766642Y1285951D01*
X764671Y1289888D01*
X762424Y1293674D01*
X759914Y1297291D01*
X757151Y1300718D01*
X754151Y1303941D01*
X750929Y1306941D01*
X747501Y1309703D01*
X743885Y1312214D01*
X740098Y1314460D01*
X736162Y1316431D01*
X732094Y1318116D01*
X727917Y1319506D01*
X723651Y1320595D01*
X719319Y1321377D01*
X714941Y1321847D01*
X710542Y1322004D01*
X710542Y1322004D02*
G37*
G36*
X-333937Y1171331D02*
X-422677Y1171331D01*
X-422677Y1121173D01*
X-333937Y1121173D01*
X-333937Y1131378D01*
X11431Y1131378D01*
X12059Y1131253D01*
X14000Y1131126D01*
X15941Y1131253D01*
X17850Y1131633D01*
X19692Y1132258D01*
X21437Y1133118D01*
X23055Y1134199D01*
X24518Y1135482D01*
X25801Y1136945D01*
X26882Y1138563D01*
X27742Y1140308D01*
X28367Y1142150D01*
X28747Y1144059D01*
X28874Y1146000D01*
X28747Y1147941D01*
X28367Y1149850D01*
X27742Y1151692D01*
X26882Y1153437D01*
X25801Y1155055D01*
X24518Y1156518D01*
X24266Y1156770D01*
X22803Y1158053D01*
X21185Y1159134D01*
X19440Y1159994D01*
X17598Y1160620D01*
X15690Y1160999D01*
X13748Y1161126D01*
X-333937Y1161126D01*
X-333937Y1171331D01*
X-333937Y1171331D02*
G37*
G36*
X11000Y1265874D02*
X-508000Y1265874D01*
X-509942Y1265747D01*
X-511850Y1265368D01*
X-513692Y1264742D01*
X-515437Y1263882D01*
X-517055Y1262801D01*
X-518518Y1261518D01*
X-553518Y1226518D01*
X-554801Y1225055D01*
X-555882Y1223437D01*
X-556742Y1221692D01*
X-557367Y1219850D01*
X-557747Y1217941D01*
X-557874Y1216000D01*
X-557874Y1083000D01*
X-557747Y1081059D01*
X-557367Y1079150D01*
X-556742Y1077308D01*
X-555882Y1075563D01*
X-554801Y1073945D01*
X-553518Y1072482D01*
X-516770Y1035734D01*
X-515307Y1034451D01*
X-514701Y1034046D01*
X-513689Y1033370D01*
X-511944Y1032510D01*
X-510102Y1031884D01*
X-508193Y1031505D01*
X-506252Y1031378D01*
X-422677Y1031378D01*
X-422677Y1021173D01*
X-333937Y1021173D01*
X-333937Y1071331D01*
X-422677Y1071331D01*
X-422677Y1061126D01*
X-500091Y1061126D01*
X-528126Y1089161D01*
X-528126Y1209839D01*
X-501839Y1236126D01*
X11000Y1236126D01*
X12941Y1236253D01*
X14850Y1236632D01*
X16692Y1237258D01*
X18437Y1238119D01*
X20055Y1239199D01*
X21518Y1240482D01*
X22801Y1241945D01*
X23881Y1243563D01*
X24742Y1245308D01*
X25367Y1247150D01*
X25747Y1249059D01*
X25874Y1251000D01*
X25747Y1252941D01*
X25367Y1254850D01*
X24742Y1256692D01*
X23881Y1258437D01*
X22801Y1260055D01*
X21518Y1261518D01*
X20055Y1262801D01*
X18437Y1263881D01*
X16692Y1264742D01*
X14850Y1265368D01*
X12941Y1265747D01*
X11000Y1265874D01*
X11000Y1265874D02*
G37*
G36*
X-333937Y871331D02*
X-422677Y871331D01*
X-422677Y821173D01*
X-333937Y821173D01*
X-333937Y831378D01*
X-43240Y831378D01*
X-43000Y831362D01*
X-41059Y831489D01*
X-39150Y831869D01*
X-37308Y832494D01*
X-35563Y833355D01*
X-33945Y834436D01*
X-32482Y835718D01*
X-31200Y837181D01*
X-30119Y838799D01*
X-29258Y840544D01*
X-28633Y842386D01*
X-28253Y844295D01*
X-28126Y846236D01*
X-28253Y848178D01*
X-28633Y850086D01*
X-29258Y851928D01*
X-30119Y853673D01*
X-31200Y855291D01*
X-32482Y856754D01*
X-32498Y856770D01*
X-33961Y858053D01*
X-35579Y859134D01*
X-37324Y859994D01*
X-39166Y860620D01*
X-41074Y860999D01*
X-43016Y861126D01*
X-333937Y861126D01*
X-333937Y871331D01*
X-333937Y871331D02*
G37*
G36*
X-332953Y569953D02*
X-421693Y569953D01*
X-421693Y559748D01*
X-529126Y559748D01*
X-531067Y559621D01*
X-532976Y559241D01*
X-534818Y558616D01*
X-536563Y557756D01*
X-538181Y556675D01*
X-539644Y555392D01*
X-588518Y506518D01*
X-589801Y505055D01*
X-590882Y503437D01*
X-591742Y501692D01*
X-592367Y499850D01*
X-592747Y497942D01*
X-592874Y496000D01*
X-592874Y130000D01*
X-592747Y128059D01*
X-592367Y126150D01*
X-591742Y124308D01*
X-590882Y122563D01*
X-589801Y120945D01*
X-588518Y119482D01*
X-536518Y67482D01*
X-535055Y66199D01*
X-533437Y65118D01*
X-531692Y64258D01*
X-529850Y63633D01*
X-527942Y63253D01*
X-526000Y63126D01*
X-460913Y63126D01*
X-458972Y63253D01*
X-457064Y63633D01*
X-455221Y64258D01*
X-453476Y65118D01*
X-451858Y66199D01*
X-450396Y67482D01*
X-418695Y99183D01*
X-417412Y100646D01*
X-416331Y102264D01*
X-415471Y104009D01*
X-414845Y105851D01*
X-414466Y107759D01*
X-414338Y109701D01*
X-414466Y111642D01*
X-414845Y113551D01*
X-415471Y115393D01*
X-416331Y117138D01*
X-417412Y118756D01*
X-418695Y120219D01*
X-420158Y121501D01*
X-421776Y122582D01*
X-423520Y123443D01*
X-425363Y124068D01*
X-427271Y124448D01*
X-429213Y124575D01*
X-431154Y124448D01*
X-433062Y124068D01*
X-434905Y123443D01*
X-436650Y122582D01*
X-438267Y121501D01*
X-439730Y120219D01*
X-467075Y92874D01*
X-519839Y92874D01*
X-563126Y136161D01*
X-563126Y489839D01*
X-522965Y530000D01*
X-421693Y530000D01*
X-421693Y519795D01*
X-332953Y519795D01*
X-332953Y569953D01*
X-332953Y569953D02*
G37*
G36*
X121063Y745606D02*
X69724Y745606D01*
X69724Y696236D01*
X121063Y696236D01*
X121063Y709390D01*
X152760Y709390D01*
X152760Y500823D01*
X149970Y499031D01*
X149760Y499062D01*
X148529Y499435D01*
X147067Y499579D01*
X132303Y499579D01*
X130841Y499435D01*
X129434Y499009D01*
X128138Y498316D01*
X127002Y497384D01*
X126070Y496248D01*
X125377Y494952D01*
X124950Y493545D01*
X124806Y492083D01*
X124806Y475350D01*
X124950Y473888D01*
X125377Y472481D01*
X126070Y471185D01*
X127002Y470049D01*
X128138Y469117D01*
X129434Y468424D01*
X130841Y467998D01*
X132303Y467854D01*
X147067Y467854D01*
X148529Y467998D01*
X149760Y468371D01*
X149970Y468402D01*
X152760Y466610D01*
X152760Y463667D01*
X151575Y461158D01*
X129764Y461158D01*
X129764Y431473D01*
X151575Y431473D01*
X152760Y428963D01*
X152760Y385370D01*
X124843Y385370D01*
X124843Y363559D01*
X152760Y363559D01*
X152760Y357811D01*
X124843Y357811D01*
X124843Y336000D01*
X130325Y336000D01*
X130325Y328131D01*
X130277Y328064D01*
X129491Y326522D01*
X128956Y324875D01*
X128685Y323165D01*
X128685Y321433D01*
X128956Y319723D01*
X129491Y318077D01*
X130277Y316534D01*
X131295Y315133D01*
X132519Y313909D01*
X133920Y312891D01*
X135463Y312105D01*
X137109Y311570D01*
X138819Y311299D01*
X140551Y311299D01*
X142261Y311570D01*
X143908Y312105D01*
X145450Y312891D01*
X146851Y313909D01*
X148075Y315133D01*
X149093Y316534D01*
X149879Y318077D01*
X150177Y318993D01*
X153202Y319057D01*
X153250Y319046D01*
X153324Y318736D01*
X154017Y317064D01*
X154962Y315521D01*
X156137Y314145D01*
X157513Y312970D01*
X159056Y312025D01*
X160728Y311332D01*
X162487Y310910D01*
X164291Y310768D01*
X166095Y310910D01*
X167855Y311332D01*
X169526Y312025D01*
X171069Y312970D01*
X172445Y314145D01*
X173620Y315521D01*
X174566Y317064D01*
X175258Y318736D01*
X175681Y320495D01*
X175823Y322299D01*
X175823Y374465D01*
X175823Y446315D01*
X175823Y483716D01*
X175823Y720921D01*
X175681Y722725D01*
X175258Y724485D01*
X174566Y726157D01*
X173620Y727699D01*
X172445Y729075D01*
X171069Y730250D01*
X169526Y731196D01*
X167855Y731888D01*
X166095Y732311D01*
X164291Y732453D01*
X121063Y732453D01*
X121063Y745606D01*
X121063Y745606D02*
G37*
G36*
X-332953Y469953D02*
X-421693Y469953D01*
X-421693Y459748D01*
X-463126Y459748D01*
X-465067Y459621D01*
X-466976Y459241D01*
X-468818Y458616D01*
X-470563Y457756D01*
X-472181Y456675D01*
X-473644Y455392D01*
X-517518Y411518D01*
X-518801Y410055D01*
X-519882Y408437D01*
X-520742Y406692D01*
X-521367Y404850D01*
X-521747Y402942D01*
X-521874Y401000D01*
X-521874Y196346D01*
X-521747Y194405D01*
X-521367Y192497D01*
X-520742Y190654D01*
X-519882Y188909D01*
X-518801Y187292D01*
X-517518Y185829D01*
X-483037Y151348D01*
X-481575Y150066D01*
X-479957Y148984D01*
X-478212Y148124D01*
X-476369Y147499D01*
X-474461Y147119D01*
X-472520Y146992D01*
X-470578Y147119D01*
X-468670Y147499D01*
X-466827Y148124D01*
X-465083Y148984D01*
X-463465Y150066D01*
X-462002Y151348D01*
X-460719Y152811D01*
X-459638Y154429D01*
X-458778Y156174D01*
X-458152Y158016D01*
X-457773Y159925D01*
X-457645Y161866D01*
X-457773Y163808D01*
X-458152Y165716D01*
X-458778Y167558D01*
X-459638Y169303D01*
X-460719Y170921D01*
X-462002Y172384D01*
X-492126Y202507D01*
X-492126Y394839D01*
X-456965Y430000D01*
X-421693Y430000D01*
X-421693Y419795D01*
X-332953Y419795D01*
X-332953Y469953D01*
X-332953Y469953D02*
G37*
G36*
X-266615Y172866D02*
X-268346Y172866D01*
X-270056Y172595D01*
X-271703Y172060D01*
X-273245Y171274D01*
X-274646Y170256D01*
X-275871Y169032D01*
X-276888Y167631D01*
X-277674Y166089D01*
X-278209Y164442D01*
X-278480Y162732D01*
X-278480Y161000D01*
X-278209Y159290D01*
X-277674Y157644D01*
X-276888Y156101D01*
X-275871Y154700D01*
X-274646Y153476D01*
X-273245Y152458D01*
X-271703Y151672D01*
X-270056Y151137D01*
X-268346Y150866D01*
X-266615Y150866D01*
X-264904Y151137D01*
X-263258Y151672D01*
X-261715Y152458D01*
X-260314Y153476D01*
X-259090Y154700D01*
X-258072Y156101D01*
X-257286Y157644D01*
X-256751Y159290D01*
X-256480Y161000D01*
X-256480Y162732D01*
X-256751Y164442D01*
X-257286Y166089D01*
X-258072Y167631D01*
X-259090Y169032D01*
X-260314Y170256D01*
X-261715Y171274D01*
X-263258Y172060D01*
X-264904Y172595D01*
X-266615Y172866D01*
X-266615Y172866D02*
G37*
G36*
X-309922Y120701D02*
X-311653Y120701D01*
X-313363Y120430D01*
X-315010Y119895D01*
X-316553Y119109D01*
X-317953Y118091D01*
X-319178Y116867D01*
X-320195Y115466D01*
X-320981Y113923D01*
X-321517Y112277D01*
X-321787Y110567D01*
X-321787Y108835D01*
X-321517Y107125D01*
X-320981Y105478D01*
X-320195Y103936D01*
X-319178Y102535D01*
X-317953Y101311D01*
X-316553Y100293D01*
X-315010Y99507D01*
X-313363Y98972D01*
X-311653Y98701D01*
X-309922Y98701D01*
X-308212Y98972D01*
X-306565Y99507D01*
X-305022Y100293D01*
X-303621Y101311D01*
X-302397Y102535D01*
X-301379Y103936D01*
X-300593Y105478D01*
X-300058Y107125D01*
X-299787Y108835D01*
X-299787Y110567D01*
X-300058Y112277D01*
X-300593Y113923D01*
X-301379Y115466D01*
X-302397Y116867D01*
X-303621Y118091D01*
X-305022Y119109D01*
X-306565Y119895D01*
X-308212Y120430D01*
X-309922Y120701D01*
X-309922Y120701D02*
G37*
G36*
X179055Y185209D02*
X177251Y185067D01*
X175492Y184644D01*
X173820Y183952D01*
X172277Y183006D01*
X170901Y181831D01*
X169726Y180455D01*
X168780Y178912D01*
X168088Y177241D01*
X167666Y175481D01*
X167524Y173677D01*
X167524Y145606D01*
X134488Y145606D01*
X134488Y107260D01*
X167524Y107260D01*
X167524Y92811D01*
X157858Y92811D01*
X157858Y59189D01*
X191480Y59189D01*
X191480Y92811D01*
X190587Y92811D01*
X190587Y123972D01*
X190587Y173677D01*
X190445Y175481D01*
X190022Y177241D01*
X189330Y178912D01*
X188384Y180455D01*
X187209Y181831D01*
X185833Y183006D01*
X184290Y183952D01*
X182619Y184644D01*
X180859Y185067D01*
X179055Y185209D01*
X179055Y185209D02*
G37*
G36*
X103000Y100531D02*
X101196Y100389D01*
X99437Y99967D01*
X97765Y99275D01*
X96222Y98329D01*
X94846Y97154D01*
X93671Y95778D01*
X92725Y94235D01*
X92033Y92563D01*
X91611Y90804D01*
X91469Y89000D01*
X91469Y85000D01*
X91611Y83196D01*
X92033Y81437D01*
X92725Y79765D01*
X93671Y78222D01*
X94846Y76846D01*
X102846Y68846D01*
X104222Y67671D01*
X105765Y66725D01*
X107437Y66033D01*
X109196Y65611D01*
X111000Y65469D01*
X116520Y65469D01*
X116520Y59189D01*
X150142Y59189D01*
X150142Y92811D01*
X116520Y92811D01*
X116520Y92811D01*
X113692Y93227D01*
X113275Y94235D01*
X112329Y95778D01*
X111154Y97154D01*
X109778Y98329D01*
X108235Y99275D01*
X106563Y99967D01*
X104804Y100389D01*
X103000Y100531D01*
X103000Y100531D02*
G37*
G36*
X-332953Y269953D02*
X-421693Y269953D01*
X-421693Y219795D01*
X-332953Y219795D01*
X-332953Y230000D01*
X-216035Y230000D01*
X-151874Y165839D01*
X-151874Y12000D01*
X-151747Y10059D01*
X-151368Y8150D01*
X-150742Y6308D01*
X-149882Y4563D01*
X-148801Y2945D01*
X-147518Y1482D01*
X-81518Y-64518D01*
X-80055Y-65801D01*
X-78437Y-66882D01*
X-76692Y-67742D01*
X-74850Y-68368D01*
X-72942Y-68747D01*
X-71000Y-68874D01*
X0Y-68874D01*
X1942Y-68747D01*
X3850Y-68368D01*
X5692Y-67742D01*
X7437Y-66882D01*
X9055Y-65801D01*
X10518Y-64518D01*
X11801Y-63055D01*
X12882Y-61437D01*
X13742Y-59692D01*
X14367Y-57850D01*
X14747Y-55941D01*
X14874Y-54000D01*
X14747Y-52059D01*
X14367Y-50150D01*
X13742Y-48308D01*
X12882Y-46563D01*
X11801Y-44945D01*
X10518Y-43482D01*
X9055Y-42199D01*
X7437Y-41118D01*
X5692Y-40258D01*
X3850Y-39633D01*
X1942Y-39253D01*
X0Y-39126D01*
X-64839Y-39126D01*
X-122126Y18161D01*
X-122126Y172000D01*
X-122253Y173941D01*
X-122632Y175850D01*
X-123258Y177692D01*
X-124118Y179437D01*
X-125199Y181055D01*
X-126482Y182518D01*
X-199356Y255392D01*
X-200819Y256675D01*
X-202437Y257756D01*
X-204182Y258616D01*
X-206024Y259241D01*
X-207933Y259621D01*
X-209874Y259748D01*
X-332953Y259748D01*
X-332953Y269953D01*
X-332953Y269953D02*
G37*
G36*
X47598Y-105339D02*
X45867Y-105339D01*
X44157Y-105609D01*
X42510Y-106144D01*
X40967Y-106931D01*
X39566Y-107948D01*
X38342Y-109173D01*
X37324Y-110573D01*
X36538Y-112116D01*
X36003Y-113763D01*
X35732Y-115473D01*
X35732Y-117204D01*
X36003Y-118914D01*
X36538Y-120561D01*
X37324Y-122104D01*
X38342Y-123505D01*
X39566Y-124729D01*
X40967Y-125747D01*
X42510Y-126533D01*
X44157Y-127068D01*
X45867Y-127339D01*
X47598Y-127339D01*
X49308Y-127068D01*
X50955Y-126533D01*
X52498Y-125747D01*
X53898Y-124729D01*
X55123Y-123505D01*
X56140Y-122104D01*
X56926Y-120561D01*
X57462Y-118914D01*
X57732Y-117204D01*
X57732Y-115473D01*
X57462Y-113763D01*
X56926Y-112116D01*
X56140Y-110573D01*
X55123Y-109173D01*
X53898Y-107948D01*
X52498Y-106931D01*
X50955Y-106144D01*
X49308Y-105609D01*
X47598Y-105339D01*
X47598Y-105339D02*
G37*
G36*
X-45473Y-105339D02*
X-47204Y-105339D01*
X-48914Y-105609D01*
X-50561Y-106144D01*
X-52104Y-106931D01*
X-53505Y-107948D01*
X-54729Y-109173D01*
X-55747Y-110573D01*
X-56533Y-112116D01*
X-57068Y-113763D01*
X-57339Y-115473D01*
X-57339Y-117204D01*
X-57068Y-118914D01*
X-56533Y-120561D01*
X-55747Y-122104D01*
X-54729Y-123505D01*
X-53505Y-124729D01*
X-52104Y-125747D01*
X-50561Y-126533D01*
X-48914Y-127068D01*
X-47204Y-127339D01*
X-45473Y-127339D01*
X-43763Y-127068D01*
X-42116Y-126533D01*
X-40573Y-125747D01*
X-39173Y-124729D01*
X-37948Y-123505D01*
X-36931Y-122104D01*
X-36145Y-120561D01*
X-35609Y-118914D01*
X-35339Y-117204D01*
X-35339Y-115473D01*
X-35609Y-113763D01*
X-36145Y-112116D01*
X-36931Y-110573D01*
X-37948Y-109173D01*
X-39173Y-107948D01*
X-40573Y-106931D01*
X-42116Y-106144D01*
X-43763Y-105609D01*
X-45473Y-105339D01*
X-45473Y-105339D02*
G37*
%LPD*%
G36*
X710542Y1203287D02*
X679669Y1203287D01*
X679654Y1203281D01*
X679648Y1203266D01*
X679648Y1167833D01*
X679654Y1167818D01*
X679669Y1167811D01*
X714959Y1167811D01*
X714959Y1110767D01*
X679669Y1110767D01*
X679654Y1110761D01*
X679648Y1110746D01*
X679648Y1075313D01*
X679654Y1075298D01*
X679669Y1075292D01*
X714959Y1075292D01*
X714959Y1018248D01*
X679669Y1018248D01*
X679654Y1018241D01*
X679648Y1018226D01*
X679648Y982793D01*
X679654Y982778D01*
X679669Y982772D01*
X710542Y982772D01*
X710542Y925728D01*
X679669Y925728D01*
X679654Y925722D01*
X679648Y925707D01*
X679648Y890274D01*
X679654Y890259D01*
X679669Y890252D01*
X680489Y890252D01*
X680489Y855549D01*
X680495Y855534D01*
X680510Y855528D01*
X681589Y855528D01*
X681589Y837251D01*
X673341Y829004D01*
X655634Y829004D01*
X655619Y828997D01*
X655612Y828982D01*
X655612Y809297D01*
X655619Y809282D01*
X655634Y809276D01*
X673342Y809276D01*
X681589Y801029D01*
X681589Y774275D01*
X673341Y766027D01*
X641197Y766027D01*
X641182Y766021D01*
X641176Y766006D01*
X641176Y742880D01*
X641182Y742865D01*
X641197Y742859D01*
X644191Y742859D01*
X644191Y708460D01*
X641197Y708460D01*
X641182Y708454D01*
X641176Y708439D01*
X641176Y685313D01*
X641182Y685298D01*
X641197Y685292D01*
X673341Y685292D01*
X681589Y677044D01*
X681589Y655212D01*
X673341Y646964D01*
X606342Y646964D01*
X606327Y646958D01*
X606321Y646943D01*
X606321Y602829D01*
X606327Y602814D01*
X606342Y602808D01*
X673342Y602808D01*
X681589Y594560D01*
X681589Y572727D01*
X673341Y564480D01*
X641197Y564480D01*
X641182Y564474D01*
X641176Y564459D01*
X641176Y541333D01*
X641182Y541318D01*
X641197Y541311D01*
X644191Y541311D01*
X644191Y506913D01*
X641197Y506913D01*
X641182Y506907D01*
X641176Y506892D01*
X641176Y483766D01*
X641182Y483751D01*
X641197Y483745D01*
X673342Y483745D01*
X681589Y475497D01*
X681589Y467041D01*
X681595Y467026D01*
X681610Y467020D01*
X682971Y467020D01*
X682971Y433104D01*
X682977Y433089D01*
X682992Y433083D01*
X684644Y433083D01*
X684644Y399594D01*
X671694Y399594D01*
X671694Y433083D01*
X673346Y433083D01*
X673361Y433089D01*
X673368Y433104D01*
X673368Y467020D01*
X674728Y467020D01*
X674743Y467026D01*
X674750Y467041D01*
X674750Y476884D01*
X674743Y476899D01*
X674728Y476905D01*
X642584Y476905D01*
X634336Y485153D01*
X634336Y503451D01*
X634330Y503466D01*
X634315Y503472D01*
X598756Y503472D01*
X598741Y503466D01*
X598735Y503451D01*
X598735Y485153D01*
X590487Y476905D01*
X558342Y476905D01*
X558327Y476899D01*
X558321Y476884D01*
X558321Y467041D01*
X558327Y467026D01*
X558342Y467020D01*
X559703Y467020D01*
X559703Y433104D01*
X559709Y433089D01*
X559724Y433083D01*
X561376Y433083D01*
X561376Y399594D01*
X548427Y399594D01*
X548427Y433083D01*
X550079Y433083D01*
X550094Y433089D01*
X550100Y433104D01*
X550100Y467020D01*
X551461Y467020D01*
X551476Y467026D01*
X551482Y467041D01*
X551482Y475497D01*
X559729Y483745D01*
X591874Y483745D01*
X591889Y483751D01*
X591895Y483766D01*
X591895Y506892D01*
X591889Y506907D01*
X591874Y506913D01*
X588880Y506913D01*
X588880Y541311D01*
X591874Y541311D01*
X591889Y541318D01*
X591895Y541333D01*
X591895Y564459D01*
X591889Y564474D01*
X591874Y564480D01*
X559729Y564480D01*
X551482Y572727D01*
X551482Y600868D01*
X551476Y600883D01*
X551461Y600889D01*
X435075Y600889D01*
X435060Y600883D01*
X435053Y600868D01*
X435053Y572727D01*
X426806Y564480D01*
X394661Y564480D01*
X394646Y564474D01*
X394640Y564459D01*
X394640Y541333D01*
X394646Y541318D01*
X394661Y541311D01*
X397656Y541311D01*
X397656Y506913D01*
X394661Y506913D01*
X394646Y506907D01*
X394640Y506892D01*
X394640Y483766D01*
X394646Y483751D01*
X394661Y483745D01*
X426806Y483745D01*
X435053Y475497D01*
X435053Y467041D01*
X435060Y467026D01*
X435075Y467020D01*
X436435Y467020D01*
X436435Y433104D01*
X436442Y433089D01*
X436457Y433083D01*
X438109Y433083D01*
X438109Y399594D01*
X425159Y399594D01*
X425159Y433083D01*
X426811Y433083D01*
X426826Y433089D01*
X426832Y433104D01*
X426832Y467020D01*
X428193Y467020D01*
X428208Y467026D01*
X428214Y467041D01*
X428214Y476884D01*
X428208Y476899D01*
X428193Y476905D01*
X396048Y476905D01*
X387801Y485153D01*
X387801Y503451D01*
X387795Y503466D01*
X387779Y503472D01*
X352221Y503472D01*
X352205Y503466D01*
X352199Y503451D01*
X352199Y485153D01*
X343952Y476905D01*
X311807Y476905D01*
X311792Y476899D01*
X311786Y476884D01*
X311786Y467041D01*
X311792Y467026D01*
X311807Y467020D01*
X313168Y467020D01*
X313168Y433104D01*
X313174Y433089D01*
X313189Y433083D01*
X314841Y433083D01*
X314841Y399594D01*
X301891Y399594D01*
X301891Y433083D01*
X303543Y433083D01*
X303558Y433089D01*
X303565Y433104D01*
X303565Y467020D01*
X304925Y467020D01*
X304940Y467026D01*
X304947Y467041D01*
X304947Y475497D01*
X313194Y483745D01*
X345339Y483745D01*
X345354Y483751D01*
X345360Y483766D01*
X345360Y506892D01*
X345354Y506907D01*
X345339Y506913D01*
X342344Y506913D01*
X342344Y541311D01*
X345339Y541311D01*
X345354Y541318D01*
X345360Y541333D01*
X345360Y564459D01*
X345354Y564474D01*
X345339Y564480D01*
X313194Y564480D01*
X304947Y572727D01*
X304947Y594560D01*
X313194Y602808D01*
X345957Y602808D01*
X345972Y602814D01*
X345978Y602829D01*
X345978Y646943D01*
X345972Y646958D01*
X345957Y646964D01*
X313194Y646964D01*
X304947Y655212D01*
X304947Y677044D01*
X313194Y685292D01*
X345339Y685292D01*
X345354Y685298D01*
X345360Y685313D01*
X345360Y708439D01*
X345354Y708454D01*
X345339Y708460D01*
X342344Y708460D01*
X342344Y742859D01*
X345339Y742859D01*
X345354Y742865D01*
X345360Y742880D01*
X345360Y766006D01*
X345354Y766021D01*
X345339Y766027D01*
X313194Y766027D01*
X304947Y774275D01*
X304947Y855528D01*
X306026Y855528D01*
X306041Y855534D01*
X306047Y855549D01*
X306047Y890252D01*
X306866Y890252D01*
X306881Y890259D01*
X306887Y890274D01*
X306887Y925707D01*
X306881Y925722D01*
X306866Y925728D01*
X275994Y925728D01*
X275994Y982772D01*
X306866Y982772D01*
X306881Y982778D01*
X306887Y982793D01*
X306887Y1018226D01*
X306881Y1018241D01*
X306866Y1018248D01*
X271576Y1018248D01*
X271576Y1075292D01*
X306866Y1075292D01*
X306881Y1075298D01*
X306887Y1075313D01*
X306887Y1110746D01*
X306881Y1110761D01*
X306866Y1110767D01*
X271576Y1110767D01*
X271576Y1167811D01*
X306866Y1167811D01*
X306881Y1167818D01*
X306887Y1167833D01*
X306887Y1203266D01*
X306881Y1203281D01*
X306866Y1203287D01*
X275994Y1203287D01*
X275994Y1260331D01*
X340738Y1260331D01*
X340738Y1203287D01*
X309866Y1203287D01*
X309851Y1203281D01*
X309845Y1203266D01*
X309845Y1167833D01*
X309851Y1167818D01*
X309866Y1167811D01*
X345156Y1167811D01*
X345156Y1110767D01*
X309866Y1110767D01*
X309851Y1110761D01*
X309845Y1110746D01*
X309845Y1075313D01*
X309851Y1075298D01*
X309866Y1075292D01*
X345156Y1075292D01*
X345156Y1018248D01*
X309866Y1018248D01*
X309851Y1018241D01*
X309845Y1018226D01*
X309845Y982793D01*
X309851Y982778D01*
X309866Y982772D01*
X340738Y982772D01*
X340738Y925728D01*
X309866Y925728D01*
X309851Y925722D01*
X309845Y925707D01*
X309845Y890274D01*
X309851Y890259D01*
X309866Y890252D01*
X310685Y890252D01*
X310685Y855549D01*
X310692Y855534D01*
X310707Y855528D01*
X311786Y855528D01*
X311786Y772888D01*
X311792Y772873D01*
X311807Y772867D01*
X343952Y772867D01*
X352199Y764619D01*
X352199Y746321D01*
X352205Y746306D01*
X352221Y746300D01*
X387779Y746300D01*
X387795Y746306D01*
X387801Y746321D01*
X387801Y764619D01*
X396048Y772867D01*
X428193Y772867D01*
X428208Y772873D01*
X428214Y772888D01*
X428214Y802415D01*
X428208Y802431D01*
X428193Y802437D01*
X410485Y802437D01*
X402238Y810684D01*
X402238Y827596D01*
X410485Y835843D01*
X428193Y835843D01*
X428208Y835849D01*
X428214Y835864D01*
X428214Y855528D01*
X429293Y855528D01*
X429308Y855534D01*
X429315Y855549D01*
X429315Y890252D01*
X430134Y890252D01*
X430149Y890259D01*
X430155Y890274D01*
X430155Y925707D01*
X430149Y925722D01*
X430134Y925728D01*
X399261Y925728D01*
X399261Y982772D01*
X430134Y982772D01*
X430149Y982778D01*
X430155Y982793D01*
X430155Y1018226D01*
X430149Y1018241D01*
X430134Y1018248D01*
X394844Y1018248D01*
X394844Y1075292D01*
X430134Y1075292D01*
X430149Y1075298D01*
X430155Y1075313D01*
X430155Y1110746D01*
X430149Y1110761D01*
X430134Y1110767D01*
X394844Y1110767D01*
X394844Y1167811D01*
X430134Y1167811D01*
X430149Y1167818D01*
X430155Y1167833D01*
X430155Y1203266D01*
X430149Y1203281D01*
X430134Y1203287D01*
X399261Y1203287D01*
X399261Y1260331D01*
X464006Y1260331D01*
X464006Y1203287D01*
X433134Y1203287D01*
X433119Y1203281D01*
X433113Y1203266D01*
X433113Y1167833D01*
X433119Y1167818D01*
X433134Y1167811D01*
X468424Y1167811D01*
X468424Y1110767D01*
X433134Y1110767D01*
X433119Y1110761D01*
X433113Y1110746D01*
X433113Y1075313D01*
X433119Y1075298D01*
X433134Y1075292D01*
X468424Y1075292D01*
X468424Y1018248D01*
X433134Y1018248D01*
X433119Y1018241D01*
X433113Y1018226D01*
X433113Y982793D01*
X433119Y982778D01*
X433134Y982772D01*
X464006Y982772D01*
X464006Y925728D01*
X433134Y925728D01*
X433119Y925722D01*
X433113Y925707D01*
X433113Y890274D01*
X433119Y890259D01*
X433134Y890252D01*
X433953Y890252D01*
X433953Y855549D01*
X433959Y855534D01*
X433974Y855528D01*
X435053Y855528D01*
X435053Y837251D01*
X426806Y829004D01*
X409098Y829004D01*
X409083Y828997D01*
X409077Y828982D01*
X409077Y809297D01*
X409083Y809282D01*
X409098Y809276D01*
X426806Y809276D01*
X435053Y801029D01*
X435053Y774275D01*
X426806Y766027D01*
X394661Y766027D01*
X394646Y766021D01*
X394640Y766006D01*
X394640Y742880D01*
X394646Y742865D01*
X394661Y742859D01*
X397656Y742859D01*
X397656Y708460D01*
X394661Y708460D01*
X394646Y708454D01*
X394640Y708439D01*
X394640Y685313D01*
X394646Y685298D01*
X394661Y685292D01*
X426806Y685292D01*
X435053Y677044D01*
X435053Y648904D01*
X435060Y648889D01*
X435075Y648882D01*
X551461Y648882D01*
X551476Y648889D01*
X551482Y648904D01*
X551482Y677044D01*
X559729Y685292D01*
X591874Y685292D01*
X591889Y685298D01*
X591895Y685313D01*
X591895Y708439D01*
X591889Y708454D01*
X591874Y708460D01*
X588880Y708460D01*
X588880Y742859D01*
X591874Y742859D01*
X591889Y742865D01*
X591895Y742880D01*
X591895Y766006D01*
X591889Y766021D01*
X591874Y766027D01*
X559729Y766027D01*
X551482Y774275D01*
X551482Y855528D01*
X552561Y855528D01*
X552576Y855534D01*
X552582Y855549D01*
X552582Y890252D01*
X553402Y890252D01*
X553417Y890259D01*
X553423Y890274D01*
X553423Y925707D01*
X553417Y925722D01*
X553402Y925728D01*
X522529Y925728D01*
X522529Y982772D01*
X553402Y982772D01*
X553417Y982778D01*
X553423Y982793D01*
X553423Y1018226D01*
X553417Y1018241D01*
X553402Y1018248D01*
X518112Y1018248D01*
X518112Y1075292D01*
X553402Y1075292D01*
X553417Y1075298D01*
X553423Y1075313D01*
X553423Y1110746D01*
X553417Y1110761D01*
X553402Y1110767D01*
X518112Y1110767D01*
X518112Y1167811D01*
X553402Y1167811D01*
X553417Y1167818D01*
X553423Y1167833D01*
X553423Y1203266D01*
X553417Y1203281D01*
X553402Y1203287D01*
X522529Y1203287D01*
X522529Y1260331D01*
X587274Y1260331D01*
X587274Y1203287D01*
X556402Y1203287D01*
X556386Y1203281D01*
X556380Y1203266D01*
X556380Y1167833D01*
X556386Y1167818D01*
X556402Y1167811D01*
X591691Y1167811D01*
X591691Y1110767D01*
X556402Y1110767D01*
X556386Y1110761D01*
X556380Y1110746D01*
X556380Y1075313D01*
X556386Y1075298D01*
X556402Y1075292D01*
X591691Y1075292D01*
X591691Y1018248D01*
X556402Y1018248D01*
X556386Y1018241D01*
X556380Y1018226D01*
X556380Y982793D01*
X556386Y982778D01*
X556402Y982772D01*
X587274Y982772D01*
X587274Y925728D01*
X556402Y925728D01*
X556386Y925722D01*
X556380Y925707D01*
X556380Y890274D01*
X556386Y890259D01*
X556402Y890252D01*
X557221Y890252D01*
X557221Y855549D01*
X557227Y855534D01*
X557242Y855528D01*
X558321Y855528D01*
X558321Y772888D01*
X558327Y772873D01*
X558342Y772867D01*
X590487Y772867D01*
X598735Y764619D01*
X598735Y746321D01*
X598741Y746306D01*
X598756Y746300D01*
X634315Y746300D01*
X634330Y746306D01*
X634336Y746321D01*
X634336Y764619D01*
X642584Y772867D01*
X674728Y772867D01*
X674743Y772873D01*
X674750Y772888D01*
X674750Y802415D01*
X674743Y802431D01*
X674728Y802437D01*
X657021Y802437D01*
X648773Y810684D01*
X648773Y827596D01*
X657021Y835843D01*
X674728Y835843D01*
X674743Y835849D01*
X674750Y835864D01*
X674750Y855528D01*
X675829Y855528D01*
X675844Y855534D01*
X675850Y855549D01*
X675850Y890252D01*
X676669Y890252D01*
X676684Y890259D01*
X676691Y890274D01*
X676691Y925707D01*
X676684Y925722D01*
X676669Y925728D01*
X645797Y925728D01*
X645797Y982772D01*
X676669Y982772D01*
X676684Y982778D01*
X676691Y982793D01*
X676691Y1018226D01*
X676684Y1018241D01*
X676669Y1018248D01*
X641380Y1018248D01*
X641380Y1075292D01*
X676669Y1075292D01*
X676684Y1075298D01*
X676691Y1075313D01*
X676691Y1110746D01*
X676684Y1110761D01*
X676669Y1110767D01*
X641380Y1110767D01*
X641380Y1167811D01*
X676669Y1167811D01*
X676684Y1167818D01*
X676691Y1167833D01*
X676691Y1203266D01*
X676684Y1203281D01*
X676669Y1203287D01*
X645797Y1203287D01*
X645797Y1260331D01*
X710542Y1260331D01*
X710542Y1203287D01*
X710542Y1203287D02*
G37*
G36*
X561399Y390225D02*
X561398Y353047D01*
X608898Y353047D01*
X624488Y337457D01*
X624488Y308401D01*
X611496Y295409D01*
X611496Y295409D01*
X608898Y292811D01*
X531260Y292811D01*
X531260Y282575D01*
X518268Y282575D01*
X518268Y290213D01*
X520866Y292811D01*
X520866Y292811D01*
X533858Y305803D01*
X611496Y305803D01*
X611496Y340054D01*
X563996Y340055D01*
X551004Y353047D01*
X551004Y353047D01*
X548406Y355646D01*
X548406Y390225D01*
X561398Y390225D01*
X561395Y390447D01*
X561399Y390225D01*
X561399Y390225D02*
G37*
G36*
X425138Y390225D02*
X438130Y390225D01*
X438130Y355646D01*
X435531Y353047D01*
X435531Y353047D01*
X422539Y340055D01*
X375039Y340054D01*
X375039Y305803D01*
X452677Y305803D01*
X465669Y292811D01*
X465669Y292811D01*
X468268Y290213D01*
X468268Y282575D01*
X455276Y282575D01*
X455276Y292811D01*
X377638Y292811D01*
X375039Y295409D01*
X375039Y295409D01*
X362047Y308401D01*
X362047Y337457D01*
X377638Y353047D01*
X425138Y353047D01*
X425137Y390225D01*
X425141Y390447D01*
X425138Y390225D01*
X425138Y390225D02*
G37*
G36*
X684666Y390225D02*
X684665Y225094D01*
X671673Y212102D01*
X671673Y212102D01*
X669075Y209504D01*
X558937Y209504D01*
X558937Y222496D01*
X671673Y222496D01*
X671673Y390225D01*
X684665Y390225D01*
X684663Y390447D01*
X684666Y390225D01*
X684666Y390225D02*
G37*
G36*
X314863Y390225D02*
X314862Y222496D01*
X427599Y222496D01*
X427599Y209504D01*
X427820Y209507D01*
X427599Y209503D01*
X317460Y209504D01*
X301870Y225094D01*
X301870Y390225D01*
X314862Y390225D01*
X314859Y390447D01*
X314863Y390225D01*
X314863Y390225D02*
G37*
%LPC*%
G36*
X631299Y739460D02*
X601772Y739460D01*
X601756Y739454D01*
X601750Y739439D01*
X601750Y711880D01*
X601756Y711865D01*
X601772Y711859D01*
X631299Y711859D01*
X631314Y711865D01*
X631321Y711880D01*
X631321Y739439D01*
X631314Y739454D01*
X631299Y739460D01*
X631299Y739460D02*
G37*
G36*
X384764Y739460D02*
X355236Y739460D01*
X355221Y739454D01*
X355215Y739439D01*
X355215Y711880D01*
X355221Y711865D01*
X355236Y711859D01*
X384764Y711859D01*
X384779Y711865D01*
X384785Y711880D01*
X384785Y739439D01*
X384779Y739454D01*
X384764Y739460D01*
X384764Y739460D02*
G37*
G36*
X530980Y642043D02*
X496709Y642043D01*
X496693Y642037D01*
X496687Y642022D01*
X496687Y607750D01*
X496693Y607735D01*
X496709Y607729D01*
X530980Y607729D01*
X530995Y607735D01*
X531002Y607750D01*
X531002Y642022D01*
X530995Y642037D01*
X530980Y642043D01*
X530980Y642043D02*
G37*
G36*
X489827Y642043D02*
X455555Y642043D01*
X455540Y642037D01*
X455534Y642022D01*
X455534Y607750D01*
X455540Y607735D01*
X455555Y607729D01*
X489827Y607729D01*
X489842Y607735D01*
X489848Y607750D01*
X489848Y642022D01*
X489842Y642037D01*
X489827Y642043D01*
X489827Y642043D02*
G37*
G36*
X634315Y705019D02*
X598756Y705019D01*
X598741Y705013D01*
X598735Y704998D01*
X598735Y686700D01*
X590487Y678452D01*
X558342Y678452D01*
X558327Y678446D01*
X558321Y678431D01*
X558321Y650290D01*
X550074Y642043D01*
X537862Y642043D01*
X537847Y642037D01*
X537841Y642022D01*
X537841Y607750D01*
X537847Y607735D01*
X537862Y607729D01*
X550074Y607729D01*
X558321Y599481D01*
X558321Y571341D01*
X558327Y571326D01*
X558342Y571319D01*
X590487Y571319D01*
X598735Y563072D01*
X598735Y544774D01*
X598741Y544759D01*
X598756Y544752D01*
X634315Y544752D01*
X634330Y544759D01*
X634336Y544774D01*
X634336Y563072D01*
X642584Y571319D01*
X674728Y571319D01*
X674743Y571326D01*
X674750Y571341D01*
X674750Y595947D01*
X674743Y595962D01*
X674728Y595968D01*
X607729Y595968D01*
X599482Y604216D01*
X599482Y645556D01*
X607729Y653804D01*
X674728Y653804D01*
X674743Y653810D01*
X674750Y653825D01*
X674750Y678431D01*
X674743Y678446D01*
X674728Y678452D01*
X642584Y678452D01*
X634336Y686700D01*
X634336Y704998D01*
X634330Y705013D01*
X634315Y705019D01*
X634315Y705019D02*
G37*
G36*
X387779Y705019D02*
X352221Y705019D01*
X352205Y705013D01*
X352199Y704998D01*
X352199Y686700D01*
X343952Y678452D01*
X311807Y678452D01*
X311792Y678446D01*
X311786Y678431D01*
X311786Y653825D01*
X311792Y653810D01*
X311807Y653804D01*
X344570Y653804D01*
X352817Y645556D01*
X352817Y604216D01*
X344570Y595968D01*
X311807Y595968D01*
X311792Y595962D01*
X311786Y595947D01*
X311786Y571341D01*
X311792Y571326D01*
X311807Y571319D01*
X343952Y571319D01*
X352199Y563072D01*
X352199Y544774D01*
X352205Y544759D01*
X352221Y544752D01*
X387779Y544752D01*
X387795Y544759D01*
X387801Y544774D01*
X387801Y563072D01*
X396048Y571319D01*
X428193Y571319D01*
X428208Y571326D01*
X428214Y571341D01*
X428214Y599481D01*
X436462Y607729D01*
X448673Y607729D01*
X448688Y607735D01*
X448695Y607750D01*
X448695Y642022D01*
X448688Y642037D01*
X448673Y642043D01*
X436462Y642043D01*
X428214Y650290D01*
X428214Y678431D01*
X428208Y678446D01*
X428193Y678452D01*
X396048Y678452D01*
X387801Y686700D01*
X387801Y704998D01*
X387795Y705013D01*
X387779Y705019D01*
X387779Y705019D02*
G37*
G36*
X631299Y537913D02*
X601772Y537913D01*
X601756Y537907D01*
X601750Y537892D01*
X601750Y510333D01*
X601756Y510318D01*
X601772Y510311D01*
X631299Y510311D01*
X631314Y510318D01*
X631321Y510333D01*
X631321Y537892D01*
X631314Y537907D01*
X631299Y537913D01*
X631299Y537913D02*
G37*
G36*
X384764Y537913D02*
X355236Y537913D01*
X355221Y537907D01*
X355215Y537892D01*
X355215Y510333D01*
X355221Y510318D01*
X355236Y510311D01*
X384764Y510311D01*
X384779Y510318D01*
X384785Y510333D01*
X384785Y537892D01*
X384779Y537907D01*
X384764Y537913D01*
X384764Y537913D02*
G37*
%LPD*%
D10*
X195149Y418117D02*
X200709Y423677D01*
X139685Y374465D02*
X164291Y374465D01*
X140669Y446315D02*
X164291Y446315D01*
D13*
X509016Y166500D02*
X509016Y200252D01*
X513016Y200252D02*
X542768Y200252D01*
X493268Y216000D02*
X493268Y265500D01*
X511016Y198252D02*
X524764Y184504D01*
X524764Y166500D02*
X524764Y184504D01*
X512480Y200787D02*
X513016Y200252D01*
X493268Y216000D02*
X509016Y231748D01*
X355945Y86079D02*
X380172Y86079D01*
X540512Y265500D02*
X541575Y264437D01*
X541575Y248559D02*
X541575Y264437D01*
X509016Y231748D02*
X509016Y265500D01*
X541575Y248559D02*
X542638Y247496D01*
X542768Y247496D01*
X524764Y247496D02*
X542768Y247496D01*
X509016Y231748D02*
X524764Y247496D01*
X509016Y231748D02*
X542768Y231748D01*
X444961Y248559D02*
X444961Y264437D01*
X477520Y231748D02*
X477520Y265500D01*
X443768Y247496D02*
X461772Y247496D01*
X477520Y231748D01*
X443768Y231748D02*
X477520Y231748D01*
X472575Y200252D02*
X473110Y200787D01*
X443768Y200252D02*
X472575Y200252D01*
X461772Y184504D02*
X475047Y197780D01*
X477520Y166500D02*
X477520Y200252D01*
X461772Y166500D02*
X461772Y184504D01*
D20*
X678169Y416339D02*
D03*
X554902Y416339D02*
D03*
X431634Y416339D02*
D03*
X308366Y416339D02*
D03*
D21*
X343110Y142520D02*
D03*
X343110Y122496D02*
D03*
X643425Y142520D02*
D03*
X643425Y122496D02*
D03*
D22*
X606363Y86079D02*
D03*
X586339Y86079D02*
D03*
X380172Y86079D02*
D03*
X400197Y86079D02*
D03*
D27*
X542768Y184504D02*
D03*
X542768Y200252D02*
D03*
X542768Y216000D02*
D03*
X542768Y231748D02*
D03*
X542768Y247496D02*
D03*
X443768Y247496D02*
D03*
X443768Y231748D02*
D03*
X443768Y216000D02*
D03*
X443768Y200252D02*
D03*
X443768Y184504D02*
D03*
D28*
X540512Y265500D02*
D03*
X524764Y265500D02*
D03*
X509016Y265500D02*
D03*
X493268Y265500D02*
D03*
X477520Y265500D02*
D03*
X461772Y265500D02*
D03*
X446024Y265500D02*
D03*
X446024Y166500D02*
D03*
X461772Y166500D02*
D03*
X477520Y166500D02*
D03*
X493268Y166500D02*
D03*
X509016Y166500D02*
D03*
X524764Y166500D02*
D03*
X540512Y166500D02*
D03*
D29*
X493268Y216000D02*
D03*
D32*
X-716535Y-181102D02*
D03*
D33*
X678169Y380442D02*
X678169Y406969D01*
X678169Y416339D01*
X554902Y380442D02*
X554902Y406969D01*
X554902Y416339D01*
X308366Y380442D02*
X308366Y406969D01*
X308366Y416339D01*
X431634Y406969D02*
X431634Y416339D01*
X431634Y380442D02*
X431634Y406969D01*
X103000Y85000D02*
X103000Y89000D01*
X103000Y85000D02*
X111000Y77000D01*
X132331Y77000D01*
X133331Y76000D01*
X179055Y123972D02*
X179055Y173677D01*
X195149Y362654D02*
X195149Y418117D01*
X195149Y361669D02*
X195149Y362654D01*
X195149Y321660D02*
X195149Y361669D01*
X179055Y123972D02*
X179055Y126433D01*
X154449Y126433D02*
X179055Y126433D01*
X179055Y74268D02*
X179055Y123972D01*
X164291Y374465D02*
X164291Y446315D01*
X164291Y322299D02*
X164291Y374465D01*
X164291Y446315D02*
X164291Y483716D01*
X164291Y720921D01*
X95394Y720921D02*
X164291Y720921D01*
X139685Y483716D02*
X164291Y483716D01*
D34*
X308366Y368799D02*
X309055Y368110D01*
X493110Y146654D02*
X493189Y146732D01*
X493189Y166421D02*
X493268Y166500D01*
X493189Y146732D02*
X493189Y166421D01*
X572559Y184504D02*
X596181Y160882D01*
X542768Y184504D02*
X572559Y184504D01*
X540512Y123047D02*
X552874Y110685D01*
X540512Y123047D02*
X540512Y166500D01*
X446024Y123047D02*
X446024Y166500D01*
X433661Y110685D02*
X446024Y123047D01*
X413976Y184504D02*
X443768Y184504D01*
X390354Y160882D02*
X413976Y184504D01*
X461772Y265500D02*
X461772Y287854D01*
X643425Y142520D02*
X643425Y155808D01*
X638351Y160882D02*
X643425Y155808D01*
X552874Y98874D02*
X552874Y110685D01*
X552874Y98874D02*
X565669Y86079D01*
X586339Y86079D01*
X433661Y98874D02*
X433661Y110685D01*
X400197Y86079D02*
X420866Y86079D01*
X433661Y98874D01*
X343110Y155808D02*
X348184Y160882D01*
X343110Y142520D02*
X343110Y155808D01*
X542768Y216000D02*
X568898Y216000D01*
X524764Y265500D02*
X524764Y287085D01*
X596181Y160882D02*
X638351Y160882D01*
X413921Y216000D02*
X443768Y216000D01*
X348184Y160882D02*
X390354Y160882D01*
X139685Y322299D02*
X139685Y322299D01*
X139685Y322299D02*
X139685Y346906D01*
D35*
X473583Y216000D02*
D03*
X493110Y146654D02*
D03*
X115157Y117126D02*
D03*
X115157Y135827D02*
D03*
X355945Y85630D02*
D03*
X-232284Y85630D02*
D03*
X0Y11811D02*
D03*
X118031Y243559D02*
D03*
X149528Y243559D02*
D03*
X493740Y231213D02*
D03*
X474055Y231213D02*
D03*
X513425Y231213D02*
D03*
X512953Y216000D02*
D03*
X493268Y216000D02*
D03*
X-350394Y200787D02*
D03*
X-389764Y200787D02*
D03*
X-370079Y200787D02*
D03*
X-472520Y161866D02*
D03*
X14000Y1146000D02*
D03*
X46732Y-116339D02*
D03*
X-46339Y-116339D02*
D03*
X0Y-54000D02*
D03*
X11000Y1251000D02*
D03*
X232000Y311000D02*
D03*
X-43000Y846236D02*
D03*
X103000Y89000D02*
D03*
X390480Y161866D02*
D03*
X433787Y109701D02*
D03*
X552213Y109701D02*
D03*
X595520Y161866D02*
D03*
X-267480Y161866D02*
D03*
X-310787Y109701D02*
D03*
X-429213Y109701D02*
D03*
X195149Y321660D02*
D03*
X139685Y322299D02*
D03*
X179055Y173677D02*
D03*
X164291Y322299D02*
D03*
D36*
X665197Y58480D02*
D03*
X615197Y-41520D02*
D03*
X640197Y8480D02*
D03*
X715197Y58480D02*
D03*
X690197Y8480D02*
D03*
X665197Y-41520D02*
D03*
X715197Y-41520D02*
D03*
X565197Y-41520D02*
D03*
X740197Y8480D02*
D03*
X815197Y1358480D02*
D03*
X840197Y1308480D02*
D03*
X815197Y1258480D02*
D03*
X840197Y1208480D02*
D03*
X815197Y1158480D02*
D03*
X840197Y1108480D02*
D03*
X815197Y1058480D02*
D03*
X840197Y1008480D02*
D03*
X815197Y958480D02*
D03*
X840197Y908480D02*
D03*
X815197Y858480D02*
D03*
X840197Y808480D02*
D03*
X815197Y758480D02*
D03*
X840197Y708480D02*
D03*
X815197Y658480D02*
D03*
X840197Y608480D02*
D03*
X815197Y558480D02*
D03*
X840197Y508480D02*
D03*
X815197Y458480D02*
D03*
X840197Y408480D02*
D03*
X815197Y358480D02*
D03*
X840197Y308480D02*
D03*
X815197Y258480D02*
D03*
X840197Y208480D02*
D03*
X815197Y158480D02*
D03*
X840197Y108480D02*
D03*
X815197Y58480D02*
D03*
X840197Y8480D02*
D03*
X815197Y-41520D02*
D03*
X840197Y-91520D02*
D03*
X815197Y-141520D02*
D03*
X790197Y1408480D02*
D03*
X765197Y1358480D02*
D03*
X790197Y1308480D02*
D03*
X790197Y1208480D02*
D03*
X790197Y1108480D02*
D03*
X790197Y1008480D02*
D03*
X790197Y908480D02*
D03*
X790197Y808480D02*
D03*
X765197Y758480D02*
D03*
X790197Y708480D02*
D03*
X765197Y658480D02*
D03*
X790197Y608480D02*
D03*
X765197Y558480D02*
D03*
X790197Y508480D02*
D03*
X765197Y458480D02*
D03*
X790197Y408480D02*
D03*
X765197Y358480D02*
D03*
X790197Y308480D02*
D03*
X765197Y258480D02*
D03*
X790197Y208480D02*
D03*
X765197Y158480D02*
D03*
X790197Y108480D02*
D03*
X765197Y58480D02*
D03*
X790197Y8480D02*
D03*
X765197Y-41520D02*
D03*
X790197Y-91520D02*
D03*
X765197Y-141520D02*
D03*
X790197Y-191520D02*
D03*
X715197Y1458480D02*
D03*
X740197Y1408480D02*
D03*
X715197Y1358480D02*
D03*
X740197Y108480D02*
D03*
X740197Y-91520D02*
D03*
X715197Y-141520D02*
D03*
X740197Y-191520D02*
D03*
X715197Y-241520D02*
D03*
X665197Y1458480D02*
D03*
X690197Y1408480D02*
D03*
X665197Y1358480D02*
D03*
X690197Y-91520D02*
D03*
X665197Y-141520D02*
D03*
X690197Y-191520D02*
D03*
X665197Y-241520D02*
D03*
X615197Y1458480D02*
D03*
X640197Y1408480D02*
D03*
X615197Y1358480D02*
D03*
X640197Y-91520D02*
D03*
X615197Y-141520D02*
D03*
X640197Y-191520D02*
D03*
X615197Y-241520D02*
D03*
X565197Y1458480D02*
D03*
X590197Y1408480D02*
D03*
X565197Y1358480D02*
D03*
X590197Y-91520D02*
D03*
X565197Y-141520D02*
D03*
X590197Y-191520D02*
D03*
X565197Y-241520D02*
D03*
X515197Y1458480D02*
D03*
X540197Y1408480D02*
D03*
X515197Y1358480D02*
D03*
X540197Y-91520D02*
D03*
X515197Y-141520D02*
D03*
X540197Y-191520D02*
D03*
X515197Y-241520D02*
D03*
X465197Y1458480D02*
D03*
X490197Y1408480D02*
D03*
X465197Y1358480D02*
D03*
X490197Y-91520D02*
D03*
X465197Y-141520D02*
D03*
X490197Y-191520D02*
D03*
X465197Y-241520D02*
D03*
X415197Y1458480D02*
D03*
X440197Y1408480D02*
D03*
X415197Y1358480D02*
D03*
X440197Y-91520D02*
D03*
X415197Y-141520D02*
D03*
X440197Y-191520D02*
D03*
X415197Y-241520D02*
D03*
X365197Y1458480D02*
D03*
X390197Y1408480D02*
D03*
X365197Y1358480D02*
D03*
X390197Y-91520D02*
D03*
X365197Y-141520D02*
D03*
X390197Y-191520D02*
D03*
X365197Y-241520D02*
D03*
X315197Y1458480D02*
D03*
X340197Y1408480D02*
D03*
X315197Y1358480D02*
D03*
X340197Y-91520D02*
D03*
X315197Y-141520D02*
D03*
X340197Y-191520D02*
D03*
X315197Y-241520D02*
D03*
X265197Y1458480D02*
D03*
X290197Y1408480D02*
D03*
X265197Y1358480D02*
D03*
X265197Y158480D02*
D03*
X290197Y108480D02*
D03*
X290197Y-91520D02*
D03*
X265197Y-141520D02*
D03*
X290197Y-191520D02*
D03*
X265197Y-241520D02*
D03*
X215197Y1458480D02*
D03*
X240197Y1408480D02*
D03*
X215197Y1358480D02*
D03*
X215197Y858480D02*
D03*
X240197Y-91520D02*
D03*
X215197Y-141520D02*
D03*
X240197Y-191520D02*
D03*
X215197Y-241520D02*
D03*
X165197Y1458480D02*
D03*
X190197Y1408480D02*
D03*
X165197Y1358480D02*
D03*
X190197Y1308480D02*
D03*
X190197Y1208480D02*
D03*
X190197Y1108480D02*
D03*
X165197Y958480D02*
D03*
X190197Y908480D02*
D03*
X165197Y758480D02*
D03*
X190197Y708480D02*
D03*
X190197Y-91520D02*
D03*
X165197Y-141520D02*
D03*
X190197Y-191520D02*
D03*
X165197Y-241520D02*
D03*
X115197Y1458480D02*
D03*
X140197Y1408480D02*
D03*
X115197Y1358480D02*
D03*
X140197Y1308480D02*
D03*
X115197Y1158480D02*
D03*
X115197Y1058480D02*
D03*
X140197Y1008480D02*
D03*
X115197Y958480D02*
D03*
X140197Y908480D02*
D03*
X140197Y808480D02*
D03*
X115197Y758480D02*
D03*
X115197Y658480D02*
D03*
X140197Y-91520D02*
D03*
X115197Y-141520D02*
D03*
X140197Y-191520D02*
D03*
X115197Y-241520D02*
D03*
X65197Y1458480D02*
D03*
X90197Y1408480D02*
D03*
X65197Y1358480D02*
D03*
X90197Y1308480D02*
D03*
X90197Y1208480D02*
D03*
X65197Y1158480D02*
D03*
X90197Y1108480D02*
D03*
X65197Y1058480D02*
D03*
X90197Y1008480D02*
D03*
X65197Y858480D02*
D03*
X65197Y-141520D02*
D03*
X90197Y-191520D02*
D03*
X65197Y-241520D02*
D03*
X15197Y1458480D02*
D03*
X40197Y1408480D02*
D03*
X15197Y1358480D02*
D03*
X40197Y1308480D02*
D03*
X40197Y1208480D02*
D03*
X40197Y1108480D02*
D03*
X40197Y1008480D02*
D03*
X40197Y908480D02*
D03*
X15197Y-141520D02*
D03*
X40197Y-191520D02*
D03*
X15197Y-241520D02*
D03*
X-34803Y1458480D02*
D03*
X-9803Y1408480D02*
D03*
X-34803Y1358480D02*
D03*
X-9803Y1308480D02*
D03*
X-34803Y1058480D02*
D03*
X-34803Y958480D02*
D03*
X-9803Y908480D02*
D03*
X-34803Y758480D02*
D03*
X-9803Y708480D02*
D03*
X-34803Y658480D02*
D03*
X-9803Y608480D02*
D03*
X-34803Y558480D02*
D03*
X-34803Y458480D02*
D03*
X-34803Y-141520D02*
D03*
X-9803Y-191520D02*
D03*
X-34803Y-241520D02*
D03*
X-84803Y1458480D02*
D03*
X-59803Y1408480D02*
D03*
X-84803Y1358480D02*
D03*
X-59803Y1308480D02*
D03*
X-59803Y908480D02*
D03*
X-59803Y808480D02*
D03*
X-59803Y708480D02*
D03*
X-59803Y608480D02*
D03*
X-59803Y508480D02*
D03*
X-84803Y-141520D02*
D03*
X-59803Y-191520D02*
D03*
X-84803Y-241520D02*
D03*
X-134803Y1458480D02*
D03*
X-109803Y1408480D02*
D03*
X-134803Y1358480D02*
D03*
X-109803Y1308480D02*
D03*
X-134803Y-141520D02*
D03*
X-109803Y-191520D02*
D03*
X-134803Y-241520D02*
D03*
X-184803Y1458480D02*
D03*
X-159803Y1408480D02*
D03*
X-184803Y1358480D02*
D03*
X-159803Y1308480D02*
D03*
X-184803Y-141520D02*
D03*
X-159803Y-191520D02*
D03*
X-184803Y-241520D02*
D03*
X-234803Y1458480D02*
D03*
X-209803Y1408480D02*
D03*
X-234803Y1358480D02*
D03*
X-209803Y1308480D02*
D03*
X-234803Y-141520D02*
D03*
X-209803Y-191520D02*
D03*
X-234803Y-241520D02*
D03*
X-284803Y1458480D02*
D03*
X-259803Y1408480D02*
D03*
X-284803Y1358480D02*
D03*
X-259803Y1308480D02*
D03*
X-284803Y-141520D02*
D03*
X-259803Y-191520D02*
D03*
X-284803Y-241520D02*
D03*
X-334803Y1458480D02*
D03*
X-309803Y1408480D02*
D03*
X-334803Y1358480D02*
D03*
X-309803Y1308480D02*
D03*
X-309803Y-91520D02*
D03*
X-334803Y-141520D02*
D03*
X-309803Y-191520D02*
D03*
X-334803Y-241520D02*
D03*
X-384803Y1458480D02*
D03*
X-359803Y1408480D02*
D03*
X-384803Y1358480D02*
D03*
X-359803Y1308480D02*
D03*
X-359803Y-91520D02*
D03*
X-384803Y-141520D02*
D03*
X-359803Y-191520D02*
D03*
X-384803Y-241520D02*
D03*
X-434803Y1458480D02*
D03*
X-409803Y1408480D02*
D03*
X-434803Y1358480D02*
D03*
X-409803Y1308480D02*
D03*
X-434803Y-41520D02*
D03*
X-409803Y-91520D02*
D03*
X-434803Y-141520D02*
D03*
X-409803Y-191520D02*
D03*
X-434803Y-241520D02*
D03*
X-484803Y1458480D02*
D03*
X-459803Y1408480D02*
D03*
X-484803Y1358480D02*
D03*
X-459803Y1308480D02*
D03*
X-484803Y-41520D02*
D03*
X-459803Y-91520D02*
D03*
X-484803Y-141520D02*
D03*
X-459803Y-191520D02*
D03*
X-484803Y-241520D02*
D03*
X-534803Y1458480D02*
D03*
X-509803Y1408480D02*
D03*
X-534803Y1358480D02*
D03*
X-509803Y1308480D02*
D03*
X-509803Y8480D02*
D03*
X-534803Y-41520D02*
D03*
X-509803Y-91520D02*
D03*
X-534803Y-141520D02*
D03*
X-509803Y-191520D02*
D03*
X-534803Y-241520D02*
D03*
X-584803Y1458480D02*
D03*
X-559803Y1408480D02*
D03*
X-584803Y1358480D02*
D03*
X-559803Y1308480D02*
D03*
X-584803Y58480D02*
D03*
X-559803Y8480D02*
D03*
X-584803Y-41520D02*
D03*
X-559803Y-91520D02*
D03*
X-584803Y-141520D02*
D03*
X-559803Y-191520D02*
D03*
X-584803Y-241520D02*
D03*
X-634803Y1458480D02*
D03*
X-609803Y1408480D02*
D03*
X-634803Y1358480D02*
D03*
X-609803Y1308480D02*
D03*
X-634803Y758480D02*
D03*
X-634803Y658480D02*
D03*
X-634803Y558480D02*
D03*
X-634803Y458480D02*
D03*
X-634803Y358480D02*
D03*
X-634803Y258480D02*
D03*
X-634803Y158480D02*
D03*
X-609803Y108480D02*
D03*
X-634803Y58480D02*
D03*
X-609803Y8480D02*
D03*
X-634803Y-41520D02*
D03*
X-609803Y-91520D02*
D03*
X-634803Y-141520D02*
D03*
X-609803Y-191520D02*
D03*
X-634803Y-241520D02*
D03*
X-684803Y1458480D02*
D03*
X-659803Y1408480D02*
D03*
X-684803Y1358480D02*
D03*
X-659803Y1308480D02*
D03*
X-684803Y1258480D02*
D03*
X-659803Y1208480D02*
D03*
X-684803Y1158480D02*
D03*
X-684803Y1058480D02*
D03*
X-684803Y958480D02*
D03*
X-659803Y908480D02*
D03*
X-684803Y858480D02*
D03*
X-659803Y808480D02*
D03*
X-684803Y758480D02*
D03*
X-659803Y708480D02*
D03*
X-684803Y658480D02*
D03*
X-659803Y608480D02*
D03*
X-684803Y558480D02*
D03*
X-659803Y508480D02*
D03*
X-684803Y458480D02*
D03*
X-659803Y408480D02*
D03*
X-684803Y358480D02*
D03*
X-659803Y308480D02*
D03*
X-684803Y258480D02*
D03*
X-659803Y208480D02*
D03*
X-684803Y158480D02*
D03*
X-659803Y108480D02*
D03*
X-684803Y58480D02*
D03*
X-659803Y8480D02*
D03*
X-684803Y-41520D02*
D03*
X-659803Y-91520D02*
D03*
X-684803Y-141520D02*
D03*
X-659803Y-191520D02*
D03*
X-684803Y-241520D02*
D03*
X-734803Y1458480D02*
D03*
X-709803Y1408480D02*
D03*
X-734803Y1358480D02*
D03*
X-709803Y1308480D02*
D03*
X-734803Y1258480D02*
D03*
X-709803Y1208480D02*
D03*
X-734803Y1158480D02*
D03*
X-709803Y1108480D02*
D03*
X-734803Y1058480D02*
D03*
X-709803Y1008480D02*
D03*
X-734803Y958480D02*
D03*
X-709803Y908480D02*
D03*
X-734803Y858480D02*
D03*
X-709803Y808480D02*
D03*
X-734803Y758480D02*
D03*
X-709803Y708480D02*
D03*
X-734803Y658480D02*
D03*
X-709803Y608480D02*
D03*
X-734803Y558480D02*
D03*
X-709803Y508480D02*
D03*
X-734803Y458480D02*
D03*
X-709803Y408480D02*
D03*
X-734803Y358480D02*
D03*
X-709803Y308480D02*
D03*
X-734803Y258480D02*
D03*
X-709803Y208480D02*
D03*
X-734803Y158480D02*
D03*
X-709803Y108480D02*
D03*
X-734803Y58480D02*
D03*
X-709803Y8480D02*
D03*
X-734803Y-41520D02*
D03*
X-709803Y-91520D02*
D03*
X-734803Y-241520D02*
D03*
X-759803Y1408480D02*
D03*
X-784803Y1358480D02*
D03*
X-759803Y1308480D02*
D03*
X-784803Y1258480D02*
D03*
X-759803Y1208480D02*
D03*
X-784803Y1158480D02*
D03*
X-759803Y1108480D02*
D03*
X-784803Y1058480D02*
D03*
X-759803Y1008480D02*
D03*
X-784803Y958480D02*
D03*
X-759803Y908480D02*
D03*
X-784803Y858480D02*
D03*
X-759803Y808480D02*
D03*
X-784803Y758480D02*
D03*
X-759803Y708480D02*
D03*
X-784803Y658480D02*
D03*
X-759803Y608480D02*
D03*
X-784803Y558480D02*
D03*
X-759803Y508480D02*
D03*
X-784803Y458480D02*
D03*
X-759803Y408480D02*
D03*
X-784803Y358480D02*
D03*
X-759803Y308480D02*
D03*
X-784803Y258480D02*
D03*
X-759803Y208480D02*
D03*
X-784803Y158480D02*
D03*
X-759803Y108480D02*
D03*
X-784803Y58480D02*
D03*
X-759803Y8480D02*
D03*
X-784803Y-41520D02*
D03*
X-759803Y-91520D02*
D03*
X-784803Y-141520D02*
D03*
X-809803Y1308480D02*
D03*
X-834803Y1258480D02*
D03*
X-809803Y1208480D02*
D03*
X-834803Y1158480D02*
D03*
X-809803Y1108480D02*
D03*
X-834803Y1058480D02*
D03*
X-809803Y1008480D02*
D03*
X-834803Y958480D02*
D03*
X-809803Y908480D02*
D03*
X-834803Y858480D02*
D03*
X-809803Y808480D02*
D03*
X-834803Y758480D02*
D03*
X-809803Y708480D02*
D03*
X-834803Y658480D02*
D03*
X-809803Y608480D02*
D03*
X-834803Y558480D02*
D03*
X-809803Y508480D02*
D03*
X-834803Y458480D02*
D03*
X-809803Y408480D02*
D03*
X-834803Y358480D02*
D03*
X-809803Y308480D02*
D03*
X-834803Y258480D02*
D03*
X-809803Y208480D02*
D03*
X-834803Y158480D02*
D03*
X-809803Y108480D02*
D03*
X-834803Y58480D02*
D03*
X-809803Y8480D02*
D03*
X-834803Y-41520D02*
D03*
X-809803Y-91520D02*
D03*
D37*
X-507000Y196346D02*
X-472520Y161866D01*
X-507000Y196346D02*
X-507000Y401000D01*
X-463126Y444874D01*
X-377323Y444874D01*
X-529126Y544874D02*
X-377323Y544874D01*
X-578000Y496000D02*
X-529126Y544874D01*
X-578000Y130000D02*
X-578000Y496000D01*
X-578000Y130000D02*
X-526000Y78000D01*
X-460913Y78000D01*
X-429213Y109701D01*
X13748Y1146252D02*
X14000Y1146000D01*
X-71000Y-54000D02*
X0Y-54000D01*
X-137000Y12000D02*
X-71000Y-54000D01*
X-137000Y12000D02*
X-137000Y172000D01*
X-209874Y244874D02*
X-137000Y172000D01*
X-377323Y244874D02*
X-209874Y244874D01*
X-508000Y1251000D02*
X11000Y1251000D01*
X-543000Y1216000D02*
X-508000Y1251000D01*
X-543000Y1083000D02*
X-543000Y1216000D01*
X-543000Y1083000D02*
X-506252Y1046252D01*
X-378307Y1046252D01*
X-378307Y1146252D02*
X13748Y1146252D01*
X232000Y311000D02*
X232205Y311205D01*
X232205Y360685D01*
X-43016Y846252D02*
X-43000Y846236D01*
X-378307Y846252D02*
X-43016Y846252D01*
D38*
X174669Y76000D02*
D03*
X133331Y76000D02*
D03*
D39*
X-378307Y746252D02*
D03*
X-378307Y846252D02*
D03*
X-378307Y946252D02*
D03*
X-378307Y1046252D02*
D03*
X-378307Y1146252D02*
D03*
X-377323Y544874D02*
D03*
X-377323Y444874D02*
D03*
X-377323Y344874D02*
D03*
X-377323Y244874D02*
D03*
X-377323Y144874D02*
D03*
D40*
X232205Y360685D02*
D03*
X200540Y360685D02*
D03*
D41*
X104252Y483716D02*
D03*
X139685Y483716D02*
D03*
D42*
X200709Y423677D02*
D03*
X228268Y423677D02*
D03*
X113110Y446315D02*
D03*
X140669Y446315D02*
D03*
D43*
X139685Y374465D02*
D03*
X139685Y346906D02*
D03*
D44*
X154449Y126433D02*
D03*
X115866Y126433D02*
D03*
D45*
X95394Y720921D02*
D03*
D46*
X35354Y778992D02*
D03*
X35354Y662850D02*
D03*
M02*
