M48
;Layer_Color=9474304
;FILE_FORMAT=2:5
INCH,TZ
;TYPE=PLATED
T01F00S00C0.00600
T02F00S00C0.01000
T03F00S00C0.02500
%
T01
X-42921Y10970
X-47252Y16187
X-38976Y20079
X-37008
X-35039
X-26748Y16187
X-31079Y10970
X-23228Y8563
X0Y1181
Y-5400
X-4634Y-11634
X4673
X10300Y8900
X11516Y11713
Y13583
X17906Y17368
X14953Y24356
X11803
X13969Y32230
X16429
X19515Y32166
X23200Y31100
X39048Y16187
X43379Y10970
X49311Y14665
X49327Y21600
X49374Y23121
X51342
X51295Y21600
X47358
X47405Y23121
X59552Y16187
X55221Y10970
X35594Y8563
X-4300Y84624
X1400Y114600
X1100Y125100
T02
X71520Y-24152
X74020Y-19152
X79020
X81520Y-14152
X76520
X71520
X74020Y-9152
X79020
X84020
X81520Y-4152
X76520
X71520
X74020Y848
X79020
X84020
X81520Y5848
X76520
X71520
X74020Y10848
X79020
X84020
X81520Y15848
X76520
X79020Y20848
X84020
X81520Y25848
X76520
X79020Y30848
X84020
X81520Y35848
X76520
X79020Y40848
X84020
X66520Y5848
X64020Y848
X69020
X66520Y-4152
X61520
X56520
X59020Y-9152
X64020
X69020
X66520Y-14152
X61520
X56520
X51520
X46520
X41520
X36520
X31520
X26520
X21520
X16520
X11520
X6520
X1520
X-3480
X-8480
X-13480
X-18480
X-23480
X-28480
X-33480
X-38480
X-43480
X-48480
X-53480
X-58480
X-63480
X-68480
X-65980Y-9152
X-60980
X-55980
X-50980
X-45980
X-40980
X-35980
X-30980
Y-19152
X-25980
X-20980
X-15980
X-10980
X-5980
X-980
X4020
X9020
X14020
X19020
X24020
X29020
X34020
X39020
X44020
X49020
X54020
X59020
X64020
X69020
X66520Y-24152
X61520
X56520
X51520
X46520
X41520
X36520
X31520
X26520
X21520
X16520
X11520
X6520
X1520
X-3480
X-8480
X-13480
X-18480
X-23480
X-28480
X-33480
X-38480
X-43480
X-48480
X-53480
X-58480
X-63480
X-68480
X-73480
X-65980Y-19152
X-60980
X-55980
X-50980
X-45980
X-40980
X-35980
X-43480Y-4152
X-48480
X-53480
X-58480
X-63480
X-68480
X-73480
X-78480
X-83480
X-80980Y848
X-75980
X-70980
X-65980
X-60980
X-55980
X-50980
X-58480Y5848
X-63480
X-68480
X-73480
X-78480
X-83480
X-80980Y10848
X-75980
X-70980
X-65980
X-60980
X-63480Y15848
X-68480
X-73480
X-78480
X-83480
X-80980Y20848
X-75980
X-70980
X-65980
X-63480Y25848
X-68480
X-73480
X-78480
X-83480
X-80980Y30848
X-75980
X-70980
X-65980
X-63480Y35848
X-68480
X-73480
X-78480
X-83480
X-80980Y40848
X-75980
X-70980
X-65980
X-70980Y-9152
X-75980
X-80980
X-78480Y-14152
X14020Y-9152
X19020
X24020
X29020
X34020
X39020
X44020
X49020
X54020
X29020Y10848
X26520Y15848
X-3480Y45848
X-5980Y50848
X-3480Y55848
X-980Y60848
X-5980
X-3480Y65848
X-980Y70848
X-5980
X-3480Y75848
X-5980Y80848
Y90848
X-980
X4020
X6520Y85848
X14020Y90848
X19020
X21520Y85848
X14020Y80848
X16520Y75848
X11520
Y65848
X19020Y70848
X16520Y95848
X11520
X14020Y100848
X9020
X4020
X6520Y105848
X11520
X9020Y110848
X4020
X6520Y115848
X11520
X9020Y120848
X4020
Y130848
X9020
X14020
X19020
X21520Y135848
X26520
X31520
X36520
X41520
X46520
X51520
X56520
X61520
X66520
X69020Y140848
X64020
X59020
X54020
X49020
X44020
X39020
X34020
X29020
X24020
X19020
X14020
X9020
X4020
X-980
X-5980
X-10980
X-15980
X-20980
X-25980
X-30980
X-35980
X-40980
X-45980
X-50980
X-55980
X-60980
X-65980
X-70980
X-75980
X-73480Y145848
X-68480
X-63480
X-58480
X-53480
X-48480
X-43480
X-38480
X-33480
X-28480
X-23480
X-18480
X-13480
X-8480
X-3480
X1520
X6520
X11520
X16520
X21520
X26520
X31520
X36520
X41520
X46520
X51520
X56520
X61520
X66520
X16520Y135848
X11520
X6520
X1520
X-3480
X-8480
X-13480
X-18480
X-23480
X-28480
X-33480
X-38480
X-43480
X-48480
X-53480
X-58480
X-63480
X-68480
X-73480
X-78480
X-75980Y130848
X-70980
X-65980
X-60980
X-55980
X-50980
X-45980
X-40980
X-35980
X-30980
X-25980
X-20980
X-15980
X-10980
X-5980
X-980
X-3480Y105848
Y95848
X19020Y110848
Y120848
X-65980
X-70980
X-75980
X-80980
X-78480Y125848
X-73480
X-68480
Y115848
X-73480
X-78480
X-83480
X-80980Y110848
X-75980
X-70980
X-68480Y105848
X-73480
X-78480
X-83480
X-80980Y100848
X-75980
X-70980
X-68480Y95848
X-73480
X-78480
X-83480
X-80980Y90848
X-75980
X-70980
X-65980
X-68480Y85848
X-73480
X-78480
X-83480
X-80980Y80848
X-75980
X-70980
X-65980
X-63480Y75848
X-68480
X-73480
X-78480
X-83480
X-80980Y70848
X-75980
X-70980
X-65980
X-63480Y65848
X-68480
X-73480
X-78480
X-83480
X-80980Y60848
X-75980
X-70980
X-65980
X-63480Y55848
X-68480
X-73480
X-78480
X-83480
X-80980Y50848
X-75980
X-70980
X-65980
X-63480Y45848
X-68480
X-73480
X-78480
X-83480
Y125848
X-80980Y130848
X71520Y135848
X76520
X81520
X84020Y130848
X79020
X81520Y125848
X84020Y120848
X79020
X81520Y115848
X84020Y110848
X79020
X81520Y105848
X84020Y100848
X79020
X81520Y95848
X84020Y90848
X79020
X81520Y85848
X84020Y80848
X79020
X81520Y75848
X76520
X79020Y70848
X84020
X81520Y65848
X76520
X79020Y60848
X84020
X81520Y55848
X76520
X79020Y50848
X84020
X81520Y45848
X76520
X79020Y140848
X74020
X71520Y145848
T03
X-71653Y-18110
M30
